<svg width="48" height="48" viewBox="0 0 48 48" fill="none" xmlns="http://www.w3.org/2000/svg">
<path fill-rule="evenodd" clip-rule="evenodd" d="M39.5 0H8.5C3.8 0 0 3.89744 0 8.71795V39.2821C0 44.1026 3.8 48 8.5 48H39.5C44.2 48 48 44.1026 48 39.2821V8.71795C48 3.89744 44.2 0 39.5 0ZM35.3403 17.9739C34.6754 17.993 34.0306 17.7443 33.547 17.3043C33.0836 16.826 32.8418 16.1947 32.8619 15.5443C32.8418 14.8939 33.1037 14.2817 33.5873 13.8417C34.0709 13.4017 34.7157 13.1721 35.3806 13.1721C36.1664 13.1721 36.7709 13.4017 37.2142 13.8417C37.6574 14.3008 37.8992 14.913 37.8791 15.5443C37.8992 16.1947 37.6574 16.826 37.1739 17.3043C36.7104 17.7634 36.0254 18.0121 35.3403 17.9739ZM33.0836 34.5791V19.8486C33.0836 19.6573 33.1642 19.5808 33.3455 19.5808H37.3351C37.5164 19.5808 37.597 19.6765 37.597 19.8486V34.5791C37.597 34.7895 37.5164 34.8852 37.3351 34.8852H33.3858C33.1843 34.8852 33.0836 34.7704 33.0836 34.5791ZM24.5604 30.1026H17.0649L15.5336 34.5982C15.4933 34.7704 15.3321 34.8852 15.1507 34.866H11.3627C11.141 34.866 11.0806 34.7513 11.141 34.5217L17.6291 16.7878C17.6467 16.7321 17.6643 16.6748 17.6824 16.6159L17.6825 16.6156C17.7265 16.4722 17.7735 16.3191 17.8306 16.1565C17.9112 15.7547 17.9515 15.3339 17.9515 14.913C17.9313 14.8173 18.0119 14.7217 18.1127 14.7026H23.3313C23.4925 14.7026 23.5731 14.7599 23.5933 14.8556L30.9477 34.5599C31.0082 34.7704 30.9477 34.866 30.7463 34.866H26.5351C26.394 34.8852 26.253 34.7895 26.2127 34.6556L24.5604 30.1026ZM18.2336 26.2191H23.3515C23.2306 25.8173 23.0694 25.3391 22.888 24.8417C22.7067 24.3252 22.5254 23.7704 22.344 23.1965C22.2433 22.8999 22.1476 22.6082 22.0519 22.3165C21.9561 22.0247 21.8604 21.733 21.7597 21.4365C21.5582 20.8434 21.3769 20.2886 21.2157 19.7339C21.1443 19.4968 21.0769 19.2673 21.0117 19.0452C20.9296 18.7655 20.851 18.4976 20.7724 18.2417H20.7321C20.5507 19.0643 20.3291 19.8869 20.047 20.7095C19.9319 21.0593 19.8167 21.4146 19.7005 21.7734C19.5116 22.3565 19.3197 22.9486 19.1201 23.5408C18.838 24.5165 18.5358 25.4156 18.2336 26.2191Z" fill="white"/>
</svg>
