<svg width="48" height="48" viewBox="0 0 48 48" fill="none" xmlns="http://www.w3.org/2000/svg">
<path fill-rule="evenodd" clip-rule="evenodd" d="M0 24C0 10.7452 10.7452 0 24 0C37.2548 0 48 10.7452 48 24C48 37.2548 37.2548 48 24 48C10.7452 48 0 37.2548 0 24ZM33.0317 31.9656V31.9692C33.0137 32.0034 33.0065 32.0286 33.0065 32.0466C32.9885 32.0826 32.9957 32.115 33.0317 32.151C33.0677 32.187 33.1343 32.205 33.2424 32.205C33.6078 32.1528 34.0093 32.1024 34.4485 32.0484C34.8482 32.0124 35.1974 31.9944 35.4926 31.9944C36.2973 31.9944 36.7852 32.1006 36.9598 32.3076C37.0282 32.3941 37.0642 32.5345 37.0642 32.7271C37.0642 33.3212 36.7438 34.3761 36.0957 35.8955C36.0435 36.0341 36.0669 36.1295 36.1749 36.1835C36.2073 36.1997 36.2433 36.2087 36.2793 36.2087C36.3495 36.2087 36.427 36.1763 36.517 36.1043C37.1074 35.5984 37.5701 34.9288 37.9031 34.1007C38.2344 33.2726 38.4 32.5525 38.4 31.9404V31.7568C38.4 31.5479 38.3676 31.3913 38.2956 31.2887C38.1408 31.0943 37.6673 30.9647 36.8806 30.8927C36.7258 30.8585 36.5584 30.8477 36.3837 30.8657C35.7555 30.8837 35.1092 30.9809 34.4485 31.1537C34.0453 31.2581 33.6258 31.4597 33.1883 31.755C33.1217 31.8252 33.0677 31.8936 33.0317 31.9656ZM9.65401 31.5209C9.618 31.5731 9.6 31.6236 9.6 31.6776C9.6 31.764 9.65401 31.854 9.76022 31.9386C11.6811 33.6668 13.8521 35.008 16.2824 35.9585C18.7073 36.909 21.2817 37.3861 24.0054 37.3861C25.7696 37.3861 27.5752 37.1394 29.4241 36.6534C31.2747 36.1637 32.9507 35.4742 34.4503 34.5831C34.94 34.2879 35.3414 34.0251 35.6565 33.7982C35.8995 33.6236 35.9481 33.431 35.8005 33.2222C35.6511 33.0115 35.4458 32.9611 35.183 33.0655C35.1128 33.0997 34.9958 33.1501 34.8302 33.2222L34.4521 33.3788C31.1163 34.6533 27.7373 35.2924 24.3168 35.2924C19.1844 35.2924 14.4354 34.0251 10.0717 31.4939C9.87904 31.3715 9.74042 31.3805 9.65401 31.5209ZM17.5318 24.059H17.5282C17.5282 25.5784 17.9602 26.7539 18.8244 27.582C19.6885 28.4102 20.7938 28.8242 22.1368 28.8242C23.0099 28.8242 23.7444 28.7378 24.3384 28.5614C25.28 28.2985 26.2395 27.6361 27.2188 26.5703C27.289 26.6585 27.4114 26.8278 27.5878 27.0834C27.7607 27.3372 27.8867 27.5046 27.9659 27.5947C28.0433 27.6811 28.1747 27.8215 28.3583 28.0123C28.542 28.2049 28.7544 28.4065 28.9992 28.6154C29.2963 28.7378 29.5501 28.7198 29.7589 28.5614C29.8813 28.457 30.6662 27.7783 32.1172 26.5181C32.2576 26.4137 32.326 26.2913 32.326 26.1527C32.326 26.0303 32.2738 25.8898 32.1694 25.7332L31.5681 24.9339C31.4457 24.7683 31.3161 24.4983 31.1901 24.1202C31.0569 23.7476 30.9921 23.3335 30.9921 22.8781V16.5413C30.9921 16.4729 30.9849 16.2496 30.9669 15.8752C30.9489 15.5007 30.9237 15.2541 30.8877 15.1407C30.8553 15.0273 30.8012 14.8221 30.7292 14.5286C30.6608 14.2298 30.5852 14.0029 30.4952 13.8445C30.4106 13.6861 30.29 13.5097 30.1406 13.3081C29.9911 13.1082 29.8309 12.9192 29.6581 12.7446C28.5384 11.7149 26.9848 11.2 24.9955 11.2H24.342C22.7902 11.2864 21.4311 11.7059 20.2699 12.4566C19.1106 13.2073 18.3815 14.3594 18.0845 15.913C18.0665 15.9832 18.0575 16.0426 18.0575 16.0966C18.0575 16.3414 18.2069 16.4981 18.5021 16.5701L21.5139 16.9373C21.7929 16.8851 21.9675 16.6835 22.0396 16.3342C22.1602 15.7762 22.4302 15.3387 22.8497 15.0237C23.2691 14.7068 23.7678 14.5268 24.3438 14.4728H24.5473C25.334 14.4728 25.91 14.7356 26.2755 15.2613C26.5185 15.643 26.6445 16.3954 26.6445 17.5116V17.9562C25.5788 18.0427 24.8083 18.1111 24.3402 18.1651C22.9613 18.3397 21.8001 18.6277 20.8586 19.0292C19.8271 19.4666 19.017 20.1129 18.4229 20.968C17.8288 21.8231 17.5318 22.8529 17.5318 24.059Z" fill="white"/>
<path fill-rule="evenodd" clip-rule="evenodd" d="M22.036 23.5333C22.036 24.2138 22.2052 24.7575 22.5454 25.1715C22.8875 25.5802 23.3429 25.7836 23.919 25.7836C23.973 25.7836 24.045 25.7764 24.1422 25.7602C24.2376 25.7422 24.3042 25.7332 24.3402 25.7332C25.0711 25.5406 25.64 25.0707 26.0415 24.32C26.2323 23.987 26.3763 23.6252 26.4735 23.2327C26.5689 22.8421 26.6211 22.5234 26.6301 22.2786C26.6391 22.0338 26.6427 21.6305 26.6427 21.0724V20.419C25.6292 20.419 24.8605 20.491 24.3384 20.6296C22.8011 21.0652 22.0342 22.0338 22.0342 23.5351L22.036 23.5333Z" fill="white"/>
</svg>
