<svg width="48" height="48" viewBox="0 0 48 48" fill="none" xmlns="http://www.w3.org/2000/svg">
<path fill-rule="evenodd" clip-rule="evenodd" d="M24 48C37.2548 48 48 37.2548 48 24C48 10.7452 37.2548 0 24 0C10.7452 0 0 10.7452 0 24C0 37.2548 10.7452 48 24 48ZM24.0372 17.9134C25.3782 16.0832 27.5014 15 29.8109 15C33.7593 15 37 18.2496 37 22.2462C37 28.7827 28.2837 37 24 37C19.7163 37 11 28.7827 11 22.2462C11 18.2496 14.2407 15 18.2264 15C20.4986 15 22.659 16.0832 24.0372 17.9134Z" fill="white"/>
</svg>
