<svg width="48" height="48" viewBox="0 0 48 48" fill="none" xmlns="http://www.w3.org/2000/svg">
<path fill-rule="evenodd" clip-rule="evenodd" d="M24.6999 8.29504C34.5966 8.29504 41.2692 19.7347 42.111 32.1547C42.1338 32.4919 42.056 32.8283 41.8873 33.1211C39.1299 37.9075 32.9957 40.2187 25.1756 40.3024L24.7312 40.3048C18.7235 40.4151 12.9677 37.8937 8.97559 33.4028C8.55658 32.9314 8.432 32.2673 8.65169 31.6761L8.80706 31.2746C8.92852 30.9681 9.0685 30.6278 9.22546 30.2619C9.67463 29.2149 10.1723 28.1668 10.7086 27.1806C12.1204 24.584 13.5177 22.8477 15.1696 22.2366C15.5527 22.0948 15.9473 22.0178 16.3599 22.015C17.8708 22.015 18.8469 22.6927 20.4119 24.321L21.3076 25.2621C21.544 25.5061 21.6605 25.6152 21.8114 25.7432L21.9599 25.864L22.0207 25.8026C22.234 25.5754 22.4831 25.2621 22.7564 24.876L22.895 24.6769C23.221 24.2014 23.5685 23.6442 23.9297 23.0231C24.3997 22.2146 24.8674 21.3426 25.3092 20.4699L25.6321 19.8222L25.8761 19.3164C26.2758 18.4638 27.2909 18.0966 28.1436 18.4962C28.9488 18.8737 29.3211 19.8002 29.0233 20.6202L28.9419 20.8099L28.586 21.5421C28.5118 21.6918 28.4336 21.8482 28.3515 22.0102C27.882 22.9375 27.3843 23.8655 26.8776 24.737C26.4769 25.4264 26.0858 26.0533 25.7075 26.6051C24.4418 28.4514 23.4535 29.425 22.0899 29.425C20.7048 29.425 20.1769 29.0253 18.3582 27.1102L18.1507 26.8911C17.1969 25.8818 16.6678 25.4713 16.4135 25.4287L16.3764 25.4255L16.3527 25.4347C15.7479 25.6585 14.7297 26.9237 13.7044 28.8095C13.3198 29.5167 12.9524 30.2699 12.6106 31.0329L12.2379 31.891L12.3627 32.0159C15.5387 35.1166 19.8058 36.8746 24.2915 36.8977L24.6999 36.895C31.2329 36.895 36.2105 35.2267 38.5064 32.0744L38.6669 31.843L38.6494 31.6297C37.7167 21.2027 32.2011 11.9284 24.9623 11.709L24.6999 11.705C16.9869 11.705 11.9101 17.2043 8.60782 26.5672C8.29461 27.4552 7.32081 27.9212 6.43278 27.608C5.54475 27.2948 5.07877 26.321 5.39198 25.4329C9.12076 14.8609 15.1822 8.29504 24.6999 8.29504Z" fill="white"/>
</svg>
