<svg width="48" height="48" viewBox="0 0 48 48" fill="none" xmlns="http://www.w3.org/2000/svg">
<path fill-rule="evenodd" clip-rule="evenodd" d="M0 24C0 10.7452 10.7452 0 24 0C37.2548 0 48 10.7452 48 24C48 37.2548 37.2548 48 24 48C10.7452 48 0 37.2548 0 24ZM27.5583 18.6699H34.3376V16.7276H27.5583V18.6699ZM33.74 20.3003C32.9242 19.9395 32.0076 19.7583 30.9886 19.7583C29.2742 19.7583 27.8819 20.2944 26.8057 21.3591C25.7325 22.4267 25.1951 23.9606 25.1951 25.9608C25.1951 28.0932 25.7882 29.6345 26.9818 30.5804C28.1694 31.5278 29.5436 32 31.1015 32C32.9875 32 34.455 31.4387 35.5026 30.3176C36.1739 29.6108 36.5532 28.9143 36.636 28.2313H33.5128C33.3321 28.5698 33.1214 28.8342 32.8821 29.0257C32.4471 29.3776 31.8796 29.5543 31.1858 29.5543C30.5265 29.5543 29.9651 29.4088 29.4985 29.1193C28.7278 28.6545 28.3244 27.8422 28.2732 26.6855H36.7971C36.8106 25.6891 36.7775 24.9229 36.6947 24.3942C36.5532 23.4899 36.2432 22.694 35.76 22.008C35.2302 21.2299 34.5574 20.6597 33.74 20.3003ZM22.9449 17.6631C22.1396 16.5821 20.7744 16.0282 18.8448 16H11.2V31.6065H18.3285C19.1323 31.6065 19.8758 31.5382 20.5637 31.3971C21.2516 31.2546 21.8461 30.9947 22.3504 30.6131C22.7989 30.2805 23.1722 29.8706 23.4702 29.3851C23.9413 28.6515 24.1761 27.8214 24.1761 26.8963C24.1761 25.9994 23.9699 25.2362 23.5605 24.6096C23.1466 23.9814 22.5385 23.5226 21.7317 23.2316C22.2631 22.9643 22.6649 22.6673 22.9389 22.3436C23.4281 21.7645 23.6704 20.9968 23.6704 20.0449C23.6704 19.1198 23.4281 18.3269 22.9449 17.6631Z" fill="white"/>
<path fill-rule="evenodd" clip-rule="evenodd" d="M14.3533 18.71H17.7971C18.5542 18.71 19.1774 18.7916 19.6681 18.9535C20.234 19.1881 20.517 19.6677 20.517 20.3968C20.517 21.0502 20.3017 21.5075 19.8743 21.7659C19.4438 22.0243 18.8854 22.1535 18.2005 22.1535H14.3533V18.71ZM29.1642 22.9078C29.5962 22.4683 30.2073 22.2485 30.99 22.2485C31.7125 22.2485 32.3161 22.4549 32.8068 22.8692C33.2914 23.2865 33.5654 23.8923 33.6211 24.6942H28.3484C28.4598 23.9428 28.7322 23.3474 29.1642 22.9078ZM14.3533 24.7358H18.2487C18.926 24.7417 19.4543 24.8308 19.8306 25.0001C20.5034 25.3045 20.8376 25.8613 20.8376 26.6751C20.8376 27.6343 20.4914 28.2817 19.7975 28.6233C19.4167 28.8059 18.8808 28.898 18.1945 28.898H14.3533V24.7358Z" fill="white"/>
</svg>
