<svg width="48" height="48" viewBox="0 0 48 48" fill="none" xmlns="http://www.w3.org/2000/svg">
<path fill-rule="evenodd" clip-rule="evenodd" d="M24.3591 0H24.5641L23.9158 0.0632384C27.9499 0.0853718 31.9888 1.0624 35.5272 3.0054C40.1158 5.49541 43.8481 9.51737 45.9597 14.2776C47.3404 17.3842 48.0681 20.7864 47.995 24.1871C48.014 29.7046 45.9342 35.1763 42.3561 39.3801C37.1891 40.0315 31.8379 40.4267 26.7472 39.0797C23.7267 38.3319 21.0416 36.3937 19.3224 33.8199C17.5763 30.7449 18.1737 26.489 20.8207 24.0986C22.6638 22.4354 25.3235 21.7224 27.7561 22.2631C29.909 22.701 31.822 24.097 32.9262 25.9831C34.0051 25.4187 35.076 24.84 36.1564 24.2788C35.3953 23.0045 34.4563 21.8204 33.2821 20.8987C31.3072 19.343 28.8031 18.4988 26.2927 18.4292C23.911 18.4008 21.523 19.1091 19.5639 20.4624C15.5854 23.1531 13.6168 28.492 14.9928 33.0911C15.8714 36.2119 18.1753 38.7762 20.8636 40.5152C23.0022 41.8828 25.4793 42.6242 27.9626 43.0716C31.3755 43.6724 34.8599 43.4511 38.2918 43.1602C37.947 43.5127 37.4291 43.4922 36.9762 43.5728C33.3139 44.1135 29.5372 44.1309 25.9178 43.2851C22.4461 42.4851 19.1397 40.7808 16.6738 38.1928C13.0496 34.2989 12.2012 27.9703 15.0484 23.4124C16.5356 20.9857 18.7171 18.8988 21.4292 17.9075C24.3909 16.8088 27.764 16.8198 30.7098 17.966C31.1944 16.8483 31.7219 15.7495 32.197 14.6286C27.3382 12.6524 21.5341 13.1646 17.1219 16.004C14.7068 17.5581 12.7191 19.7319 11.2733 22.1998C9.66215 25.0376 9.14101 28.4241 9.63356 31.6318C10.2834 35.9573 12.6587 40.0062 16.1415 42.678C17.8352 44.0092 19.8372 44.9056 21.898 45.5111C24.5609 46.2984 27.3398 46.6415 30.1124 46.7047C30.5048 46.711 30.8989 46.7268 31.2897 46.7758C30.732 47.0636 30.0854 46.9766 29.48 46.994C26.1863 47.062 22.8672 46.5529 19.7784 45.4051C17.4285 44.5245 15.2105 43.2108 13.4675 41.3958C11.6387 39.5888 10.1007 37.4498 9.20933 35.0309C8.16227 32.1678 7.83497 29.0201 8.39583 26.0178C9.07587 22.4465 11.1255 19.2355 13.8091 16.8103C17.0281 13.884 21.3864 12.2224 25.7494 12.2935C25.7509 11.0667 25.7478 9.83831 25.7525 8.61148C21.9869 8.61306 18.2198 9.59168 14.9642 11.4825C10.6615 13.9725 7.28045 17.9739 5.48663 22.5872C4.16947 26.0431 3.67692 29.8944 4.57145 33.5163C5.59467 37.9399 8.41808 41.8764 12.1996 44.3933C12.789 44.8234 13.4627 45.1221 14.0411 45.5696C13.7741 45.5522 13.5024 45.5206 13.2625 45.3941C12.0439 44.8139 10.9046 44.0819 9.82263 43.2788C7.87469 41.8132 6.03797 40.1548 4.64454 38.1454C2.90156 35.7376 1.52719 33.042 0.767718 30.1631C0.046376 27.5008 -0.117277 24.7151 0.0733866 21.9722C0.532567 16.091 3.31625 10.4375 7.67767 6.44557C11.2256 3.1635 15.7888 0.986518 20.5903 0.320935C21.8376 0.121734 23.1055 0.140705 24.3591 0Z" fill="white"/>
</svg>
