<svg width="48" height="48" viewBox="0 0 48 48" fill="none" xmlns="http://www.w3.org/2000/svg">
<path d="M17.3178 17.495C16.5097 18.3108 16.9206 19.8883 18.02 20.1913C18.2283 20.2487 19.6271 20.2823 21.383 20.272C24.2265 20.2553 24.4065 20.2434 24.7076 20.0526C25.2683 19.6973 25.5197 19.2551 25.5197 18.6241C25.5197 17.9255 25.252 17.4867 24.636 17.1754C24.2097 16.9601 24.1121 16.9538 21.2099 16.9538C17.9771 16.9538 17.8343 16.9736 17.3178 17.495Z" fill="white"/>
<path d="M16.8949 29.5236C16.9708 30.0301 17.4103 30.6013 17.8822 30.8069C18.1166 30.9091 19.3919 30.9915 23.8941 30.9388L29.0176 30.8788L30.0006 30.7189C30.9572 30.1771 31.1246 28.8576 30.3308 28.1164L30.3229 28.109C30.2469 28.0379 30.1813 27.9767 30.1095 27.924C29.661 27.5942 28.9696 27.5947 23.9575 27.5987L23.8726 27.5987C18.1108 27.6033 17.9052 27.6174 17.4367 28.0414C17.065 28.3778 16.8225 29.0411 16.8949 29.5236Z" fill="white"/>
<path fill-rule="evenodd" clip-rule="evenodd" d="M3.09641 46.7381C3.81127 47.2261 4.58636 47.5744 5.48461 47.8111C6.14355 47.9848 7.01181 47.9936 23.9175 47.9987C41.4023 48.0041 41.6702 48.0013 42.4403 47.8043C45.4508 47.0342 47.5431 44.6774 47.9136 41.6388C47.9927 40.9895 48.0148 35.7775 47.9908 23.3626C47.9589 6.85462 48.0067 5.60744 47.5239 4.61952C47.436 4.43974 47.3306 4.26855 47.2039 4.01552C46.169 1.94841 44.3806 0.580063 42.1055 0.114648C41.2651 -0.0572744 6.46129 -0.026959 5.68219 0.14637C2.97247 0.749205 0.871462 2.76993 0.19298 5.42583C0.00112562 6.17685 -0.00284766 6.56112 0.000644327 24.0368C0.00415663 41.6012 0.00732909 41.8926 0.203068 42.6243C0.394977 43.3417 0.865866 44.3761 1.27553 44.9801C1.61095 45.4746 2.49295 46.3262 3.09641 46.7381ZM30.7098 38.6226C32.8604 38.3292 34.5457 37.4672 36.1267 35.852C37.2704 34.6835 37.9864 33.4188 38.4542 31.7402C38.6486 31.0429 38.6649 30.7034 38.7005 26.6092C38.7274 23.519 38.705 22.0718 38.6245 21.7064C38.5079 21.1768 38.1773 20.685 37.8001 20.48C37.684 20.4169 36.9402 20.3365 36.1473 20.3013C34.8186 20.2423 34.6699 20.2164 34.2505 19.9706C33.5853 19.5808 33.4021 19.1598 33.4002 18.0168C33.3968 15.833 32.488 13.8055 30.6923 11.9757C29.413 10.672 27.9859 9.78963 26.3572 9.29519C25.9673 9.17683 25.0942 9.13655 22.1699 9.10199C17.5814 9.04777 16.5629 9.14183 15.0008 9.76403C12.1208 10.9111 10.0515 13.3287 9.29672 16.428C9.15495 17.0101 9.12743 17.9431 9.09394 23.3023C9.05198 30.0163 9.09826 31.0022 9.51778 32.3328C9.8644 33.432 10.2141 34.1057 10.9346 35.0618C12.307 36.8832 14.364 38.1987 16.4204 38.5702C17.3991 38.747 29.4732 38.7912 30.7098 38.6226Z" fill="white"/>
</svg>
