<svg width="48" height="48" viewBox="0 0 48 48" fill="none" xmlns="http://www.w3.org/2000/svg">
<path fill-rule="evenodd" clip-rule="evenodd" d="M24 0C10.7452 0 0 10.7452 0 24C0 37.2548 10.7452 48 24 48C37.2548 48 48 37.2548 48 24C48 10.7452 37.2548 0 24 0ZM13.1609 18.2205L23.6098 23.0096C23.8244 23.1079 24.1757 23.1079 24.3903 23.0096L34.8391 18.2205C35.0536 18.1221 35.0536 17.9612 34.8391 17.8628L24.3903 13.0738C24.1757 12.9754 23.8244 12.9754 23.6098 13.0738L13.1609 17.8628C12.9464 17.9612 12.9464 18.1221 13.1609 18.2205ZM32.3364 22.5504L34.8391 23.693C35.0536 23.791 35.0536 23.9514 34.8391 24.0494L24.3903 28.8201C24.1757 28.9181 23.8244 28.9181 23.6098 28.8201L13.1609 24.0494C12.9464 23.9514 12.9464 23.791 13.1609 23.693L15.6636 22.5504C15.8782 22.4524 16.2294 22.4524 16.4441 22.5504L23.6098 25.8221C23.8244 25.9201 24.1757 25.9201 24.3903 25.8221L31.5559 22.5504C31.7706 22.4524 32.1218 22.4524 32.3364 22.5504ZM32.3364 28.6569L34.8391 29.7995C35.0536 29.8975 35.0536 30.0578 34.8391 30.1559L24.3903 34.9265C24.1757 35.0245 23.8244 35.0245 23.6098 34.9265L13.1609 30.1559C12.9464 30.0578 12.9464 29.8975 13.1609 29.7995L15.6636 28.6569C15.8782 28.5589 16.2294 28.5589 16.4441 28.6569L23.6098 31.9286C23.8244 32.0265 24.1757 32.0265 24.3903 31.9286L31.5559 28.6569C31.7706 28.5589 32.1218 28.5589 32.3364 28.6569Z" fill="white"/>
</svg>
