<svg width="48" height="48" viewBox="0 0 48 48" fill="none" xmlns="http://www.w3.org/2000/svg">
<path fill-rule="evenodd" clip-rule="evenodd" d="M0 24C0 10.7452 10.7452 0 24 0C37.2548 0 48 10.7452 48 24C48 37.2548 37.2548 48 24 48C10.7452 48 0 37.2548 0 24ZM36.7636 20.3475C36.738 20.2692 36.7295 20.2437 36.7194 20.2181C36.6845 20.1414 36.6729 20.1181 36.659 20.0956C36.6148 20.0236 36.6 20.0019 36.5838 19.9809C36.5303 19.9151 36.5125 19.8957 36.4939 19.8771C36.4319 19.8182 36.4117 19.8011 36.3916 19.7849C36.3373 19.7446 36.3319 19.7392 36.3257 19.7353L24.9913 12.179C24.6333 11.9403 24.1675 11.9403 23.8087 12.179L12.4751 19.7353C12.4402 19.7601 12.4247 19.7725 12.4092 19.7849C12.3883 19.8011 12.3681 19.8182 12.3488 19.836C12.2875 19.8957 12.2697 19.9151 12.2534 19.9352C12.2007 20.0019 12.186 20.0236 12.1721 20.0461C12.1279 20.1181 12.1162 20.1414 12.1046 20.1662C12.0705 20.2437 12.062 20.2693 12.0535 20.2956C12.0295 20.3762 12.024 20.4064 12.0186 20.4366C12.0039 20.5281 12 20.5746 12 20.6219V28.1781C12 28.2246 12.0039 28.2711 12.0101 28.3176C12.024 28.3936 12.0294 28.423 12.0372 28.4525C12.062 28.53 12.0705 28.5563 12.0814 28.5827C12.1163 28.6578 12.1279 28.6811 12.1411 28.7051C12.186 28.7764 12.2007 28.7974 12.2162 28.8183C12.2697 28.8842 12.2875 28.9043 12.3061 28.9221C12.3681 28.9818 12.3883 28.9989 12.4092 29.0151C12.4634 29.0554 12.4689 29.0609 12.4751 29.0647L23.8087 36.621C23.9877 36.7403 24.1938 36.8 24.4 36.8C24.6061 36.8 24.8123 36.7403 24.9913 36.621L36.3257 29.0647C36.3598 29.0399 36.3753 29.0275 36.3916 29.0151C36.4117 28.9989 36.4319 28.9818 36.452 28.964C36.5125 28.9043 36.5303 28.8841 36.5473 28.8648C36.6 28.7973 36.6148 28.7764 36.6287 28.754C36.6729 28.6811 36.6845 28.6579 36.6954 28.6338C36.7295 28.5563 36.738 28.53 36.7465 28.5044C36.7713 28.423 36.7767 28.3936 36.7822 28.3633C36.7969 28.2711 36.8 28.2246 36.8 28.1781V20.6219C36.8 20.5746 36.7969 20.5281 36.7907 20.4832C36.7768 20.4064 36.7713 20.3762 36.7636 20.3475Z" fill="white"/>
<path fill-rule="evenodd" clip-rule="evenodd" d="M24.4 26.9211L20.6312 24.4L24.4 21.8789L28.1696 24.4L24.4 26.9211ZM25.4656 15.0574L33.8155 20.6234L30.0862 23.1181L25.4656 20.0275V15.0574ZM25.4656 33.7426V28.7725L30.0862 25.6826L33.8155 28.1766L25.4656 33.7426ZM34.6688 26.1833L32.0028 24.4L34.6688 22.6167V26.1833ZM23.3344 33.7426L14.9845 28.1766L18.7146 25.6826L23.3344 28.7725V33.7426ZM14.1313 22.6167L16.798 24.4L14.1313 26.1833V22.6167ZM23.3344 15.0574V20.0275L18.7146 23.1181L14.9845 20.6234L23.3344 15.0574Z" fill="white"/>
</svg>
