<svg width="48" height="48" viewBox="0 0 48 48" fill="none" xmlns="http://www.w3.org/2000/svg">
<path fill-rule="evenodd" clip-rule="evenodd" d="M24 48C10.7452 48 0 37.2548 0 24C0 10.7452 10.7452 0 24 0C37.2548 0 48 10.7452 48 24C48 37.2548 37.2548 48 24 48ZM35.76 12.24L30.6732 13.3079V20.9415C29.5142 19.4409 27.9044 18.7232 25.8117 18.7232C23.6225 18.7232 21.6586 19.5388 20.0488 21.1372C18.2459 22.8988 17.28 25.1497 17.28 27.6616C17.28 30.4019 18.3102 32.7506 20.3063 34.5448C21.8195 35.9149 23.6225 36.6 25.7152 36.6C27.7756 36.6 29.321 36.0454 30.8342 34.5448V36.5021H35.76V12.24Z" fill="white"/>
<path fill-rule="evenodd" clip-rule="evenodd" d="M26.842 31.9351C24.2342 31.9351 22.3669 30.0757 22.3669 27.629C22.3669 25.2802 24.2342 23.2903 26.6489 23.2903C29.0313 23.2903 30.8664 25.1824 30.8664 27.6942C30.8664 30.1083 29.0313 31.9351 26.842 31.9351Z" fill="white"/>
</svg>
