<svg width="48" height="48" viewBox="0 0 48 48" fill="none" xmlns="http://www.w3.org/2000/svg">
<path fill-rule="evenodd" clip-rule="evenodd" d="M0 24C0 10.7452 10.7452 0 24 0C37.2548 0 48 10.7452 48 24C48 37.2548 37.2548 48 24 48C10.7452 48 0 37.2548 0 24ZM36.8 23.9823C36.8 23.116 36.7119 22.2497 36.5388 21.4089C36.37 20.5863 36.12 19.7774 35.7925 19.0066C35.4725 18.2478 35.0756 17.5163 34.6119 16.8347C34.155 16.1569 33.6287 15.5227 33.0505 14.9429C32.4712 14.3662 31.8336 13.8426 31.1567 13.3845C30.4729 12.922 29.741 12.5256 28.9822 12.2036C28.209 11.8772 27.3996 11.6269 26.5777 11.4596C25.7339 11.2874 24.8664 11.2 23.9995 11.2C23.1319 11.2 22.2644 11.2874 21.4219 11.4596C20.5987 11.6269 19.7893 11.8771 19.0167 12.2036C18.258 12.5257 17.5254 12.922 16.8416 13.3845C16.1647 13.8426 15.5272 14.3662 14.949 14.9429C14.3703 15.5227 13.844 16.1569 13.3864 16.8347C12.9252 17.5163 12.5276 18.2477 12.2064 19.0066C11.8788 19.7774 11.6282 20.5863 11.4588 21.4089C11.2875 22.2497 11.2 23.116 11.2 23.9823C11.2 24.8479 11.2875 25.7123 11.4588 26.555C11.6282 27.3775 11.8788 28.1852 12.2063 28.9572C12.5276 29.7155 12.9251 30.4464 13.3864 31.1279C13.8439 31.8052 14.3702 32.4405 14.949 33.0197C15.5271 33.5964 16.1647 34.1213 16.8416 34.58C17.5253 35.0406 18.2579 35.4369 19.0167 35.7584C19.7892 36.0842 20.5987 36.3338 21.4218 36.5023C22.2643 36.6759 23.1319 36.7645 23.9994 36.7645C24.8663 36.7645 25.7339 36.6759 26.5776 36.5023C27.3995 36.3338 28.209 36.0842 28.9822 35.7584C29.741 35.4369 30.4729 35.0406 31.1566 34.58C31.8335 34.1212 32.4711 33.5964 33.0505 33.0197C33.6286 32.4405 34.1549 31.8052 34.6118 31.1279C35.0756 30.4464 35.4725 29.7156 35.7925 28.9572C36.12 28.1852 36.37 27.3776 36.5388 26.555C36.7119 25.7123 36.8 24.8479 36.8 23.9823Z" fill="white"/>
<path fill-rule="evenodd" clip-rule="evenodd" d="M26.3514 21.3671C30.6673 19.607 32.4205 17.0774 32.4412 17.0481C33.9749 18.9074 34.9019 21.2822 34.9269 23.8698C34.7687 23.8374 31.0692 23.0435 27.314 23.5154C27.2371 23.3282 27.1584 23.1409 27.0777 22.9499C26.8508 22.4175 26.6051 21.8877 26.3514 21.3671ZM30.1079 33.0347C29.9966 32.3768 29.414 29.1725 27.9802 25.238C31.5085 24.6731 34.5668 25.6399 34.7918 25.7123C34.3055 28.7544 32.5623 31.3807 30.1079 33.0347ZM25.932 25.7435C27.4702 29.7355 28.1052 33.0783 28.2671 34.032C26.9552 34.5893 25.5132 34.8971 23.9994 34.8971C21.4643 34.8971 19.1367 34.0276 17.2809 32.5865C17.3037 32.5371 19.4099 28.0124 25.8595 25.7673C25.8833 25.7586 25.9077 25.7516 25.932 25.7435ZM31.2186 15.7899C31.1916 15.8298 29.6347 18.1965 25.5101 19.7406C23.6407 16.3129 21.5874 13.593 21.4237 13.3733C22.2493 13.1748 23.1112 13.0675 23.9994 13.0675C26.7671 13.0675 29.294 14.0953 31.2186 15.7899ZM24.3 22.0799C24.6132 22.6928 24.9126 23.3145 25.187 23.9348C25.0432 23.976 24.8982 24.0185 24.7557 24.0659C18.8567 25.9707 15.8652 31.2702 15.869 31.2759C14.1276 29.3429 13.0682 26.7864 13.0682 23.9823C13.0682 23.8649 13.0738 23.7513 13.077 23.634C13.2707 23.6415 18.6716 23.7625 24.3 22.0799ZM19.3354 14.1091C19.4811 14.3032 21.5024 17.0425 23.3944 20.3991C18.146 21.7916 13.5907 21.7341 13.3026 21.7316C14.012 18.3513 16.2871 15.5465 19.3354 14.1091Z" fill="white"/>
</svg>
