<svg width="48" height="48" viewBox="0 0 48 48" fill="none" xmlns="http://www.w3.org/2000/svg">
<path fill-rule="evenodd" clip-rule="evenodd" d="M26.3153 15.974C25.5138 15.1726 24.6633 14.3132 23.9086 13.456C23.2029 14.2575 22.457 14.9878 21.7112 15.7336C21.5309 15.9117 21.3839 16.121 21.2771 16.3503C21.1123 16.711 21.0589 17.1139 21.1257 17.5058C21.1257 17.5458 21.1257 17.5859 21.1257 17.626C21.1947 17.8419 21.2971 18.0445 21.4307 18.2271C21.4529 18.2583 21.4708 18.2894 21.4863 18.3228C21.9761 18.9328 23.1383 20.0549 23.7884 20.6805L27.64 24.6924L28.7954 25.9124C29.7483 26.9009 30.6077 27.974 31.3624 29.1206C31.4537 29.2787 31.5984 29.3944 31.7721 29.4501H31.8522C32.0392 29.4189 32.1928 29.2854 32.2529 29.105C32.5023 28.2991 32.6292 27.462 32.6292 26.6182C32.6069 24.6657 31.988 22.7688 30.857 21.1792C29.5234 19.3158 28.0095 17.5904 26.3331 16.0297L26.3153 15.974Z" fill="white"/>
<path fill-rule="evenodd" clip-rule="evenodd" d="M27.3906 28.8913C26.4355 27.7269 25.5138 26.6605 24.0622 25.1132C22.8355 26.518 21.7112 27.6 20.7806 28.6998C19.142 30.4742 19.2511 33.2393 21.0255 34.8779C22.7999 36.5165 25.565 36.4074 27.2036 34.633C28.5951 33.128 28.7531 30.8572 27.5843 29.1718C27.5264 29.0716 27.4619 28.9781 27.3906 28.8913Z" fill="white"/>
<path fill-rule="evenodd" clip-rule="evenodd" d="M21.7268 23.2097C21.8337 23.0872 21.8337 22.9069 21.7268 22.7844L18.8949 19.8879L18.2849 19.3113C17.7951 19.8813 17.3364 20.4779 16.9134 21.1013C16.2277 22.0898 15.7179 23.1896 15.4062 24.3495C15.0656 25.6854 15.0967 27.0902 15.5019 28.4082L15.5576 28.5284C15.6288 28.6709 15.709 28.8067 15.798 28.938C15.798 28.938 16.1275 29.4679 16.4147 29.4924H16.5194C16.6173 29.4701 16.6975 29.4011 16.7353 29.3076C17.0025 28.7466 17.3364 28.2234 17.7305 27.7425L18.7657 26.4824L21.7268 23.2097Z" fill="white"/>
<path fill-rule="evenodd" clip-rule="evenodd" d="M24.0132 0.00891252C10.7598 0.00445983 0.0132431 10.7443 0.00879045 23.9956C0.00433776 37.2468 10.7442 47.9956 23.9954 48C37.2489 48.0045 47.9954 37.2646 47.9999 24.0134C47.9999 24.0111 47.9999 24.0089 47.9999 24.0045C47.9999 10.7555 37.2622 0.0133652 24.0132 0.00891252ZM23.8752 39.2238C16.9023 39.2059 11.2563 33.5533 11.2474 26.5803C11.2474 20.6516 15.2036 16.7043 18.6834 13.2156C21.0099 10.8891 23.2318 8.67385 23.8908 6.18034C24.5476 8.67607 26.7717 10.8891 29.0982 13.2156C32.5891 16.7065 36.5342 20.6516 36.5342 26.5803C36.5275 33.5644 30.8615 39.2238 23.8752 39.2238Z" fill="white"/>
</svg>
