<svg width="48" height="48" viewBox="0 0 48 48" fill="none" xmlns="http://www.w3.org/2000/svg">
<path fill-rule="evenodd" clip-rule="evenodd" d="M28.0409 44.3332C29.5307 44.918 32.4953 46.0179 33.139 45.7778C34.0072 45.4403 33.7898 38.3854 32.8155 38.1605C32.0354 37.9846 29.0484 40.1243 27.8714 40.9976C27.8256 40.8008 27.7819 40.6466 27.7469 40.5561C27.6573 40.3302 26.9658 40.2718 26.1815 40.3499C24.8636 37.0882 23.8901 33.356 24.4858 30.7104L24.4944 30.7165C25.3178 31.2989 30.8 33.1797 33.5198 33.1276C36.2429 33.0736 40.7147 31.3778 40.2237 30.019C39.7349 28.6597 35.2935 31.2182 30.661 30.7817C27.2304 30.4574 26.6249 28.8944 27.3846 27.7529C28.34 26.3181 30.0804 28.0251 32.9507 27.1517C35.8257 26.2805 39.8461 24.7213 41.3378 23.8722C44.7869 21.9169 39.8946 21.1058 38.7389 21.6484C37.6439 22.1628 33.8318 23.1412 32.0635 23.5752C33.0579 20.0203 30.6729 13.8358 28.0127 11.1295C27.1455 10.2476 25.8121 9.69237 24.3098 9.39948C23.732 8.59312 22.8001 7.82196 21.4806 7.10806C19.0175 5.7783 15.9701 5.23871 13.1366 5.73928C12.7467 5.79694 12.5318 5.94063 12.229 5.99098C12.5701 6.02175 13.8624 6.63531 14.6744 6.97258C14.2778 7.12592 13.7362 7.21755 13.3133 7.39359C13.1402 7.42289 12.9745 7.46741 12.8249 7.53565C12.4257 7.71964 12.127 8.41664 12.1298 8.7466C14.0684 8.54746 16.937 8.68353 19.0336 9.31936C17.5498 9.53161 16.1869 9.92417 15.2018 10.4527C15.1564 10.477 15.1114 10.5016 15.067 10.5266C14.949 10.5728 14.8408 10.6216 14.744 10.6733C11.5833 12.3668 10.1872 16.3221 11.0193 21.0617C11.7788 25.3748 14.8919 40.1135 16.3173 47.0445C7.13078 43.7583 0.545654 34.8566 0.545654 24.3909C0.545654 11.1317 11.1152 0.383057 24.1533 0.383057C37.1915 0.383057 47.761 11.1317 47.761 24.3909C47.761 35.6805 40.0983 45.1501 29.7735 47.7142C29.1412 46.4741 28.5425 45.3168 28.0409 44.3332Z" fill="white"/>
<path fill-rule="evenodd" clip-rule="evenodd" d="M15.7021 20.5069C15.7021 19.5245 16.4835 18.7294 17.4509 18.7294C18.4155 18.7294 19.1978 19.5245 19.1978 20.5069C19.1978 21.4898 18.4155 22.2839 17.4509 22.2839C16.4835 22.2844 15.7021 21.4898 15.7021 20.5069ZM17.7726 19.9146C17.7726 20.1694 17.9766 20.3769 18.2249 20.3764C18.4755 20.3764 18.679 20.1694 18.679 19.9146C18.679 19.6588 18.4755 19.4532 18.2249 19.4532C17.9761 19.4532 17.7726 19.6588 17.7726 19.9146ZM27.631 19.4527C27.631 18.6112 28.3053 17.9273 29.132 17.9273C29.9632 17.9273 30.6347 18.6112 30.6347 19.4527C30.6347 20.298 29.9632 20.9819 29.132 20.9819C28.3053 20.9819 27.631 20.298 27.631 19.4527ZM29.4117 18.9449C29.4117 19.165 29.5866 19.3401 29.7984 19.3401C30.0195 19.3401 30.1889 19.165 30.1889 18.9449C30.1889 18.7276 30.0195 18.5492 29.7984 18.5492C29.5866 18.5492 29.4117 18.7276 29.4117 18.9449ZM17.9475 15.3566C17.9475 15.3566 16.6303 14.7507 15.3495 15.5692C14.071 16.3869 14.1181 17.2228 14.1181 17.2228C14.1181 17.2228 13.4383 15.6819 15.2503 14.9267C17.0641 14.1715 17.9475 15.3566 17.9475 15.3566ZM30.0361 15.2346C30.0361 15.2346 29.0895 14.6845 28.3547 14.6939C26.845 14.7141 26.4338 15.3923 26.4338 15.3923C26.4338 15.3923 26.6872 13.7753 28.6178 14.0997C29.6646 14.2766 30.0361 15.2346 30.0361 15.2346Z" fill="white"/>
</svg>
