<svg width="48" height="48" viewBox="0 0 48 48" fill="none" xmlns="http://www.w3.org/2000/svg">
<path fill-rule="evenodd" clip-rule="evenodd" d="M15.965 28.5C15.965 29.655 16.1375 30.705 16.49 31.65C16.865 32.58 17.3525 33.4125 17.975 34.14C18.5975 34.8675 19.325 35.49 20.18 36.015C21.005 36.54 21.905 36.975 22.865 37.3125C23.8175 37.6575 24.815 37.9125 25.8275 38.0775C26.855 38.2425 27.8525 38.325 28.865 38.325C30.14 38.325 31.325 38.2275 32.45 38.025C33.575 37.815 34.67 37.5375 35.75 37.185C36.83 36.8325 37.8725 36.4125 38.915 35.9325C39.965 35.4525 41.03 34.9275 42.125 34.3425V44.5125C40.9025 45.1125 39.7025 45.615 38.5025 46.05C37.3025 46.47 36.1025 46.8375 34.88 47.13C33.6575 47.43 32.42 47.655 31.1525 47.79C29.885 47.925 28.5875 48 27.2375 48C25.4375 48 23.6975 47.79 22.025 47.3775C20.3525 46.965 18.785 46.3725 17.315 45.5925C15.845 44.8125 14.5025 43.8675 13.28 42.7575C12.05 41.6475 11.0075 40.395 10.13 39.0075C9.2525 37.62 8.5775 36.0975 8.09 34.4625C7.6175 32.8275 7.3775 31.0875 7.3775 29.2425C7.3775 27.27 7.6475 25.395 8.1875 23.6025C8.735 21.8025 9.5075 20.1675 10.5275 18.6675C11.54 17.1675 12.7775 15.8325 14.24 14.67C15.7025 13.5075 17.345 12.555 19.175 11.82C18.1775 12.8175 17.3975 13.995 16.85 15.3675C16.2875 16.7325 15.935 18.105 15.7775 19.4775H32.8625C32.8625 17.7525 32.69 16.2525 32.3375 14.9625C31.985 13.6725 31.4225 12.6 30.635 11.7525C29.855 10.8975 28.85 10.2525 27.6125 9.8325C26.375 9.405 24.8825 9.1875 23.135 9.1875C21.0725 9.1875 19.01 9.4875 16.9475 10.11C14.885 10.71 12.9275 11.5725 11.0675 12.66C9.2075 13.7625 7.4975 15.06 5.9375 16.545C4.3775 18.045 3.065 19.6575 2 21.405C2.225 19.38 2.675 17.43 3.2975 15.5775C3.92 13.725 4.745 12 5.735 10.4025C6.725 8.8275 7.8875 7.3875 9.215 6.0975C10.5425 4.8075 12.0125 3.6975 13.64 2.7975C15.2675 1.8975 16.9925 1.17 18.8675 0.6825C20.7425 0.255 22.7375 0 24.8375 0C26.0675 0 27.29 0.1125 28.5125 0.33C29.735 0.555 30.9275 0.855 32.09 1.245C34.4 2.04 36.4625 3.15 38.2775 4.56C40.0925 5.985 41.615 7.605 42.8525 9.4575C44.09 11.31 45.0275 13.3575 45.6725 15.585C46.3175 17.8125 46.6475 20.13 46.6475 22.5375V28.5H15.965Z" fill="white"/>
</svg>
