<svg width="48" height="48" viewBox="0 0 48 48" fill="none" xmlns="http://www.w3.org/2000/svg">
<path fill-rule="evenodd" clip-rule="evenodd" d="M6.75643 0H40.6083C43.3521 0 44.3648 1.01261 44.3648 3.75771V36.8816C44.3648 37.1922 44.3522 37.4808 44.3247 37.7481C44.3195 37.7981 44.3147 37.8479 44.3098 37.8976C44.2565 38.4447 44.204 38.983 43.6932 39.589C43.6389 39.6538 43.0699 40.0772 43.0699 40.0772C43.0146 40.1043 42.9625 40.1301 42.9122 40.155C42.6839 40.2681 42.4926 40.3629 42.2097 40.4767L25.5406 47.4605C24.6752 47.8572 24.3133 48.0118 23.6848 47.9993V47.9994H23.6823H23.6799V47.9993C23.0514 48.0118 22.6895 47.8572 21.8242 47.4605L5.15502 40.4767C4.87182 40.3627 4.68031 40.2678 4.45164 40.1545C4.40161 40.1298 4.3498 40.1041 4.29487 40.0772C4.29487 40.0772 3.72592 39.6538 3.67147 39.589C3.16065 38.983 3.10819 38.4447 3.05488 37.8976C3.05003 37.8479 3.04518 37.7981 3.03997 37.7481C3.01253 37.4808 3 37.1922 3 36.8816V3.75771C3 1.01261 4.01261 0 6.75643 0ZM35.5149 17.237V21.3911C35.5149 22.1273 35.1746 22.4689 34.4685 22.4689H33.9449C33.2125 22.4689 32.8722 22.1273 32.8722 21.3911V9.77003C32.8722 9.03387 33.2125 8.6923 33.9449 8.6923H34.416C35.1225 8.6923 35.4627 9.03387 35.4627 9.77003V13.3723H38.2097V9.61228C38.2097 7.32517 37.1108 6.22086 34.8349 6.22086H33.474C31.1981 6.22086 30.0726 7.35124 30.0726 9.63878V21.5224C30.0726 23.81 31.1981 24.9403 33.474 24.9403H34.8609C37.1374 24.9403 38.2622 23.81 38.2622 21.5224V17.237H35.5149ZM11.9021 16.6848H15.1987V14.1348H11.9021V8.92886H15.33V6.37884H9.1026V24.7827H15.3821V22.2326H11.9021V16.6848ZM28.593 24.7827H25.793V6.37881H28.593V24.7827ZM21.7307 14.5553C21.7307 15.2915 21.391 15.6335 20.6845 15.6335H19.533V8.85014H20.6845C21.391 8.85014 21.7307 9.1918 21.7307 9.92786V14.5553ZM21.129 6.37869H16.7335V24.7826H19.533V18.1044H21.129C23.4054 18.1044 24.5303 16.9741 24.5303 14.687V9.79662C24.5303 7.50908 23.4054 6.37869 21.129 6.37869ZM38.3333 33.3782L38.341 33.3017L38.3486 33.2177V33.1336V33.1183V33.0343L38.341 32.9503L38.3333 32.8739L38.3181 32.7975L38.3028 32.721L38.2875 32.6523L38.265 32.5835L38.2421 32.5148L38.2116 32.4537L38.1733 32.3848L38.1356 32.3237L38.0897 32.255L38.0443 32.1939L37.9909 32.1404L37.9379 32.0792L37.8768 32.0258L37.8161 31.9723L37.7553 31.9341L37.6942 31.8882L37.6336 31.8501L37.5653 31.8119L37.4965 31.7736L37.4205 31.7354L37.3446 31.7049L37.2686 31.6667L37.1846 31.6366L37.1163 31.6137L37.048 31.5907L36.9715 31.5678L36.9033 31.5449L36.8273 31.522L36.7513 31.499L36.6749 31.4838L36.5913 31.4609L36.5153 31.4379L36.4318 31.4227L36.3482 31.3997L36.2646 31.3768L36.1805 31.3539L36.1046 31.3386L36.0363 31.3156L35.9675 31.3004L35.9069 31.2775L35.8462 31.2622L35.7549 31.2317L35.6709 31.2011L35.5949 31.1705L35.5343 31.1323L35.4655 31.0941L35.4125 31.0406L35.3819 30.9948L35.3442 30.9107L35.3365 30.8115V30.7961L35.3442 30.7198L35.3742 30.651L35.4201 30.5822L35.4884 30.521L35.5419 30.4905L35.6026 30.4599L35.6709 30.4447L35.7473 30.4293L35.8309 30.4141H35.9221H35.9981L36.0664 30.4217L36.1428 30.4293L36.2188 30.437L36.2947 30.4523L36.3706 30.4676L36.4471 30.4829L36.523 30.5058L36.5989 30.5288L36.6826 30.5516L36.7437 30.5822L36.812 30.6051L36.8727 30.6356L36.9415 30.6662L37.0021 30.6968L37.0704 30.7273L37.1316 30.7656L37.1999 30.7961L37.261 30.842L37.3217 30.8801L37.39 30.9184L37.4511 30.9642L37.4965 30.9031L37.5347 30.842L37.58 30.7809L37.626 30.7198L37.6713 30.651L37.7096 30.5899L37.7553 30.5288L37.8008 30.4676L37.8389 30.4065L37.8844 30.3454L37.9302 30.2842L37.9685 30.2231L38.0138 30.1544L38.0597 30.0932L38.1051 30.0321L38.1433 29.971L38.1886 29.9098L38.128 29.864L38.0673 29.8182L38.0062 29.7723L37.9455 29.7342L37.8768 29.6883L37.8161 29.6501L37.7477 29.6119L37.679 29.5737L37.6183 29.5431L37.5499 29.5049L37.4736 29.4743L37.4052 29.4437L37.337 29.4132L37.2686 29.3903L37.1923 29.3598L37.1239 29.3444L37.0556 29.3215L36.9792 29.2986L36.9109 29.2833L36.8349 29.268L36.759 29.2527L36.6902 29.2375L36.6142 29.2222L36.5306 29.2146L36.4547 29.1993L36.3706 29.1916H36.2947L36.2111 29.184L36.1275 29.1764H36.044H35.9603H35.8763H35.8003L35.7244 29.184L35.6485 29.1916L35.572 29.1993L35.4961 29.2069L35.4277 29.2222L35.3518 29.2375L35.2831 29.2527L35.2147 29.268L35.154 29.2833L35.0852 29.3063L35.0093 29.3368L34.9334 29.3598L34.8646 29.3903L34.7963 29.4285L34.728 29.4591L34.6592 29.4972L34.5986 29.5354L34.5378 29.5813L34.4767 29.6271L34.4237 29.6653L34.3626 29.7188L34.3095 29.78L34.2561 29.8335L34.2031 29.8946L34.1572 29.9557L34.1117 30.0168L34.0736 30.0855L34.0358 30.1544L34.0053 30.2231L33.9747 30.2919L33.9446 30.3606L33.9294 30.4293L33.9064 30.4982L33.8911 30.567L33.8758 30.6356L33.8682 30.7121L33.8606 30.7809L33.8529 30.8572V30.9337V30.9489V31.033L33.8606 31.117L33.8682 31.1934L33.8758 31.2698L33.8911 31.3386L33.9064 31.415L33.9294 31.4761L33.9518 31.5449L33.9747 31.6061L34.0053 31.6591L34.0435 31.7278L34.0812 31.789L34.1195 31.8424L34.1648 31.8958L34.2107 31.9494L34.2638 32.0029L34.3172 32.0563L34.3702 32.1022L34.4313 32.1404L34.492 32.1863L34.5603 32.2244L34.6215 32.2626L34.6975 32.3008L34.7657 32.339L34.8421 32.3696L34.9181 32.4001L34.994 32.4307L35.0776 32.4613L35.1464 32.4842L35.2147 32.5071L35.2831 32.5301L35.359 32.5454L35.4277 32.5682L35.5038 32.5912L35.5796 32.6065L35.656 32.6294L35.732 32.6447L35.8156 32.6676L35.8916 32.6829L35.9751 32.7058L36.0516 32.721L36.1275 32.744L36.1958 32.7592L36.2646 32.7822L36.3252 32.7975L36.3783 32.8128L36.4695 32.8509L36.5459 32.8815L36.6142 32.9121L36.6749 32.9426L36.7361 32.9885L36.7891 33.0343L36.8273 33.0878L36.8579 33.1642L36.8654 33.2559V33.2711L36.8579 33.3476L36.8349 33.4163L36.8043 33.4775L36.759 33.531L36.6979 33.5768L36.6448 33.6074L36.5837 33.6303L36.5153 33.6455L36.4471 33.6609L36.3706 33.6761L36.287 33.6837H36.1958H36.1198L36.0363 33.6761H35.9603L35.8839 33.6609L35.8003 33.6532L35.7244 33.6379L35.6485 33.6227L35.572 33.6074L35.5038 33.5844L35.4277 33.5615L35.3518 33.5386L35.2831 33.5081L35.2147 33.4851L35.1464 33.4545L35.0776 33.424L35.0093 33.3934L34.9487 33.3552L34.8798 33.3247L34.8193 33.2864L34.7509 33.2406L34.6898 33.2025L34.6215 33.1566L34.5603 33.1108L34.492 33.0649L34.4313 33.0191L34.3855 33.0802L34.3325 33.1336L34.2866 33.1948L34.2336 33.2559L34.1878 33.3093L34.1423 33.3705L34.0889 33.4316L34.0435 33.4851L33.99 33.5462L33.9446 33.5997L33.8911 33.6609L33.8458 33.722L33.7999 33.7754L33.7468 33.8365L33.701 33.8977L33.648 33.9512L33.6021 34.0123L33.6628 34.0658L33.7162 34.1116L33.777 34.1575L33.8381 34.2033L33.8988 34.2492L33.9594 34.295L34.0205 34.3332L34.0812 34.3714L34.15 34.4096L34.2107 34.4477L34.279 34.486L34.3477 34.5166L34.4161 34.5543L34.4844 34.5849L34.5531 34.6154L34.6291 34.646L34.6975 34.6689L34.7734 34.6918L34.8421 34.7224L34.9181 34.7453L34.994 34.7682L35.0624 34.7836L35.1387 34.8064L35.2147 34.8217L35.2906 34.837L35.3666 34.8523L35.4431 34.8675L35.519 34.8752L35.5949 34.8905L35.6786 34.8981L35.7549 34.9058L35.8309 34.9135H35.9144L35.9905 34.9211H36.0664H36.1504H36.234H36.31L36.386 34.9135L36.4695 34.9058L36.5459 34.8981L36.6142 34.8905L36.6902 34.8829L36.7667 34.8675L36.8349 34.8523L36.9033 34.837L36.9792 34.8217L37.048 34.7988L37.1239 34.7758L37.1999 34.753L37.2758 34.7224L37.3522 34.6918L37.4205 34.6536L37.4888 34.623L37.5576 34.5849L37.6183 34.539L37.679 34.5013L37.7401 34.4555L37.7932 34.4096L37.8542 34.3561L37.8996 34.3103L37.9531 34.2567L37.9985 34.2033L38.0367 34.1422L38.0822 34.0811L38.1203 34.0199L38.1585 33.9588L38.1886 33.8901L38.2192 33.8289L38.2497 33.7602L38.2727 33.6837L38.2875 33.6149L38.3104 33.5386L38.3257 33.4621L38.3333 33.3782ZM32.9302 34.8294H33.0066H33.0826V34.753V34.6841V34.6078V34.5314V34.4555V34.3866V34.3103V34.2339V34.165V34.0887V34.0123V33.9436V33.8671V33.7907V33.7143V33.6455V33.5691H33.0066H32.9302H32.8543H32.7783H32.7024H32.626H32.55H32.4741H32.3981H32.3141H32.2381H32.1622H32.0863H32.0097H31.9339H31.8579H31.7819H31.7055H31.6295H31.5536H31.4777H31.4017H31.3253H31.2494H31.1734H31.0974H31.021H30.945H30.8691H30.7855H30.7091H30.6331H30.5572H30.4813H30.4049H30.3289H30.253H30.1769H30.1006V33.4927V33.4087V33.3323V33.2559V33.1719V33.0955V33.0191V32.935V32.8586V32.7822V32.6981V32.6218H30.1769H30.253H30.3289H30.4049H30.4813H30.5572H30.6331H30.7091H30.7779H30.8539H30.9298H31.0057H31.0822H31.1581H31.2341H31.31H31.3864H31.4623H31.5384H31.6143H31.6907H31.7666H31.8426H31.9186H31.995H32.0709H32.1393H32.2152H32.2916H32.3676H32.4435H32.5194H32.5958H32.6718H32.7478V32.5454V32.4765V32.4001V32.3237V32.255V32.1786V32.1022V32.0258V31.957V31.8806V31.8042V31.7354V31.6591V31.5831V31.5143V31.4379H32.6718H32.5958H32.5194H32.4435H32.3676H32.2916H32.2152H32.1393H32.0709H31.995H31.9186H31.8426H31.7666H31.6907H31.6143H31.5384H31.4623H31.3864H31.31H31.2341H31.1581H31.0822H31.0057H30.9298H30.8539H30.7779H30.7091H30.6331H30.5572H30.4813H30.4049H30.3289H30.253H30.1769H30.1006V31.3615V31.2851V31.2087V31.1323V31.0559V30.9795V30.9107V30.8343V30.7579V30.6815V30.6051V30.5288H30.1769H30.253H30.3289H30.4049H30.4813H30.5572H30.6255H30.7015H30.7779H30.8539H30.9298H31.0057H31.0822H31.1581H31.2341H31.31H31.3864H31.4623H31.5384H31.6066H31.6831H31.759H31.8349H31.9109H31.9873H32.0632H32.1393H32.2152H32.2916H32.3676H32.4435H32.5194H32.5882H32.6641H32.7401H32.8161H32.8925H32.9685H33.0444V30.4523V30.3836V30.3071V30.2308V30.1544V30.0855V30.0092V29.9327V29.864V29.7876V29.7112V29.6424V29.566V29.4896V29.4132V29.3444V29.268H32.9685H32.8925H32.8161H32.7401H32.6641H32.5882H32.5118H32.4358H32.3599H32.284H32.2076H32.1316H32.0557H31.9797H31.9109H31.8349H31.759H31.6831H31.6066H31.5307H31.4548H31.3788H31.3024H31.2264H31.1504H31.0746H30.9986H30.9221H30.8462H30.7703H30.6943H30.6179H30.5419H30.4659H30.39H30.3136H30.2376H30.1617H30.0857H30.0094H29.9334H29.8574H29.7814H29.7127H29.6367H29.5609H29.4848H29.4085H29.3325H29.2565H29.1806H29.1042H29.0282H28.9522H28.8764H28.8H28.724H28.648V29.3444V29.4209V29.4972V29.5737V29.6501V29.7264V29.8029V29.8793V29.9557V30.0321V30.1085V30.1849V30.2613V30.3377V30.4141V30.4905V30.567V30.6433V30.7121V30.7885V30.8649V30.9413V31.0177V31.0941V31.1705V31.2469V31.3233V31.3997V31.4761V31.5526V31.6289V31.7049V31.7813V31.8577V31.9341V32.0105V32.0869V32.1633V32.2397V32.3161V32.3925V32.469V32.5454V32.6218V32.6981V32.7745V32.8509V32.9274V33.0037V33.0802V33.1566V33.233V33.3093V33.3858V33.4545V33.531V33.6074V33.6837V33.7602V33.8365V33.913V33.9894V34.0658V34.1422V34.2187V34.295V34.3714V34.4477V34.5242V34.6002V34.6766V34.753V34.8294H28.724H28.8H28.8764H28.9522H29.0282H29.1042H29.1806H29.2565H29.3325H29.4161H29.4921H29.5684H29.6444H29.7204H29.7962H29.8727H29.9487H30.0246H30.1006H30.1769H30.253H30.3289H30.4049H30.4813H30.5572H30.6331H30.7091H30.7855H30.8691H30.945H31.021H31.0974H31.1734H31.2494H31.3253H31.4017H31.4777H31.5536H31.6295H31.7055H31.7819H31.8579H31.9339H32.0097H32.0863H32.1622H32.2381H32.3141H32.3981H32.4741H32.55H32.626H32.7024H32.7783H32.8543H32.9302ZM27.373 34.8294H27.4489H27.5248V34.753V34.6766V34.6002V34.5242V34.4477V34.3714V34.295V34.2187V34.1422V34.0658V33.9894V33.913V33.8365V33.7602V33.6837V33.6074V33.531V33.4545V33.3858V33.3093V33.233V33.1566V33.0802V33.0037V32.9274V32.8509V32.7745V32.6981V32.6218V32.5454V32.469V32.3925V32.3161V32.2397V32.1633V32.0869V32.0105V31.9341V31.8577V31.7813V31.7049V31.6289V31.5526V31.4761V31.3997V31.3233V31.2469V31.1705V31.0941V31.0177V30.9413V30.8649V30.7885V30.7121V30.6433V30.567V30.4905V30.4141V30.3377V30.2613V30.1849V30.1085V30.0321V29.9557V29.8793V29.8029V29.7264V29.6501V29.5737V29.4972V29.4209V29.3444V29.268H27.4489H27.373H27.3042H27.2282H27.1523H27.0763H27.0076H26.9316H26.8557H26.7797H26.7109H26.6349H26.5591H26.4831H26.4143H26.3384H26.2624H26.1864H26.1177H26.0417H25.9658L25.9276 29.3292L25.8898 29.3979L25.844 29.4586L25.8057 29.5273L25.768 29.5884L25.7298 29.6573L25.6844 29.7179L25.6462 29.7867L25.6081 29.8479L25.5702 29.909L25.5245 29.9772L25.4866 30.0384L25.4485 30.1071L25.4103 30.1683L25.3649 30.2366L25.3266 30.2977L25.2889 30.3588L25.2507 30.4272L25.2125 30.4882L25.1671 30.557L25.129 30.6182L25.0907 30.6864L25.0529 30.7476L25.0071 30.8163L24.9694 30.877L24.9312 30.9381L24.893 31.0069L24.8476 31.0681L24.8094 31.1368L24.7715 31.1975L24.7334 31.2663L24.688 31.3274L24.6498 31.3957L24.6117 31.4569L24.5739 31.3957L24.5357 31.3274L24.4898 31.2663L24.452 31.1975L24.4139 31.1368L24.3761 31.0681L24.3379 31.0069L24.2921 30.9381L24.2543 30.877L24.2161 30.8163L24.1784 30.7476L24.1402 30.6864L24.0944 30.6182L24.0565 30.557L24.0183 30.4882L23.9807 30.4272L23.9424 30.3588L23.8966 30.2977L23.8588 30.2366L23.8206 30.1683L23.7824 30.1071L23.737 30.0384L23.6988 29.9772L23.6611 29.909L23.6228 29.8479L23.5847 29.7867L23.5392 29.7179L23.501 29.6573L23.4633 29.5884L23.4251 29.5273L23.3868 29.4586L23.3415 29.3979L23.3033 29.3292L23.2656 29.268H23.1891H23.1132H23.0449H22.9689H22.8925H22.8165H22.7483H22.6723H22.5959H22.52H22.4516H22.3757H22.2992H22.2233H22.155H22.0786H22.0026H21.9267H21.8583H21.7819H21.706V29.3444V29.4209V29.4972V29.5737V29.6501V29.7264V29.8029V29.8793V29.9557V30.0321V30.1085V30.1849V30.2613V30.3377V30.4141V30.4905V30.567V30.6433V30.7121V30.7885V30.8649V30.9413V31.0177V31.0941V31.1705V31.2469V31.3233V31.3997V31.4761V31.5526V31.6289V31.7049V31.7813V31.8577V31.9341V32.0105V32.0869V32.1633V32.2397V32.3161V32.3925V32.469V32.5454V32.6218V32.6981V32.7745V32.8509V32.9274V33.0037V33.0802V33.1566V33.233V33.3093V33.3858V33.4545V33.531V33.6074V33.6837V33.7602V33.8365V33.913V33.9894V34.0658V34.1422V34.2187V34.295V34.3714V34.4477V34.5242V34.6002V34.6766V34.753V34.8294H21.7819H21.8583H21.9343H22.0103H22.0863H22.1626H22.2386H22.3146H22.3905H22.4669H22.5429H22.6188H22.6948H22.7712H22.8471H22.9231H22.9991H23.0754H23.1514V34.753V34.6766V34.6002V34.5238V34.4469V34.3705V34.2941V34.2176V34.1413V34.0649V33.9961V33.9193V33.8428V33.7665V33.69V33.6137V33.5368V33.4604V33.384V33.3076V33.2312V33.1547V33.0779V33.0015V32.9251V32.8487V32.7723V32.6959V32.619V32.5427V32.4662V32.3899V32.3211V32.2446V32.1679V32.0914V32.015V31.9386V31.8622V31.7854V31.7089V31.6325V31.5561L23.1967 31.6172L23.2351 31.6865L23.2804 31.7475L23.3186 31.8163L23.3644 31.8775L23.4022 31.9462L23.448 32.0078L23.4858 32.0766L23.5316 32.1377L23.5698 32.2065L23.6152 32.2676L23.6534 32.3369L23.6988 32.398L23.737 32.4667L23.7824 32.5278L23.8206 32.597L23.8665 32.6581L23.9118 32.7269L23.9501 32.788L23.9954 32.8572L24.0337 32.9183L24.0795 32.9871L24.1172 33.0482L24.1631 33.1175L24.2008 33.1786L24.2467 33.2473L24.2849 33.3085L24.3303 33.3773L24.3684 33.4389L24.4139 33.5076L24.452 33.5687L24.4975 33.6374L24.5357 33.6991L24.5815 33.7678H24.6117L24.6498 33.7067L24.6953 33.6374L24.7334 33.5763L24.7793 33.5152L24.817 33.4465L24.8628 33.3853L24.9006 33.3237L24.9388 33.255L24.9847 33.1939L25.0224 33.1328L25.0683 33.0712L25.106 33.0024L25.1518 32.9413L25.1901 32.8801L25.2278 32.811L25.2737 32.7498L25.3113 32.6887L25.3572 32.62L25.3949 32.5588L25.4408 32.4972L25.4791 32.4285L25.5168 32.3674L25.5627 32.3063L25.6004 32.2371L25.6462 32.1759L25.6844 32.1148L25.7298 32.0537L25.768 31.9845L25.8057 31.9234L25.8516 31.8622L25.8898 31.7935L25.9352 31.7323L25.9734 31.6712L26.0189 31.6019L26.0569 31.5408V31.6172V31.6937V31.77V31.8469V31.9234V31.9997V32.0762V32.1525V32.2294V32.3058V32.3822V32.4586V32.5349V32.6114V32.6882V32.7647V32.841V32.9175V32.9939V33.0703V33.1472V33.2235V33.3V33.3763V33.4527V33.5291V33.606V33.6824V33.7588V33.8352V33.9117V33.9885V34.0649V34.1413V34.2176V34.2941V34.3705V34.4469V34.5238V34.6002V34.6766V34.753V34.8294H26.133H26.2089H26.2853H26.3689H26.4449H26.5208H26.5972H26.6732H26.7491H26.8327H26.9087H26.9851H27.061H27.1371H27.213H27.2969H27.373ZM18.6004 32.4685L18.6233 32.5377L18.6539 32.6065H18.5779H18.5016H18.4256H18.3496H18.2737H18.1977H18.1213H18.0454H17.9771H17.9007H17.8246H17.7487H17.6728H17.5964H17.5204H17.4445H17.3685L17.3986 32.5377L17.4215 32.4685L17.4521 32.3921L17.4827 32.3233L17.5051 32.2541L17.5357 32.1853L17.5662 32.1089L17.5964 32.0397L17.6193 31.9709L17.6499 31.9022L17.6804 31.833L17.7029 31.7566L17.7335 31.6878L17.764 31.6186L17.787 31.5498L17.8171 31.4811L17.8477 31.4043L17.8782 31.3354L17.9007 31.2667L17.9313 31.1975L17.9619 31.1211L17.9847 31.0519L18.0148 30.9831L18.0454 31.0519L18.0683 31.1211L18.0984 31.1975L18.129 31.2667L18.1519 31.3354L18.1824 31.4043L18.2126 31.4811L18.2354 31.5498L18.266 31.6186L18.2966 31.6878L18.319 31.7566L18.3496 31.833L18.3726 31.9022L18.4026 31.9709L18.4332 32.0397L18.4562 32.1089L18.4867 32.1853L18.5168 32.2541L18.5397 32.3233L18.5703 32.3921L18.6004 32.4685ZM20.9358 34.8294H21.0121H21.088L21.0575 34.7606L21.0269 34.6918L20.9969 34.623L20.9739 34.5467L20.9433 34.4783L20.9128 34.4096L20.8826 34.3409L20.8521 34.2721L20.8216 34.2033L20.7915 34.1269L20.7609 34.0581L20.7379 33.9894L20.7078 33.9206L20.6773 33.8519L20.6467 33.7831L20.6162 33.7067L20.5861 33.6379L20.5555 33.5691L20.5249 33.5004L20.5025 33.4316L20.4719 33.3628L20.4413 33.2864L20.4107 33.2177L20.3806 33.1489L20.35 33.0802L20.3195 33.0114L20.2894 32.9426L20.2665 32.8662L20.2359 32.7975L20.2058 32.7287L20.1752 32.6599L20.1446 32.5912L20.1141 32.5224L20.084 32.446L20.0535 32.3773L20.0305 32.3085L20.0005 32.2397L19.9699 32.171L19.9393 32.1022L19.9088 32.0258L19.8786 31.957L19.848 31.8882L19.8175 31.8195L19.795 31.7508L19.7645 31.6819L19.7339 31.6137L19.7038 31.5372L19.6732 31.4685L19.6426 31.3997L19.6121 31.3309L19.582 31.2622L19.559 31.1934L19.5285 31.117L19.4984 31.0483L19.4678 30.9795L19.4373 30.9107L19.4067 30.842L19.3765 30.7732L19.346 30.6968L19.3231 30.6281L19.293 30.5593L19.2624 30.4905L19.2319 30.4217L19.2018 30.353L19.1712 30.2766L19.1406 30.2078L19.1101 30.1391L19.0876 30.0703L19.057 30.0016L19.0264 29.9327L18.9964 29.8564L18.9658 29.7876L18.9353 29.7188L18.9047 29.6501L18.8746 29.5813L18.8517 29.5126L18.8211 29.4361L18.791 29.3674L18.7604 29.2986L18.7299 29.2298H18.6539H18.5856H18.5091H18.4332H18.3573H18.2889H18.2126H18.1366H18.0607H17.9924H17.9159H17.8399H17.764H17.6957H17.6193H17.5433H17.4674H17.3986H17.3227L17.2926 29.2986L17.262 29.3674L17.2315 29.4361L17.2085 29.5126L17.1784 29.5813L17.1479 29.6501L17.1173 29.7188L17.0872 29.7876L17.0566 29.8564L17.026 29.9327L16.9954 30.0016L16.973 30.0703L16.9424 30.1391L16.9118 30.2078L16.8817 30.2766L16.8511 30.353L16.8206 30.4217L16.7905 30.4905L16.76 30.5593L16.737 30.6281L16.7065 30.6968L16.6764 30.7732L16.6458 30.842L16.6153 30.9107L16.5851 30.9795L16.5546 31.0483L16.524 31.117L16.5011 31.1934L16.471 31.2622L16.4404 31.3309L16.4099 31.3997L16.3797 31.4685L16.3492 31.5372L16.3187 31.6137L16.2885 31.6819L16.2656 31.7508L16.235 31.8195L16.2045 31.8882L16.1744 31.957L16.1438 32.0258L16.1132 32.1022L16.0831 32.171L16.0525 32.2397L16.0296 32.3085L15.9991 32.3773L15.9689 32.446L15.9384 32.5224L15.9079 32.5912L15.8777 32.6599L15.8472 32.7287L15.8166 32.7975L15.7937 32.8662L15.7636 32.9426L15.733 33.0114L15.7024 33.0802L15.6724 33.1489L15.6418 33.2177L15.6112 33.2864L15.5811 33.3628L15.5582 33.4316L15.5276 33.5004L15.4971 33.5691L15.4669 33.6379L15.4364 33.7067L15.4058 33.7831L15.3757 33.8519L15.3451 33.9206L15.3223 33.9894L15.2917 34.0581L15.2616 34.1269L15.231 34.2033L15.2004 34.2721L15.1703 34.3409L15.1398 34.4096L15.1092 34.4783L15.0863 34.5467L15.0561 34.623L15.0256 34.6918L14.995 34.7606L14.9649 34.8294H15.0409H15.1169H15.1928H15.2693H15.3529H15.4288H15.5046H15.5811H15.6571H15.733H15.809H15.8853H15.9613H16.0373H16.1209H16.1968H16.2733H16.3492H16.4251H16.5011L16.5317 34.7606L16.5546 34.6918L16.5851 34.623L16.6153 34.5467L16.6382 34.4783L16.6688 34.4096L16.6989 34.3409L16.7218 34.2721L16.7524 34.2033L16.7829 34.1345L16.8054 34.0658L16.8359 33.9894L16.8665 33.9206L16.8894 33.8519L16.9195 33.7831H16.9954H17.0719H17.1479H17.2237H17.2926H17.3685H17.4445H17.5204H17.5964H17.6728H17.7487H17.8246H17.9007H17.9771H18.0454H18.1213H18.1977H18.2737H18.3496H18.4256H18.5016H18.5779H18.6539H18.7299H18.7986H18.8746H18.9505H19.0264H19.1024L19.133 33.8519L19.1559 33.9206L19.1865 33.9894L19.2167 34.0658L19.2395 34.1345L19.2701 34.2033L19.3006 34.2721L19.3231 34.3409L19.3537 34.4096L19.3842 34.4783L19.4067 34.5467L19.4373 34.623L19.4678 34.6918L19.4907 34.7606L19.5209 34.8294H19.5973H19.6732H19.7415H19.8175H19.8938H19.9699H20.0458H20.1141H20.1905H20.2665H20.3424H20.4184H20.4948H20.5631H20.6391H20.715H20.7915H20.8673H20.9358ZM14.2872 34.165L14.3483 34.1192L14.4013 34.0734V33.997V33.9206V33.8443V33.7754V33.6991V33.6227V33.5462V33.4698V33.3934V33.3247V33.2483V33.1719V33.0955V33.0191V32.9426V32.8662V32.7975V32.721V32.6447V32.5682V32.4919V32.4154V32.339V32.2703V32.1939V32.1174V32.041V31.9646V31.8882V31.8195V31.743V31.6667V31.5907H14.3253H14.2494H14.173H14.0971H14.0211H13.9452H13.8687H13.7928H13.7168H13.6408H13.5645H13.4885H13.4126H13.3366H13.2602H13.1843H13.1084H13.0323H12.9559H12.88H12.804H12.7281H12.6517H12.5757H12.4998H12.4238H12.3474H12.2715H12.1955H12.1196H12.0436H11.9672H11.8912V31.6667V31.7354V31.8119V31.8882V31.9646V32.0335V32.1098V32.1863V32.2626V32.3314V32.4078V32.4842V32.5607V32.6294V32.7058H11.9672H12.0359H12.1119H12.1879H12.2639H12.3326H12.4085H12.4844H12.5605H12.6292H12.7052H12.7811H12.8571H12.9258H13.0018V32.7822V32.8586V32.935V33.0114V33.0955V33.1719V33.2483V33.3247V33.401L12.9411 33.4393L12.8876 33.4698L12.8194 33.5004L12.7583 33.531L12.6898 33.5615L12.6216 33.5768L12.5456 33.5997L12.4692 33.6149L12.3933 33.6303L12.3173 33.6379L12.2337 33.6455L12.1496 33.6532H12.0584H11.9748L11.8912 33.6455L11.8153 33.6379L11.7393 33.6227L11.6629 33.6074L11.587 33.5844L11.5109 33.5615L11.4423 33.531L11.374 33.5004L11.3056 33.4698L11.2445 33.4316L11.1839 33.3934L11.1232 33.3476L11.062 33.3017L11.0091 33.2559L10.9631 33.2025L10.9101 33.1489L10.8643 33.0955L10.8189 33.0343L10.7807 32.9732L10.7425 32.9121L10.7047 32.8433L10.6742 32.7745L10.6436 32.6981L10.6211 32.637L10.5982 32.5682L10.583 32.4995L10.5676 32.4307L10.5524 32.362L10.5447 32.2856L10.5371 32.2168L10.53 32.1404V32.064V32.0487V31.9646L10.5371 31.8882L10.5447 31.8119L10.56 31.7278L10.5753 31.6591L10.5905 31.5831L10.6135 31.5067L10.6436 31.4379L10.6666 31.3692L10.6971 31.3004L10.7353 31.2393L10.773 31.1705L10.8112 31.1094L10.849 31.0559L10.8949 30.9948L10.9479 30.9413L10.9937 30.8878L11.0467 30.842L11.1003 30.7961L11.1533 30.7504L11.2145 30.7121L11.2751 30.6738L11.3362 30.6356L11.4045 30.6051L11.4729 30.5745L11.5411 30.5516L11.6099 30.5288L11.6782 30.5134L11.7542 30.4982L11.8229 30.4905L11.8989 30.4829H11.9748H12.0584L12.1424 30.4905L12.226 30.4982L12.3021 30.5058L12.378 30.521L12.4539 30.5364L12.5227 30.5516L12.591 30.5745L12.6593 30.5975L12.7204 30.6204L12.7811 30.651L12.8422 30.6815L12.9105 30.7198L12.9712 30.7579L13.0323 30.7961L13.093 30.8343L13.1537 30.8801L13.2148 30.9184L13.2755 30.9718L13.3366 31.0177L13.382 30.9566L13.4354 30.9031L13.4809 30.842L13.5344 30.7809L13.5797 30.7198L13.6256 30.6662L13.6787 30.6051L13.7244 30.544L13.7775 30.4829L13.8234 30.4293L13.8687 30.3682L13.9222 30.3071L13.9676 30.2537L14.0135 30.1925L14.0665 30.1314L14.1124 30.0703L14.1654 30.0168L14.2112 29.9557L14.1505 29.9098L14.0894 29.8564L14.0288 29.8105L13.9676 29.7647L13.907 29.7264L13.8463 29.6806L13.7775 29.6424L13.7168 29.6042L13.6486 29.566L13.5874 29.5278L13.5191 29.4972L13.4508 29.4591L13.382 29.4285L13.3137 29.3979L13.2454 29.3674L13.1766 29.3444L13.1159 29.3215L13.0477 29.3063L12.9789 29.2833L12.9105 29.268L12.8422 29.2527L12.7735 29.2375L12.6975 29.2222L12.6216 29.2069L12.5528 29.1993L12.4692 29.184L12.3933 29.1764H12.3173L12.2337 29.1687L12.1496 29.161H12.066H11.9825H11.9065H11.8229L11.7465 29.1687L11.6705 29.1764L11.5946 29.184L11.5186 29.1916L11.4423 29.2069L11.3662 29.2146L11.2903 29.2298L11.222 29.2527L11.1456 29.268L11.0773 29.2909L11.0091 29.3063L10.9402 29.3368L10.8643 29.3598L10.8036 29.3826L10.7276 29.4209L10.6589 29.4514L10.5905 29.482L10.5223 29.5202L10.4535 29.5584L10.3852 29.5966L10.3246 29.6348L10.2634 29.673L10.2027 29.7188L10.1416 29.757L10.0809 29.8029L10.0278 29.8487L9.96672 29.9022L9.91371 29.948L9.86028 30.0016L9.80718 30.0549L9.76133 30.1085L9.70832 30.1619L9.66247 30.2155L9.61705 30.2766L9.5712 30.3377L9.52586 30.3988L9.4876 30.4599L9.4495 30.521L9.41167 30.5822L9.37349 30.6433L9.33531 30.7121L9.30522 30.7809L9.27463 30.8496L9.24412 30.9184L9.21395 30.9871L9.18336 31.0635L9.16043 31.1323L9.1375 31.2087L9.11509 31.2775L9.09975 31.3539L9.07683 31.4303L9.06157 31.499L9.05399 31.5755L9.03873 31.6514L9.03098 31.7354L9.02382 31.8119V31.8882L9.01624 31.9723V32.0487V32.064V32.1404V32.2244L9.02382 32.3008L9.03098 32.3773L9.03873 32.4537L9.04623 32.5224L9.06157 32.5988L9.06924 32.6676L9.0845 32.744L9.10742 32.8128L9.12268 32.8892L9.14517 32.9579L9.16043 33.0266L9.19103 33.0955L9.21395 33.1566L9.24412 33.2253L9.27463 33.2941L9.30522 33.3628L9.33531 33.4316L9.37349 33.4927L9.41167 33.5615L9.4495 33.6227L9.4876 33.6837L9.53302 33.7449L9.5712 33.806L9.61705 33.8595L9.66247 33.9206L9.70832 33.9741L9.76133 34.0276L9.81485 34.0811L9.86786 34.1269L9.92138 34.1804L9.97439 34.2262L10.0278 34.2721L10.0886 34.3179L10.1493 34.3637L10.2104 34.4096L10.271 34.4477L10.3322 34.486L10.4005 34.5242L10.4611 34.562L10.53 34.6002L10.5982 34.6308L10.6666 34.6613L10.7353 34.6918L10.8112 34.7224L10.8795 34.7453L10.9479 34.7758L11.0167 34.7988L11.0926 34.8141L11.1609 34.837L11.2373 34.8523L11.3056 34.8675L11.3816 34.8829L11.4575 34.8981L11.534 34.9058L11.6099 34.9135L11.6858 34.9211L11.7694 34.9287L11.8454 34.9363H11.9218H12.0053H12.089H12.1726L12.2561 34.9287L12.3326 34.9211L12.4162 34.9135L12.4921 34.9058L12.5757 34.8981L12.6517 34.8905L12.7281 34.8752L12.804 34.86L12.8724 34.8447L12.9488 34.8294L13.0171 34.8064L13.093 34.7836L13.1614 34.7606L13.2301 34.7377L13.2985 34.7147L13.3667 34.6841L13.4432 34.6536L13.5115 34.623L13.5874 34.5925L13.6557 34.5543L13.7244 34.5242L13.7928 34.486L13.8611 34.4477L13.9299 34.4096L13.9906 34.3714L14.0517 34.3332L14.1124 34.2873L14.173 34.2492L14.2341 34.2033L14.2872 34.165ZM15.7072 41.4235H31.7336L23.5534 44.1211L15.7072 41.4235Z" fill="white"/>
</svg>
