<svg width="48" height="48" viewBox="0 0 48 48" fill="none" xmlns="http://www.w3.org/2000/svg">
<path fill-rule="evenodd" clip-rule="evenodd" d="M24 48C10.7452 48 0 37.2548 0 24C0 10.7452 10.7452 0 24 0C37.2548 0 48 10.7452 48 24C48 37.2548 37.2548 48 24 48ZM31.218 30.2566C32.0917 30.2566 32.8 29.5452 32.8 28.6676V18.3393C32.8 18.3057 32.797 18.2728 32.795 18.2397C32.6893 13.4505 28.7937 9.6 24 9.6C19.2063 9.6 15.3107 13.4505 15.205 18.2397C15.203 18.2728 15.2 18.3057 15.2 18.3393V28.6676C15.2 29.5452 15.9083 30.2566 16.782 30.2566H21.7258V36.1158C21.7258 37.3774 22.744 38.4 24 38.4C25.256 38.4 26.2741 37.3774 26.2741 36.1158V30.2566H31.218Z" fill="white"/>
</svg>
