<svg width="48" height="48" viewBox="0 0 48 48" fill="none" xmlns="http://www.w3.org/2000/svg">
<path fill-rule="evenodd" clip-rule="evenodd" d="M0 24C0 10.7452 10.7452 0 24 0C37.2548 0 48 10.7452 48 24C48 37.2548 37.2548 48 24 48C10.7452 48 0 37.2548 0 24ZM19.2 38.4C21.851 38.4 24 36.251 24 33.6V28.8H19.2C16.549 28.8 14.4 30.949 14.4 33.6C14.4 36.251 16.549 38.4 19.2 38.4ZM14.4 24C14.4 26.651 16.549 28.8 19.2 28.8H24V19.2H19.2C16.549 19.2 14.4 21.349 14.4 24ZM14.4 14.4C14.4 17.051 16.549 19.2 19.2 19.2H24V9.6H19.2C16.549 9.6 14.4 11.749 14.4 14.4ZM24 9.6V19.2H28.8C31.451 19.2 33.6 17.051 33.6 14.4C33.6 11.749 31.451 9.6 28.8 9.6H24ZM33.6 24C33.6 21.349 31.451 19.2 28.8 19.2C26.149 19.2 24 21.349 24 24C24 26.651 26.149 28.8 28.8 28.8C31.451 28.8 33.6 26.651 33.6 24Z" fill="white"/>
</svg>
