<svg width="48" height="48" viewBox="0 0 48 48" fill="none" xmlns="http://www.w3.org/2000/svg">
<path fill-rule="evenodd" clip-rule="evenodd" d="M0 24C0 10.7452 10.7452 0 24 0C37.2548 0 48 10.7452 48 24C48 37.2548 37.2548 48 24 48C10.7452 48 0 37.2548 0 24ZM38.2954 23.7986C38.2954 20.3766 35.4692 17.6 31.9766 17.6C28.4805 17.6 25.6527 20.3766 25.6527 23.7986C25.6527 27.2222 28.4805 29.9989 31.9766 29.9989C35.4692 29.9989 38.2954 27.2222 38.2954 23.7986ZM22.241 23.7986C22.241 20.3766 19.4132 17.6 15.9171 17.6C12.4262 17.6 9.6 20.3766 9.6 23.7986C9.6 27.2222 12.4262 29.9989 15.9171 29.9989C19.4132 29.9989 22.241 27.2222 22.241 23.7986Z" fill="white"/>
</svg>
