<svg xmlns="http://www.w3.org/2000/svg" width="47.965" height="48.001" viewBox="0 0 47.965 48.001">
  <g id="Group_59" data-name="Group 59" transform="translate(-435.5 -102.5)">
    <path id="Subtraction_2" data-name="Subtraction 2" d="M-15.395,174.5a24.215,24.215,0,0,1-11.592-2.952h6.166V155.005h5.264v-7.754h-5.593V147.2c0-1.909.9-2.961,2.538-2.961a5.764,5.764,0,0,1,2.4.611l2.538-7.379a14.266,14.266,0,0,0-6.3-1.269c-7.181,0-11.468,4.076-11.468,10.9v.141h-3.525v7.754h3.525v13.4a23.918,23.918,0,0,1-5.883-7.933A23.721,23.721,0,0,1-39.5,150.5a23.791,23.791,0,0,1,7.06-16.971A24,24,0,0,1-15.395,126.5a24.1,24.1,0,0,1,8.614,1.578,24.039,24.039,0,0,1,7.24,4.343,23.956,23.956,0,0,1,8.005,14.64,17.26,17.26,0,0,0-7.712-1.691c-8.8,0-14.945,5.47-14.945,13.3,0,6.311,4.019,11.224,10.489,12.823A24.2,24.2,0,0,1-15.395,174.5ZM.752,163.748a3.841,3.841,0,0,1-2.973-1.287,5.628,5.628,0,0,1-1.21-3.789,5.547,5.547,0,0,1,1.21-3.766,3.864,3.864,0,0,1,2.973-1.263,3.864,3.864,0,0,1,2.973,1.263,5.547,5.547,0,0,1,1.21,3.766,5.628,5.628,0,0,1-1.21,3.789A3.841,3.841,0,0,1,.752,163.748Z" transform="translate(475 -24)" fill="#fff"/>
  </g>
</svg>
