<svg width="48" height="48" viewBox="0 0 48 48" fill="none" xmlns="http://www.w3.org/2000/svg">
<path fill-rule="evenodd" clip-rule="evenodd" d="M0 24C0 10.7452 10.7452 0 24 0C37.2548 0 48 10.7452 48 24C48 37.2548 37.2548 48 24 48C10.7452 48 0 37.2548 0 24ZM23.9654 17.6213C25.9154 17.6213 27.2309 18.4649 27.9809 19.1698L30.9118 16.304C29.1117 14.6284 26.7693 13.6 23.9654 13.6C19.9037 13.6 16.3959 15.9342 14.6881 19.3316L18.0459 21.9431C18.8883 19.4356 21.2191 17.6213 23.9654 17.6213ZM33.935 24.2311C33.935 23.376 33.8657 22.752 33.7157 22.1049H23.9654V25.9644H29.6887C29.5733 26.9236 28.9502 28.368 27.5655 29.3387L30.8425 31.8809C32.8042 30.0667 33.935 27.3973 33.935 24.2311ZM18.0575 26.0569C17.8382 25.4098 17.7113 24.7164 17.7113 24C17.7113 23.2836 17.8382 22.5902 18.0459 21.9431L14.6881 19.3316C13.9842 20.7413 13.5804 22.3244 13.5804 24C13.5804 25.6756 13.9842 27.2587 14.6881 28.6684L18.0575 26.0569ZM23.9654 34.4C26.7693 34.4 29.1232 33.4756 30.8425 31.8809L27.5655 29.3387C26.6885 29.9511 25.5116 30.3787 23.9654 30.3787C21.2191 30.3787 18.8883 28.5644 18.0575 26.0569L14.6996 28.6684C16.4074 32.0658 19.9037 34.4 23.9654 34.4Z" fill="white"/>
</svg>
