<svg width="48" height="48" viewBox="0 0 48 48" fill="none" xmlns="http://www.w3.org/2000/svg">
<path fill-rule="evenodd" clip-rule="evenodd" d="M24 48C10.7452 48 0 37.2548 0 24C0 10.7452 10.7452 0 24 0C37.2548 0 48 10.7452 48 24C48 37.2548 37.2548 48 24 48ZM29.1296 24.2676L14.6855 9.63401C14.0889 9.7688 13.6 10.2918 13.6 11.3431V37.2431C13.6 38.2331 13.9846 38.9294 14.6959 38.9988L29.1296 24.2676ZM29.7825 23.5712L33.6424 19.6616C33.6424 19.6616 16.8692 10.3925 15.865 9.83756C15.479 9.62422 15.0582 9.54976 14.6858 9.63378L29.7825 23.5712ZM30.4462 24.2434L34.8018 28.2046C34.8018 28.2046 39.7351 25.4695 39.9462 25.3523C40.6584 24.9575 41.4045 23.9499 39.9462 23.1446C39.5758 22.9396 34.8245 20.3146 34.8245 20.3146L30.4462 24.2434ZM14.6961 38.9988C15.022 39.0407 15.4141 38.9533 15.865 38.7033C16.7986 38.1857 26.8244 32.6271 33.6466 28.8446L29.7826 24.8526L14.6961 38.9988Z" fill="white"/>
</svg>
