<svg width="48" height="48" viewBox="0 0 48 48" fill="none" xmlns="http://www.w3.org/2000/svg">
<path fill-rule="evenodd" clip-rule="evenodd" d="M0 24C0 10.7452 10.7452 0 24 0C37.2548 0 48 10.7452 48 24C48 37.2548 37.2548 48 24 48C10.7452 48 0 37.2548 0 24ZM13.5171 37.1211L23.9149 40L34.3413 37.117L36.6609 11.2H11.2L13.5171 37.1211Z" fill="white"/>
<path d="M19.8407 22.9767L19.5544 19.6292L31.943 19.6329L32.2275 16.4037L16 16.4L16.859 26.2651H28.0986L27.6977 30.4845L24.1137 31.4747L20.4744 30.4771L20.2435 27.8797H17.029L17.4354 33.0154L24.1137 34.8L30.7385 33.0228L31.6548 22.9767H19.8407Z" fill="white"/>
</svg>
