<svg width="48" height="48" viewBox="0 0 48 48" fill="none" xmlns="http://www.w3.org/2000/svg">
<path fill-rule="evenodd" clip-rule="evenodd" d="M24 48C10.7452 48 0 37.2548 0 24C0 10.7452 10.7452 0 24 0C37.2548 0 48 10.7452 48 24C48 37.2548 37.2548 48 24 48ZM21.3977 20.179V16.4014C21.3977 15.5811 21.3629 15.0212 21.2935 14.7206C21.178 14.2353 20.9008 13.7558 20.4619 13.2824C19.6763 12.4277 18.6945 12 17.5159 12C16.2798 12 15.3096 12.4277 14.605 13.2824C13.9345 14.0912 13.6 15.119 13.6 16.3667V31.5297C13.6 32.846 13.929 33.9033 14.5876 34.7005C15.2919 35.5668 16.2858 36 17.5683 36C18.9775 36 20.0518 35.4109 20.7912 34.2328C21.1957 33.5858 21.3977 32.6793 21.3977 31.5123V27.4225L27.3414 34.8391C27.9655 35.6134 28.8721 36 30.0622 36C31.1476 36 32.0724 35.6105 32.8348 34.8304C33.5975 34.0506 33.9784 33.1182 33.9784 32.032C33.9784 31.2119 33.7359 30.4955 33.2506 29.8832L28.3984 23.7315L32.3669 17.9611C32.783 17.3604 32.9905 16.6671 32.9905 15.8815C32.9905 14.8187 32.5979 13.906 31.8125 13.1436C31.0264 12.3811 30.0969 12 29.0225 12C27.7054 12 26.6313 12.6007 25.7991 13.8021L21.3977 20.179Z" fill="white"/>
</svg>
