<svg width="48" height="48" viewBox="0 0 48 48" fill="none" xmlns="http://www.w3.org/2000/svg">
<path fill-rule="evenodd" clip-rule="evenodd" d="M24 48C10.7452 48 0 37.2548 0 24C0 10.7452 10.7452 0 24 0C37.2548 0 48 10.7452 48 24C48 37.2548 37.2548 48 24 48ZM14.8573 33.2415V38.3643L19.6474 35.6411C20.9826 36.0259 22.402 36.2336 23.8726 36.2336C31.7556 36.2336 38.1451 30.271 38.1451 22.9168C38.1451 15.5621 31.7556 9.6 23.8726 9.6C15.99 9.6 9.6 15.5621 9.6 22.9168C9.6 27.0813 11.6489 30.7999 14.8573 33.2415Z" fill="white"/>
<path fill-rule="evenodd" clip-rule="evenodd" d="M22.3485 19.2694L14.6513 27.419L21.6564 23.5756L25.3164 27.419L32.9701 19.2694L26.0428 23.0455L22.3485 19.2694Z" fill="white"/>
</svg>
