<svg width="48" height="48" viewBox="0 0 48 48" fill="none" xmlns="http://www.w3.org/2000/svg">
<path fill-rule="evenodd" clip-rule="evenodd" d="M0 24C0 10.7452 10.7452 0 24 0C37.2548 0 48 10.7452 48 24C48 37.2548 37.2548 48 24 48C10.7452 48 0 37.2548 0 24ZM36.5309 16H33.0619C32.913 16 32.7928 16.1176 32.7928 16.2612V31.9086C32.7928 32.0522 32.913 32.1698 33.0619 32.1698H36.5309C36.6798 32.1698 36.8 32.0522 36.8 31.9086V16.2612C36.8 16.1176 36.6772 16 36.5309 16ZM24.6844 16H11.4691C11.3202 16 11.2 16.1176 11.2 16.2612V31.9086C11.2 32.0522 11.3202 32.1698 11.4691 32.1698H14.9381C15.087 32.1698 15.2072 32.0522 15.2072 31.9086V19.6284C15.2072 19.4873 15.3273 19.3698 15.4762 19.3698H22.9525C25.0553 19.3698 25.6509 20.9607 25.6509 21.9873V31.9086C25.6509 32.0522 25.7711 32.1698 25.92 32.1698H29.3864C29.5353 32.1698 29.6555 32.0522 29.6555 31.9086V20.8091C29.6555 19.8922 29.5432 18.5757 28.3494 17.4184C27.1007 16.209 25.9592 16 24.6844 16ZM22.255 22.2328H18.6109C18.462 22.2328 18.3419 22.3504 18.3419 22.494V31.9112C18.3419 32.0549 18.4647 32.1724 18.6109 32.1724H22.255C22.4013 32.1724 22.5241 32.0549 22.5241 31.9112V22.4914C22.5241 22.3504 22.4039 22.2328 22.255 22.2328Z" fill="white"/>
</svg>
