<svg width="48" height="48" viewBox="0 0 48 48" fill="none" xmlns="http://www.w3.org/2000/svg">
<path fill-rule="evenodd" clip-rule="evenodd" d="M0 24C0 10.7452 10.7452 0 24 0C37.2548 0 48 10.7452 48 24C48 37.2548 37.2548 48 24 48C10.7452 48 0 37.2548 0 24ZM38.4 22.6604C38.4 16.7734 32.491 12 25.2004 12C17.9106 12 12 16.7734 12 22.6604C12 28.5474 17.9106 33.3208 25.2004 33.3208C25.8921 33.3208 26.5659 33.2641 27.2293 33.1815C28.426 35.2045 30.7231 36.6251 33.4073 36.8C32.71 35.8484 32.3012 34.7113 32.3012 33.4876C32.3012 32.7336 32.4353 32.0809 32.7157 31.4176C36.1489 29.4933 38.4 26.2902 38.4 22.6604ZM11.4998 23.2077C11.4998 22.9357 11.5257 22.6679 11.5508 22.4C10.8182 23.5211 10.4 24.7961 10.4 26.1517C10.4 28.9167 12.1246 31.3543 14.752 32.8011C14.7901 33.0266 14.8193 33.2546 14.8193 33.5021C14.8193 34.4246 14.5113 35.2819 13.9862 36C15.6735 35.8893 17.1582 35.1231 18.1267 33.9849C18.8366 34.1144 19.5717 34.1901 20.3303 34.1901C21.3279 34.1901 22.2899 34.068 23.2 33.8457C16.6144 33.2277 11.4998 28.7034 11.4998 23.2077Z" fill="white"/>
<path fill-rule="evenodd" clip-rule="evenodd" d="M25.7239 19.2H18.4V26.4H19.9375V20.7752H21.1822C21.6364 20.7752 21.999 21.144 22.0231 21.6056L22.0317 21.6504V26.4H23.5691V20.7752H24.8138C25.2681 20.7752 25.6307 21.144 25.6548 21.6056L25.6633 21.6504V26.4H27.2V20.7176C27.1977 19.8792 26.5384 19.2 25.7239 19.2Z" fill="white"/>
<path fill-rule="evenodd" clip-rule="evenodd" d="M31.2 19.7657C31.2 20.3378 30.842 20.8 30.4 20.8C29.958 20.8 29.6 20.3378 29.6 19.7657V19.4343C29.6 18.8632 29.958 18.4 30.4 18.4C30.842 18.4 31.2 18.8632 31.2 19.4343V19.7657Z" fill="white"/>
<path fill-rule="evenodd" clip-rule="evenodd" d="M29.6 26.4H31.2V21.6H29.6V26.4Z" fill="white"/>
</svg>
