<svg width="48" height="48" viewBox="0 0 48 48" fill="none" xmlns="http://www.w3.org/2000/svg">
<path fill-rule="evenodd" clip-rule="evenodd" d="M0 24C0 10.7452 10.7452 0 24 0C37.2548 0 48 10.7452 48 24C48 37.2548 37.2548 48 24 48C10.7452 48 0 37.2548 0 24ZM17.2828 12.0817C14.8253 12.5211 12.8481 14.34 12.2248 16.731C12 17.5944 11.9847 18.1002 12.0102 24.7982C12.0255 30.9496 12.0307 31.0926 12.1328 31.5678C12.6999 34.1274 14.5188 35.9514 17.104 36.5542C17.4412 36.6309 17.8703 36.6462 20.6343 36.6615C23.4954 36.682 23.7918 36.6769 23.8684 36.6002C23.945 36.5236 23.9501 35.5375 23.9501 24.3589C23.9501 16.0719 23.9348 12.1686 23.899 12.0971C23.848 12.0051 23.7611 12 20.7672 12.0051C18.3353 12.0102 17.6047 12.0255 17.2828 12.0817ZM26.4025 24.3435C26.4025 17.5893 26.4178 12.0511 26.4383 12.0358C26.4536 12.0153 27.4754 12 28.7016 12C30.4795 12 31.0313 12.0153 31.389 12.0766C34.0559 12.5365 36.0842 14.5443 36.59 17.2062C36.6615 17.5791 36.6717 18.4528 36.6717 24.3129C36.6717 30.5732 36.6792 31.3096 36.4818 31.9862C36.4477 32.1031 36.4075 32.2182 36.3601 32.3597C36.2732 32.61 36.1046 33.0136 35.9769 33.2538C34.9806 35.1288 33.1516 36.3907 31.0773 36.6258C30.5868 36.6769 26.6222 36.6973 26.4842 36.6462C26.4076 36.6155 26.4025 35.4864 26.4025 24.3435Z" fill="white"/>
<path fill-rule="evenodd" clip-rule="evenodd" d="M31.8948 23.1633C32.6918 23.3728 33.3457 23.9808 33.6114 24.7574C33.78 25.2376 33.7749 25.9427 33.6063 26.3821C33.2946 27.1893 32.6816 27.7564 31.8948 27.9659C30.6175 28.298 29.2585 27.5265 28.8855 26.2594C28.7731 25.8712 28.7782 25.2172 28.9059 24.8187C29.2891 23.567 30.6175 22.8312 31.8948 23.1633Z" fill="white"/>
<path fill-rule="evenodd" clip-rule="evenodd" d="M21.9065 34.6945V13.9925L19.9293 13.9977C17.7426 14.0028 17.431 14.0334 16.7566 14.3042C15.4129 14.8406 14.4166 16.0311 14.1101 17.4667C14.0028 17.9725 14.0028 30.6839 14.1152 31.1999C14.4575 32.8502 15.6785 34.1172 17.3237 34.5413C17.7068 34.6383 17.9112 34.6486 19.8271 34.669L21.9065 34.6945ZM16.6493 17.6506C16.9098 17.4207 17.4003 17.1755 17.7222 17.1142C19.0097 16.8587 20.2563 17.7375 20.476 19.0505C20.665 20.1541 19.9957 21.2321 18.887 21.6051C18.6163 21.697 18.4732 21.7124 18.0696 21.697C17.6251 21.6817 17.5382 21.6613 17.1959 21.4927C16.7004 21.2474 16.3376 20.8847 16.0975 20.3891C15.934 20.0621 15.9084 19.9548 15.888 19.5512C15.8471 18.7746 16.1128 18.1156 16.6493 17.6506Z" fill="white"/>
</svg>
