<svg width="48" height="48" viewBox="0 0 48 48" fill="none" xmlns="http://www.w3.org/2000/svg">
<path fill-rule="evenodd" clip-rule="evenodd" d="M48 24C48 37.2548 37.2548 48 24 48C10.7452 48 0 37.2548 0 24C0 10.7452 10.7452 0 24 0C37.2548 0 48 10.7452 48 24ZM28.4602 9.06842L11.8104 10.2936C10.4679 10.4098 10 11.285 10 12.3342V30.5316C10 31.3492 10.2916 32.048 10.993 32.982L14.9069 38.0563C15.5498 38.8734 16.134 39.0482 17.3616 38.9897L36.6969 37.823C38.3322 37.7069 38.8 36.9481 38.8 35.665V15.1925C38.8 14.5292 38.5374 14.3376 37.7632 13.7728C37.7206 13.7418 37.6765 13.7096 37.6307 13.6761L32.3159 9.94338C31.0308 9.01056 30.5048 8.89318 28.4602 9.06842Z" fill="white"/>
<path fill-rule="evenodd" clip-rule="evenodd" d="M14.9663 14.2596C15.9001 15.0177 16.2504 14.9598 18.0038 14.8429L34.5348 13.8511C34.8854 13.8511 34.5938 13.5015 34.4769 13.4435L31.7315 11.4602C31.2054 11.0521 30.5046 10.5848 29.1613 10.7017L13.1544 11.8683C12.5707 11.9261 12.4541 12.2178 12.6866 12.4516L14.9663 14.2596Z" fill="white"/>
<path fill-rule="evenodd" clip-rule="evenodd" d="M15.9587 35.4897V18.1093C15.9587 17.3512 16.1924 17.001 16.893 16.9422L35.8782 15.8344C36.5222 15.776 36.8138 16.1846 36.8138 16.9422V34.206C36.8138 34.9648 36.6966 35.6073 35.6447 35.6651L17.4773 36.7155C16.4259 36.7733 15.9587 36.4239 15.9587 35.4897ZM33.3668 20.1511C33.8936 20.092 34.0101 19.5671 33.8936 19.0416L29.8617 19.2761C29.2774 19.334 28.8107 19.8004 28.9274 20.4428L30.4466 20.617V28.6662L24.4879 19.5673L20.1648 19.8585C19.3463 19.9173 19.0547 20.6749 19.1718 21.2003L20.6319 21.3172V32.8075L19.5803 33.0987C19.1715 33.2155 19.0545 33.7983 19.1715 34.0319L23.2014 33.7983C24.6631 33.7983 24.6631 32.7489 24.6631 32.7489L22.8513 32.3404V23.65L28.5771 32.632C29.2774 33.5064 29.5116 33.7983 30.4466 33.7983C31.0306 33.7983 31.7314 33.5649 32.4914 33.1568V20.3254L33.3668 20.1511Z" fill="white"/>
</svg>
