<svg width="48" height="48" viewBox="0 0 48 48" fill="none" xmlns="http://www.w3.org/2000/svg">
<path fill-rule="evenodd" clip-rule="evenodd" d="M0 24C0 10.7452 10.7452 0 24 0C37.2548 0 48 10.7452 48 24C48 37.2548 37.2548 48 24 48C10.7452 48 0 37.2548 0 24ZM28.0011 23.5142H28V31.2H36.9046C37.6961 31.2 38.4 30.7255 38.4 29.594V19.2C38.4 19.2 30.0019 24.9399 30.2984 24.7532C30.2984 24.7532 30.0009 24.9399 29.7539 24.7532L28.0011 23.5142ZM28 16V21.8913L29.921 23.1877C29.9717 23.2035 30.0815 23.2047 30.1321 23.1877L38.4 17.2138C38.4 16.5068 37.7846 16 37.4374 16H28ZM10.4 12.8451V34.8845L27.2 38.4V9.6L10.4 12.8451Z" fill="white"/>
<path fill-rule="evenodd" clip-rule="evenodd" d="M21.6419 27.5907C20.932 28.5231 20.0063 28.9904 18.8639 28.9904C17.7508 28.9904 16.8447 28.5382 16.1434 27.635C15.4433 26.7307 15.0921 25.5538 15.0921 24.1022C15.0921 22.5695 15.4476 21.3298 16.1597 20.3834C16.8718 19.4369 17.8148 18.9631 18.9886 18.9631C20.0974 18.9631 20.9948 19.4153 21.6788 20.3217C22.3638 21.2282 22.7063 22.4224 22.7063 23.9054C22.7074 25.4295 22.3518 26.6583 21.6419 27.5907ZM18.8414 20.8C18.2168 20.8 17.7192 21.0942 17.3517 21.6816C16.9843 22.2689 16.8 23.0465 16.8 24.0144C16.8 24.9966 16.9843 25.7731 17.3517 26.3439C17.7192 26.9157 18.2014 27.2 18.7972 27.2C19.4119 27.2 19.8996 26.9224 20.2593 26.3671C20.619 25.8118 20.8 25.0409 20.8 24.0553C20.8 23.0277 20.6257 22.228 20.2759 21.6561C19.9261 21.0854 19.4483 20.8 18.8414 20.8Z" fill="white"/>
</svg>
