<svg width="48" height="48" viewBox="0 0 48 48" fill="none" xmlns="http://www.w3.org/2000/svg">
<path fill-rule="evenodd" clip-rule="evenodd" d="M0 24C0 10.7452 10.7452 0 24 0C37.2548 0 48 10.7452 48 24C48 37.2548 37.2548 48 24 48C10.7452 48 0 37.2548 0 24ZM20.8 12.8V33.6994L25.2606 35.2V17.6701C25.2606 16.8494 25.6079 16.3008 26.1616 16.4914C26.891 16.7052 27.0335 17.4623 27.0335 18.283V25.2838C29.8118 26.7055 32 25.283 32 21.5238C32 17.6701 30.7201 15.96 26.9428 14.5856C25.4581 14.0551 22.6951 13.1717 20.8 12.8ZM26.4 32.5481V35.2L36.2818 31.604C36.2818 31.604 37.6101 31.109 38.1536 30.4161C38.6946 29.7232 38.4541 28.7175 36.3204 28.0329C34.4289 27.3058 32.0178 27.0571 30.0491 27.2776C28.0797 27.498 26.6791 27.9996 26.6791 27.9996L26.4 28.0944V30.8478L31.2444 29.1193C32.0695 28.8198 33.2837 28.7549 33.9544 28.9778C34.6235 29.1999 34.4954 29.6225 33.6728 29.9211L26.4 32.5481ZM11.883 31.2163C14.4518 32.0257 17.0601 32.1843 19.5112 31.8019C19.6703 31.7762 19.8437 31.7505 20 31.723V29.2693L17.5507 30.1155C16.6477 30.4259 15.3197 30.491 14.5857 30.2613C13.8534 30.0315 13.9909 29.5968 14.8947 29.2865L20 27.5418V24.8L12.9037 27.2057C12.9037 27.2057 11.1885 27.745 10.1758 28.4591C9.08508 29.2316 9.48491 30.5725 11.883 31.2163Z" fill="white"/>
</svg>
