<svg width="48" height="48" viewBox="0 0 48 48" fill="none" xmlns="http://www.w3.org/2000/svg">
<path fill-rule="evenodd" clip-rule="evenodd" d="M24 48C10.7452 48 0 37.2548 0 24C0 10.7452 10.7452 0 24 0C37.2548 0 48 10.7452 48 24C48 37.2548 37.2548 48 24 48ZM41.6 23.6875C41.6 21.4925 39.8065 19.7065 37.6014 19.7065C36.5928 19.7065 35.6726 20.0836 34.9686 20.6993C32.4633 19.097 29.1511 18.0544 25.4832 17.8718L27.412 11.8024L32.6744 13.0362C32.7334 14.8042 34.1927 16.2259 35.9834 16.2259C37.8109 16.2259 39.2979 14.7459 39.2979 12.926C39.2979 11.1062 37.8105 9.62608 35.9834 9.62608C34.6559 9.62608 33.5117 10.4087 32.9824 11.5327L27.0691 10.1476C26.6774 10.0561 26.2795 10.2807 26.1595 10.6629L23.8762 17.8481C19.971 17.9244 16.4282 18.9744 13.7731 20.6467C13.0769 20.0614 12.1782 19.7065 11.1986 19.7065C8.99349 19.7069 7.2 21.4925 7.2 23.6875C7.2 25.0851 7.92865 26.3137 9.02555 27.0236C8.96965 27.3801 8.93955 27.7413 8.93955 28.1067C8.93955 33.7675 15.843 38.3731 24.3296 38.3731C32.8155 38.3731 39.7197 33.7675 39.7197 28.1067C39.7197 27.7677 39.6939 27.4326 39.6458 27.1011C40.8127 26.4067 41.6 25.1388 41.6 23.6875Z" fill="white"/>
<path fill-rule="evenodd" clip-rule="evenodd" d="M39.2241 25.5202C38.6615 24.0782 37.6374 22.7593 36.2664 21.6357C36.6511 21.3862 37.1092 21.2399 37.6018 21.2399C38.9575 21.2399 40.0602 22.3378 40.0602 23.6875C40.0594 24.4172 39.735 25.0718 39.2241 25.5202Z" fill="white"/>
<path fill-rule="evenodd" clip-rule="evenodd" d="M35.9834 11.1603C36.9619 11.1603 37.7578 11.953 37.7578 12.9272C37.7578 13.9013 36.9619 14.6937 35.9834 14.6937C35.0046 14.6937 34.2087 13.9013 34.2087 12.9272C34.2087 11.953 35.0046 11.1603 35.9834 11.1603Z" fill="white"/>
<path fill-rule="evenodd" clip-rule="evenodd" d="M38.1795 28.1075C38.1795 32.9222 31.9657 36.8401 24.3296 36.8401C16.6924 36.8401 10.4797 32.9226 10.4797 28.1075C10.4797 27.9378 10.4891 27.7705 10.504 27.6035C10.5505 27.0917 10.6693 26.5912 10.8503 26.1063C11.3198 24.8492 12.2204 23.6957 13.4506 22.7122C13.8443 22.3973 14.2708 22.1 14.7273 21.8225C17.2194 20.3082 20.6039 19.3741 24.3296 19.3741C28.1093 19.3741 31.5396 20.3346 34.0398 21.8879C34.4976 22.1716 34.9229 22.4759 35.3146 22.7978C36.4959 23.7665 37.3594 24.8959 37.8148 26.1238C37.9943 26.6103 38.1131 27.1112 38.1577 27.6241C38.1713 27.7849 38.1795 27.9452 38.1795 28.1075ZM21.6171 26.2616C21.6171 24.9687 20.564 23.884 19.265 23.884C17.9664 23.884 16.8773 24.9687 16.8773 26.2616C16.8773 27.5541 17.9668 28.6037 19.265 28.6037C20.564 28.6022 21.6171 27.5541 21.6171 26.2616ZM29.5706 23.8832C28.272 23.8832 27.1794 24.9675 27.1794 26.2604C27.1794 27.5537 28.272 28.6026 29.5706 28.6026C30.8695 28.6026 31.9234 27.5545 31.9234 26.2604C31.9227 24.9667 30.8695 23.8832 29.5706 23.8832ZM28.906 31.9379C28.0347 32.8042 26.5676 33.225 24.418 33.225C24.4113 33.225 24.4055 33.2269 24.3992 33.2269C24.3926 33.2269 24.3871 33.225 24.3808 33.225C22.2308 33.225 20.7634 32.8042 19.8932 31.9379C19.5926 31.6382 19.1047 31.6382 18.8041 31.9379C18.5031 32.238 18.5031 32.7233 18.8041 33.0218C19.9773 34.1901 21.8016 34.7587 24.3808 34.7587C24.3875 34.7587 24.393 34.7564 24.3992 34.7564C24.4055 34.7564 24.4113 34.7587 24.418 34.7587C26.9968 34.7587 28.8216 34.1901 29.9959 33.0226C30.2973 32.7225 30.2973 32.2376 29.9966 31.9387C29.6953 31.639 29.2074 31.639 28.906 31.9379Z" fill="white"/>
<path fill-rule="evenodd" clip-rule="evenodd" d="M8.74018 23.6875C8.74018 22.3382 9.84294 21.2399 11.1982 21.2399C11.656 21.2399 12.0836 21.3679 12.4515 21.5862C11.0798 22.6958 10.0532 24.0016 9.47431 25.4287C9.02125 24.9846 8.74018 24.3686 8.74018 23.6875Z" fill="white"/>
</svg>
