<svg width="48" height="48" viewBox="0 0 48 48" fill="none" xmlns="http://www.w3.org/2000/svg">
<path fill-rule="evenodd" clip-rule="evenodd" d="M24 48C10.7452 48 0 37.2548 0 24C0 10.7452 10.7452 0 24 0C37.2548 0 48 10.7452 48 24C48 37.2548 37.2548 48 24 48ZM33.1958 15.3263C33.1789 15.1747 33.0442 15.1074 32.9432 15.0905C32.8421 15.0737 30.6358 14.9221 30.6358 14.9221C30.6358 14.9221 29.1032 13.4063 28.9516 13.2379C28.7832 13.0695 28.4632 13.12 28.3284 13.1537C28.3116 13.1537 27.9916 13.2547 27.4695 13.4232C26.9811 11.9579 26.0716 10.6105 24.4884 10.6105H24.3537C23.8989 10.0211 23.3432 9.75158 22.8716 9.75158C19.1832 9.76842 17.4316 14.3663 16.8758 16.7074C15.4442 17.1453 14.4337 17.4653 14.2989 17.4989C13.5074 17.7516 13.4737 17.7684 13.3726 18.5263C13.2884 19.1158 11.2 35.2842 11.2 35.2842L27.4863 38.3326L36.3116 36.4295C36.3116 36.4126 33.2126 15.4779 33.1958 15.3263Z" fill="white"/>
<path fill-rule="evenodd" clip-rule="evenodd" d="M26.5768 13.7095C26.1726 13.8442 25.7011 13.9789 25.1958 14.1305V13.8274C25.1958 12.9179 25.0611 12.1768 24.8589 11.6042C25.6842 11.7221 26.24 12.6484 26.5768 13.7095Z" fill="white"/>
<path fill-rule="evenodd" clip-rule="evenodd" d="M23.8653 11.7895C24.0842 12.3621 24.2358 13.1705 24.2358 14.2653V14.4168C23.3432 14.6863 22.3663 14.9895 21.3895 15.2926C21.9453 13.2042 22.9726 12.1768 23.8653 11.7895Z" fill="white"/>
<path fill-rule="evenodd" clip-rule="evenodd" d="M22.7705 10.7621C22.9221 10.7621 23.0905 10.8126 23.2421 10.9137C22.0632 11.4695 20.8 12.8674 20.2611 15.6632C19.4863 15.8989 18.7116 16.1347 18.0042 16.3537C18.6442 14.2316 20.1263 10.7621 22.7705 10.7621Z" fill="white"/>
<path fill-rule="evenodd" clip-rule="evenodd" d="M24.4884 19.9747L23.3937 23.2084C23.3937 23.2084 22.4337 22.7032 21.2716 22.7032C19.5537 22.7032 19.4695 23.7811 19.4695 24.0505C19.4695 25.5326 23.3263 26.0884 23.3263 29.5579C23.3263 32.2863 21.5916 34.0379 19.2674 34.0379C16.4716 34.0379 15.04 32.3032 15.04 32.3032L15.7811 29.8274C15.7811 29.8274 17.2463 31.0905 18.4926 31.0905C19.3011 31.0905 19.6379 30.4505 19.6379 29.9789C19.6379 28.0421 16.4716 27.9579 16.4716 24.7916C16.4716 22.1305 18.3916 19.5368 22.2484 19.5368C23.7642 19.5537 24.4884 19.9747 24.4884 19.9747Z" fill="white"/>
</svg>
