<svg width="48" height="48" viewBox="0 0 48 48" fill="none" xmlns="http://www.w3.org/2000/svg">
<path fill-rule="evenodd" clip-rule="evenodd" d="M24 48C10.7452 48 0 37.2548 0 24C0 10.7452 10.7452 0 24 0C37.2548 0 48 10.7452 48 24C48 37.2548 37.2548 48 24 48ZM29.4884 12.8H18.8993L13.8232 15.0884L9.6 19.7796L24.2043 39.2L38.8085 19.7796L34.5957 15.0468L29.4884 12.8Z" fill="white"/>
<path fill-rule="evenodd" clip-rule="evenodd" d="M26.3223 35.9609L33.0777 24.8441L35.9171 22.4501L26.3223 35.9609Z" fill="white"/>
<path fill-rule="evenodd" clip-rule="evenodd" d="M17.2542 25.4694H30.9431L24.2043 37.8893L17.2542 25.4694Z" fill="white"/>
<path fill-rule="evenodd" clip-rule="evenodd" d="M12.4815 22.4501L15.321 24.8441L22.0764 35.9609L12.4815 22.4501Z" fill="white"/>
<path fill-rule="evenodd" clip-rule="evenodd" d="M14.0629 16.2533L18.4208 18.4377L15.3002 23.2643L10.8071 19.9055L14.0629 16.2533Z" fill="white"/>
<path fill-rule="evenodd" clip-rule="evenodd" d="M19.8452 13.5604H28.6421L32.9731 15.4704L28.6236 17.365H19.8267L15.5211 15.472L19.8452 13.5604Z" fill="white"/>
<path fill-rule="evenodd" clip-rule="evenodd" d="M31.2776 23.8884H16.8605L19.7298 18.7914L28.3234 18.8122L31.2776 23.8884Z" fill="white"/>
<path fill-rule="evenodd" clip-rule="evenodd" d="M37.5915 19.9055L32.9731 23.3615L29.6887 18.4404L34.3357 16.2533L37.5915 19.9055Z" fill="white"/>
</svg>
