<svg width="48" height="48" viewBox="0 0 48 48" fill="none" xmlns="http://www.w3.org/2000/svg">
<path fill-rule="evenodd" clip-rule="evenodd" d="M0 24C0 10.7452 10.7452 0 24 0C37.2548 0 48 10.7452 48 24C48 37.2548 37.2548 48 24 48C10.7452 48 0 37.2548 0 24ZM24.2461 12H24.245C24.2229 12 24.2022 12 24.1824 12.0003C24.0248 12.0019 23.7656 12.0044 23.7423 12.0046C23.174 12.0046 22.037 12.0847 20.8156 12.6222C20.1172 12.9294 19.4891 13.3446 18.9487 13.8566C18.3043 14.4666 17.7794 15.2186 17.3888 16.0922C16.8167 17.3713 16.9525 19.5258 17.0616 21.2572L17.062 21.2599C17.0737 21.4453 17.0859 21.6389 17.0971 21.8276C17.0132 21.866 16.8772 21.9066 16.6766 21.9066C16.3539 21.9066 15.9702 21.8037 15.5363 21.601C15.4087 21.5417 15.263 21.5118 15.1023 21.5118C14.844 21.5118 14.5717 21.5876 14.3355 21.726C14.0384 21.9 13.8464 22.1459 13.7942 22.4185C13.7599 22.5988 13.7615 22.9552 14.1586 23.3167C14.377 23.5157 14.6978 23.6992 15.1119 23.8624C15.2206 23.905 15.3496 23.9458 15.4862 23.989C15.9602 24.1392 16.6777 24.3662 16.8647 24.8052C16.9596 25.0278 16.9188 25.3207 16.7438 25.6748C16.7392 25.6844 16.7346 25.6939 16.7305 25.7038C16.6867 25.8056 16.2789 26.7268 15.4422 27.6984C14.9668 28.2509 14.4431 28.7126 13.8866 29.0712C13.2074 29.5089 12.4725 29.795 11.7024 29.9215C11.4 29.971 11.1841 30.2396 11.2009 30.5449C11.2061 30.6329 11.2268 30.7206 11.2627 30.8055C11.263 30.806 11.2633 30.8066 11.2636 30.807C11.3858 31.0922 11.6693 31.3344 12.1302 31.5481C12.6934 31.8089 13.5357 32.0284 14.6335 32.2C14.6889 32.3052 14.7465 32.5695 14.7864 32.7505C14.8281 32.9429 14.8717 33.1407 14.9337 33.3508C15.0006 33.5784 15.1742 33.8504 15.6203 33.8504C15.7893 33.8504 15.9837 33.8125 16.2088 33.7689C16.5385 33.7044 16.9893 33.6165 17.5519 33.6165C17.8639 33.6165 18.1872 33.6438 18.5126 33.6978C19.1399 33.8019 19.6806 34.1828 20.3063 34.6239C21.2221 35.2694 22.2588 36 23.8426 36C23.8858 36 23.9291 35.9986 23.9719 35.9956C24.0242 35.9981 24.0891 36 24.1576 36C25.7419 36 26.7782 35.2691 27.693 34.6241L27.6945 34.6228C28.3203 34.1822 28.8605 33.8019 29.4876 33.6978C29.8128 33.6439 30.1361 33.6165 30.4481 33.6165C30.9857 33.6165 31.4113 33.6848 31.7913 33.7587C32.0393 33.8074 32.232 33.8308 32.3799 33.8308L32.3943 33.831H32.4093C32.7355 33.831 32.9752 33.6525 33.0667 33.3401C33.1275 33.1344 33.1709 32.9412 33.2137 32.7456C33.251 32.576 33.3105 32.3041 33.366 32.1978C34.4645 32.0259 35.3065 31.8069 35.8698 31.5461C36.3296 31.3335 36.6127 31.0915 36.7357 30.8075C36.7726 30.7224 36.7942 30.6341 36.799 30.5443C36.8163 30.2395 36.6001 29.9703 36.2975 29.9209C32.8751 29.3585 31.3334 25.8522 31.2696 25.7032C31.2655 25.6934 31.2609 25.6837 31.256 25.6742C31.0811 25.3201 31.0407 25.0275 31.1355 24.8045C31.3222 24.3658 32.0392 24.1389 32.5136 23.9887C32.6509 23.9456 32.7803 23.9046 32.8881 23.8621C33.3551 23.6782 33.6889 23.4787 33.9091 23.2521C34.1721 22.982 34.2233 22.7233 34.2201 22.5539C34.2121 22.1442 33.898 21.7801 33.3983 21.6018C33.2295 21.5322 33.037 21.4955 32.841 21.4955C32.7076 21.4955 32.51 21.5138 32.323 21.6008C31.9226 21.7876 31.564 21.8898 31.2561 21.9043C31.0923 21.896 30.9775 21.8606 30.9031 21.8268C30.9125 21.667 30.9228 21.5028 30.9335 21.3316L30.938 21.2583C31.0476 19.5259 31.1839 17.3697 30.6116 16.0897C30.2193 15.213 29.6925 14.459 29.0456 13.8477C28.503 13.3355 27.8728 12.9202 27.1719 12.6133C25.9522 12.0797 24.8152 12 24.2461 12Z" fill="white"/>
</svg>
