<svg width="48" height="48" viewBox="0 0 48 48" fill="none" xmlns="http://www.w3.org/2000/svg">
<path fill-rule="evenodd" clip-rule="evenodd" d="M0.986659 31.001C3.98567 40.8412 13.1429 48 23.9742 48C37.2431 48 48 37.2546 48 24C48 10.7452 37.2431 0 23.9742 0C11.2414 0 0.822857 9.89439 0 22.4055C0.00951262 22.4214 0.0189897 22.4374 0.0284312 22.4533C0.0301588 22.4194 0.0312094 22.4018 0.0312094 22.4018L12.8753 27.7264C13.2247 27.495 13.5971 27.2946 13.9945 27.1313C14.8961 26.7573 15.8469 26.59 16.7944 26.6334L22.6437 18.0768C22.6416 18.0388 22.6416 17.9983 22.6416 17.9578C22.6416 12.908 26.7144 8.8 31.7208 8.8C36.7292 8.8 40.8 12.908 40.8 17.9578C40.8 23.0072 36.7292 27.1189 31.7208 27.1189C31.6531 27.1189 31.5833 27.1169 31.5156 27.1148L23.1463 33.1378C23.171 34.0676 23.0007 34.9994 22.6354 35.8879C21.232 39.2868 17.342 40.9046 13.9682 39.4851C11.9062 38.6194 10.5085 36.8197 10.0526 34.768L0.986659 31.001Z" fill="white"/>
<path fill-rule="evenodd" clip-rule="evenodd" d="M21.2382 35.297C20.1519 37.9231 17.1551 39.169 14.5501 38.076C13.3484 37.5718 12.4411 36.6482 11.9177 35.547L14.8733 36.7805C16.7944 37.5863 18.9984 36.6689 19.797 34.7349C20.598 32.7989 19.6893 30.5757 17.7692 29.7699L14.7139 28.495C15.8928 28.0446 17.2331 28.0281 18.4853 28.5529C19.7477 29.0818 20.7273 30.0777 21.2464 31.3505C21.7655 32.6233 21.7634 34.0283 21.2382 35.297Z" fill="white"/>
<path fill-rule="evenodd" clip-rule="evenodd" d="M31.7208 24.061C28.3866 24.061 25.6721 21.3232 25.6721 17.9578C25.6721 14.5951 28.3866 11.8565 31.7208 11.8565C35.057 11.8565 37.7715 14.5951 37.7715 17.9578C37.7715 21.3232 35.057 24.061 31.7208 24.061ZM27.1884 17.9485C27.1884 20.4804 29.2238 22.532 31.7311 22.532C34.2404 22.532 36.2758 20.4804 36.2758 17.9485C36.2758 15.4168 34.2404 13.3634 31.7311 13.3634C29.2238 13.3634 27.1884 15.4168 27.1884 17.9485Z" fill="white"/>
</svg>
