<svg width="48" height="48" viewBox="0 0 48 48" fill="none" xmlns="http://www.w3.org/2000/svg">
<path fill-rule="evenodd" clip-rule="evenodd" d="M0 24C0 10.7452 10.7452 0 24 0C37.2548 0 48 10.7452 48 24C48 37.2548 37.2548 48 24 48C10.7452 48 0 37.2548 0 24ZM14.7018 17.9516C16.1642 17.9516 17.3482 16.8868 17.3482 15.5804C17.3482 14.274 16.1642 13.2076 14.7018 13.2076C13.2418 13.2076 12.0578 14.274 12.0578 15.5804C12.0578 16.8868 13.2418 17.9516 14.7018 17.9516ZM12.5088 18.9094L10.8488 21.4694L13.9224 23.3862C13.9224 23.3862 15.9688 24.4318 14.9968 26.3958C14.076 28.2566 9.6 32.3294 9.6 32.3294L13.6136 34.8326C16.3848 28.8134 16.2112 29.6158 16.9088 27.4534C17.6248 25.2422 17.7768 23.5566 16.5672 22.3422C15.0016 20.775 14.828 20.6302 12.5088 18.9094ZM38.5283 18.2368C38.5283 18.2368 37.6675 11.46 22.8315 15.6608C23.4603 14.5584 23.7723 13.836 23.7723 13.836L20.0643 12.8C20.0643 12.8 18.5707 17.6712 15.9067 19.9472C15.9067 19.9472 18.4835 21.432 18.4563 21.3904C19.1939 20.6536 19.8523 19.9008 20.4339 19.1736C21.0227 18.9128 21.5955 18.6728 22.1523 18.4448C21.4707 19.6808 20.3611 21.5248 19.2523 22.6912L20.8131 24.056C20.8131 24.056 21.8739 23.0344 23.0379 21.8H24.3659V24.0768H19.1939V25.8944H24.3659V30.2568C24.2995 30.2544 24.2315 30.2544 24.1683 30.2464C23.5995 30.22 22.7059 30.1256 22.3635 29.5784C21.9419 28.9112 22.2483 27.6864 22.2723 26.9304H18.7083L18.5779 26.9984C18.5779 26.9984 17.2779 32.8472 22.3499 32.7176C27.0939 32.8456 29.8155 31.3968 31.1203 30.3952L31.6419 32.3296L34.5699 31.1136L32.5923 26.2592L30.2107 26.9984L30.6571 28.6632C30.0451 29.1168 29.3395 29.4568 28.5867 29.7104V25.8944H33.6267V24.0768H28.5867V21.8H33.6483V19.9824H24.6571C25.3035 19.192 25.8115 18.4736 25.9491 18.0112L24.3835 17.588C31.1043 15.1848 34.8491 15.5944 34.8147 19.54V29.9336C34.8147 29.9336 35.2139 33.5104 31.1203 33.2504L28.9099 32.7736L28.3915 34.8768C28.3915 34.8768 37.9435 37.6032 38.7259 30.2608C39.5059 22.9184 38.5283 18.2368 38.5283 18.2368Z" fill="white"/>
</svg>
