<svg width="48" height="48" viewBox="0 0 48 48" fill="none" xmlns="http://www.w3.org/2000/svg">
<path fill-rule="evenodd" clip-rule="evenodd" d="M48 24C48 37.2548 37.2548 48 24 48C10.7452 48 0 37.2548 0 24C0 10.7452 10.7452 0 24 0C37.2548 0 48 10.7452 48 24ZM24.8407 9.25454C25.5852 13.9825 24.5926 19.1248 18.7611 21.0989H18.6618C17.6444 19.7341 17.3963 17.4676 17.3218 16.5659C17.3218 16.3953 17.1233 16.2978 16.9744 16.3953C12.1258 19.2834 9.88789 25.0325 11.5383 30.3608C13.1887 35.689 18.3073 39.2403 23.9722 38.9873C31.6896 38.9873 37 33.0408 37 26.3143C37 17.5407 30.7218 11.6917 25.1385 9.01083C24.9896 8.96209 24.8407 9.08394 24.8407 9.25454Z" fill="white"/>
</svg>
