<svg width="48" height="48" viewBox="0 0 48 48" fill="none" xmlns="http://www.w3.org/2000/svg">
<path fill-rule="evenodd" clip-rule="evenodd" d="M24.2068 40.2182V40.1144C24.6113 39.6322 24.8587 39.1522 24.9487 38.6693C25.0778 38.0154 25.1074 37.3602 25.1849 36.5805C25.2621 35.9267 25.2061 35.046 25.0255 34.1408C24.791 33.1115 24.4097 32.0639 24.2068 31.2775V17.6783L24.7077 17.8909C24.7166 18.2036 24.7144 18.5094 24.7117 18.8073C24.7096 18.7058 24.7098 18.6024 24.7124 18.4971C24.6359 19.8409 24.6154 20.3358 24.8733 21.3165C25.157 22.3979 26.6019 23.9569 27.1953 25.7425C28.3304 29.1625 28.0467 33.6388 27.221 37.1342C27.0756 37.7132 26.6736 38.4145 26.1358 39.0553C26.3254 38.7174 26.4879 38.3495 26.6017 37.9641C27.4274 35.1476 27.7627 33.8399 27.3759 30.7216C27.3243 30.4196 27.1953 29.3888 26.7051 28.2822C25.9827 26.5972 24.9507 24.9879 24.8219 24.6609C24.5896 24.133 24.28 21.8446 24.2284 20.2855C24.2543 21.593 24.3574 24.0326 24.7186 24.9881C24.8217 25.3149 25.7762 26.7484 26.4468 28.4835C26.9114 29.6906 27.0145 30.7971 27.0919 31.1239C27.4016 32.5574 27.0145 34.9716 26.4984 37.26C26.286 38.2748 25.6535 39.4944 24.8749 40.2303C24.8638 40.2381 24.8526 40.2459 24.8415 40.2537C25.3266 39.7769 25.8012 38.9768 26.0881 38.0133C26.4751 36.6806 26.6277 34.9748 26.6017 33.8934C26.5758 33.2647 26.2913 31.9033 25.7752 30.6711C25.4915 29.9922 25.0556 29.3133 24.7717 28.8355C24.4624 28.3573 24.4602 27.3265 24.3053 26.1195C24.3312 27.4272 24.2002 28.0833 24.5355 29.0139C24.7418 29.567 25.4389 30.3215 25.6453 31.0508C25.9291 32.0317 26.2381 33.1129 26.212 33.7668C26.212 34.5214 26.1636 35.929 25.8283 37.4379C25.5916 38.592 25.0691 39.5946 24.2068 40.2182ZM23.8922 40.3406C22.8999 40.1343 21.7626 39.7903 21.0822 39.2217C19.7149 38.065 18.5039 36.1308 18.349 34.4458C18.2202 33.0628 19.5339 31.023 21.3655 29.9921C22.9134 29.1119 23.2734 28.1088 23.6087 26.4993C23.1444 27.9075 22.7083 29.0881 21.212 29.8425C19.045 30.9489 17.933 32.8063 18.0361 34.5666C18.1908 36.8298 19.1207 38.3633 20.9523 39.5957C21.4852 39.9593 22.3366 40.3371 23.11 40.5865C20.2826 39.9495 20.0106 39.6549 19.1979 38.7187C19.1979 38.6684 18.9915 38.5426 18.9915 38.4924C17.9595 37.3355 16.6438 35.3739 16.1795 33.5633C16.0246 32.9347 15.8697 32.2558 16.0502 31.627C16.9014 28.6595 18.7591 27.503 20.6166 26.2706C21.0809 25.969 21.5195 25.667 21.9582 25.3654C22.9901 24.5857 23.2482 22.4986 23.4803 21.3417C23.0415 22.775 22.6031 24.5355 21.8034 25.1137C21.3907 25.4405 20.8748 25.6922 20.4362 25.9688C18.5013 27.2513 16.592 28.4584 15.7149 31.5263C15.5087 32.3061 15.6634 32.8842 15.844 33.6388C16.334 35.5249 17.6499 37.5365 18.7334 38.7437C18.7334 38.7437 18.914 38.9199 18.914 38.945C19.4053 39.4976 20.0381 39.8883 20.7823 40.202C20.1348 40.0268 19.5089 39.8041 18.9144 39.5231C15.8961 38.0897 13.8837 35.0216 13.7547 32.5069C13.471 27.4021 15.9992 25.9183 18.3212 24.0575C19.6369 23.0013 21.4428 22.4984 22.5005 20.6374C22.707 20.2353 22.8101 19.3297 22.5779 18.3993C22.4746 18.0724 21.9844 16.9408 21.8038 16.6892L23.2639 17.2758C23.2638 17.2765 23.2637 17.2772 23.2636 17.278L23.9077 17.5514H23.8922V31.4136C23.6071 32.2469 23.3628 32.3808 22.6819 33.1626C21.8823 34.068 21.7492 35.4015 21.7492 36.4827C21.7492 36.9355 21.9345 37.4379 22.1152 37.9155C22.3215 38.4186 22.4986 38.9194 22.7823 39.2965C23.1482 39.8211 23.6019 40.1515 23.8922 40.2759V40.3406ZM23.8922 31.4923V39.8262C23.5914 39.6673 23.4478 39.4808 23.225 39.1987C22.9156 38.7711 22.7054 38.3436 22.4989 37.8407C22.3442 37.4634 22.1634 37.0316 22.0857 36.5288C21.9826 35.7744 22.0115 34.5942 22.8885 33.387C23.5072 32.5056 23.6861 32.3753 23.8922 31.4923ZM24.2068 39.4361V31.6307C24.3195 32.4018 24.5724 33.2995 24.6949 34.2156C24.8241 35.0707 24.768 35.9296 24.7421 36.6841C24.721 37.41 24.5112 38.6134 24.2068 39.4361ZM25.0102 17.7306C27.0036 14.6886 29.5976 11.6654 32.8451 8.84334C30.3428 9.67323 28.1241 10.9305 26.4729 13.1938C27.4533 11.2072 29.0528 9.22044 30.8071 7.23384C28.4076 8.91884 26.318 10.8299 25.0023 13.3697L25.9311 9.77376C24.5408 12.1886 23.5863 14.6854 23.2816 17.1271L21.4168 15.9096L21.0813 16.1611C22.7583 19.1032 21.8813 20.6624 21.0556 21.2158C19.3785 22.3474 16.9275 23.7557 15.7151 24.9879C13.3673 27.3266 12.6965 29.5647 12.903 32.5069C13.1351 36.2793 15.9473 39.4226 19.7138 40.6548C21.3648 41.1831 22.887 41.2584 24.5898 41.2584C27.3245 41.2584 30.1365 40.5543 32.1745 38.8945C34.3416 37.1342 35.6316 34.4937 35.6316 31.7527C35.6316 28.9865 34.445 26.3711 32.3551 24.5103C31.2457 23.5296 29.8526 22.7249 28.4078 21.9453C27.7629 21.593 25.7762 20.0843 26.447 17.9216L25.0102 17.7306ZM0 24C0 10.7452 10.7452 0 24 0C37.2548 0 48 10.7452 48 24C48 37.2548 37.2548 48 24 48C10.7452 48 0 37.2548 0 24Z" fill="white"/>
</svg>
