<svg width="48" height="48" viewBox="0 0 48 48" fill="none" xmlns="http://www.w3.org/2000/svg">
<path fill-rule="evenodd" clip-rule="evenodd" d="M0 24C0 10.7452 10.7452 0 24 0C37.2548 0 48 10.7452 48 24C48 37.2548 37.2548 48 24 48C10.7452 48 0 37.2548 0 24ZM36.0112 16.581C35.6618 16.4062 34.8755 16.0568 34.0019 15.5326C33.0409 15.0084 31.5557 15.8821 30.5947 17.3672L28.9348 20.1629C28.3232 21.386 28.4106 22.6964 29.1969 23.8321L29.2842 23.9195C30.0705 25.0552 31.1189 26.0162 31.381 26.3657C31.5557 26.5404 31.7304 26.8899 31.8178 27.1519C32.0799 28.2003 31.5557 29.1613 30.5073 29.4234C29.5463 29.6855 28.498 29.0739 28.1485 28.1129C28.0612 27.8509 28.0612 27.5888 28.0612 27.3267C28.1485 26.8899 27.9738 26.191 27.3622 25.6668C26.7507 24.9679 25.5276 26.2783 25.1782 27.5014V27.5888C24.8287 28.8992 24.5666 29.9476 24.654 30.0349C24.654 30.1223 24.7413 30.2097 24.7413 30.2097C25.2655 31.258 24.9161 32.4811 23.8677 33.0053C22.8193 33.5295 21.5089 33.18 20.9847 32.1317C20.4605 31.0833 20.81 29.8602 21.8583 29.336C21.9457 29.336 21.9457 29.2487 22.0331 29.2487C22.1204 29.2487 22.2952 28.6371 22.5573 28.0256C22.732 27.414 22.9067 26.8899 22.9067 26.8899C22.9067 26.8025 22.9067 26.7151 22.9941 26.7151L24.0424 23.0459L22.9941 25.23C22.8193 24.7931 22.6446 24.7931 22.1204 25.1426C21.8583 25.3173 21.3342 25.7541 21.1594 25.9289C20.7226 26.2783 20.3732 26.8899 20.1984 27.2393C20.1111 27.5014 19.9364 27.6761 19.7616 27.8509C18.9754 28.5498 17.7523 28.375 17.1407 27.5888C16.5292 26.8025 16.7039 25.7541 17.4902 25.1426C17.7523 24.9679 18.0144 24.7931 18.2764 24.7931C18.7133 24.7058 20.3732 23.6574 21.3342 23.0459C21.5089 22.9585 21.6836 22.7838 21.771 22.6964L24.3045 20.8618L22.0331 22.0849H21.5089C20.81 22.1722 19.9364 22.2596 19.7616 22.5217C19.6743 22.609 19.5869 22.7838 19.4122 22.8711C18.7133 23.2206 17.6649 23.0459 17.0534 22.347C16.5292 21.5607 16.7039 20.5997 17.4028 20.0755C17.8396 19.8134 18.1891 19.7261 18.5385 19.7261C19.1501 19.7261 20.7226 20.0755 22.0331 19.8134L22.3825 19.7261C23.693 19.464 25.2655 18.4156 25.8771 17.1925C25.8771 17.1925 26.4886 16.0568 27.2749 14.8337C28.0612 13.5232 27.9738 12.1254 27.1875 11.6012L25.7023 10.7276C24.9161 10.2908 23.693 10.2908 22.9067 10.7276L12.5978 16.4062C11.8115 16.8431 11.2 17.9788 11.2 18.8524V30.0349C11.2 30.9086 11.8115 31.8696 12.5978 32.3064L22.9941 38.0724C23.7803 38.5092 25.0034 38.5092 25.7897 38.0724L36.0112 32.219C36.7975 31.7822 37.409 30.8212 37.409 29.9476V18.8524C37.409 17.9788 36.7975 17.0178 36.0112 16.581Z" fill="white"/>
</svg>
