<svg width="48" height="48" viewBox="0 0 48 48" fill="none" xmlns="http://www.w3.org/2000/svg">
<path fill-rule="evenodd" clip-rule="evenodd" d="M24 48C10.7452 48 0 37.2548 0 24C0 10.7452 10.7452 0 24 0C37.2548 0 48 10.7452 48 24C48 37.2548 37.2548 48 24 48ZM9.6 14.4043V33.5957C9.6 36.2588 11.7509 38.4 14.4043 38.4H33.5957C36.2588 38.4 38.4 36.2491 38.4 33.5957V14.4043C38.4 11.7412 36.2491 9.6 33.5957 9.6H14.4043C11.7412 9.6 9.6 11.7509 9.6 14.4043Z" fill="white"/>
<path fill-rule="evenodd" clip-rule="evenodd" d="M13.344 15.0708C13.344 14.1171 14.1177 13.344 15.0716 13.344H20.4004C21.3545 13.344 22.128 14.1171 22.128 15.0708V31.4172C22.128 32.3709 21.3543 33.144 20.4004 33.144H15.0716C14.1175 33.144 13.344 32.3709 13.344 31.4172V15.0708Z" fill="white"/>
<path fill-rule="evenodd" clip-rule="evenodd" d="M25.872 15.0729C25.872 14.118 26.6457 13.344 27.5996 13.344H32.9284C33.8825 13.344 34.656 14.1179 34.656 15.0729V24.2151C34.656 25.17 33.8823 25.944 32.9284 25.944H27.5996C26.6455 25.944 25.872 25.1701 25.872 24.2151V15.0729Z" fill="white"/>
</svg>
