<svg width="48" height="48" viewBox="0 0 48 48" fill="none" xmlns="http://www.w3.org/2000/svg">
<path fill-rule="evenodd" clip-rule="evenodd" d="M0 24C0 10.7452 10.7452 0 24 0C37.2548 0 48 10.7452 48 24C48 37.2548 37.2548 48 24 48C10.7452 48 0 37.2548 0 24ZM37.9851 18.1395L33.2395 18.1363C30.5781 16.3926 27.3472 15.4683 23.7664 15.4683C20.0501 15.4683 16.6944 16.4153 14.048 18.1709L9.6 18.1742C9.6 18.1742 10.6453 19.6072 10.9835 21.0446C10.1184 22.2373 9.60427 23.705 9.60427 25.2971C9.60427 29.2737 12.7936 32.5089 16.7136 32.5089C18.9547 32.5089 20.9525 31.4492 22.256 29.803L23.7696 32.103L25.2949 29.7824C25.9808 30.6678 26.8661 31.3854 27.904 31.8746C29.6299 32.6799 31.5637 32.7578 33.344 32.0911C37.0219 30.71 38.9099 26.5505 37.5499 22.824C37.3109 22.167 36.9845 21.5717 36.5941 21.0359C36.9269 19.5888 37.9851 18.1395 37.9851 18.1395Z" fill="white"/>
<path fill-rule="evenodd" clip-rule="evenodd" d="M21.4101 28.5204C20.3893 30.0476 18.6635 31.0542 16.7115 31.0542C13.5819 31.0542 11.0357 28.4684 11.0357 25.2982C11.0357 22.1215 13.5829 19.5401 16.7115 19.5401C19.84 19.5401 22.3861 22.1215 22.3861 25.2982C22.3861 25.492 22.3488 25.6749 22.3296 25.8621C22.2347 26.8362 21.9264 27.7487 21.4101 28.5204ZM13.1083 25.2289C13.1083 27.1956 14.6848 28.792 16.6219 28.792C18.5547 28.792 20.1301 27.1956 20.1301 25.2289C20.1301 23.2677 18.5536 21.6702 16.6219 21.6702C14.6848 21.6712 13.1083 23.2666 13.1083 25.2289Z" fill="white"/>
<path fill-rule="evenodd" clip-rule="evenodd" d="M32.8459 30.7262C31.424 31.2576 29.8816 31.1981 28.5045 30.553C27.5275 30.0941 26.7275 29.3744 26.1515 28.4814C25.9168 28.1199 25.7099 27.7357 25.5584 27.3168C25.3856 26.8427 25.2992 26.3535 25.2523 25.861C25.1573 24.862 25.3003 23.85 25.7248 22.9149C26.3605 21.5176 27.4933 20.4536 28.9152 19.9211C31.8517 18.8225 35.12 20.3508 36.2048 23.3294C37.2885 26.307 35.7813 29.6222 32.8459 30.7262ZM27.3536 25.2289C27.3536 27.1956 28.928 28.792 30.8651 28.792C32.7989 28.792 34.3723 27.1956 34.3723 25.2289C34.3723 23.2677 32.7989 21.6702 30.8651 21.6702C28.9291 21.6712 27.3536 23.2666 27.3536 25.2289Z" fill="white"/>
<path fill-rule="evenodd" clip-rule="evenodd" d="M14.3189 25.2289C14.3189 23.9431 15.3547 22.8965 16.624 22.8965C17.8912 22.8965 18.9216 23.9442 18.9216 25.2289C18.9216 26.5191 17.8912 27.5668 16.624 27.5668C15.3547 27.5679 14.3189 26.5202 14.3189 25.2289ZM17.8005 25.2289C17.8005 24.5687 17.2715 24.0329 16.6197 24.034C15.9659 24.034 15.4379 24.5687 15.4379 25.2289C15.4379 25.8903 15.9659 26.4314 16.6197 26.4314C17.2715 26.4314 17.8005 25.8903 17.8005 25.2289Z" fill="white"/>
<path fill-rule="evenodd" clip-rule="evenodd" d="M28.5643 25.2289C28.5643 23.9431 29.5968 22.8965 30.8672 22.8965C32.1344 22.8965 33.1637 23.9442 33.1637 25.2289C33.1637 26.5191 32.1344 27.5668 30.8672 27.5668C29.5957 27.5679 28.5643 26.5202 28.5643 25.2289ZM32.0448 25.2289C32.0448 24.5687 31.5179 24.0329 30.8661 24.034C30.2101 24.034 29.6843 24.5687 29.6843 25.2289C29.6843 25.8903 30.2101 26.4314 30.8661 26.4314C31.5179 26.4314 32.0448 25.8903 32.0448 25.2289Z" fill="white"/>
<path fill-rule="evenodd" clip-rule="evenodd" d="M28.4171 18.5541C29.1573 18.277 29.9147 18.1428 30.6624 18.1222C28.6251 17.1957 26.3189 16.7271 23.7643 16.7271C21.2288 16.7271 18.8896 17.2076 16.8533 18.0897C20.5387 18.1644 23.5349 21.0933 23.7931 24.7841C23.856 23.9366 24.0597 23.0989 24.4203 22.3055C25.2149 20.5521 26.6357 19.2208 28.4171 18.5541Z" fill="white"/>
</svg>
