<svg width="48" height="48" viewBox="0 0 48 48" fill="none" xmlns="http://www.w3.org/2000/svg">
<path fill-rule="evenodd" clip-rule="evenodd" d="M23.9999 0.03125C10.7967 0.03125 0.0449219 10.7346 0.0449219 23.9379C0.0449219 37.1411 10.7967 47.8445 23.9999 47.8445C37.2032 47.8445 47.9549 37.1411 47.9549 23.9379C47.9549 10.7346 37.2032 0.03125 23.9999 0.03125ZM29.0997 32.4369C29.8936 32.4171 30.9582 32.187 31.5149 31.9225L32.9547 36.1745C32.4151 36.9666 29.9712 37.884 27.7707 37.9216C21.2489 38.0334 18.7784 33.2938 18.7784 29.9575V20.2142H15.7484V16.3623C20.2904 14.7306 21.3824 10.6501 21.6389 8.32516C21.6567 8.16548 21.7827 8.10253 21.8549 8.10253H26.2392V15.699H32.2306V20.2144H26.2184V29.4978C26.2377 30.7598 26.7029 32.5007 29.0997 32.4369Z" fill="white"/>
</svg>
