<svg width="48" height="48" viewBox="0 0 48 48" fill="none" xmlns="http://www.w3.org/2000/svg">
<path fill-rule="evenodd" clip-rule="evenodd" d="M24 48C10.7452 48 0 37.2548 0 24C0 10.7452 10.7452 0 24 0C37.2548 0 48 10.7452 48 24C48 37.2548 37.2548 48 24 48ZM11.7991 24.0001C11.7991 22.2699 10.4112 20.867 8.7001 20.867C6.9879 20.867 5.6 22.2699 5.6 24.0001C5.6 25.7302 6.9879 27.1326 8.7001 27.1326C10.4117 27.1326 11.7991 25.7308 11.7991 24.0001ZM29.433 39.2334C30.2897 40.7315 32.1839 41.245 33.667 40.3796C35.1479 39.5148 35.657 37.599 34.8004 36.1003C33.9448 34.6017 32.0495 34.0888 30.5675 34.9541C29.0855 35.8201 28.5775 37.7353 29.433 39.2334ZM34.8004 11.8993C35.657 10.4012 35.1496 8.48538 33.667 7.62001C32.1856 6.75522 30.2897 7.26871 29.433 8.76677C28.5775 10.2648 29.0855 12.1812 30.5675 13.046C32.0495 13.912 33.946 13.3979 34.8004 11.8993ZM24.3106 15.0656C28.9296 15.0656 32.7191 18.6446 33.1148 23.2081L37.6 23.1376C37.3874 19.7449 35.9326 16.6943 33.6903 14.4455C32.502 14.9092 31.1248 14.8461 29.9365 14.1521C28.747 13.4581 28.0043 12.2827 27.8076 11.0098C26.6929 10.7044 25.5216 10.5405 24.3106 10.5405C22.1908 10.5405 20.1855 11.0419 18.4046 11.9342L20.5869 15.896C21.7191 15.363 22.9811 15.0656 24.3106 15.0656ZM15.4724 24.0001C15.4724 20.977 16.9572 18.3053 19.2301 16.6886L16.9272 12.7979C14.2597 14.5985 12.2719 17.3459 11.434 20.5656C12.4261 21.3736 13.0611 22.6115 13.0611 24.0001C13.0611 25.3887 12.4261 26.6266 11.434 27.4346C12.2725 30.6548 14.2597 33.4016 16.9272 35.2029L19.2301 31.3121C16.9572 29.6955 15.4724 27.0231 15.4724 24.0001ZM24.3106 32.9351C22.9811 32.9351 21.7191 32.6371 20.5869 32.1053L18.4046 36.0671C20.1855 36.9594 22.1908 37.4603 24.3106 37.4603C25.5216 37.4603 26.6929 37.2969 27.8076 36.9909C28.0043 35.7175 28.747 34.5427 29.9365 33.8486C31.1248 33.1546 32.502 33.0922 33.6903 33.5552C35.9326 31.3053 37.3874 28.2541 37.6 24.8632L33.1148 24.7915C32.7191 29.3556 28.9296 32.9351 24.3106 32.9351Z" fill="white"/>
</svg>
