<svg width="48" height="48" viewBox="0 0 48 48" fill="none" xmlns="http://www.w3.org/2000/svg">
<path fill-rule="evenodd" clip-rule="evenodd" d="M17.0571 11.958V21.7063C17.0571 23.2833 16.7663 24.4301 16.0391 25.1469C15.4573 25.8637 14.2938 26.2938 12.8394 26.2938C11.3849 26.2938 10.3669 26.0071 9.63965 25.2903C9.05788 24.5735 8.62156 23.4266 8.62156 21.7063V11.958H3.24023V21.7063C3.24023 24.5735 3.822 26.7239 4.98553 28.3008C5.13097 28.4442 5.27641 28.7309 5.56729 28.8742C7.16715 30.4512 9.4942 31.168 12.8394 31.168C16.0391 31.168 18.5116 30.4512 19.966 28.8742C20.1114 28.7309 20.2569 28.4442 20.5477 28.3008C21.7113 26.7239 22.293 24.5735 22.293 21.7063V11.958H17.0571Z" fill="white"/>
<path fill-rule="evenodd" clip-rule="evenodd" d="M25.7836 11.958H31.0195V14.9685C31.7467 13.6783 32.6194 12.8181 33.6374 12.2447C34.6555 11.6712 35.8191 11.3845 37.2735 11.3845C39.8914 11.3845 42.073 12.2447 43.5274 13.965C44.9819 15.6853 45.8545 18.1224 45.8545 21.2763C45.8545 24.2868 45.1273 26.7239 43.5274 28.5875C42.073 30.4512 40.0369 31.3113 37.5644 31.3113C36.1099 31.3113 34.801 31.0246 33.7829 30.4512C32.7648 29.8778 31.8921 29.0176 31.1649 27.8707C31.1649 28.3008 31.3104 28.8742 31.3104 29.4477V36.4722H25.7836V11.958ZM30.8741 21.1329C30.8741 22.8532 31.3104 24.1434 32.183 25.0036C33.0557 26.0071 34.2192 26.4372 35.6736 26.4372C37.128 26.4372 38.2916 26.0071 39.1642 25.0036C40.0369 24.0001 40.4732 22.7098 40.4732 21.1329C40.4732 19.4126 40.0369 18.1224 39.1642 17.1189C38.2916 16.1153 37.128 15.6853 35.6736 15.6853C34.2192 15.6853 33.0557 16.1153 32.183 17.1189C31.1649 18.1224 30.8741 19.4126 30.8741 21.1329Z" fill="white"/>
<path fill-rule="evenodd" clip-rule="evenodd" d="M20.8386 36.1855C20.6932 36.0422 20.5477 35.7554 20.2569 35.6121C18.657 34.0351 16.3299 33.3184 12.9848 33.3184C9.78509 33.3184 7.31259 34.0351 5.85818 35.6121C5.71273 35.7554 5.56729 36.0422 5.27641 36.1855H20.8386Z" fill="white"/>
</svg>
