<svg width="48" height="48" viewBox="0 0 48 48" fill="none" xmlns="http://www.w3.org/2000/svg">
<path fill-rule="evenodd" clip-rule="evenodd" d="M24 48C10.7452 48 0 37.2548 0 24C0 10.7452 10.7452 0 24 0C37.2548 0 48 10.7452 48 24C48 37.2548 37.2548 48 24 48ZM24.5053 23.0741C24.4889 24.3775 25.6575 25.1048 26.5379 25.5372C27.4424 25.981 27.7462 26.2655 27.7427 26.6622C27.7358 27.2695 27.0212 27.5375 26.3523 27.5479C25.1854 27.5662 24.507 27.2304 23.9676 26.9763L23.5473 28.9592C24.0884 29.2106 25.0905 29.4299 26.1296 29.4394C28.5687 29.4394 30.1645 28.2257 30.1732 26.3438C30.1827 23.9555 26.896 23.8232 26.9185 22.7557C26.9263 22.432 27.2326 22.0866 27.9041 21.9987C28.2364 21.9544 29.1539 21.9204 30.1939 22.4033L30.6021 20.4848C30.0428 20.2795 29.3239 20.0829 28.4289 20.0829C26.1331 20.0829 24.5183 21.3131 24.5053 23.0741ZM34.5248 20.2482C34.0795 20.2482 33.704 20.5101 33.5366 20.912L30.0523 29.2985H32.4897L32.9747 27.9473H35.9532L36.2346 29.2985H38.3828L36.5082 20.2482H34.5248ZM21.5501 20.2482L19.6289 29.2985H21.9515L23.8718 20.2482H21.5501ZM18.1142 20.2482L15.6967 26.4082L14.7189 21.1704C14.6041 20.5858 14.1509 20.2482 13.6478 20.2482H9.69573L9.64049 20.5109C10.4518 20.6884 11.3736 20.9747 11.932 21.2809C12.2737 21.468 12.3713 21.6316 12.4835 22.0762L14.3356 29.2985H16.7902L20.5533 20.2482H18.1142Z" fill="white"/>
<path fill-rule="evenodd" clip-rule="evenodd" d="M35.5692 22.6931H33.6428L34.8658 26.0915L35.5692 22.6931Z" fill="white"/>
</svg>
