<svg width="48" height="48" viewBox="0 0 48 48" fill="none" xmlns="http://www.w3.org/2000/svg">
<path fill-rule="evenodd" clip-rule="evenodd" d="M24 48C10.7452 48 0 37.2548 0 24C0 10.7452 10.7452 0 24 0C37.2548 0 48 10.7452 48 24C48 37.2548 37.2548 48 24 48ZM30.9558 23.9232C30.5556 23.8002 30.281 23.7209 30.489 23.1895C30.944 22.0353 30.9911 21.0398 30.4968 20.3259C29.5749 18.9933 27.0487 19.0647 24.1536 20.2902C24.1536 20.2902 23.2435 20.6908 23.4789 19.965C23.9222 18.5174 23.8555 17.3077 23.1651 16.6057C21.5959 15.0153 17.4182 16.6652 13.8366 20.2863C11.1574 22.9951 9.6 25.8705 9.6 28.3573C9.6 33.1087 15.6294 36 21.5253 36C29.2572 36 34.4 31.4588 34.4 27.8536C34.4039 25.6722 32.5877 24.4348 30.9558 23.9232ZM36.3756 15.2385C34.4263 13.2052 31.5514 12.4312 28.8977 12.9626C28.2834 13.0859 27.8943 13.6558 28.0254 14.2296C28.1564 14.8072 28.7584 15.173 29.3727 15.0498C31.2606 14.6724 33.3042 15.2231 34.6884 16.6672C36.0725 18.1112 36.4493 20.079 35.8555 21.8042C35.663 22.3664 35.9906 22.9671 36.5885 23.1481C37.1865 23.3291 37.8253 23.0211 38.0178 22.4627V22.4588C38.8532 20.0367 38.3249 17.2679 36.3756 15.2385ZM33.379 18.043C32.3937 17.0057 30.9411 16.6101 29.6033 16.8846C29.0554 16.9935 28.7072 17.5102 28.8218 18.0309C28.9408 18.5516 29.4801 18.8825 30.0238 18.7695C30.6778 18.6363 31.3913 18.8301 31.8713 19.3346C32.3512 19.8432 32.4829 20.5334 32.2747 21.1388C32.1049 21.6434 32.3937 22.1883 32.9288 22.3538C33.4639 22.5152 34.0331 22.2408 34.2072 21.7322C34.6276 20.493 34.3643 19.0803 33.379 18.043Z" fill="white"/>
<path fill-rule="evenodd" clip-rule="evenodd" d="M21.5449 34.2946C16.8375 34.7665 12.7735 32.6129 12.4675 29.4916C12.1615 26.3663 15.7313 23.4552 20.4347 22.9832C25.1421 22.5113 29.2061 24.6649 29.5082 27.7862C29.8181 30.9115 26.2483 33.8266 21.5449 34.2946ZM22.5305 25.7576C20.1452 25.1636 17.4508 26.2998 16.4149 28.3052C15.358 30.3505 16.3814 32.623 18.7876 33.3646C21.2856 34.134 24.2265 32.9539 25.2499 30.7492C26.2608 28.5883 24.9993 26.3676 22.5305 25.7576Z" fill="white"/>
<path fill-rule="evenodd" clip-rule="evenodd" d="M22.3091 29.0269C22.1337 29.3139 21.7452 29.4495 21.4444 29.3299C21.1437 29.2143 21.0517 28.8913 21.223 28.6122C21.3985 28.3332 21.7702 28.1976 22.0668 28.3092C22.3676 28.4129 22.4762 28.7358 22.3091 29.0269" fill="white"/>
<path fill-rule="evenodd" clip-rule="evenodd" d="M20.7093 30.9804C20.2247 31.718 19.1846 32.0409 18.4034 31.702C17.6348 31.3671 17.405 30.51 17.8896 29.7883C18.37 29.0707 19.3725 28.7517 20.1495 29.0627C20.9349 29.3857 21.1855 30.2349 20.7093 30.9804" fill="white"/>
</svg>
