<svg width="48" height="48" viewBox="0 0 48 48" fill="none" xmlns="http://www.w3.org/2000/svg">
<path fill-rule="evenodd" clip-rule="evenodd" d="M0 24C0 10.7452 10.7452 0 24 0C37.2548 0 48 10.7452 48 24C48 37.2548 37.2548 48 24 48C10.7452 48 0 37.2548 0 24ZM12 15.4085L12.009 23.5892L21.8123 23.5334L21.808 14.0728L12 15.4085ZM21.8034 24.6234L12.0071 24.5599L12.0076 32.7445L21.811 34.0923L21.8034 24.6234ZM22.9923 13.898V23.5163L35.997 23.4131V12L22.9923 13.898ZM36 24.7125L22.9741 24.6912L22.9923 34.2387L35.9969 36.0742L36 24.7125Z" fill="white"/>
</svg>
