<svg width="48" height="48" viewBox="0 0 48 48" fill="none" xmlns="http://www.w3.org/2000/svg">
<path fill-rule="evenodd" clip-rule="evenodd" d="M0 24C0 10.7452 10.7452 0 24 0C37.2548 0 48 10.7452 48 24C48 37.2548 37.2548 48 24 48C10.7452 48 0 37.2548 0 24ZM23.9999 9.6C16.0597 9.6 9.6 16.0595 9.6 23.9996C9.6 31.9402 16.0597 38.4 23.9999 38.4C31.9401 38.4 38.4 31.9402 38.4 23.9996C38.4 16.0595 31.9401 9.6 23.9999 9.6Z" fill="white"/>
<path fill-rule="evenodd" clip-rule="evenodd" d="M23.9997 37.7398C16.4239 37.7398 10.2603 31.5757 10.2603 23.9996C10.2603 16.4238 16.4239 10.2604 23.9997 10.2604C31.5756 10.2604 37.7394 16.4238 37.7394 23.9996C37.7394 31.5757 31.5756 37.7398 23.9997 37.7398ZM11.9999 24.1823C11.9999 29.0279 14.9382 33.216 19.1999 35.2L13.1061 19.2C12.3973 20.7224 11.9999 22.4074 11.9999 24.1823ZM31.9973 23.764C31.9973 22.2324 31.4565 21.1724 30.9932 20.3472C30.3759 19.3262 29.7968 18.4626 29.7968 17.4416C29.7968 16.3029 30.6457 15.2428 31.8421 15.2428C31.8961 15.2428 31.9473 15.2494 31.9999 15.2527C29.8331 13.2332 26.9463 12 23.7756 12C19.5206 12 15.7776 14.2209 13.5999 17.584C13.8859 17.5934 14.1552 17.599 14.3837 17.599C15.6573 17.599 17.6296 17.4416 17.6296 17.4416C18.2858 17.4025 18.3634 18.3835 17.7076 18.4626C17.7076 18.4626 17.0475 18.541 16.3137 18.5802L20.7485 32L23.4141 23.8689L21.5168 18.5802C20.8606 18.541 20.2393 18.4626 20.2393 18.4626C19.5829 18.4231 19.6599 17.4025 20.3166 17.4416C20.3166 17.4416 22.3276 17.599 23.5242 17.599C24.7975 17.599 26.7702 17.4416 26.7702 17.4416C27.4268 17.4025 27.5042 18.3835 26.8479 18.4626C26.8479 18.4626 26.1873 18.541 25.4542 18.5802L29.8556 31.8978L31.0706 27.769C31.5964 26.0546 31.9973 24.8242 31.9973 23.764ZM24.3152 24.8L20.7999 35.4999C21.8497 35.8233 22.9597 36 24.1095 36C25.4737 36 26.7822 35.7533 27.9999 35.3043C27.9687 35.2516 27.9396 35.1958 27.9159 35.1352L24.3152 24.8ZM35.2234 18.4C35.2787 18.7981 35.3099 19.2252 35.3099 19.6853C35.3099 20.9531 35.0654 22.379 34.3311 24.1621L30.3999 35.2C34.2265 33.0335 36.7999 29.0076 36.7999 24.3963C36.7999 22.2232 36.2281 20.1802 35.2234 18.4Z" fill="white"/>
</svg>
