<svg width="48" height="48" viewBox="0 0 48 48" fill="none" xmlns="http://www.w3.org/2000/svg">
<path fill-rule="evenodd" clip-rule="evenodd" d="M0 24C0 10.7452 10.7452 0 24 0C37.2548 0 48 10.7452 48 24C48 37.2548 37.2548 48 24 48C10.7452 48 0 37.2548 0 24ZM24 37.6C31.9529 37.6 38.4 31.1529 38.4 23.2C38.4 15.2471 31.9529 8.8 24 8.8C16.0471 8.8 9.6 15.2471 9.6 23.2C9.6 31.1529 16.0471 37.6 24 37.6Z" fill="white"/>
<path fill-rule="evenodd" clip-rule="evenodd" d="M21.0566 38.1687C19.2082 37.0554 18.0283 34.608 17.5141 32.6054C17.03 30.7267 16.8062 28.3277 16.8727 25.1059C14.3376 22.8218 12.111 20.565 11.1581 18.4322C10.2445 16.3842 10.6922 13.5889 12.5406 12.1761C13.2334 11.6467 14.1803 11.2958 15.4781 11.2927C15.3268 14.2242 17.4596 16.1361 20.2882 18.5048C22.1426 16.5112 24.4811 14.5448 26.8317 13.1835C28.665 12.1217 30.468 11.4319 32.0018 11.2685C33.6051 11.0961 35.2418 11.6104 36.2946 12.881C36.9783 13.7069 37.3504 14.8867 36.8119 16.5203C35.4868 16.7079 34.3433 17.0013 33.3419 17.3734C31.7961 17.9512 30.7342 18.8709 29.624 19.7603C27.591 21.3909 25.8757 23.0427 24.4448 24.7338C24.3904 27.4564 24.4055 31.2198 25.1557 33.8669C25.5672 35.319 26.3295 36.4958 27.7695 37.1492C25.5067 39.4665 22.8414 39.2427 21.0566 38.1687Z" fill="white"/>
</svg>
