<svg width="48" height="48" viewBox="0 0 48 48" fill="none" xmlns="http://www.w3.org/2000/svg">
<path fill-rule="evenodd" clip-rule="evenodd" d="M24 0C10.7452 0 0 10.7452 0 24C0 37.2548 10.7452 48 24 48C37.2548 48 48 37.2548 48 24C48 10.7452 37.2548 0 24 0ZM24.5965 21.2758C24.5085 19.2486 23.8982 10.2222 23.8265 9.80404C23.7236 9.42512 23.4272 9.15446 23.0023 9.04755C21.6964 8.72412 16.7055 10.1221 15.7812 11.0761C15.4835 11.386 15.3739 11.7677 15.4632 12.106C15.6093 12.405 21.7925 22.1338 21.7925 22.1338C22.7059 23.6156 23.4516 23.3856 23.6966 23.3084C23.9388 23.234 24.6804 23.004 24.5965 21.2758ZM35.2454 24.0622C35.0438 24.1948 34.8462 24.2598 29.7308 25.4994C28.9107 25.6942 28.4601 25.8052 28.2084 25.8999C28.2138 25.8932 28.2341 25.8566 28.2341 25.8566C27.7225 25.9987 27.165 25.7524 26.8348 25.2477C26.5154 24.7605 26.5208 24.1921 26.847 23.7956C26.8618 23.7793 28.0987 22.0945 28.0987 22.0945C30.8378 18.3486 30.9826 18.1537 31.1802 18.0252C31.4995 17.8114 31.8839 17.7992 32.2682 17.9832C33.3522 18.5137 35.5526 21.7805 35.6839 23.0364C35.6857 23.0464 35.6851 23.0564 35.6845 23.0661C35.6842 23.0707 35.6839 23.0753 35.6839 23.0797C35.711 23.5046 35.5553 23.8538 35.2454 24.0622ZM13.0584 28.3155C12.8892 26.6835 13.0949 24.2246 13.5821 23.4437C13.8135 23.0824 14.1451 22.8943 14.5186 22.9092C14.7622 22.9119 14.98 22.9904 19.8194 24.9865C19.8221 24.9865 21.2335 25.5616 21.2335 25.5616C21.7451 25.7538 22.055 26.2843 22.0225 26.8851C21.99 27.4711 21.6544 27.9299 21.1551 28.0571C21.1469 28.0611 19.1454 28.6999 19.1454 28.6999C14.6417 30.1479 14.4929 30.1885 14.2533 30.1763C13.8798 30.1628 13.5523 29.9422 13.3574 29.5714C13.2154 29.3034 13.1179 28.8542 13.0584 28.3155ZM24.5098 33.2023C24.4963 37.9334 24.4868 38.089 24.4083 38.3163C24.2798 38.6682 23.9753 38.9037 23.5571 38.9795C22.3527 39.1852 18.5825 37.798 17.7962 36.8643C17.6379 36.6694 17.5418 36.461 17.5215 36.2499C17.5052 36.1024 17.5255 35.9535 17.5756 35.8155C17.6582 35.58 17.8003 35.396 21.1902 31.4133C21.1929 31.4133 22.1808 30.2413 22.1808 30.2413C22.5192 29.8204 23.1214 29.6878 23.6803 29.903C24.2229 30.1114 24.5545 30.5783 24.522 31.0912C24.5207 31.1115 24.5098 33.2023 24.5098 33.2023ZM32.0571 36.6694C33.1938 36.2161 35.673 33.0616 35.8476 31.8477C35.9085 31.4254 35.7759 31.0614 35.4849 30.8286C35.2941 30.6852 35.1493 30.6297 30.6483 29.1519C30.6483 29.1519 28.6739 28.4996 28.6481 28.4875C28.1704 28.3021 27.6251 28.4739 27.2583 28.9259C26.8767 29.3901 26.8199 30.0031 27.1243 30.466L27.9187 31.7597C30.5901 36.0983 30.7944 36.4055 30.9866 36.5557C31.2843 36.7898 31.6633 36.8277 32.0571 36.6694Z" fill="white"/>
</svg>
