<svg width="48" height="48" viewBox="0 0 48 48" fill="none" xmlns="http://www.w3.org/2000/svg">
<path fill-rule="evenodd" clip-rule="evenodd" d="M39.5 0H8.5C3.8 0 0 3.89744 0 8.71795V39.2821C0 44.1026 3.8 48 8.5 48H39.5C44.2 48 48 44.1026 48 39.2821V8.71795C48 3.89744 44.2 0 39.5 0ZM34.3582 36C32.8954 36.0198 31.4326 35.7224 30.1082 35.1078C28.8628 34.5328 27.8349 33.581 27.1233 32.4112C26.3919 31.2017 26.0361 29.6948 26.0361 27.8905C26.0163 26.4233 26.3919 24.9759 27.1233 23.7069C27.8744 22.4181 28.9617 21.3474 30.2663 20.6336C31.65 19.8603 33.3105 19.4836 35.2675 19.4836C35.3663 19.4836 35.5047 19.4836 35.6826 19.5034C35.7781 19.5141 35.8794 19.519 35.9894 19.5244H35.9894L35.9895 19.5244C36.0843 19.529 36.1856 19.5339 36.2954 19.5431V13.2776C36.2954 13.1388 36.3547 13.0595 36.493 13.0595H40.5058C40.6047 13.0397 40.6837 13.119 40.7035 13.1983V32.1138C40.7035 32.438 40.7198 32.7949 40.7376 33.1845L40.743 33.3034C40.7765 33.6556 40.7958 33.9936 40.8129 34.2934L40.8221 34.4534C40.8221 34.5922 40.7628 34.7112 40.6244 34.7707C39.5965 35.2069 38.5093 35.5241 37.4023 35.7224C36.3942 35.9009 35.3861 36 34.3582 36ZM36.2954 32.0345V23.3103C36.1175 23.2707 35.9395 23.231 35.7616 23.2112C35.5442 23.1914 35.3268 23.1715 35.1093 23.1715C34.3384 23.1715 33.5675 23.3302 32.8756 23.6871C32.2035 24.0241 31.6303 24.5198 31.1954 25.1543C30.7605 25.7888 30.543 26.6414 30.543 27.6724C30.5233 28.3664 30.6419 29.0603 30.8791 29.7146C31.0768 30.25 31.3733 30.7259 31.7686 31.1224C32.1442 31.4793 32.5989 31.7569 33.1128 31.9155C33.6465 32.094 34.2 32.1733 34.7535 32.1733C35.05 32.1733 35.3268 32.1534 35.5837 32.1336C35.8407 32.1534 36.0582 32.1138 36.2954 32.0345ZM19.2954 24.8965L25.2256 15.0819C25.2651 15.0422 25.3047 14.9629 25.2849 14.9431C25.2651 14.844 25.1663 14.7845 25.0675 14.8043H20.8965C20.7977 14.7845 20.7186 14.8043 20.6396 14.844C20.5803 14.8836 20.5407 14.9629 20.521 15.0422C20.3435 15.374 20.166 15.7123 19.9872 16.0533L19.987 16.0536C19.7277 16.548 19.4656 17.0477 19.1965 17.5405L19.1965 17.5406C18.7418 18.3734 18.2872 19.2061 17.8523 20.0388C17.4175 20.8715 16.9826 21.7241 16.5675 22.5965H16.5279C16.1128 21.744 15.6779 20.9112 15.2035 20.0784C14.7991 19.3969 14.4211 18.7154 14.0371 18.023L14.0366 18.022L14.0342 18.0177C13.95 17.8658 13.8654 17.7134 13.7803 17.5603C13.3256 16.7078 12.8907 15.8552 12.5151 15.0026C12.4558 14.9233 12.3965 14.8638 12.3175 14.8241C12.2384 14.8043 12.1396 14.7845 12.0407 14.7845H7.55351C7.47444 14.7845 7.39537 14.8043 7.35584 14.8638C7.3163 14.9034 7.33607 14.9828 7.39537 15.0621L13.3849 25.2336L7.23723 35.3457C7.1977 35.4052 7.17793 35.4845 7.1977 35.5638C7.1977 35.6388 7.23162 35.6344 7.28236 35.6278C7.29871 35.6256 7.3168 35.6233 7.33607 35.6233H11.6849C11.9023 35.6233 12.0605 35.6034 12.1396 35.4052C12.4427 34.8632 12.7458 34.3036 13.0489 33.744L13.0497 33.7425C13.201 33.4633 13.3522 33.184 13.5035 32.9069C13.9383 32.0742 14.393 31.2217 14.8476 30.3692L14.8477 30.369L14.8477 30.3689C15.3024 29.5163 15.757 28.6638 16.1721 27.8112H16.2117C16.6859 28.6834 17.1602 29.5357 17.6345 30.3881L17.6349 30.3888C18.1093 31.2414 18.564 32.0741 18.9791 32.8871C19.1867 33.3035 19.3992 33.7149 19.6117 34.1263C19.8242 34.5377 20.0367 34.9491 20.2442 35.3655C20.3826 35.5638 20.6 35.5836 20.9163 35.5836H25.443C25.4889 35.576 25.5288 35.5801 25.5616 35.5836C25.6139 35.589 25.6484 35.5926 25.6605 35.544C25.6803 35.4647 25.6605 35.3853 25.621 35.306L19.2954 24.8965Z" fill="black"/>
</svg>
