<svg width="48" height="48" viewBox="0 0 48 48" fill="none" xmlns="http://www.w3.org/2000/svg">
<path fill-rule="evenodd" clip-rule="evenodd" d="M39.5 0H8.5C3.8 0 0 3.89744 0 8.71795V39.2821C0 44.1026 3.8 48 8.5 48H39.5C44.2 48 48 44.1026 48 39.2821V8.71795C48 3.89744 44.2 0 39.5 0ZM10 34.2129V13.4441C10 13.3028 10.06 13.2221 10.2 13.2221C10.54 13.2221 10.86 13.2221 11.32 13.2019C11.5672 13.1915 11.8197 13.1864 12.0802 13.1812H12.0803H12.0803C12.3256 13.1763 12.5781 13.1713 12.84 13.1615C13.1192 13.1511 13.4092 13.146 13.7098 13.1408H13.7098H13.7098L13.71 13.1408C13.9907 13.1359 14.2807 13.1309 14.58 13.1211C15.2 13.101 15.8 13.101 16.4 13.101C18.04 13.101 19.4 13.3028 20.52 13.7266C21.52 14.0698 22.44 14.6349 23.2 15.3817C23.84 16.0276 24.34 16.8147 24.66 17.6826C24.96 18.5303 25.12 19.3982 25.12 20.3065C25.12 22.0422 24.72 23.4753 23.92 24.6055C23.12 25.7358 22 26.5835 20.7 27.0679C19.34 27.5725 17.84 27.7542 16.2 27.7542C15.72 27.7542 15.4 27.7542 15.2 27.734C15 27.7138 14.72 27.7138 14.34 27.7138V34.1927C14.36 34.334 14.26 34.4551 14.12 34.4753H10.24C10.08 34.4753 10 34.3945 10 34.2129ZM14.36 17.1175V23.8991L14.42 23.9035C14.6772 23.9221 14.9172 23.9395 15.14 23.9395H16.2C16.98 23.9395 17.76 23.8184 18.5 23.5762C19.14 23.3945 19.7 23.011 20.14 22.5065C20.56 22.0019 20.76 21.3156 20.76 20.4276C20.78 19.8019 20.62 19.1762 20.3 18.6312C19.96 18.1065 19.48 17.7028 18.9 17.4808C18.16 17.178 17.36 17.0569 16.54 17.0771C16.02 17.0771 15.56 17.0771 15.18 17.0973C14.78 17.0771 14.5 17.0973 14.36 17.1175ZM35.68 21.9817C36.36 22.123 37 22.345 37.6 22.6679C37.68 22.7083 37.78 22.7083 37.96 22.6679C38.02 22.6276 38.06 22.5468 38.06 22.4661V19.1762C38.06 19.0954 38.04 19.0147 38.02 18.934C37.98 18.8532 37.9 18.7725 37.82 18.7523C37.28 18.5303 36.7 18.3688 36.1 18.2881C35.28 18.167 34.44 18.1065 33.62 18.1065C32.2 18.1065 31.02 18.3285 30.08 18.8129C29.22 19.2165 28.48 19.8624 27.98 20.6698C27.54 21.4165 27.3 22.2441 27.3 23.112C27.28 23.8184 27.44 24.5248 27.76 25.1707C28.14 25.8569 28.66 26.4422 29.28 26.8863C30.16 27.4918 31.1 27.9762 32.12 28.3395C33.1 28.723 33.76 29.0257 34.08 29.2881C34.4 29.5505 34.56 29.8129 34.56 30.0954C34.56 30.4587 34.34 30.8019 34.02 30.9432C33.66 31.1248 33.12 31.2257 32.36 31.2257C31.56 31.2257 30.76 31.1248 30 30.923C29.12 30.7211 28.3 30.3982 27.52 29.934C27.46 29.8936 27.4 29.8734 27.34 29.9138C27.28 29.9542 27.26 30.0349 27.26 30.0954V33.6074C27.24 33.7688 27.34 33.9101 27.48 33.9909C28.12 34.2936 28.82 34.5156 29.52 34.6367C30.42 34.8184 31.32 34.8991 32.24 34.8991C33.68 34.8991 34.88 34.6771 35.86 34.2532C36.76 33.8899 37.54 33.2643 38.1 32.4569C38.62 31.6698 38.9 30.7211 38.88 29.7725C38.9 29.0459 38.74 28.3395 38.42 27.6936C38.04 27.0074 37.5 26.4422 36.84 26.0184C35.88 25.4129 34.84 24.9083 33.76 24.545C33.28 24.3432 32.8 24.1211 32.34 23.8789C32.08 23.7376 31.84 23.556 31.66 23.334C31.54 23.1725 31.46 22.9909 31.46 22.8092C31.46 22.6276 31.52 22.4257 31.62 22.2643C31.76 22.0624 31.98 21.9211 32.24 21.8606C32.62 21.7597 33.04 21.6991 33.44 21.7193C34.2 21.7193 34.94 21.8202 35.68 21.9817Z" fill="black"/>
</svg>
