<svg width="48" height="48" viewBox="0 0 48 48" fill="none" xmlns="http://www.w3.org/2000/svg">
<path fill-rule="evenodd" clip-rule="evenodd" d="M40.7822 0C44.7685 0 48 3.23152 48 7.2178V40.7822C48 44.7685 44.7685 48 40.7822 48H7.2178C3.23152 48 0 44.7685 0 40.7822V7.2178C0 3.23152 3.23152 0 7.2178 0H40.7822ZM28.9351 11.4789C28.9351 14.8322 26.4652 17.6087 23.245 18.0894C23.212 18.3371 23.2647 18.5636 23.4903 18.7316C25.4333 20.1791 30.5723 20.6039 35.1849 18.9019L36.9327 23.7071C34.3982 25.1048 30.6045 25.9147 25.747 25.4544L38.5057 38.2974L33.7779 42.551L23.963 32.2443C20.3076 38.6477 15.617 41.466 11.7084 43.8143L11.7073 43.815C11.3707 44.0172 11.04 44.2159 10.7162 44.4131L7.28427 39C18.0303 32.216 17.6985 27.9177 17.4028 24.087C17.2527 22.1424 17.1118 20.3182 18.4344 18.3506C18.5769 18.1386 18.4668 17.817 18.3538 17.4868C18.2722 17.2485 18.1891 17.0058 18.1984 16.7966C16.5972 15.5755 15.5638 13.6479 15.5638 11.4789C15.5638 7.78746 18.5571 4.79492 22.2495 4.79492C25.9418 4.79492 28.9351 7.78746 28.9351 11.4789Z" fill="black"/>
</svg>
