<svg width="48" height="48" viewBox="0 0 48 48" fill="none" xmlns="http://www.w3.org/2000/svg">
<path fill-rule="evenodd" clip-rule="evenodd" d="M0 24C0 10.7452 10.7452 0 24 0C37.2548 0 48 10.7452 48 24C48 37.2548 37.2548 48 24 48C10.7452 48 0 37.2548 0 24ZM35.5315 28.3311C35.3849 27.9502 35.2554 27.6503 34.9622 26.996C34.9042 26.8668 34.9042 26.8668 34.8637 26.7761C33.0642 22.7815 31.1715 18.8213 29.1863 14.8956C29.1361 14.7969 29.096 14.718 29.0076 14.5432C28.6792 13.8943 28.5295 13.6043 28.3347 13.2477C27.978 12.5994 27.6145 12.0927 27.1754 11.6781C26.4027 10.9279 25.3569 10.4699 24.2704 10.401L23.7975 10.4C22.6563 10.4567 21.5757 10.9329 20.781 11.7219C20.3648 12.1233 20.0158 12.6151 19.6674 13.2475C19.4719 13.6043 19.3111 13.9154 19.0044 14.522C18.9863 14.5578 18.9863 14.5578 18.9682 14.5936C18.8982 14.7322 18.8677 14.7924 18.8282 14.8701C17.5072 17.4809 16.2178 20.1278 14.9593 22.8114C14.0389 24.7824 13.3888 26.2017 12.7634 27.6197C12.3773 28.499 12.1587 29.1567 12.0631 29.8551C11.8607 31.2025 12.1498 32.6239 12.8637 33.7924C13.4784 34.8065 14.4004 35.6203 15.4735 36.0912C16.3096 36.4593 17.2312 36.6258 18.1385 36.5712C19.285 36.5093 20.4364 36.1067 21.5032 35.4334C22.4793 34.8233 24.0177 33.3374 24.0177 33.3374C24.0177 33.3374 25.5084 34.7794 26.2773 35.2903C27.3323 35.9972 28.4637 36.4406 29.6051 36.5504C30.9321 36.6916 32.3023 36.3534 33.4111 35.6044C34.3873 34.9497 35.1582 33.9845 35.5914 32.8762C35.8727 32.1591 36.0124 31.3859 35.9991 30.6161C35.991 29.8668 35.8278 29.0984 35.5315 28.3311Z" fill="black"/>
<path fill-rule="evenodd" clip-rule="evenodd" d="M31.7978 33.6222C31.1651 33.9826 30.401 34.1127 29.6715 33.9886C28.8027 33.8508 27.9484 33.4019 27.0595 32.6725C26.5372 32.2451 25.7386 31.373 25.7386 31.373C25.7386 31.373 27.2228 29.2628 27.7234 28.2379C28.3448 26.9616 28.6952 25.7698 28.7322 24.5863C28.7569 23.6974 28.5823 22.8409 28.2035 22.1056C27.692 21.0924 26.7729 20.2948 25.6908 19.907C24.7111 19.5506 23.619 19.5164 22.6117 19.8089C21.643 20.088 20.7772 20.68 20.1855 21.4822C19.6701 22.1742 19.3609 23.0342 19.29 23.9317C19.1955 25.0528 19.428 26.2192 19.928 27.454C20.5197 28.8903 22.2789 31.3906 22.2789 31.3906C22.2789 31.3906 21.5459 32.1519 21.1377 32.5088C20.2514 33.2725 19.4112 33.7578 18.5477 33.948C17.7884 34.1216 16.9888 34.0291 16.3237 33.6864C15.5311 33.2841 14.9201 32.5234 14.6909 31.6536C14.5184 31.0249 14.5476 30.328 14.7653 29.6745C14.8933 29.292 15.0225 28.9836 15.3267 28.3051C15.3394 28.2766 15.3394 28.2766 15.3522 28.2481C15.4077 28.1242 15.4436 28.0438 15.4804 27.9606C17.2418 24.0492 19.1067 20.1456 21.0718 16.2537C21.1135 16.1713 21.1469 16.1053 21.2219 15.9566C21.5804 15.2459 21.7434 14.9293 21.9509 14.5483C22.2292 14.0441 22.4744 13.7165 22.7701 13.4877C23.1245 13.2054 23.5692 13.0541 24.0075 13.0642C24.4762 13.0589 24.9345 13.2289 25.289 13.5323C25.6054 13.7999 25.8474 14.1529 26.171 14.7679C26.6361 15.6576 27.0409 16.4604 27.7823 17.952C27.8485 18.0852 27.8485 18.0852 27.9148 18.2184C29.591 21.5982 31.179 24.9617 32.6924 28.3379C32.713 28.385 32.7289 28.4214 32.7675 28.509C32.7817 28.5412 32.7817 28.5412 32.7959 28.5732C33.0803 29.2181 33.197 29.511 33.2981 29.8742C33.4644 30.4776 33.4657 31.1214 33.2984 31.7052C33.0689 32.5117 32.5158 33.2178 31.7978 33.6222Z" fill="black"/>
<path fill-rule="evenodd" clip-rule="evenodd" d="M23.6711 28.8105C23.6487 28.7778 23.6487 28.7778 23.6262 28.7451C23.613 28.726 23.613 28.726 23.5999 28.7069C23.1327 28.0089 22.7539 27.3403 22.4577 26.6721C22.1756 26.0278 21.9982 25.4461 21.9274 24.8832C21.8671 24.3621 21.9004 23.9136 22.0426 23.5392C22.1774 23.1674 22.4336 22.8463 22.7598 22.6345C23.5757 22.0983 24.7394 22.1673 25.4575 22.7992C25.8007 23.0969 26.0261 23.5536 26.083 24.0526C26.1547 24.6905 26.0352 25.3859 25.7479 26.1674C25.3678 27.1836 24.0012 29.2805 24.0012 29.2805C24.0012 29.2805 24.0123 29.3071 23.6711 28.8105Z" fill="black"/>
</svg>
