<svg width="48" height="48" viewBox="0 0 48 48" fill="none" xmlns="http://www.w3.org/2000/svg">
<path fill-rule="evenodd" clip-rule="evenodd" d="M24.7 8.29504C34.5967 8.29504 41.2693 19.7347 42.1111 32.1547C42.134 32.4919 42.0561 32.8283 41.8874 33.1211C39.1301 37.9075 32.9958 40.2187 25.1758 40.3024L24.7313 40.3048C18.7236 40.4151 12.9678 37.8937 8.97571 33.4028C8.5567 32.9314 8.43212 32.2673 8.65182 31.6761L8.80719 31.2746C8.92865 30.9681 9.06862 30.6278 9.22558 30.2619C9.67475 29.2149 10.1725 28.1668 10.7087 27.1806C12.1205 24.584 13.5178 22.8477 15.1697 22.2366C15.5529 22.0948 15.9474 22.0178 16.36 22.015C17.8709 22.015 18.847 22.6927 20.4121 24.321L21.3077 25.2621C21.5442 25.5061 21.6607 25.6152 21.8115 25.7432L21.96 25.864L22.0208 25.8026C22.2342 25.5754 22.4832 25.2621 22.7565 24.876L22.8951 24.6769C23.2212 24.2014 23.5687 23.6442 23.9298 23.0231C24.3998 22.2146 24.8675 21.3426 25.3093 20.4699L25.6322 19.8222L25.8762 19.3164C26.2759 18.4638 27.2911 18.0966 28.1437 18.4962C28.9489 18.8737 29.3212 19.8002 29.0234 20.6202L28.9421 20.8099L28.5861 21.5421C28.512 21.6918 28.4337 21.8482 28.3516 22.0102C27.8822 22.9375 27.3844 23.8655 26.8778 24.737C26.477 25.4264 26.086 26.0533 25.7076 26.6051C24.4419 28.4514 23.4536 29.425 22.09 29.425C20.7049 29.425 20.177 29.0253 18.3583 27.1102L18.1508 26.8911C17.197 25.8818 16.6679 25.4713 16.4137 25.4287L16.3765 25.4255L16.3528 25.4347C15.748 25.6585 14.7299 26.9237 13.7045 28.8095C13.3199 29.5167 12.9525 30.2699 12.6108 31.0329L12.238 31.891L12.3628 32.0159C15.5388 35.1166 19.806 36.8746 24.2917 36.8977L24.7 36.895C31.233 36.895 36.2107 35.2267 38.5065 32.0744L38.667 31.843L38.6495 31.6297C37.7168 21.2027 32.2013 11.9284 24.9624 11.709L24.7 11.705C16.987 11.705 11.9102 17.2043 8.60794 26.5672C8.29473 27.4552 7.32093 27.9212 6.4329 27.608C5.54487 27.2948 5.07889 26.321 5.3921 25.4329C9.12088 14.8609 15.1823 8.29504 24.7 8.29504Z" fill="black"/>
</svg>
