<svg width="48" height="48" viewBox="0 0 48 48" fill="none" xmlns="http://www.w3.org/2000/svg">
<path fill-rule="evenodd" clip-rule="evenodd" d="M24 48C10.7452 48 0 37.2548 0 24C0 10.7452 10.7452 0 24 0C37.2548 0 48 10.7452 48 24C48 37.2548 37.2548 48 24 48ZM33.9838 20.2663C34.4542 17.122 32.0601 15.4316 28.7865 14.304L29.8484 10.0446L27.2556 9.3984L26.2218 13.5456C25.5402 13.3758 24.8401 13.2155 24.1445 13.0567L25.1857 8.88221L22.5945 8.23606L21.5318 12.494C20.9676 12.3655 20.4138 12.2385 19.8762 12.1049L19.8791 12.0916L16.3035 11.1988L15.6138 13.968C15.6138 13.968 17.5375 14.4089 17.4969 14.4362C18.547 14.6983 18.7367 15.3932 18.705 15.9441L17.4954 20.7966C17.5678 20.815 17.6615 20.8416 17.7649 20.883C17.6785 20.8615 17.5862 20.8379 17.491 20.815L15.7954 27.6126C15.667 27.9316 15.3413 28.4101 14.6073 28.2284C14.6331 28.2661 12.7227 27.758 12.7227 27.758L11.4356 30.7259L14.8096 31.567C15.4373 31.7243 16.0524 31.889 16.658 32.0441L15.585 36.3522L18.1748 36.9984L19.2374 32.736C19.9449 32.928 20.6316 33.1052 21.3036 33.2721L20.2447 37.5146L22.8374 38.1607L23.9104 33.8607C28.3316 34.6974 31.6561 34.3599 33.0555 30.3611C34.1831 27.1414 32.9994 25.2842 30.6732 24.0731C32.3673 23.6825 33.6433 22.5681 33.9838 20.2663Z" fill="black"/>
<path fill-rule="evenodd" clip-rule="evenodd" d="M28.8618 20.2198C28.1307 23.1486 23.6187 21.6606 22.1551 21.2958L23.4459 16.1191C24.9095 16.4839 29.6231 17.1648 28.8618 20.2198Z" fill="black"/>
<path fill-rule="evenodd" clip-rule="evenodd" d="M28.0598 28.5733C27.2586 31.793 21.8375 30.0524 20.08 29.616L21.5038 23.9084C23.2613 24.3471 28.8972 25.2155 28.0598 28.5733Z" fill="black"/>
</svg>
