<svg width="48" height="48" viewBox="0 0 48 48" fill="none" xmlns="http://www.w3.org/2000/svg">
<path fill-rule="evenodd" clip-rule="evenodd" d="M28.0408 44.3332C29.5305 44.918 32.4952 46.0179 33.1389 45.7778C34.0071 45.4403 33.7897 38.3854 32.8154 38.1605C32.0353 37.9846 29.0483 40.1243 27.8712 40.9976C27.8254 40.8008 27.7818 40.6466 27.7468 40.5561C27.6572 40.3302 26.9657 40.2718 26.1814 40.3499C24.8635 37.0882 23.89 33.356 24.4857 30.7104L24.4943 30.7165C25.3177 31.2989 30.7998 33.1797 33.5197 33.1276C36.2428 33.0736 40.7146 31.3778 40.2235 30.019C39.7348 28.6597 35.2934 31.2182 30.6609 30.7817C27.2303 30.4574 26.6248 28.8944 27.3845 27.7529C28.3398 26.3181 30.0803 28.0251 32.9506 27.1517C35.8255 26.2805 39.846 24.7213 41.3377 23.8722C44.7868 21.9169 39.8945 21.1058 38.7388 21.6484C37.6438 22.1628 33.8316 23.1412 32.0634 23.5752C33.0578 20.0203 30.6728 13.8358 28.0126 11.1295C27.1454 10.2476 25.812 9.69237 24.3097 9.39948C23.7318 8.59312 22.8 7.82196 21.4805 7.10806C19.0174 5.7783 15.97 5.23871 13.1365 5.73928C12.7466 5.79694 12.5317 5.94063 12.2289 5.99098C12.5699 6.02175 13.8623 6.63531 14.6742 6.97258C14.2777 7.12592 13.736 7.21755 13.3132 7.39359C13.14 7.42289 12.9744 7.46741 12.8248 7.53565C12.4255 7.71964 12.1269 8.41664 12.1297 8.7466C14.0682 8.54746 16.9369 8.68353 19.0334 9.31936C17.5497 9.53161 16.1868 9.92417 15.2017 10.4527C15.1563 10.477 15.1113 10.5016 15.0669 10.5266C14.9488 10.5728 14.8406 10.6216 14.7438 10.6733C11.5832 12.3668 10.1871 16.3221 11.0192 21.0617C11.7786 25.3748 14.8918 40.1135 16.3171 47.0445C7.13066 43.7583 0.545532 34.8566 0.545532 24.3909C0.545532 11.1317 11.1151 0.383057 24.1532 0.383057C37.1914 0.383057 47.7609 11.1317 47.7609 24.3909C47.7609 35.6805 40.0982 45.1501 29.7734 47.7142C29.141 46.4741 28.5423 45.3168 28.0408 44.3332Z" fill="black"/>
<path fill-rule="evenodd" clip-rule="evenodd" d="M15.702 20.5069C15.702 19.5245 16.4834 18.7294 17.4508 18.7294C18.4154 18.7294 19.1977 19.5245 19.1977 20.5069C19.1977 21.4898 18.4154 22.2839 17.4508 22.2839C16.4834 22.2844 15.702 21.4898 15.702 20.5069ZM17.7725 19.9146C17.7725 20.1694 17.9765 20.3769 18.2248 20.3764C18.4754 20.3764 18.6789 20.1694 18.6789 19.9146C18.6789 19.6588 18.4754 19.4532 18.2248 19.4532C17.976 19.4532 17.7725 19.6588 17.7725 19.9146ZM27.6309 19.4527C27.6309 18.6112 28.3052 17.9273 29.1318 17.9273C29.9631 17.9273 30.6346 18.6112 30.6346 19.4527C30.6346 20.298 29.9631 20.9819 29.1318 20.9819C28.3052 20.9819 27.6309 20.298 27.6309 19.4527ZM29.4115 18.9449C29.4115 19.165 29.5865 19.3401 29.7983 19.3401C30.0194 19.3401 30.1888 19.165 30.1888 18.9449C30.1888 18.7276 30.0194 18.5492 29.7983 18.5492C29.5865 18.5492 29.4115 18.7276 29.4115 18.9449ZM17.9474 15.3566C17.9474 15.3566 16.6301 14.7507 15.3494 15.5692C14.0709 16.3869 14.118 17.2228 14.118 17.2228C14.118 17.2228 13.4381 15.6819 15.2501 14.9267C17.064 14.1715 17.9474 15.3566 17.9474 15.3566ZM30.036 15.2346C30.036 15.2346 29.0894 14.6845 28.3546 14.6939C26.8449 14.7141 26.4337 15.3923 26.4337 15.3923C26.4337 15.3923 26.6871 13.7753 28.6177 14.0997C29.6645 14.2766 30.036 15.2346 30.036 15.2346Z" fill="black"/>
</svg>
