<svg width="48" height="48" viewBox="0 0 48 48" fill="none" xmlns="http://www.w3.org/2000/svg">
<path fill-rule="evenodd" clip-rule="evenodd" d="M24 48C10.7452 48 0 37.2548 0 24C0 10.7452 10.7452 0 24 0C37.2548 0 48 10.7452 48 24C48 37.2548 37.2548 48 24 48ZM35.3456 14.611C35.1318 13.4616 34.4512 12.8953 33.8358 12.6726C33.1719 12.4317 31.8257 12.1821 30.1343 11.982C28.7735 11.8211 27.1741 11.8339 26.2079 11.8639C26.092 11.0665 25.5349 10.3381 24.9116 10.0859C23.2509 9.41482 20.685 9.57695 20.0262 9.76232C19.5027 9.90921 18.9233 10.2103 18.6008 10.6741C18.3845 10.984 18.2446 11.381 18.2435 11.9356C18.2435 12.2495 18.2522 12.9889 18.2602 13.6458C18.2681 14.3049 18.2767 14.8943 18.2767 14.8982C18.2764 15.485 17.8028 15.9625 17.2158 15.9632H14.5232C13.9489 15.9632 13.51 16.0601 13.1748 16.213C12.8391 16.3661 12.6013 16.5724 12.4206 16.8165C12.0609 17.3012 11.9985 17.8994 12 18.5098C12 18.5098 12.0053 19.0086 12.125 19.974C12.2245 20.721 13.0314 25.9395 13.7979 27.5266C14.095 28.1441 14.293 28.4013 14.8768 28.6734C16.1775 29.2325 19.1487 29.8546 20.5412 30.0327C21.9312 30.2112 22.8037 30.5866 23.3236 29.4921C23.3253 29.4894 23.4278 29.2198 23.5686 28.8244C24.02 27.4511 24.0828 26.2327 24.0828 25.351C24.0828 25.2613 24.2138 25.2572 24.2138 25.351C24.2138 25.9735 24.0954 28.1764 25.7529 28.7673C26.4072 29.0003 27.7645 29.208 29.1437 29.3703C30.3908 29.5142 31.2958 30.0069 31.2958 33.2191C31.2958 35.1733 30.887 35.4412 28.7496 35.4412C27.017 35.4412 26.3567 35.4863 26.3567 34.1044C26.3567 32.9875 27.457 33.1045 28.2724 33.1045C28.6367 33.1045 28.3723 32.8325 28.3723 32.1435C28.3723 31.458 28.7993 31.0618 28.3954 31.0517C25.5757 30.9738 23.9165 31.0484 23.9165 34.589C23.9165 37.8032 25.1417 38.4 29.1437 38.4C32.2815 38.4 33.3876 38.2968 34.6833 34.2608C34.9397 33.464 35.5597 31.0325 35.935 26.9499C36.1721 24.3686 35.7112 16.5774 35.3456 14.611ZM14.3971 15.1781H17.091C17.2453 15.1781 17.3693 15.0519 17.3697 14.8982C17.3697 14.8982 17.337 12.5807 17.337 11.9365V11.9289C17.337 11.3998 17.4476 10.9385 17.6402 10.552L17.7323 10.3784C17.722 10.3801 17.7117 10.3852 17.7015 10.3955L12.4705 15.6034C12.4603 15.6118 12.4539 15.6228 12.4509 15.634C12.5592 15.5802 12.707 15.5068 12.728 15.4976C13.1835 15.2912 13.7359 15.1781 14.3971 15.1781Z" fill="black"/>
<path fill-rule="evenodd" clip-rule="evenodd" d="M29.8758 23.2227C29.4882 23.2091 29.1153 23.2336 28.7676 23.2897C28.8654 22.4963 29.1916 21.5227 30.3472 21.5635C31.6263 21.6077 31.8056 22.8215 31.8102 23.6436C31.2708 23.4022 30.6031 23.2483 29.8758 23.2227Z" fill="black"/>
</svg>
