<svg width="48" height="48" viewBox="0 0 48 48" fill="none" xmlns="http://www.w3.org/2000/svg">
<path fill-rule="evenodd" clip-rule="evenodd" d="M36.9785 43.4004C40.4764 41.7867 44.2541 39.1667 44.6095 35.2981C44.6075 35.3156 44.6009 35.3655 44.5826 35.4427C44.6479 35.0395 44.6404 34.6655 44.5561 34.3376C46.988 30.414 48.0205 26.0129 47.2594 21.25C47.2594 21.25 47.2697 21.3325 47.2811 21.485C47.2605 21.3553 47.246 21.285 47.246 21.285C47.246 21.285 46.9492 21.6298 46.5027 22.2667C46.3739 20.7036 46.0381 19.0725 45.4167 17.4097C44.1922 13.8855 42.1711 10.7672 40.6423 8.40852L40.6422 8.40849V8.40846C39.4617 6.58721 38.5748 5.21884 38.5748 4.46613C38.12 4.99569 37.7598 5.78308 37.5594 6.73041C33.5108 2.90719 32.3409 1.10543 32.3409 0C32.3409 0 31.2624 1.20228 30.2508 3.1047C29.7939 3.93011 29.3358 4.9514 29.0033 6.14499C28.4195 8.16949 28.2457 10.5153 29.134 12.8966C29.2294 13.1524 29.3287 13.3978 29.4316 13.6338C29.8456 14.625 30.3795 15.5254 30.983 16.2717C31.4884 16.9255 32.032 17.4904 32.5991 18.0145C33.0081 18.4026 33.4348 18.7721 33.878 19.1219V19.1207C33.8787 19.1217 33.8794 19.1227 33.8801 19.1237C33.8794 19.1231 33.8787 19.1225 33.878 19.1219C33.8896 19.1381 33.9007 19.1538 33.9115 19.169C35.1293 20.9397 35.799 23.1171 35.799 25.4577C35.799 31.372 31.0019 36.1665 25.0843 36.1665C24.2778 36.1669 23.4738 36.0766 22.6875 35.8973C21.7149 35.7119 20.8854 35.4202 20.1834 35.0783C18.4754 33.9634 17.4517 32.9687 16.8616 32.0748C17.2206 32.1995 17.5885 32.3024 17.96 32.3841C20.1285 32.8765 22.342 32.6226 23.772 31.8328C24.0018 31.7053 24.2194 31.5824 24.4258 31.4657L24.426 31.4656C25.3314 30.9538 26.0229 30.563 26.6005 30.4464C26.8258 30.4042 27.035 30.4015 27.22 30.4531L27.1601 30.4296C27.2159 30.4394 27.2709 30.4532 27.325 30.4711C28.1455 30.7445 28.7987 29.9507 28.2128 29.1278C27.6386 28.3061 26.1445 27.1293 23.9261 27.4554C23.4514 27.5245 22.9878 27.6686 22.5176 27.8147C21.307 28.1909 20.0525 28.5807 18.451 27.7405C18.3078 27.6661 18.1685 27.5843 18.0337 27.4956C17.9646 27.4548 18.0667 27.4818 18.1786 27.5113V27.5113C18.304 27.5444 18.4416 27.5807 18.3648 27.5289C17.9321 27.3182 17.1661 26.8592 16.9676 26.696C16.951 26.6824 17.0346 26.7087 17.1183 26.7349C17.2024 26.7613 17.2867 26.7877 17.27 26.774C16.5746 26.2609 16.1408 25.8035 15.8739 25.3976C15.607 24.9739 15.4963 24.5669 15.4711 24.2017C15.4649 24.0047 15.485 23.8288 15.5028 23.6726C15.5075 23.6316 15.512 23.592 15.5159 23.5536C15.5185 23.5273 15.522 23.5006 15.5263 23.4736C15.5549 23.3407 15.5906 23.2205 15.6264 23.1155C15.721 22.8766 15.8717 22.6374 16.0732 22.4403C16.1532 22.3659 16.2364 22.2988 16.3156 22.2422C16.3986 22.1862 16.4875 22.1373 16.5822 22.0971C16.8895 22.2474 17.081 22.3621 17.081 22.3621C17.081 22.3621 16.9499 22.1221 16.879 21.9956C16.8914 21.9909 16.9035 21.9891 16.9156 21.9873C16.9277 21.9856 16.9398 21.9838 16.9522 21.9791C17.204 22.0879 17.7608 22.3707 18.0539 22.5435C18.4358 22.7848 18.5575 22.9999 18.5575 22.9999C18.5575 22.9999 18.658 22.9504 18.5836 22.7399C18.5564 22.6536 18.4407 22.3794 18.0625 22.1026L18.0862 22.105C18.3107 22.2195 18.525 22.3528 18.7269 22.5037C18.7474 22.4368 18.7711 22.3693 18.7957 22.2994C18.8987 22.006 19.0172 21.6686 18.9831 21.1447C18.9785 21.0637 18.9752 20.9934 18.9722 20.9315V20.9311V20.9311C18.9584 20.6446 18.9533 20.539 18.8795 20.3942C18.7992 20.243 18.9246 20.1838 19.064 20.3411C19.0399 20.2171 18.9998 20.0967 18.9448 19.9829L18.946 19.9711L18.9462 19.9706C18.953 19.9617 19.0272 19.8657 19.0623 19.8292C19.1421 19.7461 19.2521 19.6578 19.3843 19.5665C19.9168 19.2186 20.8322 18.7855 21.5955 18.4392C21.8505 18.328 22.0873 18.2277 22.2852 18.1438L22.2853 18.1437H22.2854L22.2855 18.1436H22.2856L22.2857 18.1435C22.5706 18.0228 22.7749 17.9362 22.8375 17.9004C22.9265 17.8442 23.0912 17.7299 23.2789 17.5612C23.5244 17.3533 23.7401 17.1114 23.9191 16.8422C24.0844 16.606 24.2152 16.289 24.2731 15.8368C24.2846 15.7583 24.2924 15.6777 24.296 15.5951L24.297 15.579C24.3016 15.4768 24.2924 15.3828 24.2274 15.2943C24.0211 15.0117 23.2496 14.7848 20.5561 14.5322C19.1005 14.3978 18.5432 13.0525 18.3733 12.4863L18.3685 12.4988L18.3626 12.4756C18.9435 10.9549 19.9896 9.65637 21.3518 8.76516C21.3908 8.73326 21.3127 8.73735 21.2347 8.74144C21.1566 8.74553 21.0786 8.74962 21.1177 8.71775C21.1846 8.66311 21.5233 8.53275 21.743 8.44821L21.7431 8.44817L21.7432 8.44813C21.8225 8.41761 21.8862 8.39307 21.916 8.38024C22.0533 8.32238 21.3285 8.04658 20.6888 8.1136C20.0904 8.17403 19.9249 8.23767 19.6325 8.35004L19.5511 8.38121C19.6256 8.31471 19.7841 8.23752 19.9051 8.17858C20.0183 8.12343 20.0987 8.08428 20.0467 8.08487C19.3443 8.18136 18.4711 8.54726 17.7248 8.9616C17.7234 8.88895 17.7388 8.81697 17.7698 8.75126C17.4221 8.88341 16.568 9.41829 16.3194 9.87077C16.3301 9.78414 16.3349 9.69688 16.3338 9.6096C16.0719 9.80477 15.833 10.029 15.6216 10.2779L15.6085 10.2885C13.5916 9.56048 11.8167 9.51336 10.3148 9.83975L10.3002 9.82668L10.3182 9.8225C10.1063 9.6664 9.71899 9.30237 9.28353 8.63409C9.20196 8.50799 9.11676 8.36866 9.02791 8.21417C8.92701 8.03702 8.82492 7.84359 8.72308 7.63279H8.72303C8.71598 7.62048 8.70939 7.61512 8.70315 7.61478C8.68024 7.58851 8.66218 7.63464 8.64527 7.67782V7.67783V7.67783C8.63375 7.70724 8.62277 7.73529 8.61116 7.73814C8.60945 7.7356 8.60771 7.73239 8.60596 7.72845C8.31547 7.05465 8.13874 5.9626 8.18059 5.1908C8.18059 5.1908 8.17173 5.19483 8.15527 5.20398L8.15605 5.18195C8.15605 5.18195 7.55517 5.4558 7.05785 6.59951C6.97788 6.77758 6.92275 6.88649 6.87098 6.98615C6.87732 6.94067 6.88926 6.87496 6.89985 6.81666C6.91354 6.7413 6.92498 6.67833 6.91918 6.68743C6.91029 6.70248 6.89995 6.71815 6.88845 6.73443C6.89498 6.69662 6.89836 6.67274 6.89463 6.67858C6.86501 6.72872 6.81929 6.78569 6.76802 6.84957C6.66967 6.97212 6.5509 7.1201 6.48629 7.29409C6.45866 7.37436 6.42649 7.44017 6.39397 7.50668C6.35627 7.5838 6.31811 7.66185 6.28605 7.76446L6.28764 7.73922V7.73922V7.73921C6.29265 7.66034 6.29773 7.58028 6.28957 7.60294C6.27825 7.62482 6.26702 7.6468 6.25588 7.6689C6.25777 7.62499 6.25767 7.59746 6.25078 7.61658C6.01768 8.08753 5.81708 8.57389 5.65039 9.07224C5.40788 9.86952 5.12932 10.9276 5.04223 12.2781C5.00402 12.6711 4.9965 12.9476 5.01147 13.0431C5.0109 13.051 5.01024 13.0588 5.00946 13.0665C4.37532 13.7906 3.94322 14.4037 3.77985 14.7215C2.96 15.9884 2.05659 17.9627 1.18083 21.0858C1.57046 20.2327 2.03639 19.4165 2.57293 18.6473C1.84468 20.305 1.14073 22.9082 1 26.9171C1.17677 26.0875 1.40273 25.2691 1.67668 24.4663C1.55093 27.1395 1.86229 30.4536 3.55224 34.1928C4.55566 36.3922 6.86546 40.8586 12.5093 44.344L12.5088 44.3444C12.5088 44.3444 14.4288 45.7736 17.7292 46.8448C17.9731 46.9333 18.2201 47.0204 18.4723 47.105C18.3932 47.073 18.3166 47.0394 18.2423 47.0049C20.439 47.663 22.7198 47.9983 25.013 48C33.1145 48.0069 35.8006 44.9228 36.0578 44.6024C36.4694 44.2149 36.7823 43.8064 36.9785 43.4004Z" fill="black"/>
</svg>
