<svg width="48" height="48" viewBox="0 0 48 48" fill="none" xmlns="http://www.w3.org/2000/svg">
<path fill-rule="evenodd" clip-rule="evenodd" d="M24 48C10.7452 48 0 37.2548 0 24C0 10.7452 10.7452 0 24 0C37.2548 0 48 10.7452 48 24C48 37.2548 37.2548 48 24 48ZM15.3043 23.4077C17.5849 28.7646 24.0276 38.4 24.0276 38.4C24.0276 38.4 31.4927 26.7108 33.0209 22.6466H33.0107C33.3919 21.602 33.6 20.4729 33.6 19.2947C33.6 13.9405 29.3019 9.6 24 9.6C18.6981 9.6 14.4 13.9405 14.4 19.2947C14.4 20.7651 14.7242 22.1591 15.3043 23.4077Z" fill="black"/>
<path fill-rule="evenodd" clip-rule="evenodd" d="M24 24.8C27.0928 24.8 29.6 22.2928 29.6 19.2C29.6 16.1072 27.0928 13.6 24 13.6C20.9072 13.6 18.4 16.1072 18.4 19.2C18.4 22.2928 20.9072 24.8 24 24.8Z" fill="black"/>
</svg>
