<svg width="48" height="48" viewBox="0 0 48 48" fill="none" xmlns="http://www.w3.org/2000/svg">
<path fill-rule="evenodd" clip-rule="evenodd" d="M24 0C10.7452 0 0 10.7452 0 24C0 37.2548 10.7452 48 24 48C37.2548 48 48 37.2548 48 24C48 10.7452 37.2548 0 24 0ZM23.9639 26.0193L14.9987 19.5115V33.23H13.5009C12.6664 33.23 12.0031 32.5667 12.0031 31.7322V16.562C12.0031 16.4985 12.007 16.4389 12.0144 16.3831C12.0416 16.1451 12.1284 15.9122 12.2813 15.7061C12.7734 15.0428 13.7363 14.893 14.421 15.3851L23.9853 22.3391L33.6138 15.2996C34.2771 14.8074 35.2186 14.9572 35.7107 15.6419C35.9723 15.9945 36.0525 16.4256 35.9674 16.8261V31.7536C35.9674 32.5667 35.3041 33.23 34.4697 33.23H32.9719V19.4788L23.9639 26.0193Z" fill="black"/>
</svg>
