<svg width="48" height="48" viewBox="0 0 48 48" fill="none" xmlns="http://www.w3.org/2000/svg">
<path fill-rule="evenodd" clip-rule="evenodd" d="M0 24C0 10.7452 10.7452 0 24 0C37.2548 0 48 10.7452 48 24C48 37.2548 37.2548 48 24 48C10.7452 48 0 37.2548 0 24ZM36.152 29.032C36.1362 26.1458 35.6498 23.2816 34.712 20.552C33.992 18.472 35.432 15.992 35.432 15.992C35.432 15.992 34.712 16.072 33.192 17.432C32.2637 18.3172 31.6941 19.5134 31.592 20.792C29.672 16.392 25.832 13.512 24.392 11.592C22.952 9.672 24 7.2 24 7.2C21.12 8.48 19.68 11.52 19.2 15.2C19.091 17.2211 18.0584 19.0797 16.4 20.24C16 16.8 12.08 16 12.08 16C12.88 16.24 14.32 20.16 12.8 23.12C11.8151 24.9714 11.2678 27.024 11.2 29.12C11.2 35.84 15.52 41.352 23.592 41.352C26.9196 41.4827 30.1537 40.2348 32.5311 37.9029C34.9084 35.5709 36.2185 32.3615 36.152 29.032Z" fill="black"/>
<path fill-rule="evenodd" clip-rule="evenodd" d="M28.072 29.992C29.044 29.992 29.832 28.8817 29.832 27.512C29.832 26.1423 29.044 25.032 28.072 25.032C27.1 25.032 26.312 26.1423 26.312 27.512C26.312 28.8817 27.1 29.992 28.072 29.992Z" fill="black"/>
<path fill-rule="evenodd" clip-rule="evenodd" d="M19.2 29.992C20.172 29.992 20.96 28.8817 20.96 27.512C20.96 26.1423 20.172 25.032 19.2 25.032C18.228 25.032 17.44 26.1423 17.44 27.512C17.44 28.8817 18.228 29.992 19.2 29.992Z" fill="black"/>
<path fill-rule="evenodd" clip-rule="evenodd" d="M23.592 39.504C18.5868 39.5575 14.479 35.5569 14.4 30.552C14.4 30.1102 14.7582 29.752 15.2 29.752C15.4162 29.7377 15.6281 29.8174 15.7814 29.9706C15.9346 30.1239 16.0143 30.3358 16 30.552C16.0657 34.696 19.4556 38.0145 23.6 37.992C25.5951 38.0155 27.5176 37.2443 28.9433 35.8485C30.3691 34.4528 31.181 32.5471 31.2 30.552C31.2 30.1102 31.5582 29.752 32 29.752C32.2162 29.7377 32.4281 29.8174 32.5814 29.9706C32.7346 30.1239 32.8143 30.3358 32.8 30.552C32.7748 32.963 31.7883 35.2642 30.0596 36.9449C28.3308 38.6256 26.0027 39.5468 23.592 39.504Z" fill="black"/>
</svg>
