<svg width="48" height="48" viewBox="0 0 48 48" fill="none" xmlns="http://www.w3.org/2000/svg">
<path fill-rule="evenodd" clip-rule="evenodd" d="M0 24C0 10.7452 10.7452 0 24 0C37.2548 0 48 10.7452 48 24C48 37.2548 37.2548 48 24 48C10.7452 48 0 37.2548 0 24ZM36 25.6364V15.8247C36 15.2223 35.5116 14.7338 34.9091 14.7338C34.3067 14.7338 33.8182 15.2223 33.8182 15.8247V25.6364C33.8182 26.2388 34.3067 26.7273 34.9091 26.7273C35.5116 26.7273 36 26.2388 36 25.6364ZM35.6193 32.4646C36.0767 32.0725 36.1296 31.3838 35.7374 30.9262C35.3455 30.4685 34.6555 30.4159 34.1989 30.8081C34.164 30.8381 30.6109 33.8182 24 33.8182C17.4709 33.8182 13.8625 30.8594 13.7984 30.8059C13.3408 30.4156 12.6538 30.4696 12.2627 30.9262C11.8705 31.3838 11.9237 32.0725 12.3808 32.4646C12.5493 32.6089 16.5906 36 24 36C31.4095 36 35.4508 32.6089 35.6193 32.4646ZM12 15.8247V25.6364C12 26.2388 12.4885 26.7273 13.0909 26.7273C13.6934 26.7273 14.1818 26.2388 14.1818 25.6364V15.8247C14.1818 15.2223 13.6934 14.7338 13.0909 14.7338C12.4885 14.7338 12 15.2223 12 15.8247ZM17.4546 13.6429V28.2169C17.4546 28.8194 17.943 29.3078 18.5455 29.3078C19.1479 29.3078 19.6364 28.8194 19.6364 28.2169V13.6429C19.6364 13.0405 19.1479 12.552 18.5455 12.552C17.943 12.552 17.4546 13.0405 17.4546 13.6429ZM22.9091 13.0909V28.9091C22.9091 29.5115 23.3976 30 24 30C24.6025 30 25.0909 29.5115 25.0909 28.9091V13.0909C25.0909 12.4885 24.6025 12 24 12C23.3976 12 22.9091 12.4885 22.9091 13.0909ZM28.3637 13.6429V28.2169C28.3637 28.8194 28.8521 29.3078 29.4546 29.3078C30.057 29.3078 30.5455 28.8194 30.5455 28.2169V13.6429C30.5455 13.0405 30.057 12.552 29.4546 12.552C28.8521 12.552 28.3637 13.0405 28.3637 13.6429Z" fill="black"/>
</svg>
