<svg width="48" height="48" viewBox="0 0 48 48" fill="none" xmlns="http://www.w3.org/2000/svg">
<path fill-rule="evenodd" clip-rule="evenodd" d="M0 24C0 10.7452 10.7452 0 24 0C37.2548 0 48 10.7452 48 24C48 37.2548 37.2548 48 24 48C10.7452 48 0 37.2548 0 24ZM33.3709 36.4207C35.6189 36.4207 37.4095 34.9736 38.4 31.5065L36.724 30.8594C35.8857 33.1822 35.1617 33.6023 34.5904 33.6023C34.0188 33.6023 33.7137 33.2217 33.7137 32.4601C33.7137 32.1173 33.7905 31.7372 33.9043 31.279L35.1237 26.9C35.4285 25.8717 35.5428 24.9613 35.5428 24.1235C35.5428 20.8471 33.5615 19.1409 31.1613 19.1409C28.9136 19.1409 26.6276 21.1757 25.4848 23.3096L26.3228 19.4944H19.8079L18.8935 22.8776H21.9414L20.0647 30.3744C18.5906 33.6508 15.8831 33.6862 15.5434 33.61C14.9855 33.4842 14.6287 33.276 14.6287 32.5513C14.6287 32.1328 14.7049 31.5394 14.8954 30.8149L17.7531 19.4944H10.5144L9.6 22.8776H12.6096L10.6666 30.7913C10.5144 31.439 10.4379 32.1145 10.4379 32.6851C10.4379 34.9333 11.6571 36.4171 14.2478 36.4171C16.3968 36.4171 18.1386 35.1238 19.3927 33.0635L18.6269 36.1026H22.8938L25.3323 26.3566C25.9417 23.8799 27.1227 22.6292 28.9136 22.6292C30.3233 22.6292 31.1996 23.5059 31.1996 24.9532C31.1996 25.3725 31.1613 25.8292 31.009 26.3247L29.7516 30.8203C29.5611 31.468 29.4852 32.1162 29.4852 32.7252C29.4852 34.8595 30.7421 36.4207 33.3709 36.4207ZM16.0384 12C14.6287 12 13.4479 13.1048 13.4479 14.552C13.4479 16.0003 14.6287 17.1052 16.0384 17.1052C17.4483 17.1052 18.6292 16.0003 18.6292 14.552C18.6292 13.1048 17.4483 12 16.0384 12Z" fill="black"/>
</svg>
