<svg width="48" height="48" viewBox="0 0 48 48" fill="none" xmlns="http://www.w3.org/2000/svg">
<path fill-rule="evenodd" clip-rule="evenodd" d="M0 24C0 10.7452 10.7452 0 24 0C37.2548 0 48 10.7452 48 24C48 37.2548 37.2548 48 24 48C10.7452 48 0 37.2548 0 24ZM36.4642 29.6294C37.0201 28.9761 36.869 28.3324 36.1346 28.3324C35.901 28.3324 35.7244 28.3928 35.7244 28.3928C35.7244 28.3928 35.7271 27.4395 35.2771 26.697C34.9302 27.0793 33.9671 27.8367 32.7034 28.4245C31.5185 28.9757 29.9373 29.4585 27.9778 29.5224C27.4292 29.5458 27.0896 29.4582 26.8986 30.0849C26.8832 30.1409 26.8733 30.2036 26.868 30.2676C29.0157 30.9286 32.413 29.6391 32.7425 29.5643C32.7563 29.5613 32.765 29.5594 32.7733 29.5593C32.9861 29.5761 30.9494 30.8351 28.1232 30.8351C27.6459 30.8351 27.2347 30.7942 26.9098 30.7304C27.0644 31.2495 27.4683 31.4784 27.9997 31.5995C28.4028 31.6915 28.831 31.7002 28.831 31.7002C32.7466 31.8078 35.9686 28.8353 36.1016 28.6825C36.1016 28.6825 36.0665 28.763 36.0623 28.7722C35.4884 30.037 32.165 32.3305 28.857 32.2648L28.8462 32.2685C28.0791 32.2657 27.147 32.0722 26.6624 31.4835C25.8957 30.552 26.2935 29.003 27.5155 28.9668C27.5155 28.9668 27.798 28.9603 27.923 28.9572C30.9485 28.8661 33.6633 27.777 35.6071 25.5026C35.8743 25.1773 35.5757 24.7304 34.9965 24.7168H34.9882C34.9882 24.7168 34.985 24.7129 34.983 24.7109C34.2962 23.9904 33.6925 23.7358 33.1554 23.4683C32.0293 22.9063 32.1353 23.3918 31.8734 20.6656C31.8025 19.9307 31.6604 18.9283 31.0015 18.544C30.8287 18.4432 30.6399 18.4 30.4439 18.4C30.2503 18.4 30.1559 18.4388 30.1178 18.447C29.7569 18.5254 29.5516 18.7258 29.2945 18.9582C28.0794 20.0559 27.1084 19.758 25.6589 19.7454C24.2976 19.7338 23.0956 20.6642 22.8657 22.093C22.7539 22.841 22.8259 23.6017 22.9455 23.9433C22.9455 23.9433 22.5761 23.7026 22.4 23.4894C22.6131 24.7947 23.8285 25.6478 23.8285 25.6478C23.637 25.6909 23.3617 25.673 23.3617 25.673C23.3617 25.673 24.0554 26.2107 24.6566 26.3979C24.5 26.4934 23.7076 27.2595 23.299 28.3141C22.9167 29.3011 23.0724 30.4859 23.0724 30.4859L23.4045 30.0008C23.4045 30.0008 23.1876 31.0818 23.6074 32.1288C23.7467 31.8173 24.051 31.2614 24.051 31.2614C24.051 31.2614 24.0028 32.4223 24.5731 33.3729C24.5878 33.1535 24.6734 32.595 24.6734 32.595C24.6734 32.595 25.0007 33.586 25.7568 34.279C27.1724 35.5097 30.9201 35.732 33.7726 33.5358C36.0319 31.7964 36.4266 29.7016 36.4642 29.6294ZM16.3996 31.2C18.1411 31.2 19.463 29.3997 19.1554 27.4329C19.1554 27.4329 18.9778 27.883 18.8124 28.122C18.8524 27.4179 18.7503 26.7213 18.5508 26.0592C18.5508 26.0592 18.463 26.4539 18.2887 26.9349C18.1213 25.3955 17.5263 25.0697 17.5263 25.0697C17.1815 24.8963 16.8004 24.8 16.3996 24.8C14.8534 24.8 13.6 26.2326 13.6 28C13.6 29.7674 14.8534 31.2 16.3996 31.2ZM23.2253 17.1607C26.2899 15.241 29.3511 15.0203 30.3997 15.7996V15.7996C30.3978 15.7945 30.3812 15.7492 30.3746 15.7369C30.1083 15.1901 29.487 14.8086 28.9335 14.6555C29.0305 14.753 29.1711 14.9314 29.2279 15.0375C28.8101 14.7602 28.255 14.516 27.6757 14.4C27.6757 14.4 27.7448 14.4479 27.7566 14.4586C27.872 14.5625 28.0257 14.7268 28.0886 14.8678C27.5349 14.6529 26.835 14.5326 26.2359 14.6441C26.2275 14.6456 26.161 14.6608 26.161 14.6608C26.161 14.6608 26.239 14.6796 26.2563 14.6845C26.455 14.7415 26.7386 14.8585 26.8635 15.0189C25.8689 14.8498 24.7749 15.0369 24.1848 15.3558C24.2607 15.3527 24.26 15.3524 24.3241 15.354C24.5411 15.3596 24.9784 15.3881 25.162 15.501C24.5347 15.6244 23.6268 15.8956 23.1381 16.3018C23.2244 16.2921 23.7141 16.2318 23.9144 16.2629C21.2244 17.7506 20 20 20 20C20.7931 19.0011 21.8221 18.0397 23.2253 17.1607ZM11.472 24.5491C11.6265 24.8086 12.7128 25.597 12.7243 25.6C13.1483 25.0182 13.6339 24.5905 14.123 24.324L14.0762 24.3256C15.0583 20.9344 17.6976 17.4505 20.3872 15.1811C21.0582 14.6149 22.4073 13.7168 22.4073 13.7168L20.8828 12.3887L20.7718 11.6212L22.8692 13.3337V13.3337C22.7743 13.4106 22.6787 13.4898 22.5835 13.5703C22.3767 13.7452 22.1694 13.9284 21.9626 14.1187C21.6616 14.3955 21.3614 14.6874 21.0645 14.991C20.4248 15.6449 19.8 16.3531 19.2145 17.0813C18.1792 18.3688 17.7483 18.9696 17.0943 20.1935C17.0915 20.1971 20.6699 15.9538 21.5611 15.0797C23.1964 13.4758 25.873 11.6895 25.9008 11.6736C27.0437 10.982 28.0083 10.5762 28.8 10.4C27.4992 10.5313 26.1078 11.1923 25.0159 11.8407C25.0139 11.839 23.4283 10.5139 23.4263 10.5123L22.8448 10.7326C20.7308 10.2366 16.0762 13.7096 13.2797 18.1105C12.1481 19.8912 10.558 23.0239 11.472 24.5491Z" fill="black"/>
<path d="M24 12.4416L22.4 12L23.4573 12.8C23.6113 12.695 23.7936 12.5737 24 12.4416Z" fill="black"/>
<path d="M16.6704 27.8656C16.6101 27.8102 16.582 27.7628 16.5654 27.6898C16.5408 27.5571 16.5536 27.4799 16.6514 27.4002C16.7267 27.3403 16.7873 27.3115 16.7875 27.2738C16.7909 27.2027 16.539 27.1294 16.3629 27.3306C16.2166 27.5114 16.1704 27.8884 16.4037 28.1821C16.6635 28.5075 17.0675 28.5842 17.1304 28.9931C17.1387 29.0511 17.1448 29.1157 17.1405 29.1793C17.1414 29.2525 17.1204 29.3578 17.1193 29.3644C17.0412 29.7594 16.7181 30.1364 16.1854 30.0403C16.0873 30.0237 16.0237 30.0098 16.0047 30.0412C15.9637 30.1076 16.1919 30.4107 16.6099 30.3997C17.2067 30.385 17.7003 29.681 17.5825 28.8943C17.4759 28.2087 16.8888 28.0677 16.6704 27.8656Z" fill="black"/>
<path d="M27.4736 23.8389C27.7493 23.929 27.936 23.9983 27.9883 23.947C28.0145 23.9221 27.9971 23.8619 27.9322 23.7822C27.7609 23.5718 27.4335 23.3919 27.1418 23.3018C26.4758 23.0937 25.6963 23.2116 25.1289 23.5918C24.8468 23.7844 24.7219 23.9827 24.8509 23.9989C24.9301 24.0088 25.0951 23.9512 25.3278 23.8767C26.248 23.584 26.7679 23.6178 27.4736 23.8389Z" fill="black"/>
<path fill-rule="evenodd" clip-rule="evenodd" d="M33.6 36V36.1919H33.7087V36.8H33.8164V36.1919H33.9265V36H33.6ZM34.1802 36.4603L34.1129 36H33.9594V36.8H34.0576V36.2223L34.1379 36.8H34.2216L34.3018 36.2208V36.8H34.4V36H34.2465L34.1802 36.4603Z" fill="black"/>
<path d="M26.9309 24.455C27.0759 24.4687 27.1731 24.481 27.1956 24.4256C27.2455 24.3068 26.861 23.8984 26.3356 24.0236C26.2701 24.0376 26.2095 24.066 26.1499 24.0884C26.1281 24.096 26.1071 24.1069 26.0868 24.1189C25.9576 24.1951 25.8457 24.2774 25.7372 24.4232C25.6127 24.592 25.5773 24.7488 25.6134 24.7872C25.6487 24.8269 25.7349 24.7682 25.8681 24.6927C26.3143 24.4326 26.63 24.4257 26.9309 24.455Z" fill="black"/>
<path d="M30.5006 22.2297C30.7504 22.2005 30.9933 22.2599 31.2 22.4C31.184 21.5951 30.8377 20.6884 30.5761 20.8112V20.8112C30.423 20.8789 30.397 21.2425 30.4003 21.4625C30.4076 21.7266 30.4377 21.9707 30.5006 22.2297Z" fill="black"/>
<path d="M29.8516 24.7198C30.0567 24.8525 30.2894 24.8169 30.3713 24.6403C30.4533 24.4637 30.3534 24.213 30.1484 24.0803C29.9432 23.9475 29.7106 23.9831 29.6287 24.1597C29.5467 24.3363 29.6465 24.587 29.8516 24.7198Z" fill="black"/>
<path d="M31.2089 23.5548C31.1628 23.7743 31.3004 23.9724 31.5164 23.9974C31.7324 24.0224 31.9448 23.8647 31.9911 23.6453C32.0372 23.4258 31.8996 23.2276 31.6836 23.2026C31.4676 23.1776 31.2551 23.3353 31.2089 23.5548Z" fill="black"/>
<path d="M17.2172 27.5003C17.3657 27.7296 17.3184 27.8635 17.3793 27.9285C17.4013 27.952 17.4327 27.9594 17.4641 27.9455C17.5482 27.9076 17.5896 27.7615 17.5975 27.6595C17.6186 27.4144 17.5 27.1382 17.3426 26.943C17.1378 26.6834 16.8148 26.4828 16.4495 26.421C16.1166 26.3645 15.7891 26.4368 15.6976 26.4666C15.6505 26.4816 15.5927 26.4949 15.5426 26.5162C14.6473 26.8973 14.2595 27.8504 14.4455 28.7987C14.4915 29.0279 14.5854 29.2856 14.732 29.4551C14.9153 29.6714 15.1167 29.6304 15.0309 29.4293C15.0104 29.3736 14.8997 29.1459 14.8848 28.7336C14.8696 28.3095 14.9598 27.8689 15.2083 27.5321C15.3929 27.2858 15.6196 27.1754 15.6461 27.1593C15.6779 27.1409 15.711 27.1283 15.7469 27.11C15.7608 27.1036 15.7771 27.0982 15.7949 27.0927C15.9088 27.0577 15.8442 27.0729 15.9597 27.0461C16.5754 26.9037 17.0202 27.1957 17.2172 27.5003Z" fill="black"/>
<path d="M23.2886 12.6237L23.6 12.8L23.3481 11.2L23.2 11.9971L23.2886 12.6237Z" fill="black"/>
<path d="M24.8 12.5313L24 12L24.2906 12.8C24.4505 12.7133 24.6208 12.6232 24.8 12.5313Z" fill="black"/>
</svg>
