<svg width="48" height="48" viewBox="0 0 48 48" fill="none" xmlns="http://www.w3.org/2000/svg">
<path fill-rule="evenodd" clip-rule="evenodd" d="M24 48C10.7452 48 0 37.2548 0 24C0 10.7452 10.7452 0 24 0C37.2548 0 48 10.7452 48 24C48 37.2548 37.2548 48 24 48ZM23.9942 31.1322C25.5059 32.3207 27.4114 33.0294 29.482 33.0294C34.3956 33.0294 38.3789 29.0386 38.3789 24.1157C38.3789 19.1927 34.3956 15.2019 29.482 15.2019C27.4114 15.2019 25.5059 15.9106 23.9942 17.0992C22.4824 15.9106 20.577 15.2019 18.5063 15.2019C13.5927 15.2019 9.60945 19.1927 9.60945 24.1157C9.60945 29.0386 13.5927 33.0294 18.5063 33.0294C20.577 33.0294 22.4824 32.3207 23.9942 31.1322Z" fill="black"/>
<path fill-rule="evenodd" clip-rule="evenodd" d="M23.9942 17.0992C21.9183 18.731 20.5858 21.2663 20.5858 24.1148C20.5858 26.9634 21.9183 29.5004 23.9942 31.1322C26.07 29.5004 27.4026 26.9634 27.4026 24.1148C27.4026 21.2663 26.07 18.731 23.9942 17.0992Z" fill="black"/>
</svg>
