<svg width="48" height="48" viewBox="0 0 48 48" fill="none" xmlns="http://www.w3.org/2000/svg">
<path fill-rule="evenodd" clip-rule="evenodd" d="M0 24C0 10.7452 10.7452 0 24 0C37.2548 0 48 10.7452 48 24C48 37.2548 37.2548 48 24 48C10.7452 48 0 37.2548 0 24ZM23.9837 24.3853C27.5228 24.3853 30.3996 21.6079 30.3996 18.1936C30.3996 14.7781 27.5228 12 23.9837 12C20.4454 12 17.5678 14.7781 17.5678 18.1936C17.5678 21.6079 20.4454 24.3853 23.9837 24.3853ZM26.596 29.4403C27.902 29.1531 29.1615 28.6543 30.3216 27.951C31.1995 27.4167 31.464 26.2964 30.9109 25.449C30.3581 24.5996 29.1983 24.344 28.3189 24.8783C25.6908 26.4736 22.3072 26.4732 19.6806 24.8783C18.8011 24.344 17.641 24.5996 17.0894 25.449C16.5362 26.2972 16.7999 27.4167 17.6779 27.951C18.838 28.6536 20.0975 29.1531 21.4035 29.4403L17.8164 32.9028C17.0832 33.6114 17.0832 34.7601 17.8172 35.4686C18.1846 35.8225 18.6652 35.9996 19.1458 35.9996C19.6272 35.9996 20.1086 35.8225 20.476 35.4686L23.9993 32.0661L27.5257 35.4686C28.259 36.1771 29.4486 36.1771 30.1826 35.4686C30.9174 34.7601 30.9174 33.6106 30.1826 32.9028L26.596 29.4403Z" fill="black"/>
<path fill-rule="evenodd" clip-rule="evenodd" d="M23.9837 15.6297C25.4486 15.6297 26.6402 16.7795 26.6402 18.1936C26.6402 19.6065 25.4486 20.7571 23.9837 20.7571C22.5199 20.7571 21.3272 19.6065 21.3272 18.1936C21.3272 16.7795 22.5199 15.6297 23.9837 15.6297Z" fill="black"/>
</svg>
