<svg width="48" height="48" viewBox="0 0 48 48" fill="none" xmlns="http://www.w3.org/2000/svg">
<path fill-rule="evenodd" clip-rule="evenodd" d="M24 48C10.7452 48 0 37.2548 0 24C0 10.7452 10.7452 0 24 0C37.2548 0 48 10.7452 48 24C48 37.2548 37.2548 48 24 48ZM24 36.08C30.6274 36.08 36 30.7253 36 24.12C36 17.5147 30.6274 12.16 24 12.16C17.3726 12.16 12 17.5147 12 24.12C12 30.7253 17.3726 36.08 24 36.08Z" fill="black"/>
<path fill-rule="evenodd" clip-rule="evenodd" d="M24.08 32.96C27.5704 32.96 30.4 28.9843 30.4 24.08C30.4 19.1757 27.5704 15.2 24.08 15.2C20.5895 15.2 17.76 19.1757 17.76 24.08C17.76 28.9843 20.5895 32.96 24.08 32.96Z" fill="black"/>
</svg>
