<svg width="48" height="48" viewBox="0 0 48 48" fill="none" xmlns="http://www.w3.org/2000/svg">
<path fill-rule="evenodd" clip-rule="evenodd" d="M19.8057 33.4465L19.3576 36.2904C19.304 36.6328 19.568 36.9416 19.9136 36.9416H23.8184C24.2808 36.9416 24.6736 36.6056 24.7464 36.1496L24.7848 35.9512L25.52 31.2856L25.5672 31.0296C25.6392 30.572 26.0328 30.236 26.4952 30.236H27.0792C30.8624 30.236 33.824 28.7 34.6896 24.2552C35.0512 22.3984 34.864 20.848 33.9072 19.7576C33.6176 19.4288 33.2584 19.156 32.8384 18.9336C32.816 19.0768 32.7904 19.2232 32.7616 19.3736C32.7344 19.5134 32.7053 19.6506 32.6745 19.7854C32.6002 19.7389 32.522 19.6939 32.44 19.6504L32.0192 19.412V18.8712L32.0288 18.8096C32.1616 17.9656 32.1592 17.2736 32.0232 16.6944C31.8936 16.1424 31.6256 15.6408 31.2048 15.1608C30.3072 14.1376 28.588 13.6192 26.0968 13.6192H18.5928C18.532 13.6192 18.4736 13.6408 18.428 13.68C18.3824 13.7192 18.3512 13.7744 18.3416 13.8336L15.2488 33.444H19.6992L19.8057 33.4465ZM0 24C0 10.7452 10.7452 0 24 0C37.2548 0 48 10.7452 48 24C48 37.2548 37.2548 48 24 48C10.7452 48 0 37.2548 0 24Z" fill="black"/>
<path fill-rule="evenodd" clip-rule="evenodd" d="M31.8032 18.5208C31.652 18.4768 31.496 18.4368 31.336 18.4008C31.1752 18.3656 31.0104 18.3344 30.8408 18.3072C30.2472 18.2112 29.5968 18.1656 28.9 18.1656H23.0184C22.8736 18.1656 22.736 18.1984 22.6128 18.2576C22.3416 18.388 22.14 18.6448 22.0912 18.9592L20.84 26.884L20.804 27.1152C20.8864 26.5936 21.332 26.2096 21.8608 26.2096H24.0624C28.3864 26.2096 31.772 24.4536 32.7616 19.3736C32.7904 19.2232 32.816 19.0768 32.8384 18.9336C32.588 18.8008 32.3168 18.6872 32.0248 18.5904C31.9528 18.5664 31.8784 18.5432 31.8032 18.5208Z" fill="black"/>
</svg>
