<svg width="48" height="48" viewBox="0 0 48 48" fill="none" xmlns="http://www.w3.org/2000/svg">
<path fill-rule="evenodd" clip-rule="evenodd" d="M24 48C10.7452 48 0 37.2548 0 24C0 10.7452 10.7452 0 24 0C37.2548 0 48 10.7452 48 24C48 37.2548 37.2548 48 24 48ZM24.4673 38.1356C26.6995 38.1356 35.5463 28.1024 35.5463 21.3757C35.5463 14.9367 30.515 9.6 24.4673 9.6C18.1027 9.6 13.0717 14.9367 13.0717 21.3757C13.0717 28.1024 21.9185 38.1356 24.4673 38.1356Z" fill="black"/>
<path fill-rule="evenodd" clip-rule="evenodd" d="M18.9348 16.5907C18.0109 17.7677 17.4689 19.2629 17.4689 20.9176C17.4689 24.4638 20.5312 27.4951 24.5045 27.4951C28.0866 27.4951 31.1491 24.4638 31.1491 20.9176C31.1491 16.9845 28.0866 13.9529 24.5045 13.9529C23.875 13.9529 23.2683 14.029 22.6931 14.1727C23.644 14.5824 24.3089 15.5208 24.3089 16.6131C24.3089 18.0821 23.1058 19.273 21.6218 19.273C20.1378 19.273 18.9347 18.0821 18.9347 16.6131C18.9347 16.6056 18.9347 16.5982 18.9348 16.5907Z" fill="black"/>
</svg>
