<svg width="48" height="48" viewBox="0 0 48 48" fill="none" xmlns="http://www.w3.org/2000/svg">
<path fill-rule="evenodd" clip-rule="evenodd" d="M23.9605 47.4831C10.7255 47.4831 0.000488281 36.9206 0.000488281 23.8949C0.000488281 10.8692 10.7255 0.309204 23.9605 0.309204C37.193 0.309204 47.9206 10.8692 47.9206 23.8949C47.9206 36.9206 37.193 47.4831 23.9605 47.4831ZM2.21736 23.8951C2.21736 32.9495 7.94047 40.685 16.017 43.8C15.8271 42.1099 15.6577 39.5154 16.094 37.6661C16.4866 35.9987 18.6399 27.0429 18.6399 27.0429C18.6399 27.0429 17.9906 25.7621 17.9906 23.8699C17.9906 20.8964 19.7383 18.6783 21.9197 18.6783C23.7701 18.6783 24.6658 20.0476 24.6658 21.6897C24.6658 23.5238 23.4801 26.2648 22.8667 28.8063C22.356 30.936 23.9523 32.669 26.0825 32.669C29.9424 32.669 32.9091 28.6623 32.9091 22.8796C32.9091 17.7612 29.175 14.184 23.8394 14.184C17.662 14.184 14.0357 18.7465 14.0357 23.4606C14.0357 25.2972 14.7517 27.2678 15.65 28.3389C15.8271 28.5511 15.8527 28.7356 15.8014 28.9528C15.6371 29.6274 15.2702 31.08 15.1983 31.3756C15.1033 31.7671 14.8826 31.8505 14.4694 31.6636C11.7593 30.4206 10.0655 26.5149 10.0655 23.3823C10.0655 16.6396 15.0417 10.445 24.4117 10.445C31.9442 10.445 37.7981 15.7301 37.7981 22.7911C37.7981 30.1579 33.0785 36.0871 26.5316 36.0871C24.3296 36.0871 22.2611 34.9604 21.5527 33.6316C21.5527 33.6316 20.4646 37.7116 20.2002 38.712C19.71 40.5688 18.3858 42.8956 17.5029 44.3153C19.533 44.9368 21.6913 45.2703 23.9318 45.2703C35.9247 45.2703 45.6463 35.7006 45.6463 23.8951C45.6463 12.0871 35.9247 2.51998 23.9318 2.51998C11.9389 2.51998 2.21736 12.0871 2.21736 23.8951Z" fill="black"/>
</svg>
