<svg width="48" height="48" viewBox="0 0 48 48" fill="none" xmlns="http://www.w3.org/2000/svg">
<path fill-rule="evenodd" clip-rule="evenodd" d="M0 24C0 10.7452 10.7452 0 24 0C37.2548 0 48 10.7452 48 24C48 37.2548 37.2548 48 24 48C10.7452 48 0 37.2548 0 24ZM34.6204 12H13.3798C11.2922 12 9.6 13.7059 9.6 15.8088V26.3605C9.6 26.5563 9.61471 26.7487 9.64356 26.9368C9.61403 27.2178 9.6 27.5019 9.6 27.7889C9.6 33.8371 16.0467 38.7421 23.9999 38.7421C31.9529 38.7421 38.4 33.8371 38.4 27.7889C38.4 27.5018 38.3846 27.2178 38.3563 26.9368C38.3846 26.7488 38.4 26.5563 38.4 26.3605V15.8089C38.4 13.7053 36.706 12 34.6204 12Z" fill="black"/>
<path fill-rule="evenodd" clip-rule="evenodd" d="M32.8306 22.6077L25.393 30.0445C25.0152 30.4223 24.5188 30.6084 24.0234 30.6042C23.5126 30.6218 22.9966 30.4354 22.6057 30.0445L15.1698 22.6077C14.4226 21.8609 14.4244 20.6495 15.1698 19.904C15.916 19.157 17.1253 19.1558 17.8735 19.904L24 26.0309L30.1269 19.904C30.8716 19.157 32.0853 19.1589 32.8306 19.904C33.5778 20.6506 33.5778 21.8597 32.8306 22.6077Z" fill="black"/>
</svg>
