<svg width="48" height="48" viewBox="0 0 48 48" fill="none" xmlns="http://www.w3.org/2000/svg">
<path fill-rule="evenodd" clip-rule="evenodd" d="M48 24C48 37.2548 37.2548 48 24 48C10.7452 48 0 37.2548 0 24C0 10.7452 10.7452 0 24 0C37.2548 0 48 10.7452 48 24ZM27.495 12H15.75V36H20.61V28.8002H27.495C32.1922 28.8002 36 25.0392 36 20.4C36 15.7608 32.1922 12 27.495 12Z" fill="black"/>
<path fill-rule="evenodd" clip-rule="evenodd" d="M27.495 24L20.61 24.0002V16.8002H27.495C29.5081 16.8002 31.14 18.4118 31.14 20.4C31.14 22.3882 29.5081 24 27.495 24Z" fill="black"/>
</svg>
