<svg width="48" height="48" viewBox="0 0 48 48" fill="none" xmlns="http://www.w3.org/2000/svg">
<path fill-rule="evenodd" clip-rule="evenodd" d="M0 24C0 10.7452 10.7452 0 24 0C37.2548 0 48 10.7452 48 24C48 37.2548 37.2548 48 24 48C10.7452 48 0 37.2548 0 24ZM14.5919 20.6464C14.5366 20.5969 14.4836 20.5509 14.4352 20.5109C14.2696 20.5109 13.9576 21.4541 13.82 22.2229C13.6232 23.3229 13.5048 23.7821 13.5048 23.7821C13.5048 23.7821 13.4816 23.9917 13.5568 24.0573L13.5705 24.0692C13.0832 24.6702 12.6187 25.3802 12.2222 26.1698C10.8102 28.9858 11.0206 31.8314 11.8902 32.2954C12.3367 32.5327 13.5003 31.787 14.6431 30.4023C14.8352 32.0895 15.6555 33.6241 16.9068 34.8421C14.9294 35.4166 13.6152 36.5657 13.7898 37.7325C14.0066 39.1973 16.4826 40.1349 19.3234 39.8285C21.4909 39.5934 23.2422 38.7008 23.8538 37.6398C23.9723 37.6434 24.0914 37.6452 24.211 37.6452C24.4178 37.6452 24.6231 37.6398 24.8267 37.629C25.4368 38.6981 27.1464 39.6161 29.2459 39.8839C31.9995 40.2335 34.3835 39.3343 34.5683 37.8735C34.7178 36.697 33.3976 35.5147 31.439 34.9161C32.6803 33.7376 33.5129 32.2529 33.7526 30.6158C34.7674 32.0034 35.8051 32.8896 36.3475 32.7701C36.9891 32.6293 37.4475 29.6365 36.2723 26.7701C35.9517 25.9877 35.561 25.2645 35.1398 24.6357C35.1577 24.6216 35.1757 24.6074 35.1936 24.5933C35.4392 24.3989 35.1696 23.5477 34.9032 22.7653C34.6544 22.0349 34.1 21.3165 34.0792 21.3357C34.0256 21.3857 33.9717 21.4353 33.9174 21.4844C34.1806 20.5974 34.3218 19.6586 34.3218 18.6872C34.3218 13.2256 29.8618 8.8 24.3578 8.8C18.857 8.8 14.3962 13.2256 14.3962 18.6872C14.3962 19.358 14.4636 20.0131 14.5919 20.6464Z" fill="black"/>
<path fill-rule="evenodd" clip-rule="evenodd" d="M17.1601 24.6051C16.5665 25.8227 16.2265 27.2067 16.2265 28.6771C16.2265 33.5315 19.8833 37.4667 24.3945 37.4667C28.9057 37.4667 32.5617 33.5315 32.5617 28.6771C32.5617 27.2467 32.2377 25.9003 31.6745 24.7067C27.5177 26.8259 19.9065 25.2731 17.1601 24.6051Z" fill="black"/>
<path fill-rule="evenodd" clip-rule="evenodd" d="M23.6726 16.4075C23.6726 17.7259 22.7998 18.7947 21.7222 18.7947C20.6454 18.7947 19.7726 17.7259 19.7726 16.4075C19.7726 15.0891 20.6454 14.0203 21.7222 14.0203C22.7998 14.0203 23.6726 15.0891 23.6726 16.4075ZM23.371 16.4208C23.371 15.5864 22.8246 14.9096 22.1518 14.9096C21.4782 14.9096 20.9318 15.5864 20.9318 16.4208C20.9318 17.2552 21.4782 17.932 22.1518 17.932C22.8246 17.932 23.371 17.2552 23.371 16.4208Z" fill="black"/>
<path fill-rule="evenodd" clip-rule="evenodd" d="M29.2722 16.4208C29.2722 17.7392 28.3994 18.808 27.3218 18.808C26.2458 18.808 25.3722 17.7392 25.3722 16.4208C25.3722 15.1024 26.2458 14.0336 27.3218 14.0336C28.3994 14.0336 29.2722 15.1024 29.2722 16.4208ZM26.3679 16.8134C26.3823 16.8134 26.3959 16.8118 26.4103 16.8094C26.5407 16.7862 26.6279 16.6622 26.6047 16.531C26.5967 16.4854 26.5919 16.4374 26.5919 16.3886C26.5919 16.015 26.8295 15.711 27.1215 15.711C27.4135 15.711 27.6511 16.015 27.6511 16.3886C27.6511 16.4238 27.6487 16.459 27.6439 16.4926C27.6279 16.6238 27.7207 16.7438 27.8519 16.7606C27.9823 16.7766 28.1039 16.6838 28.1207 16.5526C28.1271 16.499 28.1303 16.4446 28.1303 16.3886C28.1303 15.7502 27.6775 15.231 27.1215 15.231C26.5655 15.231 26.1127 15.7502 26.1127 16.3886C26.1127 16.4662 26.1191 16.5422 26.1319 16.615C26.1527 16.731 26.2535 16.8134 26.3679 16.8134Z" fill="black"/>
<path fill-rule="evenodd" clip-rule="evenodd" d="M24.6988 19.461C27.4052 19.461 29.7692 20.0914 31.0876 21.0322C30.7628 21.6906 29.87 22.1778 29.0236 22.7298C27.8204 23.5162 25.5924 24.1226 24.6924 24.1226C23.7172 24.1226 21.7788 23.6634 20.5988 22.985C19.622 22.4234 18.626 21.8186 18.2964 21.0418C19.6124 20.0954 21.9836 19.461 24.6988 19.461ZM19.2574 20.6474C19.5694 20.9578 20.9062 21.9994 22.2374 22.7698C22.4974 22.9202 23.315 23.4738 23.7718 23.5722C25.5734 23.9626 26.4294 23.2354 27.211 22.725C28.7662 21.7082 30.2742 20.5546 30.2742 20.5546C30.2742 20.5546 28.5678 21.7162 26.9622 22.2554C26.079 22.5514 23.7486 22.7626 22.1358 22.3146C20.7566 21.9314 19.2574 20.6474 19.2574 20.6474Z" fill="black"/>
<path fill-rule="evenodd" clip-rule="evenodd" d="M22.916 16.077C22.916 16.4138 22.6872 16.6874 22.4048 16.6874C22.1224 16.6874 21.8936 16.4138 21.8936 16.077C21.8936 15.741 22.1224 15.4682 22.4048 15.4682C22.6872 15.4682 22.916 15.741 22.916 16.077Z" fill="black"/>
</svg>
