<svg width="48" height="48" viewBox="0 0 48 48" fill="none" xmlns="http://www.w3.org/2000/svg">
<path fill-rule="evenodd" clip-rule="evenodd" d="M0 24C0 10.7452 10.7452 0 24 0C37.2548 0 48 10.7452 48 24C48 37.2548 37.2548 48 24 48C10.7452 48 0 37.2548 0 24ZM26.0301 35.0459L26.0264 35.0478C27.3194 37.2643 29.0465 39.1558 32.3066 39.1558C37.6947 39.1558 38.2913 34.1925 38.1805 32.9975H36.2521C36.1523 33.8952 35.5539 35.0367 34.0762 35.0367C32.7204 35.0367 31.7451 34.0947 30.8031 32.6779C33.7308 30.4096 35.7441 26.902 35.7441 22.5852C35.7441 14.8237 29.3531 9.6 22.6481 9.6C16.0538 9.6 9.6 14.8643 9.6 22.5852C9.6 30.236 16.0557 35.4966 22.6499 35.4966C23.7914 35.4966 24.944 35.3359 26.0301 35.0459Z" fill="black"/>
<path fill-rule="evenodd" clip-rule="evenodd" d="M24.8018 32.6447C23.7785 30.6313 22.5779 28.5939 20.2339 28.5939C19.7869 28.5939 19.338 28.6678 18.928 28.8525L18.1337 27.264C19.1016 26.4291 20.6698 25.7678 22.685 25.7678C25.8196 25.7678 27.4284 27.2825 28.7066 29.2072C29.4639 27.5632 29.8223 25.3393 29.8223 22.5852C29.8223 15.7066 27.6722 12.1749 22.648 12.1749C17.6978 12.1749 15.5551 15.7066 15.5551 22.5852C15.5551 29.427 17.6978 32.9217 22.648 32.9217C23.4349 32.9217 24.1479 32.8368 24.8018 32.6447Z" fill="black"/>
</svg>
