<svg width="48" height="48" viewBox="0 0 48 48" fill="none" xmlns="http://www.w3.org/2000/svg">
<path fill-rule="evenodd" clip-rule="evenodd" d="M44.7199 32.4213C45.8619 29.6642 46.4497 26.7091 46.4497 23.7249C46.4497 20.7406 45.8619 17.7855 44.7199 15.0284C43.5778 12.2713 41.9039 9.76616 39.7938 7.65596C37.6836 5.54576 35.1784 3.87186 32.4213 2.72983C29.6642 1.5878 26.7091 1 23.7248 1C17.6978 1 11.9177 3.39422 7.65595 7.65596C3.39421 11.9177 1 17.6979 1 23.7249C1 29.7519 3.39421 35.532 7.65595 39.7938C11.9177 44.0555 17.6978 46.4497 23.7248 46.4497C26.7091 46.4497 29.6642 45.8619 32.4213 44.7199C35.1784 43.5779 37.6836 41.904 39.7938 39.7938C41.9039 37.6836 43.5778 35.1784 44.7199 32.4213ZM38.5342 38.5348C42.462 34.607 44.6686 29.2798 44.6686 23.725C44.6686 18.1703 42.462 12.8431 38.5342 8.91528C34.6064 4.98749 29.2792 2.78088 23.7244 2.78088C18.1697 2.78088 12.8425 4.98749 8.91467 8.91528C4.98688 12.8431 2.78027 18.1703 2.78027 23.725C2.78027 29.2798 4.98688 34.607 8.91467 38.5348C12.8425 42.4626 18.1697 44.6692 23.7244 44.6692C29.2792 44.6692 34.6064 42.4626 38.5342 38.5348Z" fill="black"/>
<path fill-rule="evenodd" clip-rule="evenodd" d="M23.7253 3.87305C23.5561 3.87305 23.42 4.00922 23.42 4.1784V7.70059C23.42 7.86976 23.5561 8.00594 23.7253 8.00594C23.8945 8.00594 24.0307 7.86976 24.0307 7.70059V4.1784C24.0307 4.00922 23.8945 3.87305 23.7253 3.87305ZM21.7277 3.99931C21.7074 3.99713 21.6866 3.99713 21.6656 3.99956C21.4973 4.01712 21.376 4.16669 21.3936 4.33495L21.5475 5.80848C21.565 5.97674 21.7146 6.09807 21.8829 6.0805C22.0512 6.06295 22.1725 5.91336 22.1549 5.7451L22.0011 4.27158C21.9857 4.12435 21.8693 4.01305 21.7277 3.99931ZM25.7369 4.00076C25.5953 4.01439 25.4788 4.12568 25.4633 4.27289L25.3084 5.74629C25.2907 5.91454 25.412 6.06427 25.5802 6.08196C25.7485 6.09966 25.8981 5.97845 25.9158 5.81021L26.0708 4.33668C26.0885 4.16843 25.9671 4.01883 25.7989 4.00114C25.7778 3.99897 25.7572 3.99896 25.7369 4.00076ZM19.6756 4.29688C19.6553 4.29704 19.6346 4.29905 19.6139 4.30341C19.4484 4.33845 19.3434 4.49993 19.3784 4.66543L20.1079 8.11118C20.1429 8.27668 20.3044 8.38172 20.4699 8.34669C20.6354 8.31165 20.7404 8.1503 20.7054 7.9848L19.9759 4.53892C19.9453 4.3941 19.8179 4.29577 19.6756 4.29688ZM27.7889 4.29979C27.6466 4.29834 27.5192 4.39695 27.4884 4.54174L26.7564 7.98709C26.7213 8.15257 26.8262 8.31409 26.9917 8.34925C27.1572 8.38443 27.3187 8.27946 27.3538 8.114L28.0858 4.66864C28.121 4.50317 28.016 4.34164 27.8506 4.30649C27.8299 4.30214 27.8092 4.29979 27.7889 4.29979ZM17.7172 4.84907C17.6777 4.84544 17.6368 4.8498 17.5966 4.86315C17.4357 4.91545 17.3482 5.08694 17.4005 5.24783L17.8584 6.65692C17.9107 6.81782 18.0823 6.9053 18.2432 6.85302C18.4041 6.80071 18.4914 6.62909 18.4391 6.4682L17.9813 5.05912C17.9421 4.93845 17.8358 4.85916 17.7172 4.84907ZM29.7362 4.8498C29.6176 4.85988 29.5113 4.9392 29.4721 5.05986L29.014 6.46882C28.9617 6.6297 29.0491 6.80134 29.21 6.85364C29.3708 6.90594 29.5425 6.81853 29.5948 6.65768L30.0529 5.24859C30.1052 5.0877 30.0178 4.91606 29.8569 4.86377C29.8167 4.85071 29.7757 4.84647 29.7362 4.8498ZM15.7806 5.55777C15.7409 5.55849 15.7007 5.5672 15.6621 5.58439C15.5076 5.65309 15.4384 5.83281 15.5071 5.9874L16.9377 9.20594C17.0064 9.36052 17.1861 9.42964 17.3407 9.36092C17.4952 9.29222 17.5645 9.1125 17.4958 8.95792L16.0651 5.73937C16.0136 5.62342 15.8996 5.55546 15.7806 5.55777ZM31.6947 5.56857C31.5757 5.56639 31.4616 5.63393 31.4099 5.74978L29.975 8.96635C29.9061 9.12084 29.975 9.3007 30.1295 9.36962C30.284 9.43854 30.4638 9.36966 30.5327 9.21517L31.9677 5.99861C32.0366 5.84411 31.9677 5.66425 31.8132 5.59533C31.7746 5.57813 31.7344 5.56944 31.6947 5.56857ZM13.983 6.50889C13.9244 6.50454 13.8639 6.51759 13.809 6.54936C13.6625 6.63395 13.6127 6.81998 13.6972 6.96648L14.438 8.24958C14.5226 8.39609 14.7086 8.44591 14.8552 8.36133C15.0017 8.27674 15.0515 8.09073 14.9669 7.94422L14.2261 6.66113C14.1732 6.56956 14.0807 6.51573 13.983 6.50889ZM33.4677 6.50889C33.37 6.51542 33.2775 6.56953 33.2246 6.66111L32.4837 7.94419C32.3991 8.09071 32.4491 8.27672 32.5956 8.3613C32.7421 8.44589 32.9281 8.39606 33.0127 8.24956L33.7535 6.96646C33.8381 6.81995 33.7883 6.63393 33.6418 6.54934C33.5868 6.51764 33.5263 6.50483 33.4677 6.50889ZM12.2374 7.59759C12.1787 7.59976 12.1198 7.61863 12.0685 7.65584C11.9316 7.75518 11.9013 7.94538 12.0006 8.08232L14.0688 10.9333C14.1681 11.0702 14.3585 11.1005 14.4954 11.0012C14.6323 10.9019 14.6626 10.7117 14.5632 10.5747L12.4949 7.72375C12.4328 7.63816 12.3353 7.59424 12.2374 7.59759ZM35.2351 7.61312C35.1372 7.60949 35.0396 7.65338 34.9774 7.73884L32.9053 10.5871C32.8058 10.7239 32.8358 10.9141 32.9727 11.0137C33.1095 11.1132 33.2997 11.0832 33.3992 10.9465L35.4712 8.09827C35.5708 7.96146 35.5407 7.77119 35.4039 7.67166C35.3526 7.63438 35.2938 7.61522 35.2351 7.61312ZM10.6772 8.90609C10.5992 8.90174 10.5197 8.92778 10.4568 8.98437C10.3311 9.09756 10.321 9.28986 10.4342 9.41559L11.4255 10.5168C11.5387 10.6426 11.731 10.6527 11.8567 10.5394C11.9825 10.4263 11.9926 10.2338 11.8794 10.1081L10.8882 9.00701C10.8316 8.94411 10.7551 8.91019 10.6772 8.90609ZM36.7757 8.90827C36.6977 8.91262 36.6213 8.94635 36.5647 9.00921L35.5734 10.1102C35.4602 10.2359 35.4702 10.4283 35.5959 10.5415C35.7217 10.6547 35.914 10.6446 36.0272 10.5189L37.0186 9.41793C37.1318 9.2922 37.1217 9.09978 36.996 8.98659C36.9331 8.93 36.8536 8.90419 36.7757 8.90827ZM9.18178 10.3425C9.10383 10.3469 9.0275 10.3806 8.9709 10.4435C8.85772 10.5692 8.86785 10.7615 8.99355 10.8747L11.6113 13.2312C11.737 13.3444 11.9293 13.3343 12.0425 13.2086C12.1557 13.0828 12.1457 12.8905 12.0199 12.7773L9.40206 10.4208C9.33916 10.3643 9.25974 10.3384 9.18178 10.3425ZM38.2783 10.3528C38.2004 10.3485 38.1208 10.3744 38.0579 10.431L35.4386 12.7856C35.3127 12.8987 35.3024 13.091 35.4155 13.2169C35.5286 13.3427 35.721 13.3529 35.8468 13.2398L38.4663 10.8851C38.5921 10.772 38.6023 10.5797 38.4892 10.4539C38.4326 10.391 38.3563 10.357 38.2783 10.3528ZM7.93821 11.9415C7.84032 11.9379 7.74272 11.982 7.68058 12.0675C7.58114 12.2044 7.6113 12.3946 7.74819 12.494L8.9468 13.3649C9.08366 13.4643 9.27382 13.4343 9.37326 13.2974C9.4727 13.1605 9.44262 12.9702 9.3058 12.8708L8.10717 11.9999C8.05589 11.9626 7.99694 11.9436 7.93821 11.9415ZM39.5207 11.9526C39.462 11.9548 39.4031 11.9736 39.3518 12.0109L38.1526 12.881C38.0157 12.9803 37.9854 13.1706 38.0847 13.3076C38.1841 13.4445 38.3743 13.4746 38.5112 13.3753L39.7105 12.5053C39.8474 12.4059 39.8776 12.2157 39.7782 12.0788C39.7161 11.9932 39.6186 11.9492 39.5207 11.9526ZM6.77611 13.6472C6.6784 13.6537 6.58596 13.7078 6.53309 13.7994C6.44851 13.9459 6.49835 14.1319 6.64485 14.2165L9.69509 15.9776C9.8416 16.0622 10.0276 16.0123 10.1122 15.8658C10.1968 15.7193 10.147 15.5333 10.0005 15.4487L6.95019 13.6876C6.89528 13.6559 6.83474 13.6432 6.77611 13.6472ZM40.6745 13.6472C40.6159 13.6428 40.5554 13.6559 40.5004 13.6877L37.4502 15.4488C37.3037 15.5333 37.2538 15.7194 37.3384 15.8659C37.423 16.0124 37.609 16.0622 37.7555 15.9776L40.8059 14.2165C40.9524 14.132 41.0023 13.9459 40.9177 13.7994C40.8648 13.7079 40.7722 13.654 40.6745 13.6472ZM5.89746 15.4652C5.77847 15.4623 5.66435 15.5304 5.61267 15.6463C5.54375 15.8008 5.61262 15.9806 5.76713 16.0495L7.12033 16.6531C7.27484 16.7221 7.4547 16.6532 7.52361 16.4987C7.59253 16.3442 7.52352 16.1643 7.36902 16.0954L6.01595 15.4918C5.97736 15.4746 5.93712 15.466 5.89746 15.4652ZM41.5591 15.4778C41.5194 15.4785 41.4791 15.4872 41.4405 15.5044L40.087 16.1069C39.9325 16.1758 39.8633 16.3555 39.9322 16.5101C40.001 16.6646 40.1809 16.7337 40.3354 16.6649L41.6889 16.0622C41.8434 15.9935 41.9124 15.8136 41.8436 15.6591C41.792 15.5432 41.6781 15.4754 41.5591 15.4778ZM5.11438 17.3654C4.99578 17.3753 4.88946 17.4545 4.85016 17.5752C4.79778 17.736 4.88496 17.9077 5.04584 17.9601L8.39474 19.0513C8.55558 19.1037 8.72728 19.0164 8.77969 18.8556C8.83207 18.6948 8.74486 18.5231 8.58398 18.4707L5.23511 17.3795C5.19492 17.3663 5.15391 17.3621 5.11438 17.3654ZM42.3407 17.3784C42.3012 17.3748 42.2604 17.3792 42.2201 17.3925L38.8705 18.4813C38.7096 18.5336 38.6222 18.7053 38.6745 18.8662C38.7268 19.027 38.8984 19.1144 39.0593 19.0621L42.4089 17.9733C42.5697 17.921 42.6573 17.7494 42.605 17.5885C42.5657 17.4678 42.4593 17.3885 42.3407 17.3784ZM4.62651 19.36C4.48425 19.3586 4.35666 19.4573 4.32588 19.6021C4.2907 19.7676 4.39568 19.9291 4.56113 19.9643L6.01041 20.2722C6.17589 20.3074 6.33739 20.2025 6.37256 20.037C6.40775 19.8715 6.30279 19.71 6.13734 19.6748L4.68819 19.3669C4.66751 19.3625 4.64682 19.36 4.62651 19.36ZM42.8248 19.3629C42.8045 19.3631 42.784 19.3658 42.7633 19.3694L41.314 19.6773C41.1485 19.7125 41.0436 19.8738 41.0788 20.0393C41.1139 20.2048 41.2754 20.3098 41.4409 20.2747L42.89 19.9668C43.0555 19.9317 43.1606 19.7702 43.1254 19.6047C43.0947 19.4599 42.9671 19.3617 42.8248 19.3629ZM4.25723 21.3664C4.11562 21.3799 3.99906 21.491 3.9835 21.6382C3.96573 21.8065 4.08676 21.9563 4.25499 21.974L7.75767 22.3444C7.9259 22.3621 8.0757 22.241 8.09347 22.0727C8.11124 21.9045 7.99009 21.7547 7.82185 21.737L4.31917 21.3666C4.29814 21.3644 4.27747 21.3644 4.25723 21.3664ZM43.1967 21.3927C43.1765 21.3905 43.1556 21.3905 43.1346 21.3929L39.6315 21.7585C39.4633 21.7761 39.342 21.9257 39.3595 22.0939C39.3771 22.2622 39.5266 22.3835 39.6949 22.3659L43.198 22.0004C43.3662 21.9828 43.4875 21.8332 43.47 21.665C43.4546 21.5177 43.3383 21.4064 43.1967 21.3927ZM4.19792 23.4201C4.02874 23.4201 3.89258 23.5563 3.89258 23.7255C3.89258 23.8947 4.02874 24.0308 4.19792 24.0308H5.6795C5.84867 24.0308 5.98498 23.8947 5.98498 23.7255C5.98498 23.5563 5.84867 23.4201 5.6795 23.4201H4.19792ZM41.7711 23.4201C41.602 23.4201 41.4658 23.5563 41.4658 23.7255C41.4658 23.8947 41.602 24.0308 41.7711 24.0308H43.2527C43.4219 24.0308 43.5581 23.8947 43.5581 23.7255C43.5581 23.5563 43.4219 23.4201 43.2527 23.4201H41.7711ZM7.81777 25.0848C7.79753 25.0826 7.77685 25.0826 7.75581 25.085L4.2526 25.4506C4.08434 25.4681 3.96306 25.6177 3.9806 25.786C3.99816 25.9543 4.14773 26.0756 4.31599 26.058L7.81921 25.6924C7.98747 25.6749 8.10875 25.5253 8.09121 25.357C8.07583 25.2098 7.95937 25.0985 7.81777 25.0848ZM39.631 25.1064C39.4894 25.1199 39.3728 25.2311 39.3573 25.3783C39.3395 25.5465 39.4605 25.6963 39.6288 25.7141L43.1315 26.0844C43.2997 26.1022 43.4495 25.981 43.4673 25.8128C43.485 25.6445 43.3639 25.4947 43.1956 25.477L39.6931 25.1066C39.6721 25.1045 39.6512 25.1045 39.631 25.1064ZM6.07156 27.1693C6.05125 27.1694 6.03058 27.1714 6.00991 27.1758L4.56062 27.4836C4.39514 27.5188 4.29023 27.6803 4.32537 27.8458C4.36056 28.0113 4.52206 28.1162 4.68754 28.081L6.13683 27.7733C6.3023 27.7381 6.4072 27.5766 6.37205 27.4112C6.3413 27.2664 6.21382 27.1681 6.07156 27.1693ZM41.3787 27.1722C41.2364 27.1707 41.109 27.2693 41.0782 27.4141C41.043 27.5796 41.1478 27.7411 41.3133 27.7763L42.7626 28.0843C42.9281 28.1195 43.0896 28.0146 43.1247 27.8492C43.1599 27.6837 43.0549 27.522 42.8895 27.4869L41.4403 27.1789C41.4197 27.1745 41.399 27.1722 41.3787 27.1722ZM8.51203 28.3749C8.47249 28.3712 8.43167 28.3756 8.39144 28.3889L5.04177 29.4778C4.88088 29.5301 4.7935 29.7017 4.84579 29.8626C4.8981 30.0235 5.06972 30.1109 5.23061 30.0586L8.58017 28.9697C8.74106 28.9174 8.82856 28.7458 8.77626 28.5849C8.73701 28.4642 8.63063 28.385 8.51203 28.3749ZM38.9353 28.3857C38.8167 28.3956 38.7104 28.4748 38.6711 28.5955C38.6187 28.7563 38.7059 28.928 38.8668 28.9804L42.2157 30.0717C42.3765 30.124 42.5482 30.0368 42.6006 29.8759C42.6531 29.7151 42.5658 29.5434 42.4049 29.491L39.056 28.3998C39.0158 28.3866 38.9749 28.3824 38.9353 28.3857ZM7.23381 30.7597C7.19413 30.7605 7.15396 30.769 7.11533 30.7862L5.76173 31.3889C5.60718 31.4576 5.5382 31.6375 5.607 31.792C5.67584 31.9466 5.85561 32.0155 6.01015 31.9467L7.36375 31.3442C7.51829 31.2754 7.58728 31.0956 7.51848 30.941C7.4669 30.8251 7.35281 30.7573 7.23381 30.7597ZM40.2119 30.7713C40.0929 30.7684 39.9788 30.8365 39.9271 30.9524C39.8582 31.1069 39.9271 31.2868 40.0816 31.3557L41.4347 31.9593C41.5892 32.0282 41.7691 31.9593 41.838 31.8048C41.9069 31.6503 41.838 31.4705 41.6835 31.4015L40.3304 30.7979C40.2918 30.7807 40.2516 30.7721 40.2119 30.7713ZM9.86919 31.433C9.81058 31.4287 9.75004 31.4417 9.69509 31.4735L6.64485 33.2346C6.49835 33.3192 6.44851 33.5052 6.53309 33.6517C6.61768 33.7982 6.80369 33.8481 6.95019 33.7635L10.0005 32.0025C10.147 31.9179 10.1968 31.7318 10.1122 31.5853C10.0593 31.4937 9.9669 31.4398 9.86919 31.433ZM37.5816 31.433C37.4839 31.4396 37.3913 31.4937 37.3384 31.5853C37.2538 31.7318 37.3037 31.9179 37.4502 32.0025L40.5004 33.7635C40.6469 33.848 40.8331 33.7982 40.9177 33.6517C41.0023 33.5052 40.9524 33.3192 40.8059 33.2346L37.7555 31.4735C37.7006 31.4418 37.6402 31.429 37.5816 31.433ZM9.10837 34.0174C9.0496 34.0196 8.99078 34.0385 8.93942 34.0758L7.74027 34.9459C7.60334 35.0452 7.57305 35.2354 7.67237 35.3723C7.77172 35.5093 7.96192 35.5396 8.09885 35.4402L9.29812 34.5701C9.43506 34.4708 9.46534 34.2806 9.36602 34.1436C9.30392 34.0581 9.20626 34.014 9.10837 34.0174ZM38.335 34.0277C38.2371 34.0241 38.1395 34.0682 38.0774 34.1537C37.9779 34.2906 38.0081 34.4809 38.145 34.5803L39.3436 35.4512C39.4805 35.5506 39.6706 35.5204 39.7701 35.3835C39.8695 35.2467 39.8394 35.0565 39.7026 34.9571L38.504 34.0862C38.4527 34.0489 38.3938 34.0298 38.335 34.0277ZM11.8243 34.1331C11.7463 34.1288 11.6668 34.1548 11.6039 34.2113L8.9845 36.566C8.85869 36.6791 8.84846 36.8714 8.96156 36.9972C9.07465 37.123 9.26697 37.1332 9.39279 37.0201L12.0122 34.6654C12.138 34.5523 12.1482 34.36 12.0351 34.2342C11.9786 34.1713 11.9022 34.1373 11.8243 34.1331ZM35.6191 34.1416C35.5412 34.1459 35.4647 34.1796 35.4081 34.2425C35.2949 34.3682 35.3051 34.5605 35.4308 34.6737L38.0485 37.0302C38.1742 37.1434 38.3666 37.1333 38.4798 37.0076C38.593 36.8819 38.5829 36.6896 38.4572 36.5764L35.8393 34.2199C35.7764 34.1633 35.6971 34.1375 35.6191 34.1416ZM14.3093 36.3785C14.2114 36.3749 14.1137 36.4187 14.0515 36.5043L11.9795 39.3525C11.88 39.4893 11.9099 39.6796 12.0467 39.7791C12.1835 39.8786 12.3738 39.8486 12.4733 39.7118L14.5453 36.8636C14.6448 36.7268 14.6149 36.5365 14.4781 36.437C14.4268 36.3997 14.368 36.3806 14.3093 36.3785ZM33.1243 36.3913C33.0656 36.3935 33.0068 36.4123 32.9554 36.4496C32.8185 36.5489 32.7882 36.7391 32.8875 36.876L34.9556 39.727C35.055 39.864 35.2452 39.8942 35.3821 39.7949C35.5191 39.6956 35.5493 39.5054 35.45 39.3685L33.3819 36.5175C33.3198 36.4319 33.2222 36.388 33.1243 36.3913ZM11.6345 36.8312C11.5565 36.8356 11.4801 36.8693 11.4235 36.9322L10.4322 38.0331C10.319 38.1589 10.329 38.3513 10.4547 38.4645C10.5805 38.5777 10.7728 38.5675 10.8859 38.4418L11.8774 37.3408C11.9906 37.2151 11.9805 37.0227 11.8548 36.9095C11.7919 36.8529 11.7125 36.8271 11.6345 36.8312ZM35.8143 36.8327C35.7364 36.8283 35.6569 36.8544 35.5941 36.9109C35.4683 37.0241 35.4582 37.2164 35.5714 37.3422L36.5626 38.4434C36.6757 38.5691 36.868 38.5792 36.9938 38.466C37.1195 38.3528 37.1296 38.1604 37.0164 38.0347L36.0252 36.9336C35.9686 36.8707 35.8923 36.8368 35.8143 36.8327ZM17.2027 38.0541C17.0837 38.0512 16.9697 38.1193 16.918 38.2352L15.483 41.4517C15.4141 41.6062 15.483 41.7861 15.6375 41.855C15.792 41.9239 15.9718 41.855 16.0407 41.7006L17.4758 38.484C17.5447 38.3295 17.4758 38.1496 17.3213 38.0807C17.2827 38.0634 17.2424 38.0549 17.2027 38.0541ZM30.2286 38.0629C30.1889 38.0637 30.1486 38.0722 30.11 38.0894C29.9555 38.1581 29.8863 38.3378 29.955 38.4924L31.3855 41.711C31.4542 41.8655 31.6341 41.9347 31.7887 41.866C31.9432 41.7973 32.0124 41.6175 31.9437 41.4629L30.5131 38.2444C30.4616 38.1285 30.3476 38.0606 30.2286 38.0629ZM14.6811 39.0486C14.5834 39.0551 14.4909 39.1092 14.438 39.2008L13.6972 40.4839C13.6127 40.6304 13.6625 40.8164 13.809 40.901C13.9555 40.9856 14.1415 40.9357 14.2261 40.7892L14.9669 39.5061C15.0515 39.3596 15.0017 39.1736 14.8552 39.089C14.8002 39.0573 14.7397 39.0445 14.6811 39.0486ZM32.7696 39.0486C32.711 39.0442 32.6506 39.0574 32.5956 39.0891C32.4491 39.1736 32.3993 39.3597 32.4839 39.5062L33.2246 40.7893C33.3092 40.9358 33.4953 40.9856 33.6418 40.901C33.7883 40.8164 33.8381 40.6304 33.7535 40.4839L33.0127 39.2008C32.9598 39.1093 32.8673 39.0554 32.7696 39.0486ZM20.3974 39.0946C20.2551 39.0931 20.1277 39.1917 20.0969 39.3365L19.365 42.7819C19.3298 42.9474 19.4347 43.1089 19.6002 43.144C19.7657 43.1792 19.9272 43.0742 19.9624 42.9088L20.6943 39.4635C20.7295 39.298 20.6245 39.1365 20.4591 39.1013C20.4384 39.097 20.4177 39.0946 20.3974 39.0946ZM27.0424 39.0968C27.0221 39.0969 27.0016 39.0989 26.9809 39.1033C26.8154 39.1383 26.7104 39.2997 26.7454 39.4652L27.4749 42.911C27.5099 43.0765 27.6714 43.1816 27.8369 43.1466C28.0024 43.1115 28.1074 42.95 28.0724 42.7845L27.3428 39.3389C27.3121 39.1941 27.1846 39.0957 27.0424 39.0968ZM23.7253 39.4443C23.5561 39.4443 23.42 39.5805 23.42 39.7496V43.2718C23.42 43.441 23.5561 43.5772 23.7253 43.5772C23.8945 43.5772 24.0307 43.441 24.0307 43.2718V39.7496C24.0307 39.5805 23.8945 39.4443 23.7253 39.4443ZM18.1201 40.5824C18.0015 40.5925 17.8951 40.6718 17.8559 40.7925L17.3979 42.2016C17.3456 42.3624 17.433 42.5341 17.5939 42.5864C17.7547 42.6387 17.9264 42.5511 17.9787 42.3903L18.4366 40.9813C18.4889 40.8204 18.4015 40.6488 18.2407 40.5965C18.2005 40.5834 18.1596 40.5791 18.1201 40.5824ZM29.3282 40.5831C29.2886 40.5795 29.2478 40.5839 29.2076 40.5971C29.0467 40.6494 28.9592 40.8211 29.0115 40.982L29.4693 42.391C29.5216 42.5519 29.6933 42.6393 29.8542 42.587C30.015 42.5347 30.1025 42.3632 30.0503 42.2023L29.5923 40.7932C29.553 40.6726 29.4468 40.5931 29.3282 40.5831ZM21.8086 41.3679C21.667 41.3816 21.5503 41.4927 21.5349 41.6399L21.38 43.1135C21.3623 43.2817 21.4835 43.4313 21.6518 43.449C21.82 43.4667 21.9697 43.3455 21.9874 43.1773L22.1423 41.7039C22.16 41.5356 22.0388 41.3859 21.8705 41.3682C21.8495 41.366 21.8288 41.366 21.8086 41.3679ZM25.6298 41.3694C25.6096 41.3672 25.5887 41.3672 25.5677 41.3696C25.3994 41.3872 25.2781 41.5368 25.2957 41.705L25.4496 43.1787C25.4672 43.3469 25.6168 43.4682 25.785 43.4506C25.9533 43.433 26.0746 43.2834 26.057 43.1152L25.9032 41.6417C25.8879 41.4944 25.7714 41.3831 25.6298 41.3694Z" fill="black"/>
<path fill-rule="evenodd" clip-rule="evenodd" d="M26.1199 26.2324L9.13281 37.6596L21.3313 21.2176L38.3185 9.79028L26.1199 26.2324Z" fill="black"/>
</svg>
