<svg width="48" height="48" viewBox="0 0 48 48" fill="none" xmlns="http://www.w3.org/2000/svg">
<path fill-rule="evenodd" clip-rule="evenodd" d="M48 24C48 37.2548 37.2548 48 24 48C10.7452 48 0 37.2548 0 24C0 10.7452 10.7452 0 24 0C37.2548 0 48 10.7452 48 24ZM23.84 13.28C20.4821 13.28 17.76 16.0021 17.76 19.36V28C17.76 28.7954 17.1154 29.44 16.32 29.44C15.5247 29.44 14.88 28.7954 14.88 28V24.16H10.24V28.16C10.24 31.5179 12.9621 34.24 16.32 34.24C19.6779 34.24 22.4 31.5179 22.4 28.16V19.36C22.4 18.5646 23.0446 17.92 23.84 17.92C24.6354 17.92 25.28 18.5646 25.28 19.36V21.12L27.2 22L29.92 21.12V19.36C29.92 16.0021 27.1979 13.28 23.84 13.28ZM25.28 24.24V28.16C25.28 31.5179 28.0021 34.24 31.36 34.24C34.7179 34.24 37.44 31.5179 37.44 28.16V24.32H32.8V28.16C32.8 28.9554 32.1554 29.6 31.36 29.6C30.5646 29.6 29.92 28.9554 29.92 28.16V24.24L27.2 25.12L25.28 24.24Z" fill="black"/>
</svg>
