<svg width="48" height="48" viewBox="0 0 48 48" fill="none" xmlns="http://www.w3.org/2000/svg">
<path fill-rule="evenodd" clip-rule="evenodd" d="M0 24C0 10.7452 10.7452 0 24 0C37.2548 0 48 10.7452 48 24C48 37.2548 37.2548 48 24 48C10.7452 48 0 37.2548 0 24ZM35.3906 9.6H12.5757C10.9204 9.62132 9.59207 10.9559 9.60004 12.5897V35.4103C9.59214 37.0506 10.9306 38.3878 12.5925 38.4H35.4075C37.0694 38.3878 38.4079 37.0506 38.4 35.4103V12.5897C38.4038 11.799 38.0885 11.0394 37.5239 10.4785C36.9593 9.91755 36.1917 9.60147 35.3906 9.6Z" fill="black"/>
<path fill-rule="evenodd" clip-rule="evenodd" d="M23.9888 35.9082C17.3737 35.8578 12.0505 30.5283 12.0948 24C12.0505 17.4718 17.3737 12.1423 23.9888 12.0919C30.6072 12.1377 35.9355 17.4686 35.8913 24C35.9355 30.5315 30.6072 35.8623 23.9888 35.9082ZM35.2 23.9986L26.8254 20L27.4983 22.5621H20.5018L21.1746 20L12.8 24.0015L21.1804 28L20.5075 25.438H27.504L26.8311 28L35.2 24.0015V23.9986Z" fill="black"/>
</svg>
