<svg width="48" height="48" viewBox="0 0 48 48" fill="none" xmlns="http://www.w3.org/2000/svg">
<path fill-rule="evenodd" clip-rule="evenodd" d="M28.7899 21.4988C27.2626 20.0059 25.7701 18.485 24.2561 16.9857C24.1967 16.9262 24.1523 16.8668 24.1076 16.8H24.0482C22.4813 18.4189 20.8401 19.9858 19.2807 21.6121C20.8921 23.1864 22.4664 24.7979 24.0705 26.3796C25.6077 24.8498 27.1376 23.3126 28.6746 21.7829C28.7108 21.7467 28.7514 21.7126 28.7869 21.6749C28.8299 21.7224 28.8826 21.7635 28.9273 21.8126L33.4943 26.3796C35.1132 24.8127 36.6726 23.1864 38.2841 21.6195C38.2619 21.523 38.1654 21.4636 38.1059 21.3967C36.903 20.1937 35.7072 18.9981 34.5042 17.7951C34.1849 17.4609 33.8359 17.1564 33.5388 16.8H33.4794C32.7071 17.6094 31.9051 18.3817 31.1179 19.1763C30.3393 19.9478 29.5746 20.7333 28.7899 21.4988ZM24 48C10.7452 48 0 37.2548 0 24C0 10.7452 10.7452 0 24 0C37.2548 0 48 10.7452 48 24C48 37.2548 37.2548 48 24 48ZM14.3527 16.8C12.9046 18.2852 11.4194 19.7407 9.95645 21.2185C9.83763 21.3447 9.68184 21.4487 9.6 21.6047C11.1966 23.1938 12.7858 24.7904 14.3824 26.3796C15.9715 24.7979 17.5534 23.2013 19.1425 21.6195V21.5601L15.8602 18.2778C15.3775 17.7802 14.8652 17.3198 14.4121 16.8H14.3527ZM19.3252 31.1888C19.3104 31.2185 19.2955 31.263 19.2807 31.2928C20.3574 32.3547 21.4194 33.424 22.4886 34.4934C23.016 34.9983 23.5135 35.5479 24.0556 36.038C24.4342 35.7038 24.7907 35.3028 25.162 34.9464C26.3056 33.8102 27.4493 32.6591 28.5928 31.523C28.6746 31.4264 28.786 31.3596 28.8378 31.2408C27.2487 29.6739 25.6743 28.0921 24.1 26.5104L24.0333 26.4807C22.4664 28.055 20.8921 29.6219 19.3252 31.1888Z" fill="black"/>
</svg>
