<svg width="48" height="48" viewBox="0 0 48 48" fill="none" xmlns="http://www.w3.org/2000/svg">
<path fill-rule="evenodd" clip-rule="evenodd" d="M21.6 38.4387H25.0838V21.2516L21.6 20.0903V38.4387Z" fill="black"/>
<path fill-rule="evenodd" clip-rule="evenodd" d="M31.8193 13.6645C31.7806 15.9871 31.0451 17.1871 29.4967 17.1871C27.9096 17.1871 26.2838 16.3355 24.1161 15.2903C21.1741 13.8968 19.7806 13.5097 17.9612 13.5097C14.9806 13.5097 12.658 15.9871 12.8129 20.2452H15.4064C15.4451 17.5355 16.4129 16.3355 17.9612 16.3355C19.5096 16.3355 21.1354 17.1484 23.1483 18.1549C26.129 19.5097 27.6774 20.1291 29.4193 20.1291C32.0903 20.1291 34.5677 18.6968 34.3741 13.6645H31.8193Z" fill="black"/>
<path fill-rule="evenodd" clip-rule="evenodd" d="M23.9613 0C10.7613 0 0 10.7613 0 23.9613C0 37.1613 10.7613 47.9226 23.9613 47.9226C37.1613 47.9226 47.9226 37.1613 47.9226 23.9613C47.9226 10.7613 37.2 0 23.9613 0ZM23.9613 46.3742C11.6129 46.3742 1.54839 36.3484 1.54839 23.9613C1.54839 11.5742 11.6129 1.54839 23.9613 1.54839C36.3097 1.54839 46.3742 11.6129 46.3742 23.9613C46.3742 36.3097 36.3097 46.3742 23.9613 46.3742Z" fill="black"/>
</svg>
