<svg width="48" height="48" viewBox="0 0 48 48" fill="none" xmlns="http://www.w3.org/2000/svg">
<path fill-rule="evenodd" clip-rule="evenodd" d="M24 0.03125C10.7968 0.03125 0.0450439 10.7346 0.0450439 23.9379C0.0450439 37.1411 10.7968 47.8445 24 47.8445C37.2033 47.8445 47.955 37.1411 47.955 23.9379C47.955 10.7346 37.2033 0.03125 24 0.03125ZM29.0999 32.4369C29.8937 32.4171 30.9584 32.187 31.515 31.9225L32.9549 36.1745C32.4152 36.9666 29.9714 37.884 27.7709 37.9216C21.249 38.0334 18.7785 33.2938 18.7785 29.9575V20.2142H15.7485V16.3623C20.2905 14.7306 21.3825 10.6501 21.639 8.32516C21.6569 8.16548 21.7829 8.10253 21.855 8.10253H26.2394V15.699H32.2307V20.2144H26.2185V29.4978C26.2379 30.7598 26.703 32.5007 29.0999 32.4369Z" fill="black"/>
</svg>
