<svg width="48" height="48" viewBox="0 0 48 48" fill="none" xmlns="http://www.w3.org/2000/svg">
<path fill-rule="evenodd" clip-rule="evenodd" d="M24 48C10.7452 48 0 37.2548 0 24C0 10.7452 10.7452 0 24 0C37.2548 0 48 10.7452 48 24C48 37.2548 37.2548 48 24 48ZM9.622 23.2346C9.25363 29.383 13.5535 35.4377 19.3805 37.2997C17.9204 30.9034 14.3907 25.1568 13.1316 18.707C14.5314 17.9568 16.1254 17.9099 17.6726 17.9434C18.6906 19.7183 19.4475 21.6204 20.1173 23.5494C20.8138 25.3979 21.6376 27.5345 23.6402 28.3047C26.0514 29.5974 29.5476 28.0368 29.8959 25.2573C29.139 22.0759 27.0828 19.3365 26.6207 16.0614C27.8263 15.7935 29.0386 15.559 30.2575 15.3648C31.9587 18.2783 32.816 21.6204 34.6847 24.4402C35.388 25.5855 36.6739 26.061 37.9666 26.0744C39.5137 18.0506 32.5883 9.933 24.5645 9.62491C17.0229 9.14268 9.92339 15.7332 9.622 23.2346ZM27.9401 31.2517C26.3595 31.8143 24.6449 31.6 22.9973 31.6067C23.667 33.9174 24.531 36.1879 25.8973 38.1838C30.9809 37.2059 35.2741 33.5557 37.3236 28.8472C35.475 28.7267 33.6399 28.4655 31.8382 28.0301C30.5589 29.1218 29.4404 30.448 27.9401 31.2517Z" fill="black"/>
</svg>
