<svg width="48" height="48" viewBox="0 0 48 48" fill="none" xmlns="http://www.w3.org/2000/svg">
<path fill-rule="evenodd" clip-rule="evenodd" d="M22.2921 35.1766C22.8363 34.8196 31.6555 28.8188 27.4205 17.4945C27.4205 17.4945 27.3988 17.4267 27.3557 17.3006C27.4095 18.0766 28.2884 32.2331 20.8194 35.094C19.9018 34.9541 19.0399 34.6471 18.2334 34.1729C17.0897 33.5001 16.1822 32.5454 15.5103 31.3091C14.8383 30.0728 14.502 28.7393 14.502 27.309C14.502 25.0909 15.2392 23.1998 16.7127 21.6364C18.186 20.0726 19.9487 19.291 21.9999 19.291C22.9759 19.291 23.8864 19.472 24.7342 19.8297C24.8189 18.9237 25.1319 18.0806 25.4785 17.3922C24.4118 16.9988 23.2561 16.8 22.0089 16.8C19.0434 16.8 16.5897 17.9091 14.6481 20.1273C12.8825 22.1394 12 24.5153 12 27.2547C12 30.0183 12.9326 32.4336 14.7977 34.5C16.663 36.5667 19.0666 37.6 22.0089 37.6C24.9389 37.6 27.337 36.5667 29.2021 34.5C31.0672 32.4336 32 30.0183 32 27.2547C32 25.7757 31.7427 24.4046 31.2326 23.1391C30.3763 23.6744 29.5624 23.9546 28.8885 24.0975C29.2935 25.0786 29.4978 26.1487 29.4978 27.309C29.4978 28.7393 29.1617 30.0728 28.4901 31.3091C27.8178 32.5454 26.9103 33.5001 25.7666 34.1729C24.7048 34.7973 23.5467 35.1318 22.2921 35.1766ZM0 24C0 10.7452 10.7452 0 24 0C37.2548 0 48 10.7452 48 24C48 37.2548 37.2548 48 24 48C10.7452 48 0 37.2548 0 24ZM35.325 9.45457C34.1087 12.043 31.857 12.5239 31.857 12.5239C29.6049 13.0968 28.8166 13.9672 28.8166 13.9672C26.5649 16.2346 28.3388 18.9847 28.3388 18.9847C33.2005 17.8766 34.9779 13.8744 34.9779 13.8744C34.7618 16.563 28.9744 19.7395 28.9744 19.7395C30.8885 21.6174 32.7185 21.391 33.9263 20.671C35.5276 19.7163 36.2954 17.6254 36.2954 17.6254C37.847 12.9823 35.325 9.45457 35.325 9.45457ZM23.3677 8.8C25.763 12.8263 27.0622 16.4409 27.3557 17.3006C27.3543 17.2787 27.3532 17.2654 27.3532 17.2654C26.7676 11.0581 23.3677 8.8 23.3677 8.8Z" fill="black"/>
</svg>
