<svg width="48" height="48" viewBox="0 0 48 48" fill="none" xmlns="http://www.w3.org/2000/svg">
<path fill-rule="evenodd" clip-rule="evenodd" d="M0 24C0 10.7452 10.7452 0 24 0C37.2548 0 48 10.7452 48 24C48 37.2548 37.2548 48 24 48C10.7452 48 0 37.2548 0 24ZM37.586 19.362C37.757 15.6108 36.3612 13.6919 33.4021 13.6052C29.4108 13.4767 26.7067 15.7281 25.2909 20.3633C26.0222 20.0498 26.7333 19.8911 27.4228 19.8911C28.8874 19.8911 29.5337 20.7147 29.3613 22.3576C29.2743 23.3533 28.628 24.802 27.4228 26.7056C26.2152 28.6106 25.3092 29.5624 24.7071 29.5624C23.9309 29.5624 23.2199 28.0962 22.5729 25.1607C22.3557 24.2995 21.9682 22.0993 21.4086 18.561C20.8908 15.282 19.5112 13.7503 17.2708 13.9659C16.3223 14.0526 14.8982 14.9144 13.0025 16.5517C11.6233 17.8021 10.2214 19.0508 8.8 20.2992L10.1543 22.0441C11.4453 21.1415 12.1991 20.6881 12.4147 20.6881C13.4037 20.6881 14.3276 22.2387 15.1898 25.3367C15.9649 28.1779 16.7391 31.0188 17.5139 33.86C18.6746 36.9595 20.0951 38.5082 21.7746 38.5082C24.4836 38.5082 27.7967 35.9632 31.7123 30.8756C35.5 26.0032 37.4578 22.1654 37.586 19.362Z" fill="black"/>
</svg>
