<svg width="48" height="48" viewBox="0 0 48 48" fill="none" xmlns="http://www.w3.org/2000/svg">
<path fill-rule="evenodd" clip-rule="evenodd" d="M0 24C0 10.7452 10.7452 0 24 0C37.2548 0 48 10.7452 48 24C48 37.2548 37.2548 48 24 48C10.7452 48 0 37.2548 0 24ZM23.3905 39.0154H23.3296C26.1943 39.5681 32.1677 30.6636 33.2648 28.0844C35.1543 28.023 35.2153 28.023 36.7391 27.6545V24.0928C32.0458 25.3209 28.5106 22.8645 28.0839 17.3377C28.0839 15.9866 28.5105 14.0215 30.0953 13.8987C32.4114 13.9601 32.2286 17.7061 31.741 19.4256C31.3143 20.7766 31.5582 20.531 32.2286 21.0223C33.082 21.6364 34.4838 22.0048 35.8248 21.6978C36.4343 19.9783 36.7391 18.5658 36.8 16.5393C36.7391 13.1618 35.1543 9.6 30.461 9.6C24.061 9.78421 22.1105 16.048 24.3658 21.9434C25.0972 23.8471 26.4381 25.9351 28.8152 27.0405C27.5961 29.3126 25.8286 32.1375 23.6952 34.164C19.3676 29.1898 17.3561 23.0488 16.0762 14.0216H11.2C11.7486 22.6189 15.8934 32.813 19.9162 36.6204C21.2572 37.9714 22.2324 38.8312 23.3905 39.0154Z" fill="black"/>
</svg>
