<svg width="48" height="48" viewBox="0 0 48 48" fill="none" xmlns="http://www.w3.org/2000/svg">
<path fill-rule="evenodd" clip-rule="evenodd" d="M0 24C0 10.7452 10.7452 0 24 0C37.2548 0 48 10.7452 48 24C48 37.2548 37.2548 48 24 48C10.7452 48 0 37.2548 0 24ZM30.2424 19.2856C30.404 19.2856 30.564 19.2872 30.7232 19.296C29.8816 14.7096 25.1448 11.2 19.428 11.2C13.116 11.2 8 15.4792 8 20.7576C8 23.8528 9.7584 26.604 12.4856 28.3504C12.5208 28.3728 12.5904 28.4168 12.5904 28.4168L11.4864 31.8752L15.6176 29.7712C15.6176 29.7712 15.7472 29.808 15.812 29.8272C16.9472 30.1432 18.1648 30.3144 19.428 30.3144C19.6856 30.3144 19.9416 30.304 20.196 30.2912C19.9616 29.564 19.8328 28.8 19.8328 28.0112C19.8328 23.1912 24.4952 19.2856 30.2424 19.2856ZM20.6729 28.0673C20.6729 32.5273 24.9969 36.1425 30.3297 36.1425C31.3961 36.1425 32.4249 35.9969 33.3833 35.7289C33.4385 35.7145 33.5481 35.6817 33.5481 35.6817L37.0369 37.4609L36.1041 34.5377C36.1041 34.5377 36.1633 34.5009 36.1929 34.4825C38.4961 33.0073 39.9825 30.6833 39.9825 28.0673C39.9825 23.6089 35.6601 19.9937 30.3297 19.9937C24.9969 19.9937 20.6729 23.6089 20.6729 28.0673Z" fill="black"/>
<path fill-rule="evenodd" clip-rule="evenodd" d="M23.4048 15.9128C24.2912 15.9128 25.0088 16.6072 25.0088 17.4656C25.0088 18.3232 24.2912 19.02 23.4048 19.02C22.5176 19.02 21.8008 18.3232 21.8008 17.4656C21.8008 16.6072 22.5176 15.9128 23.4048 15.9128" fill="black"/>
<path fill-rule="evenodd" clip-rule="evenodd" d="M32.332 25.2857C32.332 24.5625 32.9384 23.9745 33.6872 23.9745C34.4368 23.9745 35.0432 24.5625 35.0432 25.2857C35.0432 26.0121 34.4368 26.6009 33.6872 26.6009C32.9384 26.6009 32.332 26.0121 32.332 25.2857" fill="black"/>
<path fill-rule="evenodd" clip-rule="evenodd" d="M25.6129 25.2857C25.6129 24.5625 26.2209 23.9745 26.9689 23.9745C27.7185 23.9745 28.3257 24.5625 28.3257 25.2857C28.3257 26.0121 27.7185 26.6009 26.9689 26.6009C26.2209 26.6009 25.6129 26.0121 25.6129 25.2857" fill="black"/>
<path fill-rule="evenodd" clip-rule="evenodd" d="M15.4512 19.02C14.5648 19.02 13.8464 18.3232 13.8464 17.4656C13.8464 16.6072 14.5648 15.9128 15.4512 15.9128C16.3376 15.9128 17.0576 16.6072 17.0576 17.4656C17.0576 18.3232 16.3376 19.02 15.4512 19.02" fill="black"/>
</svg>
