<?xml version="1.0" ?><svg id="Layer_1" style="enable-background:new 0 0 128 128;" version="1.1" viewBox="0 0 128 128" xml:space="preserve" xmlns="http://www.w3.org/2000/svg" xmlns:xlink="http://www.w3.org/1999/xlink"><style type="text/css">
	.st0{fill:#FFFFFF;}
</style><g><circle cx="64" cy="64" r="64"/></g><path class="st0" d="M64,24c-22.1,0-40,17.9-40,40s17.9,40,40,40s40-17.9,40-40S86.1,24,64,24z M66,48c4.7-0.1,9.3-0.7,13.6-1.7  C81,51,81.8,56.3,82,62H66V48z M66,44V28.2c5,1.2,9.4,6.5,12.3,14.2C74.4,43.3,70.3,43.9,66,44z M62,28.2V44  c-4.3-0.1-8.4-0.6-12.3-1.5C52.6,34.8,57,29.4,62,28.2z M62,48v14H46c0.2-5.7,1-11,2.4-15.7C52.7,47.3,57.3,47.8,62,48z M42,62H28  c0.4-7.7,3.2-14.7,7.7-20.3c2.6,1.4,5.5,2.6,8.7,3.6C43.1,50.2,42.2,55.9,42,62z M42,66c0.2,6.1,1,11.7,2.5,16.8  c-3.2,1-6.1,2.2-8.7,3.6c-4.5-5.7-7.3-12.7-7.7-20.3H42V66z M46,66h16v14c-4.7,0.1-9.3,0.7-13.6,1.7C47,77,46.2,71.7,46,66z M62,84  v15.7c-5-1.2-9.4-6.5-12.3-14.2C53.6,84.7,57.7,84.1,62,84z M66,99.8V84c4.3,0.1,8.4,0.6,12.3,1.5C75.4,93.2,71,98.6,66,99.8z   M66,80V66h16c-0.2,5.7-1,11-2.4,15.7C75.3,80.7,70.7,80.2,66,80z M86,66h14c-0.4,7.7-3.2,14.7-7.7,20.3c-2.6-1.4-5.5-2.6-8.7-3.6  C84.9,77.7,85.8,72.1,86,66z M86,62c-0.2-6.1-1-11.7-2.5-16.8c3.2-1,6.1-2.2,8.7-3.6c4.5,5.7,7.3,12.7,7.7,20.3L86,62L86,62z   M89.5,38.6c-2.2,1.1-4.6,2.1-7.2,2.9c-1.7-4.6-3.9-8.5-6.6-11.5C80.9,31.8,85.6,34.8,89.5,38.6z M52.3,30  c-2.6,2.9-4.8,6.8-6.6,11.5c-2.6-0.8-5-1.7-7.2-2.8C42.4,34.7,47.1,31.8,52.3,30z M38.5,89.4c2.2-1.1,4.6-2.1,7.2-2.9  c1.7,4.6,3.9,8.5,6.6,11.5C47.1,96.2,42.4,93.2,38.5,89.4z M75.7,98c2.6-2.9,4.9-6.9,6.6-11.5c2.6,0.8,5,1.7,7.2,2.9  C85.6,93.2,80.9,96.2,75.7,98z"/></svg>