<svg width="48" height="48" viewBox="0 0 48 48" fill="none" xmlns="http://www.w3.org/2000/svg">
<path fill-rule="evenodd" clip-rule="evenodd" d="M0 24C0 10.7452 10.7452 0 24 0C37.2548 0 48 10.7452 48 24C48 37.2548 37.2548 48 24 48C10.7452 48 0 37.2548 0 24ZM20.881 38.6369V38.6369C24.5714 39.5802 29.7466 38.5726 32.9116 36.2946C35.5358 34.4058 35.624 33.7399 33.6458 30.7533C32.4266 28.9127 26.977 23.2681 25.2738 22.0818L24.1896 21.3267L21.7721 23.4125C17.4748 27.1203 13.5543 32.1385 13.5543 33.9315C13.5543 35.2707 17.4171 37.7516 20.881 38.6369ZM11.9137 32.4679C12.8041 33.7756 13.0067 33.9097 12.7181 33.0001C12.1459 31.1974 15.1032 25.2622 18.943 20.5068L20.8539 18.1403L19.0695 16.542C18.088 15.663 16.7674 14.665 16.1347 14.3243C15.0702 13.751 14.922 13.7457 14.1481 14.2527C13.0769 14.9546 11.1105 17.9456 10.2763 20.1419C8.92938 23.6881 9.65503 29.1506 11.9137 32.4679ZM35.8105 32.3648H35.8105L35.8287 33.6872L36.8195 32.2067C38.3502 29.9197 38.9027 27.5766 38.767 23.9472C38.6658 21.2411 38.4988 20.5011 37.559 18.5965C36.9592 17.3808 35.8427 15.7764 35.0781 15.0311L33.6878 13.6761L32.4327 14.3483C31.7424 14.718 30.411 15.7239 29.474 16.5838L27.7705 18.147L29.6706 20.5102C33.6011 25.3987 35.7722 29.5905 35.8105 32.3648ZM22.6085 14.3219C24.3134 15.3313 24.2431 15.327 25.5816 14.5026C27.1066 13.5633 30.9158 12.4093 31.7901 12.6217C32.1826 12.7171 31.5296 12.3155 30.3389 11.7292C27.2796 10.2229 23.1735 9.97717 19.7042 11.0927C18.3788 11.5189 17.2254 11.9792 17.1411 12.1156C17.0568 12.252 17.9466 12.6231 19.1184 12.9403C20.2903 13.2575 21.8608 13.8792 22.6085 14.3219Z" fill="black"/>
</svg>
