<svg width="48" height="48" viewBox="0 0 48 48" fill="none" xmlns="http://www.w3.org/2000/svg">
<path d="M8.5 0H39.5C44.2 0 48 3.89744 48 8.71795V39.2821C48 44.1026 44.2 48 39.5 48H8.5C3.8 48 0 44.1026 0 39.2821V8.71795C0 3.89744 3.8 0 8.5 0Z" fill="#001E36"/>
<path fill-rule="evenodd" clip-rule="evenodd" d="M10 13.4441V34.2129C10 34.3945 10.08 34.4753 10.24 34.4753H14.04H14.12C14.26 34.4551 14.36 34.334 14.34 34.1927V27.7138H14.3401C14.72 27.7138 15 27.7138 15.2 27.734C15.4 27.7542 15.72 27.7542 16.2 27.7542C17.84 27.7542 19.34 27.5725 20.7 27.0679C22 26.5835 23.12 25.7358 23.92 24.6055C24.72 23.4753 25.12 22.0422 25.12 20.3065C25.12 19.3982 24.96 18.5303 24.66 17.6826C24.34 16.8147 23.84 16.0276 23.2 15.3817C22.44 14.6349 21.52 14.0698 20.52 13.7266C19.4 13.3028 18.04 13.101 16.4 13.101C15.8 13.101 15.2 13.101 14.58 13.1211C14.2807 13.1309 13.9907 13.1359 13.71 13.1408C13.4093 13.146 13.1193 13.1511 12.84 13.1615C12.5781 13.1713 12.3256 13.1763 12.0802 13.1812C11.8197 13.1864 11.5672 13.1915 11.32 13.2019C10.86 13.2221 10.54 13.2221 10.2 13.2221C10.06 13.2221 10 13.3028 10 13.4441ZM14.36 23.8991V17.1175C14.5 17.0973 14.78 17.0771 15.18 17.0973C15.56 17.0771 16.02 17.0771 16.54 17.0771C17.36 17.0569 18.16 17.178 18.9 17.4808C19.48 17.7028 19.96 18.1065 20.3 18.6312C20.62 19.1762 20.78 19.8019 20.76 20.4276C20.76 21.3156 20.56 22.0019 20.14 22.5065C19.7 23.011 19.14 23.3945 18.5 23.5762C17.76 23.8184 16.98 23.9395 16.2 23.9395H15.14C14.9172 23.9395 14.6772 23.9221 14.42 23.9035C14.4001 23.902 14.3801 23.9006 14.36 23.8991Z" fill="#31A8FF"/>
<path d="M37.6 22.6679C37 22.345 36.36 22.123 35.68 21.9817C34.94 21.8202 34.2 21.7193 33.44 21.7193C33.04 21.6991 32.62 21.7597 32.24 21.8606C31.98 21.9211 31.76 22.0624 31.62 22.2642C31.52 22.4257 31.46 22.6275 31.46 22.8092C31.46 22.9908 31.54 23.1725 31.66 23.334C31.84 23.556 32.08 23.7376 32.34 23.8789C32.8 24.1211 33.28 24.3431 33.76 24.545C34.84 24.9083 35.88 25.4129 36.84 26.0184C37.5 26.4422 38.04 27.0074 38.42 27.6936C38.74 28.3395 38.9 29.0459 38.88 29.7725C38.9 30.7211 38.62 31.6697 38.1 32.4569C37.54 33.2642 36.76 33.8899 35.86 34.2532C34.88 34.6771 33.68 34.8991 32.24 34.8991C31.32 34.8991 30.42 34.8184 29.52 34.6367C28.82 34.5156 28.12 34.2936 27.48 33.9908C27.34 33.9101 27.24 33.7688 27.26 33.6074V30.0954C27.26 30.0349 27.28 29.9542 27.34 29.9138C27.4 29.8734 27.46 29.8936 27.52 29.934C28.3 30.3982 29.12 30.7211 30 30.923C30.76 31.1248 31.56 31.2257 32.36 31.2257C33.12 31.2257 33.66 31.1248 34.02 30.9431C34.34 30.8019 34.56 30.4587 34.56 30.0954C34.56 29.8129 34.4 29.5505 34.08 29.2881C33.76 29.0257 33.1 28.723 32.12 28.3395C31.1 27.9762 30.16 27.4918 29.28 26.8863C28.66 26.4422 28.14 25.8569 27.76 25.1707C27.44 24.5248 27.28 23.8184 27.3 23.1119C27.3 22.2441 27.54 21.4165 27.98 20.6697C28.48 19.8624 29.22 19.2165 30.08 18.8129C31.02 18.3285 32.2 18.1064 33.62 18.1064C34.44 18.1064 35.28 18.167 36.1 18.2881C36.7 18.3688 37.28 18.5303 37.82 18.7523C37.9 18.7725 37.98 18.8532 38.02 18.934C38.04 19.0147 38.06 19.0954 38.06 19.1762V22.4661C38.06 22.5468 38.02 22.6275 37.96 22.6679C37.78 22.7083 37.68 22.7083 37.6 22.6679Z" fill="#31A8FF"/>
</svg>
