<svg width="48" height="48" viewBox="0 0 48 48" fill="none" xmlns="http://www.w3.org/2000/svg">
<path d="M8.5 0H39.5C44.2 0 48 3.89744 48 8.71795V39.2821C48 44.1026 44.2 48 39.5 48H8.5C3.8 48 0 44.1026 0 39.2821V8.71795C0 3.89744 3.8 0 8.5 0Z" fill="#330000"/>
<path fill-rule="evenodd" clip-rule="evenodd" d="M17.0649 30.1025H24.5604L26.2127 34.6556C26.253 34.7895 26.394 34.8851 26.5351 34.866H30.7463C30.9477 34.866 31.0082 34.7703 30.9477 34.5599L23.5933 14.8556C23.5731 14.7599 23.4925 14.7025 23.3313 14.7025H18.1731H18.1127C18.0119 14.7216 17.9313 14.8173 17.9515 14.9129C17.9515 15.3338 17.9112 15.7547 17.8306 16.1564C17.7735 16.3191 17.7265 16.4721 17.6825 16.6156C17.6643 16.6746 17.6467 16.732 17.6291 16.7877L11.141 34.5216C11.0806 34.7512 11.141 34.866 11.3627 34.866H15.1507C15.3321 34.8851 15.4933 34.7703 15.5336 34.5982L17.0649 30.1025ZM23.3515 26.219H18.2336C18.5358 25.4156 18.838 24.5164 19.1201 23.5408C19.3197 22.9486 19.5116 22.3564 19.7005 21.7733C19.8168 21.4146 19.9319 21.0592 20.047 20.7095C20.3291 19.8869 20.5507 19.0643 20.7321 18.2416H20.7724C20.851 18.4976 20.9296 18.7654 21.0117 19.0452C21.0769 19.2672 21.1443 19.4968 21.2157 19.7338C21.3769 20.2886 21.5582 20.8434 21.7597 21.4364C21.8604 21.7329 21.9561 22.0247 22.0519 22.3164C22.1476 22.6082 22.2433 22.8999 22.344 23.1964C22.5254 23.7703 22.7067 24.3251 22.888 24.8416C23.0694 25.339 23.2306 25.8173 23.3515 26.219Z" fill="#FF9A00"/>
<path fill-rule="evenodd" clip-rule="evenodd" d="M33.547 17.3043C34.0306 17.7443 34.6753 17.993 35.3403 17.9739C36.0253 18.0121 36.7104 17.7634 37.1739 17.3043C37.6574 16.826 37.8992 16.1947 37.8791 15.5443C37.8992 14.913 37.6574 14.3008 37.2142 13.8417C36.7709 13.4017 36.1664 13.1721 35.3806 13.1721C34.7156 13.1721 34.0709 13.4017 33.5873 13.8417C33.1037 14.2817 32.8418 14.8939 32.8619 15.5443C32.8418 16.1947 33.0836 16.826 33.547 17.3043ZM33.0836 19.8486V34.5791C33.0836 34.7704 33.1843 34.8852 33.3858 34.8852H37.335C37.5164 34.8852 37.597 34.7895 37.597 34.5791V19.8486C37.597 19.6765 37.5164 19.5808 37.335 19.5808H33.3455C33.1642 19.5808 33.0836 19.6573 33.0836 19.8486Z" fill="#FF9A00"/>
</svg>
