<svg width="48" height="48" viewBox="0 0 48 48" fill="none" xmlns="http://www.w3.org/2000/svg">
<path d="M8.5 0H39.5C44.2 0 48 3.89744 48 8.71795V39.2821C48 44.1026 44.2 48 39.5 48H8.5C3.8 48 0 44.1026 0 39.2821V8.71795C0 3.89744 3.8 0 8.5 0Z" fill="#470137"/>
<path d="M25.2256 15.0818L19.2953 24.8965L25.6209 35.306C25.6605 35.3853 25.6802 35.4646 25.6605 35.5439C25.6407 35.6232 25.5616 35.5637 25.443 35.5836H20.9163C20.6 35.5836 20.3826 35.5637 20.2442 35.3655C19.8291 34.5327 19.3942 33.7198 18.9791 32.887C18.564 32.0741 18.1093 31.2413 17.6349 30.3887C17.1605 29.5361 16.686 28.6836 16.2116 27.8111H16.1721C15.757 28.6637 15.3023 29.5163 14.8477 30.3689C14.393 31.2215 13.9384 32.0741 13.5035 32.9068C13.0488 33.7396 12.5942 34.5922 12.1395 35.4051C12.0605 35.6034 11.9023 35.6232 11.6849 35.6232H7.33605C7.25698 35.6232 7.19767 35.6629 7.19767 35.5637C7.17791 35.4844 7.19767 35.4051 7.23721 35.3456L13.3849 25.2336L7.39535 15.062C7.33605 14.9827 7.31628 14.9034 7.35581 14.8637C7.39535 14.8043 7.47442 14.7844 7.55349 14.7844H12.0407C12.1395 14.7844 12.2384 14.8043 12.3174 14.8241C12.3965 14.8637 12.4558 14.9232 12.5151 15.0025C12.8907 15.8551 13.3256 16.7077 13.7802 17.5603C14.2547 18.4129 14.7093 19.2456 15.2035 20.0784C15.6779 20.9111 16.1128 21.7439 16.5279 22.5965H16.5674C16.9826 21.7241 17.4174 20.8715 17.8523 20.0387C18.2872 19.206 18.7419 18.3732 19.1965 17.5405C19.6512 16.7077 20.086 15.8551 20.5209 15.0422C20.5407 14.9629 20.5802 14.8836 20.6395 14.8439C20.7186 14.8043 20.7977 14.7844 20.8965 14.8043H25.0674C25.1663 14.7844 25.2651 14.8439 25.2849 14.943C25.3047 14.9629 25.2651 15.0422 25.2256 15.0818V15.0818Z" fill="#FF61F6"/>
<path fill-rule="evenodd" clip-rule="evenodd" d="M30.1081 35.1078C31.4326 35.7224 32.8953 36.0198 34.3581 36C35.386 36 36.3942 35.9009 37.4023 35.7224C38.5093 35.5241 39.5965 35.2069 40.6244 34.7707C40.7628 34.7112 40.8221 34.5922 40.8221 34.4534C40.819 34.4015 40.816 34.3481 40.8129 34.2934C40.7958 33.9936 40.7765 33.6556 40.743 33.3034C40.7412 33.2635 40.7394 33.2238 40.7376 33.1845C40.7198 32.7949 40.7035 32.438 40.7035 32.1138V13.2379V13.1983C40.6837 13.119 40.6046 13.0397 40.5058 13.0595H36.493C36.3546 13.0595 36.2953 13.1388 36.2953 13.2776V19.5431C36.1856 19.5339 36.0843 19.529 35.9895 19.5244C35.8794 19.519 35.7781 19.5141 35.6826 19.5034C35.5046 19.4836 35.3663 19.4836 35.2674 19.4836C33.3105 19.4836 31.65 19.8603 30.2663 20.6336C28.9616 21.3474 27.8744 22.4181 27.1233 23.7069C26.3919 24.9759 26.0163 26.4233 26.036 27.8905C26.036 29.6948 26.3919 31.2017 27.1233 32.4112C27.8349 33.581 28.8628 34.5328 30.1081 35.1078ZM36.2953 23.3103V32.0345C36.0581 32.1138 35.8407 32.1534 35.5837 32.1336C35.3267 32.1534 35.05 32.1733 34.7535 32.1733C34.2 32.1733 33.6465 32.094 33.1128 31.9155C32.5988 31.7569 32.1442 31.4793 31.7686 31.1224C31.3733 30.7259 31.0767 30.25 30.8791 29.7146C30.6419 29.0603 30.5233 28.3664 30.543 27.6724C30.543 26.6414 30.7605 25.7888 31.1953 25.1543C31.6302 24.5198 32.2035 24.0241 32.8756 23.6871C33.5674 23.3302 34.3384 23.1715 35.1093 23.1715C35.3267 23.1715 35.5442 23.1914 35.7616 23.2112L35.7616 23.2112C35.9395 23.231 36.1174 23.2707 36.2953 23.3103L36.2953 23.3103Z" fill="#FF61F6"/>
</svg>
