<svg width="48" height="48" viewBox="0 0 48 48" fill="none" xmlns="http://www.w3.org/2000/svg">
<rect width="48" height="48" rx="7.2178" transform="matrix(-1 0 0 1 48 0)" fill="#E9C800"/>
<path fill-rule="evenodd" clip-rule="evenodd" d="M35.2708 2.146H12.7292C6.76237 2.146 1.95876 6.98866 1.95876 13.004V34.996C2.1519 39.6915 2.89482 36.7231 4.30893 31.5232C5.95244 25.4798 11.3048 20.1978 17.8231 16.2393C22.7983 13.2179 28.367 11.2885 38.5037 11.105C44.2525 11.0009 43.7449 3.64405 35.2708 2.146Z" fill="url(#paint0_linear)"/>
<path fill-rule="evenodd" clip-rule="evenodd" d="M28.9351 11.4789C28.9351 15.1704 25.9418 18.163 22.2495 18.163C18.5571 18.163 15.5638 15.1704 15.5638 11.4789C15.5638 7.78746 18.5571 4.79492 22.2495 4.79492C25.9418 4.79492 28.9351 7.78746 28.9351 11.4789Z" fill="white"/>
<path fill-rule="evenodd" clip-rule="evenodd" d="M18.3686 16.4341C19.1834 16.8171 23.2825 16.0155 23.7026 16.376C24.1286 16.7417 22.6719 18.1219 23.4903 18.7316C25.4333 20.1791 30.5723 20.6039 35.1849 18.9019L36.9327 23.7071C34.3982 25.1048 30.6045 25.9147 25.747 25.4544L38.5057 38.2974L33.7779 42.551L23.963 32.2442C19.9925 39.1997 14.8006 41.9252 10.7162 44.4131L7.28427 39C23.4856 28.772 14.5066 24.1941 18.4344 18.3506C18.7485 17.8834 17.8356 16.8837 18.3686 16.4341V16.4341Z" fill="white"/>
<defs>
<linearGradient id="paint0_linear" x1="-4.30417" y1="-2.0944" x2="0.52145" y2="16.3966" gradientUnits="userSpaceOnUse">
<stop stop-color="white"/>
<stop offset="1" stop-color="white" stop-opacity="0.01"/>
</linearGradient>
</defs>
</svg>
