<svg width="48" height="48" viewBox="0 0 48 48" fill="none" xmlns="http://www.w3.org/2000/svg">
<path d="M0 24C0 10.7452 10.7452 0 24 0C37.2548 0 48 10.7452 48 24C48 37.2548 37.2548 48 24 48C10.7452 48 0 37.2548 0 24Z" fill="white"/>
<path fill-rule="evenodd" clip-rule="evenodd" d="M35.9992 30.6178C35.9907 29.8657 35.8276 29.0978 35.5315 28.3312C35.3849 27.9502 35.2554 27.6504 34.9622 26.996L34.945 26.9578L34.8637 26.7761C33.0642 22.7815 31.1715 18.8213 29.1863 14.8956C29.1361 14.7969 29.096 14.718 29.0076 14.5432L29.0039 14.536C28.6792 13.8943 28.5295 13.6044 28.3347 13.2477C27.978 12.5994 27.6145 12.0927 27.1754 11.6781C26.4027 10.9279 25.3569 10.47 24.2704 10.4011L23.7975 10.4C22.6563 10.4568 21.5757 10.933 20.781 11.7219C20.3648 12.1234 20.0158 12.6152 19.6674 13.2475C19.4719 13.6043 19.3111 13.9155 19.0044 14.522L18.9682 14.5936L18.8282 14.8702C17.5072 17.4809 16.2178 20.1278 14.9593 22.8114C14.0389 24.7824 13.3888 26.2018 12.7634 27.6197C12.3773 28.499 12.1587 29.1567 12.0631 29.8551C11.8607 31.2025 12.1498 32.6239 12.8637 33.7925C13.4784 34.8066 14.4004 35.6203 15.4735 36.0912C16.3096 36.4594 17.2312 36.6258 18.1385 36.5713C19.285 36.5093 20.4364 36.1067 21.5032 35.4334C22.3555 34.9007 23.1327 34.2307 24.0014 33.3204C24.788 34.147 25.5031 34.7758 26.2773 35.2903C27.3323 35.9972 28.4637 36.4406 29.6051 36.5504C30.9321 36.6916 32.3023 36.3534 33.4111 35.6045C34.3873 34.9497 35.1582 33.9845 35.5914 32.8762C35.8725 32.1596 36.0122 31.3871 35.9992 30.6178ZM33.2981 31.7062C33.0689 32.5117 32.5158 33.2178 31.7978 33.6223C31.1651 33.9827 30.401 34.1127 29.6715 33.9886C28.8027 33.8508 27.9484 33.4019 27.0595 32.6726C26.6236 32.3159 26.2029 31.9093 25.7243 31.3919C26.5823 30.259 27.22 29.2685 27.7234 28.2379C28.3448 26.9616 28.6952 25.7698 28.7322 24.5863C28.7569 23.6974 28.5823 22.841 28.2035 22.1056C27.692 21.0924 26.7729 20.2948 25.6908 19.907C24.7111 19.5506 23.619 19.5164 22.6117 19.8089C21.643 20.088 20.7772 20.68 20.1855 21.4822C19.6701 22.1742 19.3609 23.0342 19.29 23.9317C19.1955 25.0528 19.428 26.2192 19.928 27.4541C20.4732 28.7773 21.2469 30.0465 22.2806 31.3888C21.9283 31.7777 21.5466 32.1513 21.1377 32.5088C20.2514 33.2726 19.4112 33.7578 18.5477 33.9481C17.7884 34.1216 16.9888 34.0291 16.3237 33.6864C15.5311 33.2842 14.9201 32.5234 14.6909 31.6536C14.5184 31.0249 14.5476 30.328 14.7653 29.6745C14.8933 29.292 15.0225 28.9836 15.3267 28.3051L15.3522 28.2481C15.4077 28.1242 15.4436 28.0438 15.4804 27.9606C17.2418 24.0492 19.1067 20.1456 21.0718 16.2537L21.2219 15.9567L21.2294 15.9417C21.5804 15.246 21.7434 14.9293 21.9509 14.5483C22.2292 14.0442 22.4744 13.7165 22.7701 13.4877C23.1245 13.2054 23.5692 13.0541 24.0075 13.0642C24.4762 13.0589 24.9345 13.229 25.289 13.5323C25.6054 13.7999 25.8474 14.1529 26.171 14.7679C26.6361 15.6576 27.0409 16.4604 27.7823 17.952L27.9148 18.2185L27.9294 18.2479C29.591 21.5982 31.179 24.9617 32.6924 28.3379C32.713 28.3851 32.7289 28.4214 32.7675 28.509L32.7959 28.5733C33.0803 29.2181 33.197 29.5111 33.2981 29.8742C33.4644 30.4776 33.4657 31.1215 33.2984 31.7052L33.2981 31.7062ZM22.2806 31.3888C22.3763 31.2831 22.4698 31.1764 22.5612 31.0685L22.5511 31.7342C22.459 31.6185 22.3689 31.5034 22.2806 31.3888ZM25.7243 31.3919C25.6371 31.5072 25.5475 31.6239 25.4556 31.7423L25.4322 31.0706C25.5322 31.1824 25.6294 31.2893 25.7243 31.3919ZM24.0001 29.282C24.1525 29.495 24.2719 29.6504 24.4072 29.8127L24.0072 30.1488L23.5926 29.8309C23.7349 29.6439 23.8707 29.4612 24.0001 29.282ZM24.0001 29.282C24.8064 28.1653 25.3676 27.1841 25.7479 26.1675C26.0352 25.386 26.1547 24.6905 26.083 24.0526C26.0261 23.5537 25.8007 23.097 25.4575 22.7992C24.7394 22.1673 23.5757 22.0983 22.7599 22.6346C22.4336 22.8463 22.1774 23.1674 22.0426 23.5392C21.9004 23.9136 21.8671 24.3621 21.9274 24.8832C21.9982 25.4461 22.1756 26.0279 22.4577 26.6721C22.7539 27.3403 23.1327 28.009 23.5999 28.7069L23.6262 28.7451L23.6711 28.8105C23.8008 28.9992 23.9066 29.1514 24.0001 29.282Z" fill="#FF7977"/>
</svg>
