<svg width="48" height="48" viewBox="0 0 48 48" fill="none" xmlns="http://www.w3.org/2000/svg">
<path d="M0 24C0 10.7452 10.7452 0 24 0C37.2548 0 48 10.7452 48 24C48 37.2548 37.2548 48 24 48C10.7452 48 0 37.2548 0 24Z" fill="white"/>
<path fill-rule="evenodd" clip-rule="evenodd" d="M18.4229 20.968C17.8288 21.8231 17.5318 22.8528 17.5318 24.059H17.5282C17.5282 25.5783 17.9603 26.7539 18.8244 27.582C19.6885 28.4101 20.7938 28.8242 22.1368 28.8242C23.0099 28.8242 23.7444 28.7377 24.3384 28.5613C25.28 28.2985 26.2395 27.636 27.2188 26.5703C27.289 26.6585 27.4114 26.8277 27.5879 27.0833C27.7607 27.3372 27.8867 27.5046 27.9659 27.5946C28.0433 27.681 28.1747 27.8214 28.3584 28.0123C28.542 28.2049 28.7544 28.4065 28.9992 28.6153C29.2963 28.7377 29.5501 28.7197 29.7589 28.5613C29.8813 28.4569 30.6662 27.7782 32.1172 26.5181C32.2576 26.4137 32.326 26.2912 32.326 26.1526C32.326 26.0302 32.2738 25.8898 32.1694 25.7332L31.5682 24.9339C31.4457 24.7682 31.3161 24.4982 31.1901 24.1202C31.0569 23.7475 30.9921 23.3335 30.9921 22.878V16.5412C30.9921 16.4728 30.9849 16.2496 30.9669 15.8751C30.9489 15.5007 30.9237 15.2541 30.8877 15.1406C30.8553 15.0272 30.8013 14.822 30.7292 14.5286C30.6608 14.2297 30.5852 14.0029 30.4952 13.8445C30.4106 13.6861 30.29 13.5096 30.1406 13.308C29.9912 13.1082 29.8309 12.9192 29.6581 12.7445C28.5384 11.7148 26.9848 11.2 24.9955 11.2H24.3421C22.7903 11.2864 21.4311 11.7058 20.2699 12.4565C19.1106 13.2072 18.3815 14.3593 18.0845 15.9129C18.0665 15.9831 18.0575 16.0426 18.0575 16.0966C18.0575 16.3414 18.2069 16.498 18.5021 16.57L21.5139 16.9373C21.7929 16.8851 21.9676 16.6834 22.0396 16.3342C22.1602 15.7761 22.4302 15.3387 22.8497 15.0236C23.2691 14.7068 23.7678 14.5268 24.3439 14.4728H24.5473C25.334 14.4728 25.91 14.7356 26.2755 15.2613C26.5185 15.6429 26.6445 16.3954 26.6445 17.5115V17.9562C25.5788 18.0426 24.8083 18.111 24.3402 18.165C22.9613 18.3396 21.8001 18.6277 20.8586 19.0291C19.8271 19.4666 19.017 20.1129 18.4229 20.968ZM22.5454 25.1715C22.2052 24.7574 22.036 24.2138 22.036 23.5333L22.0342 23.5351C22.0342 22.0337 22.8011 21.0652 24.3384 20.6295C24.8605 20.4909 25.6292 20.4189 26.6427 20.4189V21.0724C26.6427 21.6305 26.6391 22.0337 26.6301 22.2785C26.6211 22.5234 26.5689 22.842 26.4735 23.2327C26.3763 23.6251 26.2323 23.9869 26.0415 24.32C25.64 25.0707 25.0711 25.5405 24.3403 25.7332C24.3042 25.7332 24.2376 25.7422 24.1422 25.7602C24.045 25.7764 23.973 25.7836 23.919 25.7836C23.3429 25.7836 22.8875 25.5801 22.5454 25.1715Z" fill="#221F1F"/>
<path d="M33.0317 31.9656C33.0677 31.8936 33.1217 31.8252 33.1883 31.755C33.6258 31.4597 34.0453 31.2581 34.4485 31.1537C35.1092 30.9809 35.7555 30.8837 36.3837 30.8657C36.5584 30.8477 36.7258 30.8585 36.8806 30.8927C37.6673 30.9647 38.1408 31.0943 38.2956 31.2887C38.3676 31.3913 38.4 31.548 38.4 31.7568V31.9404C38.4 32.5525 38.2344 33.2726 37.9031 34.1007C37.5701 34.9288 37.1074 35.5985 36.517 36.1043C36.427 36.1763 36.3495 36.2087 36.2793 36.2087C36.2433 36.2087 36.2073 36.1997 36.1749 36.1835C36.0669 36.1295 36.0435 36.0341 36.0957 35.8955C36.7438 34.3761 37.0642 33.3212 37.0642 32.7271C37.0642 32.5345 37.0282 32.3941 36.9598 32.3076C36.7852 32.1006 36.2973 31.9944 35.4926 31.9944C35.1974 31.9944 34.8482 32.0124 34.4485 32.0484C34.0093 32.1024 33.6078 32.1528 33.2424 32.205C33.1343 32.205 33.0677 32.187 33.0317 32.151C32.9957 32.115 32.9885 32.0826 33.0065 32.0466C33.0065 32.0286 33.0137 32.0034 33.0317 31.9692V31.9656Z" fill="#FF9900"/>
<path d="M9.65401 31.521C9.74042 31.3806 9.87904 31.3716 10.0717 31.494C14.4354 34.0251 19.1844 35.2924 24.3168 35.2924C27.7373 35.2924 31.1163 34.6534 34.4521 33.3788L34.8302 33.2222C34.9958 33.1502 35.1128 33.0998 35.183 33.0656C35.4458 32.9612 35.6511 33.0116 35.8005 33.2222C35.9481 33.431 35.8995 33.6236 35.6565 33.7983C35.3414 34.0251 34.94 34.2879 34.4503 34.5832C32.9507 35.4743 31.2747 36.1638 29.4241 36.6534C27.5753 37.1395 25.7696 37.3861 24.0054 37.3861C21.2817 37.3861 18.7073 36.909 16.2824 35.9585C13.8521 35.008 11.6811 33.6668 9.76023 31.9386C9.65401 31.854 9.60001 31.764 9.60001 31.6776C9.60001 31.6236 9.61801 31.5732 9.65401 31.521V31.521Z" fill="#FF9900"/>
</svg>
