<svg width="48" height="48" viewBox="0 0 48 48" fill="none" xmlns="http://www.w3.org/2000/svg">
<path d="M24 48C37.2548 48 48 37.2548 48 24C48 10.7452 37.2548 0 24 0C10.7452 0 0 10.7452 0 24C0 37.2548 10.7452 48 24 48Z" fill="white"/>
<path fill-rule="evenodd" clip-rule="evenodd" d="M27.7564 12.6963L28.0613 12.248L28.3662 11.8061L29.0456 10.8127C29.1301 10.6901 29.0953 10.5257 28.9693 10.445C28.8451 10.3628 28.6744 10.3966 28.5932 10.5192L27.5559 12.0303L27.2444 12.4851C26.2585 12.1125 25.1599 11.9045 24 11.9045C22.8418 11.9045 21.7415 12.1125 20.7556 12.4851L20.4457 12.0303L20.1392 11.5836L19.4101 10.5192C19.3256 10.3966 19.1566 10.3644 19.0307 10.445C18.9064 10.5257 18.8716 10.6901 18.9544 10.8127L19.6338 11.8061L19.9387 12.248L20.2452 12.6963C17.9304 13.7462 16.3645 15.7347 16.3645 18.0102H31.6355C31.6355 15.7347 30.0696 13.7462 27.7564 12.6963ZM19.9089 15.0896C19.9089 15.5298 20.2751 15.8863 20.7274 15.8863C21.1798 15.8863 21.546 15.5298 21.546 15.0896C21.546 14.6493 21.1798 14.2945 20.7274 14.2945C20.2751 14.2945 19.9089 14.6493 19.9089 15.0896ZM26.454 15.0896C26.454 15.5298 26.8202 15.8863 27.2726 15.8863C27.7249 15.8863 28.0911 15.5298 28.0911 15.0896C28.0911 14.6493 27.7249 14.2945 27.2726 14.2945C26.8202 14.2945 26.454 14.6493 26.454 15.0896ZM16.3645 19.0713H16.4822H31.6355V30.7505C31.6355 31.6778 30.8633 32.4325 29.9089 32.4325H28.6611C28.7042 32.5728 28.7291 32.7196 28.7291 32.8744V36.2369C28.7291 37.1158 27.995 37.8286 27.0903 37.8286C26.1872 37.8286 25.4548 37.1158 25.4548 36.2369V32.8744C25.4548 32.7196 25.478 32.5728 25.5195 32.4325H22.4805C22.522 32.5728 22.5468 32.7196 22.5468 32.8744V36.2369C22.5468 37.1158 21.8128 37.8286 20.9097 37.8286C20.0066 37.8286 19.2726 37.1158 19.2726 36.2369V32.8744C19.2726 32.7196 19.2958 32.5728 19.3389 32.4325H18.0928C17.1384 32.4325 16.3645 31.6778 16.3645 30.7505V19.0713ZM13.6371 19.0713C12.7324 19.0713 12 19.7841 12 20.6631V27.4767C12 28.3556 12.7324 29.0684 13.6371 29.0684C14.5402 29.0684 15.2726 28.3556 15.2726 27.4767V20.6631C15.2726 19.7841 14.5402 19.0713 13.6371 19.0713ZM32.7274 20.6631C32.7274 19.7841 33.4598 19.0713 34.3645 19.0713C35.2676 19.0713 36 19.7841 36 20.6631V27.4767C36 28.3556 35.2676 29.0684 34.3645 29.0684C33.4598 29.0684 32.7274 28.3556 32.7274 27.4767V20.6631Z" fill="#A4C639"/>
</svg>
