<svg width="48" height="48" viewBox="0 0 48 48" fill="none" xmlns="http://www.w3.org/2000/svg">
<path d="M0 24C0 10.7452 10.7452 0 24 0C37.2548 0 48 10.7452 48 24C48 37.2548 37.2548 48 24 48C10.7452 48 0 37.2548 0 24Z" fill="white"/>
<path fill-rule="evenodd" clip-rule="evenodd" d="M29.2669 9.59998C29.5182 11.3066 28.8235 12.9785 27.9072 14.1614C26.9268 15.4303 25.2369 16.4116 23.5996 16.3604C23.3007 14.7265 24.066 13.043 24.9972 11.9113C26.0186 10.6623 27.7692 9.70406 29.2669 9.59998ZM34.1854 33.6216C35.0295 32.328 35.3448 31.6754 36 30.2149C31.2343 28.4026 30.4707 21.6273 35.1871 19.0269C33.7485 17.2228 31.727 16.177 29.8187 16.177C28.4437 16.177 27.5016 16.5358 26.6452 16.862C25.9315 17.1339 25.2772 17.383 24.4815 17.383C23.6216 17.383 22.8601 17.11 22.0628 16.8241C21.1866 16.51 20.2672 16.1803 19.1262 16.1803C16.9848 16.1803 14.7054 17.4888 13.2602 19.7257C11.2288 22.8763 11.5753 28.7991 14.8696 33.8446C16.0471 35.6504 17.6203 37.6792 19.678 37.6973C20.5318 37.7058 21.1 37.451 21.7148 37.1752C22.4186 36.8596 23.1834 36.5165 24.5078 36.5095C25.8399 36.5015 26.5927 36.8487 27.2871 37.169C27.8862 37.4453 28.4417 37.7016 29.2883 37.6924C31.3476 37.6759 33.0079 35.4273 34.1854 33.6216Z" fill="#0B0B0A"/>
</svg>
