<svg width="48" height="48" viewBox="0 0 48 48" fill="none" xmlns="http://www.w3.org/2000/svg">
<path d="M5.48461 47.8111C4.58636 47.5744 3.81127 47.2261 3.09641 46.7381C2.49295 46.3262 1.61095 45.4746 1.27553 44.9801C0.865866 44.3761 0.394977 43.3417 0.203068 42.6243C0.00732909 41.8926 0.00415663 41.6012 0.000644327 24.0368C-0.00284766 6.56112 0.00112562 6.17685 0.19298 5.42583C0.871462 2.76993 2.97247 0.749205 5.68219 0.14637C6.46129 -0.026959 41.2651 -0.0572744 42.1055 0.114648C44.3806 0.580063 46.169 1.94841 47.2039 4.01552C48.0267 5.65891 47.9531 3.85047 47.9908 23.3626C48.0148 35.7775 47.9927 40.9895 47.9136 41.6388C47.5431 44.6774 45.4508 47.0342 42.4403 47.8043C41.6702 48.0013 41.4023 48.0041 23.9175 47.9987C7.01181 47.9936 6.14355 47.9848 5.48461 47.8111Z" fill="#F06A35"/>
<path d="M30.7098 38.6226C32.8604 38.3292 34.5457 37.4672 36.1267 35.852C37.2704 34.6835 37.9863 33.4187 38.4542 31.7402C38.6486 31.0429 38.6649 30.7034 38.7005 26.6092C38.7274 23.519 38.705 22.0718 38.6245 21.7064C38.5079 21.1768 38.1773 20.685 37.8001 20.48C37.684 20.4169 36.9402 20.3365 36.1473 20.3013C34.8186 20.2423 34.6699 20.2164 34.2505 19.9706C33.5853 19.5807 33.4021 19.1598 33.4002 18.0168C33.3968 15.833 32.488 13.8055 30.6923 11.9756C29.413 10.672 27.9859 9.78962 26.3572 9.29519C25.9673 9.17682 25.0942 9.13654 22.1699 9.10198C17.5814 9.04776 16.5629 9.14182 15.0008 9.76402C12.1208 10.9111 10.0515 13.3287 9.29671 16.428C9.15494 17.0101 9.12742 17.9431 9.09393 23.3023C9.05198 30.0163 9.09826 31.0022 9.51778 32.3327C9.86439 33.432 10.2141 34.1057 10.9346 35.0618C12.307 36.8832 14.364 38.1987 16.4204 38.5702C17.3991 38.747 29.4732 38.7912 30.7098 38.6226Z" fill="white"/>
<path d="M18.02 20.1913C16.9206 19.8883 16.5097 18.3108 17.3178 17.495C17.8343 16.9736 17.9771 16.9537 21.2099 16.9537C24.1121 16.9537 24.2097 16.9601 24.636 17.1754C25.252 17.4866 25.5197 17.9254 25.5197 18.6241C25.5197 19.2551 25.2683 19.6973 24.7076 20.0526C24.4065 20.2434 24.2265 20.2553 21.383 20.272C19.6271 20.2823 18.2283 20.2487 18.02 20.1913V20.1913Z" fill="#F06A35"/>
<path d="M17.8823 30.8069C17.4103 30.6013 16.9708 30.0301 16.8949 29.5236C16.8225 29.0411 17.065 28.3778 17.4367 28.0414C17.9052 27.6174 18.1108 27.6033 23.8726 27.5987C29.7996 27.5941 29.7688 27.5916 30.3308 28.1164C31.1247 28.8575 30.9572 30.1771 30.0006 30.7189L29.0176 30.8788L23.8941 30.9388C19.3919 30.9915 18.1166 30.909 17.8823 30.8069V30.8069Z" fill="#F06A35"/>
</svg>
