<svg width="48" height="48" viewBox="0 0 48 48" fill="none" xmlns="http://www.w3.org/2000/svg">
<path d="M0 24C0 10.7452 10.7452 0 24 0C37.2548 0 48 10.7452 48 24C48 37.2548 37.2548 48 24 48C10.7452 48 0 37.2548 0 24Z" fill="white"/>
<path fill-rule="evenodd" clip-rule="evenodd" d="M23.6098 23.0096L13.1609 18.2205C12.9464 18.1221 12.9464 17.9612 13.1609 17.8628L23.6098 13.0738C23.8244 12.9754 24.1757 12.9754 24.3903 13.0738L34.8391 17.8628C35.0536 17.9612 35.0536 18.1221 34.8391 18.2205L24.3903 23.0096C24.1757 23.1079 23.8244 23.1079 23.6098 23.0096ZM34.8391 23.693L32.3364 22.5504C32.1218 22.4524 31.7706 22.4524 31.5559 22.5504L24.3903 25.8221C24.1757 25.9201 23.8244 25.9201 23.6098 25.8221L16.4441 22.5504C16.2294 22.4524 15.8782 22.4524 15.6636 22.5504L13.1609 23.693C12.9464 23.791 12.9464 23.9514 13.1609 24.0494L23.6098 28.8201C23.8244 28.9181 24.1757 28.9181 24.3903 28.8201L34.8391 24.0494C35.0536 23.9514 35.0536 23.791 34.8391 23.693ZM34.8391 29.7995L32.3364 28.6569C32.1218 28.5589 31.7706 28.5589 31.5559 28.6569L24.3903 31.9286C24.1757 32.0265 23.8244 32.0265 23.6098 31.9286L16.4441 28.6569C16.2294 28.5589 15.8782 28.5589 15.6636 28.6569L13.1609 29.7995C12.9464 29.8975 12.9464 30.0578 13.1609 30.1559L23.6098 34.9265C23.8244 35.0245 24.1757 35.0245 24.3903 34.9265L34.8391 30.1559C35.0536 30.0578 35.0536 29.8975 34.8391 29.7995Z" fill="black"/>
</svg>
