<svg width="48" height="48" viewBox="0 0 48 48" fill="none" xmlns="http://www.w3.org/2000/svg">
<path d="M24 48C37.2548 48 48 37.2548 48 24C48 10.7452 37.2548 0 24 0C10.7452 0 0 10.7452 0 24C0 37.2548 10.7452 48 24 48Z" fill="#0064DD"/>
<path fill-rule="evenodd" clip-rule="evenodd" d="M30.6732 13.3079L35.76 12.24V36.5021H30.8342V34.5448C29.321 36.0454 27.7756 36.6 25.7152 36.6C23.6225 36.6 21.8195 35.9149 20.3063 34.5448C18.3102 32.7506 17.28 30.4018 17.28 27.6616C17.28 25.1497 18.2459 22.8988 20.0488 21.1372C21.6586 19.5387 23.6225 18.7232 25.8117 18.7232C27.9044 18.7232 29.5142 19.4409 30.6732 20.9415V13.3079ZM22.3669 27.629C22.3669 30.0757 24.2342 31.9351 26.842 31.9351C29.0313 31.9351 30.8664 30.1083 30.8664 27.6942C30.8664 25.1823 29.0313 23.2903 26.6488 23.2903C24.2342 23.2903 22.3669 25.2802 22.3669 27.629Z" fill="#FFFFFE"/>
</svg>
