<svg width="48" height="48" viewBox="0 0 48 48" fill="none" xmlns="http://www.w3.org/2000/svg">
<path d="M24 48C37.2548 48 48 37.2548 48 24C48 10.7452 37.2548 0 24 0C10.7452 0 0 10.7452 0 24C0 37.2548 10.7452 48 24 48Z" fill="black"/>
<path fill-rule="evenodd" clip-rule="evenodd" d="M9.6 29.6H16.8V16H14.0308V19.9654H9.6V29.6ZM14.0304 27.3339H12.3692V22.2329H14.0304V27.3339Z" fill="white"/>
<path d="M18.4 29.6H21.6V20H18.4V29.6Z" fill="white"/>
<path fill-rule="evenodd" clip-rule="evenodd" d="M22.4 32.8H29.6V20H22.4V29.4603H26.8326V30.5735H22.4V32.8ZM26.8326 27.2352H25.1696V22.2265H26.8326V27.2352Z" fill="white"/>
<path d="M18.4 19.2H21.6V16H18.4V19.2Z" fill="white"/>
<path fill-rule="evenodd" clip-rule="evenodd" d="M31.2 32.8H38.4V20H31.2V29.4603H35.6319V30.5735H31.2V32.8ZM35.6319 27.2352H33.9685V22.2265H35.6319V27.2352Z" fill="white"/>
</svg>
