<svg width="48" height="48" viewBox="0 0 48 48" fill="none" xmlns="http://www.w3.org/2000/svg">
<path d="M0 24C0 10.7452 10.7452 0 24 0C37.2548 0 48 10.7452 48 24C48 37.2548 37.2548 48 24 48C10.7452 48 0 37.2548 0 24Z" fill="white"/>
<mask id="mask0" mask-type="alpha" maskUnits="userSpaceOnUse" x="0" y="0" width="48" height="48">
<path fill-rule="evenodd" clip-rule="evenodd" d="M0 24C0 10.7452 10.7452 0 24 0C37.2548 0 48 10.7452 48 24C48 37.2548 37.2548 48 24 48C10.7452 48 0 37.2548 0 24Z" fill="white"/>
</mask>
<g mask="url(#mask0)">
<path fill-rule="evenodd" clip-rule="evenodd" d="M20.8 24C20.8 23.1207 21.4327 22.4 22.2341 22.4C23.0355 22.4 23.6823 23.1207 23.6682 24C23.6682 24.8793 23.0355 25.6 22.2341 25.6C21.4468 25.6 20.8 24.8793 20.8 24ZM25.9318 24C25.9318 23.1207 26.5645 22.4 27.3659 22.4C28.1673 22.4 28.8 23.1207 28.8 24C28.8 24.8793 28.1673 25.6 27.3659 25.6C26.5786 25.6 25.9318 24.8793 25.9318 24Z" fill="#7289DA"/>
<path fill-rule="evenodd" clip-rule="evenodd" d="M14.9051 10.4H33.8949C35.4962 10.4 36.8 11.688 36.8 13.284V38.4L33.7531 35.74L32.0384 34.172L30.2245 32.506L30.9755 35.096H14.9051C13.3038 35.096 12 33.808 12 32.212V13.284C12 11.688 13.3038 10.4 14.9051 10.4ZM27.4894 27.55C27.9145 28.082 28.4247 28.684 28.4247 28.684C31.5566 28.586 32.7611 26.556 32.7611 26.556C32.7611 22.048 30.7205 18.394 30.7205 18.394C28.6798 16.882 26.7383 16.924 26.7383 16.924L26.5399 17.148C28.949 17.876 30.0686 18.926 30.0686 18.926C28.5947 18.128 27.1493 17.736 25.803 17.582C24.7826 17.47 23.8048 17.498 22.9403 17.61C22.8661 17.61 22.8027 17.6207 22.7312 17.6327C22.7208 17.6345 22.7102 17.6362 22.6994 17.638C22.2034 17.68 20.9989 17.862 19.4825 18.52C18.9582 18.758 18.6464 18.926 18.6464 18.926C18.6464 18.926 19.8226 17.82 22.3735 17.092L22.2318 16.924C22.2318 16.924 20.2903 16.882 18.2496 18.394C18.2496 18.394 16.2089 22.048 16.2089 26.556C16.2089 26.556 17.3993 28.586 20.5312 28.684C20.5312 28.684 21.0555 28.054 21.4807 27.522C19.6809 26.99 19.0007 25.87 19.0007 25.87C19.0007 25.87 19.1424 25.968 19.3975 26.108C19.4117 26.122 19.4258 26.136 19.4542 26.15C19.4754 26.164 19.4967 26.1745 19.5179 26.185C19.5392 26.1955 19.5605 26.206 19.5817 26.22C19.936 26.416 20.2903 26.57 20.6162 26.696C21.1973 26.92 21.8917 27.144 22.6994 27.298C23.7623 27.494 25.0094 27.564 26.3698 27.312C27.0359 27.2 27.7161 27.004 28.4247 26.71C28.9207 26.528 29.4734 26.262 30.0544 25.884C30.0544 25.884 29.3458 27.032 27.4894 27.55Z" fill="#7289DA"/>
</g>
</svg>
