<svg width="48" height="48" viewBox="0 0 48 48" fill="none" xmlns="http://www.w3.org/2000/svg">
<path d="M0 24C0 10.7452 10.7452 0 24 0C37.2548 0 48 10.7452 48 24C48 37.2548 37.2548 48 24 48C10.7452 48 0 37.2548 0 24Z" fill="#F26798"/>
<path fill-rule="evenodd" clip-rule="evenodd" d="M36.8 23.9822C36.8 24.8478 36.7119 25.7123 36.5388 26.5549C36.37 27.3775 36.12 28.1851 35.7925 28.9572C35.4725 29.7155 35.0756 30.4464 34.6118 31.1279C34.155 31.8051 33.6287 32.4405 33.0505 33.0196C32.4711 33.5963 31.8336 34.1212 31.1566 34.58C30.4729 35.0405 29.741 35.4369 28.9822 35.7583C28.209 36.0841 27.3996 36.3338 26.5777 36.5023C25.7339 36.6758 24.8663 36.7644 23.9994 36.7644C23.1319 36.7644 22.2644 36.6758 21.4218 36.5023C20.5987 36.3338 19.7892 36.0841 19.0167 35.7583C18.2579 35.4369 17.5254 35.0405 16.8416 34.58C16.1647 34.1212 15.5271 33.5963 14.949 33.0196C14.3702 32.4405 13.8439 31.8051 13.3864 31.1279C12.9251 30.4464 12.5276 29.7155 12.2063 28.9572C11.8788 28.1851 11.6282 27.3775 11.4588 26.5549C11.2875 25.7123 11.2 24.8478 11.2 23.9822C11.2 23.1159 11.2875 22.2496 11.4588 21.4089C11.6282 20.5862 11.8788 19.7774 12.2064 19.0066C12.5276 18.2477 12.9252 17.5162 13.3864 16.8346C13.844 16.1568 14.3703 15.5227 14.949 14.9429C15.5272 14.3661 16.1647 13.8425 16.8416 13.3844C17.5254 12.9219 18.258 12.5256 19.0167 12.2036C19.7893 11.8771 20.5987 11.6268 21.4219 11.4596C22.2644 11.2874 23.1319 11.2 23.9995 11.2C24.8664 11.2 25.7339 11.2874 26.5777 11.4596C27.3996 11.6269 28.209 11.8771 28.9822 12.2036C29.741 12.5256 30.4729 12.9219 31.1567 13.3844C31.8336 13.8425 32.4712 14.3661 33.0505 14.9429C33.6287 15.5227 34.155 16.1568 34.6119 16.8346C35.0756 17.5162 35.4725 18.2477 35.7925 19.0066C36.12 19.7774 36.37 20.5862 36.5388 21.4089C36.7119 22.2496 36.8 23.1159 36.8 23.9822ZM19.3354 14.109C16.2871 15.5465 14.012 18.3513 13.3026 21.7316L13.3131 21.7317C13.6867 21.7351 18.2012 21.7769 23.3944 20.399C21.5024 17.0424 19.4811 14.3032 19.3354 14.109ZM13.077 23.634C13.2707 23.6414 18.6716 23.7625 24.3 22.0799C24.6132 22.6928 24.9126 23.3144 25.187 23.9348C25.0432 23.976 24.8982 24.0184 24.7557 24.0659C18.8567 25.9707 15.8652 31.2702 15.869 31.2758C14.1276 29.3428 13.0682 26.7864 13.0682 23.9822C13.0682 23.9013 13.0709 23.8221 13.0736 23.7423L13.0736 23.7423L13.0736 23.7423L13.0736 23.7422L13.0736 23.7422L13.0736 23.7422C13.0748 23.7063 13.076 23.6703 13.077 23.634ZM31.2186 15.7898C29.2941 14.0953 26.7671 13.0674 23.9994 13.0674C23.1113 13.0674 22.2493 13.1748 21.4237 13.3732L21.4414 13.397L21.4414 13.397L21.4415 13.397L21.4415 13.397C21.7004 13.7434 23.6922 16.4073 25.5101 19.7406C29.601 18.2091 31.166 15.8684 31.2176 15.7913L31.2186 15.7898ZM25.9055 25.752L25.932 25.7435C27.4702 29.7354 28.1052 33.0783 28.2671 34.032C26.9552 34.5892 25.5132 34.897 23.9994 34.897C21.4643 34.897 19.1367 34.0276 17.2809 32.5865C17.3037 32.5371 19.4099 28.0124 25.8595 25.7672C25.8747 25.7617 25.89 25.7568 25.9055 25.752ZM30.1079 33.0346C32.5624 31.3807 34.3056 28.7543 34.7918 25.7122C34.5668 25.6398 31.5085 24.673 27.9802 25.2379C29.414 29.1725 29.9966 32.3768 30.1079 33.0346ZM27.0777 22.9499C26.8509 22.4174 26.6052 21.8876 26.3515 21.3671C30.6396 19.6183 32.3979 17.1098 32.4406 17.049L32.4412 17.0481C33.9749 18.9073 34.9019 21.2822 34.9269 23.8698C34.9239 23.8692 34.9195 23.8683 34.9139 23.8671C34.627 23.8074 30.9973 23.0525 27.314 23.5153C27.2371 23.3281 27.1584 23.1409 27.0777 22.9499Z" fill="white"/>
</svg>
