<svg width="48" height="48" viewBox="0 0 48 48" fill="none" xmlns="http://www.w3.org/2000/svg">
<path d="M26.3154 15.9741C25.5139 15.1726 24.6635 14.3132 23.9087 13.4561C23.203 14.2575 22.4572 14.9878 21.7113 15.7336C21.531 15.9117 21.3841 16.121 21.2772 16.3503C21.1124 16.711 21.059 17.1139 21.1258 17.5058C21.1258 17.5459 21.1258 17.5859 21.1258 17.626C21.1948 17.842 21.2972 18.0446 21.4308 18.2271C21.4531 18.2583 21.4709 18.2894 21.4865 18.3228C21.9763 18.9329 23.1384 20.0549 23.7885 20.6805L27.6401 24.6924L28.7956 25.9125C29.7484 26.901 30.6078 27.9741 31.3625 29.1206V29.1206C31.4538 29.2787 31.5985 29.3945 31.7722 29.4501H31.8523C32.0393 29.4189 32.193 29.2854 32.2531 29.105V29.105C32.5024 28.2991 32.6293 27.462 32.6293 26.6182C32.6071 24.6657 31.9881 22.7689 30.8572 21.1792C29.5236 19.3158 28.0097 17.5904 26.3332 16.0297L26.3154 15.9741Z" fill="white"/>
<path d="M27.3908 28.8913C26.4357 27.7269 25.5139 26.6605 24.0624 25.1132C22.8357 26.518 21.7113 27.6 20.7807 28.6998C19.1421 30.4742 19.2512 33.2393 21.0256 34.8779C22.8 36.5165 25.5652 36.4074 27.2037 34.633C28.5952 33.128 28.7533 30.8571 27.5844 29.1718C27.5266 29.0716 27.462 28.9781 27.3908 28.8913Z" fill="white"/>
<path d="M21.7269 23.2096C21.8338 23.0872 21.8338 22.9068 21.7269 22.7844L18.895 19.8879L18.285 19.3113C17.7952 19.8812 17.3366 20.4779 16.9136 21.1013C16.2278 22.0898 15.718 23.1896 15.4063 24.3495V24.3495C15.0657 25.6853 15.0969 27.0901 15.5021 28.4081L15.5577 28.5283C15.629 28.6708 15.7091 28.8066 15.7982 28.938V28.938C15.7982 28.938 16.1277 29.4679 16.4149 29.4924H16.5195C16.6175 29.4701 16.6976 29.4011 16.7355 29.3076C17.0026 28.7465 17.3366 28.2233 17.7306 27.7424L18.7659 26.4823V26.4823L21.7269 23.2096Z" fill="white"/>
<path fill-rule="evenodd" clip-rule="evenodd" d="M0.00891252 23.9956C0.0133652 10.7443 10.7599 0.00445983 24.0134 0.00891252C37.2623 0.0133652 48 10.7555 48 24.0045V24.0134C47.9956 37.2646 37.249 48.0045 23.9956 48C10.7443 47.9956 0.00445983 37.2468 0.00891252 23.9956ZM11.2475 26.5803C11.2564 33.5533 16.9024 39.2059 23.8753 39.2238C30.8616 39.2238 36.5277 33.5644 36.5343 26.5803C36.5343 20.6516 32.5892 16.7065 29.0983 13.2156L29.0566 13.1738C26.7453 10.8626 24.5438 8.66114 23.8909 6.18034C23.2343 8.66483 21.0261 10.873 18.7087 13.1904L18.6835 13.2156L18.6502 13.249C15.1785 16.7295 11.2475 20.6705 11.2475 26.5803Z" fill="white"/>
</svg>
