<svg width="48" height="48" viewBox="0 0 48 48" fill="none" xmlns="http://www.w3.org/2000/svg">
<path fill-rule="evenodd" clip-rule="evenodd" d="M40.6083 0H6.75643C4.01261 0 3 1.01261 3 3.75771V36.8815C3 37.1922 3.01253 37.4807 3.03997 37.7481C3.10244 38.3473 3.1142 38.9279 3.67147 39.589C3.72592 39.6537 4.29487 40.0771 4.29487 40.0771C4.6009 40.2272 4.80987 40.3377 5.15502 40.4767L21.8242 47.4604C22.6895 47.8572 23.0514 48.0118 23.6799 47.9993V47.9994C23.6807 47.9994 23.6815 47.9994 23.6823 47.9994C23.6832 47.9994 23.684 47.9994 23.6848 47.9994V47.9993C24.3133 48.0118 24.6752 47.8572 25.5406 47.4604L42.2097 40.4767C42.5549 40.3377 42.7638 40.2272 43.0699 40.0771C43.0699 40.0771 43.6389 39.6537 43.6932 39.589C44.2505 38.9279 44.2623 38.3473 44.3247 37.7481C44.3522 37.4807 44.3648 37.1922 44.3648 36.8815V3.75771C44.3648 1.01261 43.3521 0 40.6083 0Z" fill="#2F2D2E"/>
<path fill-rule="evenodd" clip-rule="evenodd" d="M14.2876 34.165L14.3487 34.1192L14.4017 34.0734V33.997V33.9206V33.8442V33.7754V33.699V33.6227V33.5462V33.4698V33.3934V33.3246V33.2483V33.1718V33.0955V33.019V32.9426V32.8661V32.7975V32.721V32.6446V32.5682V32.4918V32.4154V32.339V32.2703V32.1938V32.1174V32.041V31.9646V31.8882V31.8194V31.743V31.6666V31.5907H14.3257H14.2498H14.1734H14.0975H14.0215H13.9455H13.8691H13.7931H13.7172H13.6412H13.5648H13.4889H13.413H13.3369H13.2606H13.1847H13.1087H13.0327H12.9563H12.8803H12.8044H12.7285H12.6521H12.5761H12.5001H12.4242H12.3478H12.2718H12.1958H12.12H12.044H11.9676H11.8916V31.6666V31.7354V31.8119V31.8882V31.9646V32.0334V32.1098V32.1862V32.2626V32.3314V32.4078V32.4842V32.5606V32.6294V32.7058H11.9676H12.0363H12.1123H12.1882H12.2643H12.3329H12.4089H12.4848H12.5608H12.6296H12.7055H12.7815H12.8575H12.9262H13.0022V32.7822V32.8586V32.935V33.0114V33.0955V33.1718V33.2483V33.3246V33.401L12.9414 33.4393L12.888 33.4698L12.8197 33.5004L12.7586 33.531L12.6902 33.5615L12.6219 33.5768L12.546 33.5997L12.4696 33.6149L12.3936 33.6302L12.3177 33.6379L12.2341 33.6455L12.15 33.6532H12.0588H11.9752L11.8916 33.6455L11.8156 33.6379L11.7397 33.6227L11.6633 33.6073L11.5873 33.5844L11.5113 33.5615L11.4426 33.531L11.3744 33.5004L11.3059 33.4698L11.2448 33.4316L11.1842 33.3934L11.1236 33.3476L11.0624 33.3017L11.0094 33.2559L10.9635 33.2024L10.9105 33.1489L10.8646 33.0955L10.8192 33.0343L10.781 32.9732L10.7429 32.9121L10.7051 32.8433L10.6746 32.7744L10.644 32.6981L10.6215 32.637L10.5986 32.5682L10.5833 32.4995L10.568 32.4307L10.5527 32.362L10.5451 32.2855L10.5375 32.2167L10.5303 32.1404V32.0639V32.0487V31.9646L10.5375 31.8882L10.5451 31.8119L10.5604 31.7277L10.5757 31.6591L10.5909 31.583L10.6138 31.5067L10.644 31.4379L10.6669 31.3691L10.6974 31.3004L10.7357 31.2392L10.7734 31.1705L10.8116 31.1094L10.8494 31.0558L10.8952 30.9947L10.9482 30.9412L10.9941 30.8878L11.0471 30.8419L11.1006 30.7961L11.1536 30.7503L11.2148 30.7121L11.2754 30.6738L11.3365 30.6356L11.4049 30.6051L11.4732 30.5745L11.5415 30.5516L11.6103 30.5287L11.6786 30.5134L11.7545 30.4982L11.8233 30.4905L11.8992 30.4829H11.9752H12.0588L12.1428 30.4905L12.2264 30.4982L12.3024 30.5057L12.3784 30.521L12.4543 30.5363L12.5231 30.5516L12.5913 30.5745L12.6597 30.5974L12.7208 30.6204L12.7815 30.651L12.8426 30.6815L12.9108 30.7197L12.9716 30.7578L13.0327 30.7961L13.0934 30.8343L13.1541 30.8801L13.2152 30.9184L13.2758 30.9718L13.3369 31.0177L13.3824 30.9566L13.4358 30.903L13.4813 30.8419L13.5347 30.7808L13.5801 30.7197L13.6259 30.6662L13.679 30.6051L13.7248 30.544L13.7779 30.4829L13.8237 30.4293L13.8691 30.3682L13.9226 30.3071L13.968 30.2537L14.0139 30.1925L14.0669 30.1314L14.1127 30.0703L14.1657 30.0168L14.2116 29.9556L14.1509 29.9098L14.0898 29.8563L14.0291 29.8105L13.968 29.7646L13.9073 29.7264L13.8467 29.6806L13.7779 29.6424L13.7172 29.6042L13.6489 29.566L13.5878 29.5278L13.5195 29.4972L13.4511 29.459L13.3824 29.4284L13.3141 29.3978L13.2458 29.3673L13.177 29.3444L13.1163 29.3215L13.048 29.3062L12.9793 29.2833L12.9108 29.268L12.8426 29.2527L12.7739 29.2375L12.6979 29.2222L12.6219 29.2069L12.5532 29.1993L12.4696 29.1839L12.3936 29.1764H12.3177L12.2341 29.1687L12.15 29.161H12.0664H11.9828H11.9069H11.8233L11.7469 29.1687L11.6708 29.1764L11.595 29.1839L11.519 29.1916L11.4426 29.2069L11.3666 29.2145L11.2907 29.2298L11.2223 29.2527L11.146 29.268L11.0777 29.2909L11.0094 29.3062L10.9406 29.3367L10.8646 29.3598L10.804 29.3826L10.728 29.4209L10.6593 29.4514L10.5909 29.482L10.5227 29.5201L10.4539 29.5583L10.3855 29.5966L10.3249 29.6348L10.2637 29.6729L10.2031 29.7188L10.142 29.757L10.0813 29.8028L10.0282 29.8487L9.96708 29.9022L9.91408 29.948L9.86064 30.0016L9.80755 30.0549L9.7617 30.1084L9.70869 30.1619L9.66284 30.2155L9.61742 30.2766L9.57157 30.3377L9.52623 30.3988L9.48796 30.4599L9.44987 30.521L9.41203 30.5822L9.37385 30.6433L9.33567 30.7121L9.30559 30.7808L9.27499 30.8496L9.24448 30.9184L9.21432 30.9871L9.18372 31.0635L9.1608 31.1323L9.13787 31.2087L9.11546 31.2774L9.10012 31.3539L9.07719 31.4302L9.06194 31.499L9.05435 31.5754L9.0391 31.6514L9.03134 31.7354L9.02419 31.8119V31.8882L9.0166 31.9722V32.0487V32.0639V32.1404V32.2244L9.02419 32.3008L9.03134 32.3772L9.0391 32.4537L9.0466 32.5224L9.06194 32.5988L9.06961 32.6676L9.08486 32.7439L9.10779 32.8128L9.12304 32.8892L9.14554 32.9578L9.1608 33.0266L9.19139 33.0955L9.21432 33.1566L9.24448 33.2253L9.27499 33.294L9.30559 33.3628L9.33567 33.4316L9.37385 33.4927L9.41203 33.5615L9.44987 33.6227L9.48796 33.6837L9.53339 33.7449L9.57157 33.806L9.61742 33.8595L9.66284 33.9206L9.70869 33.974L9.7617 34.0276L9.81522 34.0811L9.86823 34.1268L9.92175 34.1804L9.97475 34.2262L10.0282 34.2721L10.089 34.3179L10.1496 34.3637L10.2107 34.4096L10.2714 34.4477L10.3325 34.486L10.4009 34.5241L10.4615 34.562L10.5303 34.6002L10.5986 34.6308L10.6669 34.6613L10.7357 34.6918L10.8116 34.7224L10.8799 34.7453L10.9482 34.7758L11.017 34.7988L11.093 34.8141L11.1613 34.837L11.2377 34.8523L11.3059 34.8675L11.3819 34.8828L11.4579 34.8981L11.5343 34.9058L11.6103 34.9134L11.6862 34.921L11.7698 34.9287L11.8457 34.9363H11.9222H12.0057H12.0894H12.173L12.2565 34.9287L12.3329 34.921L12.4165 34.9134L12.4925 34.9058L12.5761 34.8981L12.6521 34.8904L12.7285 34.8752L12.8044 34.8599L12.8727 34.8447L12.9492 34.8294L13.0174 34.8064L13.0934 34.7836L13.1617 34.7606L13.2304 34.7376L13.2989 34.7147L13.3671 34.6841L13.4436 34.6536L13.5118 34.623L13.5878 34.5925L13.6561 34.5542L13.7248 34.5241L13.7931 34.486L13.8615 34.4477L13.9303 34.4096L13.9909 34.3713L14.052 34.3332L14.1127 34.2873L14.1734 34.2491L14.2345 34.2033L14.2876 34.165ZM38.3337 33.3782L38.3413 33.3017L38.349 33.2177V33.1336V33.1183V33.0343L38.3413 32.9503L38.3337 32.8739L38.3184 32.7975L38.3032 32.721L38.2879 32.6522L38.2654 32.5835L38.2425 32.5148L38.212 32.4537L38.1737 32.3848L38.136 32.3237L38.0901 32.255L38.0447 32.1938L37.9913 32.1404L37.9382 32.0792L37.8771 32.0258L37.8165 31.9722L37.7557 31.9341L37.6946 31.8882L37.634 31.85L37.5657 31.8119L37.4969 31.7736L37.4209 31.7354L37.3449 31.7049L37.269 31.6666L37.185 31.6366L37.1167 31.6136L37.0484 31.5907L36.9719 31.5678L36.9036 31.5449L36.8277 31.5219L36.7517 31.499L36.6752 31.4838L36.5916 31.4608L36.5157 31.4379L36.4322 31.4226L36.3486 31.3996L36.265 31.3768L36.1809 31.3539L36.1049 31.3385L36.0367 31.3156L35.9679 31.3004L35.9072 31.2774L35.8465 31.2622L35.7553 31.2317L35.6712 31.2011L35.5953 31.1705L35.5346 31.1323L35.4659 31.0941L35.4128 31.0406L35.3823 30.9947L35.3446 30.9107L35.3368 30.8114V30.7961L35.3446 30.7197L35.3746 30.651L35.4204 30.5822L35.4888 30.521L35.5423 30.4905L35.603 30.4599L35.6712 30.4446L35.7477 30.4293L35.8313 30.414H35.9225H35.9985L36.0668 30.4217L36.1432 30.4293L36.2191 30.437L36.2951 30.4523L36.371 30.4676L36.4474 30.4829L36.5234 30.5057L36.5993 30.5287L36.683 30.5516L36.7441 30.5822L36.8124 30.6051L36.873 30.6356L36.9418 30.6662L37.0025 30.6967L37.0708 30.7273L37.132 30.7656L37.2002 30.7961L37.2613 30.8419L37.3221 30.8801L37.3903 30.9184L37.4515 30.9641L37.4969 30.903L37.5351 30.8419L37.5804 30.7808L37.6263 30.7197L37.6717 30.651L37.7099 30.5899L37.7557 30.5287L37.8012 30.4676L37.8393 30.4065L37.8847 30.3453L37.9306 30.2842L37.9688 30.2231L38.0142 30.1544L38.06 30.0932L38.1054 30.0321L38.1436 29.971L38.189 29.9098L38.1284 29.864L38.0677 29.8182L38.0066 29.7722L37.9458 29.7341L37.8771 29.6883L37.8165 29.65L37.7481 29.6118L37.6793 29.5737L37.6187 29.5431L37.5503 29.5049L37.474 29.4743L37.4056 29.4437L37.3373 29.4132L37.269 29.3903L37.1926 29.3598L37.1243 29.3444L37.0559 29.3215L36.9796 29.2986L36.9112 29.2833L36.8353 29.268L36.7594 29.2527L36.6906 29.2375L36.6146 29.2222L36.531 29.2145L36.455 29.1993L36.371 29.1916H36.2951L36.2115 29.1839L36.1279 29.1764H36.0443H35.9607H35.8766H35.8007L35.7248 29.1839L35.6488 29.1916L35.5724 29.1993L35.4965 29.2069L35.4281 29.2222L35.3522 29.2375L35.2835 29.2527L35.215 29.268L35.1544 29.2833L35.0856 29.3062L35.0097 29.3367L34.9337 29.3598L34.865 29.3903L34.7967 29.4284L34.7283 29.459L34.6596 29.4972L34.599 29.5354L34.5382 29.5812L34.4771 29.6271L34.4241 29.6653L34.363 29.7188L34.3099 29.78L34.2565 29.8334L34.2035 29.8945L34.1575 29.9556L34.1121 30.0168L34.074 30.0855L34.0362 30.1544L34.0057 30.2231L33.9751 30.2918L33.945 30.3606L33.9297 30.4293L33.9068 30.4982L33.8915 30.5669L33.8762 30.6356L33.8685 30.7121L33.861 30.7808L33.8533 30.8572V30.9336V30.9489V31.033L33.861 31.117L33.8685 31.1934L33.8762 31.2698L33.8915 31.3385L33.9068 31.415L33.9297 31.4761L33.9521 31.5449L33.9751 31.606L34.0057 31.6591L34.0438 31.7277L34.0816 31.7889L34.1199 31.8424L34.1652 31.8958L34.211 31.9493L34.2641 32.0028L34.3176 32.0563L34.3706 32.1022L34.4317 32.1404L34.4924 32.1862L34.5607 32.2244L34.6218 32.2626L34.6978 32.3008L34.7661 32.339L34.8425 32.3696L34.9185 32.4001L34.9944 32.4307L35.078 32.4613L35.1468 32.4842L35.215 32.5071L35.2835 32.53L35.3593 32.5454L35.4281 32.5682L35.5041 32.5911L35.58 32.6065L35.6564 32.6294L35.7323 32.6446L35.816 32.6676L35.892 32.6828L35.9755 32.7058L36.0519 32.721L36.1279 32.7439L36.1962 32.7592L36.265 32.7822L36.3256 32.7975L36.3787 32.8128L36.4699 32.8509L36.5463 32.8815L36.6146 32.9121L36.6752 32.9426L36.7364 32.9884L36.7894 33.0343L36.8277 33.0877L36.8583 33.1642L36.8658 33.2559V33.2711L36.8583 33.3476L36.8353 33.4163L36.8047 33.4774L36.7594 33.531L36.6983 33.5768L36.6452 33.6073L36.5841 33.6302L36.5157 33.6455L36.4474 33.6608L36.371 33.6761L36.2874 33.6837H36.1962H36.1202L36.0367 33.6761H35.9607L35.8843 33.6608L35.8007 33.6532L35.7248 33.6379L35.6488 33.6227L35.5724 33.6073L35.5041 33.5844L35.4281 33.5615L35.3522 33.5385L35.2835 33.508L35.215 33.4851L35.1468 33.4545L35.078 33.424L35.0097 33.3934L34.9491 33.3551L34.8802 33.3246L34.8196 33.2864L34.7513 33.2406L34.6902 33.2024L34.6218 33.1566L34.5607 33.1107L34.4924 33.0649L34.4317 33.019L34.3858 33.0801L34.3328 33.1336L34.287 33.1948L34.234 33.2559L34.1881 33.3093L34.1427 33.3705L34.0893 33.4316L34.0438 33.4851L33.9903 33.5462L33.945 33.5997L33.8915 33.6608L33.8461 33.7219L33.8003 33.7754L33.7472 33.8365L33.7013 33.8977L33.6483 33.9512L33.6025 34.0123L33.6631 34.0657L33.7166 34.1116L33.7773 34.1574L33.8385 34.2033L33.8991 34.2491L33.9598 34.295L34.0209 34.3332L34.0816 34.3713L34.1504 34.4096L34.211 34.4477L34.2794 34.486L34.3481 34.5166L34.4164 34.5542L34.4848 34.5848L34.5535 34.6154L34.6295 34.646L34.6978 34.6689L34.7738 34.6918L34.8425 34.7224L34.9185 34.7453L34.9944 34.7682L35.0628 34.7836L35.1391 34.8064L35.215 34.8217L35.291 34.837L35.367 34.8523L35.4434 34.8675L35.5194 34.8752L35.5953 34.8904L35.6789 34.8981L35.7553 34.9058L35.8313 34.9134H35.9148L35.9908 34.921H36.0668H36.1508H36.2344H36.3103L36.3863 34.9134L36.4699 34.9058L36.5463 34.8981L36.6146 34.8904L36.6906 34.8828L36.767 34.8675L36.8353 34.8523L36.9036 34.837L36.9796 34.8217L37.0484 34.7988L37.1243 34.7758L37.2002 34.753L37.2762 34.7224L37.3526 34.6918L37.4209 34.6536L37.4892 34.623L37.558 34.5848L37.6187 34.539L37.6793 34.5013L37.7404 34.4555L37.7935 34.4096L37.8546 34.3561L37.9 34.3102L37.9535 34.2567L37.9988 34.2033L38.0371 34.1422L38.0825 34.0811L38.1207 34.0199L38.1589 33.9588L38.189 33.8901L38.2196 33.8289L38.2501 33.7601L38.2731 33.6837L38.2879 33.6149L38.3107 33.5385L38.3261 33.4621L38.3337 33.3782ZM32.9306 34.8294H33.0069H33.083V34.753V34.6841V34.6077V34.5314V34.4555V34.3866V34.3102V34.2339V34.165V34.0887V34.0123V33.9435V33.8671V33.7907V33.7143V33.6455V33.5691H33.0069H32.9306H32.8546H32.7787H32.7028H32.6263H32.5503H32.4745H32.3985H32.3144H32.2385H32.1626H32.0866H32.0101H31.9342H31.8582H31.7823H31.7059H31.6299H31.554H31.4781H31.402H31.3257H31.2497H31.1738H31.0978H31.0213H30.9454H30.8695H30.7859H30.7095H30.6335H30.5576H30.4816H30.4053H30.3293H30.2533H30.1773H30.1009V33.4927V33.4087V33.3322V33.2559V33.1718V33.0955V33.019V32.935V32.8586V32.7822V32.6981V32.6217H30.1773H30.2533H30.3293H30.4053H30.4816H30.5576H30.6335H30.7095H30.7783H30.8542H30.9302H31.0061H31.0825H31.1585H31.2345H31.3103H31.3868H31.4627H31.5387H31.6147H31.691H31.767H31.843H31.919H31.9954H32.0713H32.1396H32.2156H32.2919H32.3679H32.4439H32.5198H32.5962H32.6722H32.7481V32.5454V32.4765V32.4001V32.3237V32.255V32.1786V32.1022V32.0258V31.957V31.8805V31.8042V31.7354V31.6591V31.583V31.5143V31.4379H32.6722H32.5962H32.5198H32.4439H32.3679H32.2919H32.2156H32.1396H32.0713H31.9954H31.919H31.843H31.767H31.691H31.6147H31.5387H31.4627H31.3868H31.3103H31.2345H31.1585H31.0825H31.0061H30.9302H30.8542H30.7783H30.7095H30.6335H30.5576H30.4816H30.4053H30.3293H30.2533H30.1773H30.1009V31.3615V31.2851V31.2087V31.1323V31.0558V30.9795V30.9107V30.8343V30.7578V30.6815V30.6051V30.5287H30.1773H30.2533H30.3293H30.4053H30.4816H30.5576H30.6258H30.7018H30.7783H30.8542H30.9302H31.0061H31.0825H31.1585H31.2345H31.3103H31.3868H31.4627H31.5387H31.607H31.6834H31.7594H31.8353H31.9112H31.9877H32.0636H32.1396H32.2156H32.2919H32.3679H32.4439H32.5198H32.5886H32.6645H32.7404H32.8165H32.8928H32.9688H33.0448V30.4523V30.3835V30.3071V30.2307V30.1544V30.0855V30.0091V29.9327V29.864V29.7876V29.7111V29.6424V29.566V29.4895V29.4132V29.3444V29.268H32.9688H32.8928H32.8165H32.7404H32.6645H32.5886H32.5121H32.4362H32.3603H32.2843H32.208H32.132H32.056H31.9801H31.9112H31.8353H31.7594H31.6834H31.607H31.5311H31.4551H31.3792H31.3027H31.2267H31.1508H31.0749H30.9989H30.9225H30.8466H30.7706H30.6947H30.6182H30.5422H30.4663H30.3904H30.314H30.238H30.162H30.0861H30.0098H29.9337H29.8578H29.7818H29.7131H29.6371H29.5612H29.4852H29.4089H29.3328H29.2569H29.181H29.1045H29.0286H28.9526H28.8767H28.8004H28.7243H28.6484V29.3444V29.4209V29.4972V29.5737V29.65V29.7264V29.8028V29.8793V29.9556V30.0321V30.1084V30.1849V30.2612V30.3377V30.414V30.4905V30.5669V30.6433V30.7121V30.7884V30.8649V30.9412V31.0177V31.0941V31.1705V31.2469V31.3233V31.3996V31.4761V31.5525V31.6289V31.7049V31.7813V31.8577V31.9341V32.0104V32.0869V32.1632V32.2397V32.3161V32.3925V32.4689V32.5454V32.6217V32.6981V32.7744V32.8509V32.9273V33.0037V33.0801V33.1566V33.2329V33.3093V33.3857V33.4545V33.531V33.6073V33.6837V33.7601V33.8365V33.9129V33.9894V34.0657V34.1422V34.2186V34.295V34.3713V34.4477V34.5241V34.6002V34.6765V34.753V34.8294H28.7243H28.8004H28.8767H28.9526H29.0286H29.1045H29.181H29.2569H29.3328H29.4164H29.4925H29.5688H29.6447H29.7208H29.7966H29.8731H29.9491H30.025H30.1009H30.1773H30.2533H30.3293H30.4053H30.4816H30.5576H30.6335H30.7095H30.7859H30.8695H30.9454H31.0213H31.0978H31.1738H31.2497H31.3257H31.402H31.4781H31.554H31.6299H31.7059H31.7823H31.8582H31.9342H32.0101H32.0866H32.1626H32.2385H32.3144H32.3985H32.4745H32.5503H32.6263H32.7028H32.7787H32.8546H32.9306ZM27.4493 34.8294H27.3733H27.2973H27.2134H27.1374H27.0614H26.9855H26.909H26.8331H26.7495H26.6736H26.5975H26.5212H26.4452H26.3693H26.2857H26.2093H26.1333H26.0573V34.753V34.6765V34.6002V34.5237V34.4468V34.3705V34.294V34.2176V34.1412V34.0649V33.9884V33.9117V33.8352V33.7588V33.6824V33.606V33.5291V33.4526V33.3763V33.2999V33.2235V33.1471V33.0703V32.9939V32.9174V32.841V32.7646V32.6882V32.6113V32.5349V32.4585V32.3822V32.3058V32.2294V32.1525V32.0761V31.9997V31.9233V31.8469V31.77V31.6937V31.6172V31.5408L26.0192 31.6019L25.9738 31.6712L25.9355 31.7323L25.8902 31.7934L25.852 31.8621L25.8061 31.9233L25.7684 31.9844L25.7301 32.0536L25.6848 32.1147L25.6465 32.1758L25.6008 32.237L25.563 32.3062L25.5172 32.3673L25.4794 32.4284L25.4412 32.4972L25.3953 32.5587L25.3576 32.6199L25.3117 32.6886L25.274 32.7498L25.2282 32.8109L25.1904 32.8801L25.1522 32.9413L25.1064 33.0024L25.0686 33.0712L25.0228 33.1327L24.985 33.1938L24.9392 33.255L24.9009 33.3237L24.8632 33.3852L24.8174 33.4464L24.7797 33.5152L24.7338 33.5763L24.6956 33.6374L24.6502 33.7067L24.612 33.7678H24.5819L24.5361 33.699L24.4978 33.6374L24.4524 33.5686L24.4142 33.5075L24.3688 33.4388L24.3306 33.3772L24.2853 33.3084L24.247 33.2473L24.2012 33.1786L24.1634 33.1175L24.1176 33.0482L24.0799 32.9871L24.0341 32.9183L23.9958 32.8572L23.9504 32.788L23.9122 32.7269L23.8668 32.6581L23.821 32.597L23.7828 32.5278L23.7374 32.4667L23.6992 32.3979L23.6538 32.3368L23.6156 32.2675L23.5702 32.2064L23.532 32.1377L23.4862 32.0766L23.4484 32.0078L23.4026 31.9462L23.3648 31.8775L23.319 31.8163L23.2808 31.7475L23.2354 31.6865L23.1971 31.6172L23.1517 31.5561V31.6325V31.7089V31.7854V31.8621V31.9386V32.0149V32.0914V32.1678V32.2446V32.3211V32.3898V32.4662V32.5426V32.619V32.6959V32.7723V32.8487V32.925V33.0015V33.0779V33.1547V33.2312V33.3076V33.384V33.4604V33.5368V33.6136V33.69V33.7664V33.8428V33.9192V33.996V34.0649V34.1412V34.2176V34.294V34.3705V34.4468V34.5237V34.6002V34.6765V34.753V34.8294H23.0758H22.9995H22.9234H22.8475H22.7716H22.6952H22.6192H22.5433H22.4672H22.3909H22.3149H22.2389H22.163H22.0866H22.0107H21.9347H21.8587H21.7823H21.7064V34.753V34.6765V34.6002V34.5241V34.4477V34.3713V34.295V34.2186V34.1422V34.0657V33.9894V33.9129V33.8365V33.7601V33.6837V33.6073V33.531V33.4545V33.3857V33.3093V33.2329V33.1566V33.0801V33.0037V32.9273V32.8509V32.7744V32.6981V32.6217V32.5454V32.4689V32.3925V32.3161V32.2397V32.1632V32.0869V32.0104V31.9341V31.8577V31.7813V31.7049V31.6289V31.5525V31.4761V31.3996V31.3233V31.2469V31.1705V31.0941V31.0177V30.9412V30.8649V30.7884V30.7121V30.6433V30.5669V30.4905V30.414V30.3377V30.2612V30.1849V30.1084V30.0321V29.9556V29.8793V29.8028V29.7264V29.65V29.5737V29.4972V29.4209V29.3444V29.268H21.7823H21.8587H21.9271H22.0029H22.079H22.1553H22.2237H22.2996H22.3761H22.452H22.5203H22.5963H22.6727H22.7486H22.8169H22.8928H22.9693H23.0453H23.1136H23.1895H23.2659L23.3037 29.3292L23.3419 29.3978L23.3872 29.4585L23.4255 29.5273L23.4637 29.5884L23.5014 29.6573L23.5396 29.7179L23.5851 29.7867L23.6232 29.8478L23.6615 29.9089L23.6992 29.9772L23.7374 30.0384L23.7828 30.1071L23.821 30.1683L23.8592 30.2365L23.8969 30.2976L23.9428 30.3587L23.981 30.4272L24.0187 30.4882L24.0569 30.557L24.0947 30.6181L24.1406 30.6864L24.1788 30.7476L24.2164 30.8163L24.2547 30.877L24.2924 30.9381L24.3383 31.0068L24.3765 31.068L24.4142 31.1368L24.4524 31.1975L24.4902 31.2663L24.5361 31.3274L24.5743 31.3956L24.612 31.4568L24.6502 31.3956L24.6884 31.3274L24.7338 31.2663L24.7719 31.1975L24.8097 31.1368L24.8479 31.068L24.8933 31.0068L24.9315 30.9381L24.9698 30.877L25.0075 30.8163L25.0533 30.7476L25.0911 30.6864L25.1293 30.6181L25.1674 30.557L25.2128 30.4882L25.251 30.4272L25.2893 30.3587L25.327 30.2976L25.3653 30.2365L25.4106 30.1683L25.4488 30.1071L25.487 30.0384L25.5248 29.9772L25.5706 29.9089L25.6084 29.8478L25.6465 29.7867L25.6848 29.7179L25.7301 29.6573L25.7684 29.5884L25.8061 29.5273L25.8443 29.4585L25.8902 29.3978L25.9279 29.3292L25.9661 29.268H26.0421H26.1181H26.1868H26.2628H26.3387H26.4147H26.4834H26.5594H26.6353H26.7113H26.7801H26.856H26.932H27.008H27.0767H27.1527H27.2286H27.3045H27.3733H27.4493H27.5252V29.3444V29.4209V29.4972V29.5737V29.65V29.7264V29.8028V29.8793V29.9556V30.0321V30.1084V30.1849V30.2612V30.3377V30.414V30.4905V30.5669V30.6433V30.7121V30.7884V30.8649V30.9412V31.0177V31.0941V31.1705V31.2469V31.3233V31.3996V31.4761V31.5525V31.6289V31.7049V31.7813V31.8577V31.9341V32.0104V32.0869V32.1632V32.2397V32.3161V32.3925V32.4689V32.5454V32.6217V32.6981V32.7744V32.8509V32.9273V33.0037V33.0801V33.1566V33.2329V33.3093V33.3857V33.4545V33.531V33.6073V33.6837V33.7601V33.8365V33.9129V33.9894V34.0657V34.1422V34.2186V34.295V34.3713V34.4477V34.5241V34.6002V34.6765V34.753V34.8294H27.4493ZM18.6008 32.4685L18.6237 32.5377L18.6542 32.6065H18.5783H18.5019H18.426H18.35H18.274H18.1981H18.1217H18.0457H17.9775H17.901H17.825H17.7491H17.6731H17.5968H17.5208H17.4448H17.3689L17.399 32.5377L17.4219 32.4685L17.4525 32.3921L17.4831 32.3233L17.5055 32.2541L17.536 32.1853L17.5666 32.1089L17.5968 32.0397L17.6196 31.9709L17.6502 31.9022L17.6807 31.833L17.7032 31.7565L17.7338 31.6878L17.7643 31.6186L17.7873 31.5498L17.8174 31.481L17.848 31.4042L17.8785 31.3354L17.901 31.2667L17.9316 31.1975L17.9622 31.121L17.9851 31.0518L18.0151 30.9831L18.0457 31.0518L18.0687 31.121L18.0987 31.1975L18.1293 31.2667L18.1523 31.3354L18.1828 31.4042L18.2129 31.481L18.2358 31.5498L18.2664 31.6186L18.297 31.6878L18.3194 31.7565L18.35 31.833L18.373 31.9022L18.403 31.9709L18.4336 32.0397L18.4566 32.1089L18.4871 32.1853L18.5172 32.2541L18.5401 32.3233L18.5707 32.3921L18.6008 32.4685ZM21.0125 34.8294H20.9361H20.8677H20.7919H20.7154H20.6395H20.5635H20.4952H20.4187H20.3428H20.2669H20.1909H20.1145H20.0462H19.9702H19.8942H19.8178H19.7419H19.6736H19.5976H19.5213L19.4911 34.7606L19.4682 34.6918L19.4377 34.623L19.4071 34.5466L19.3846 34.4783L19.3541 34.4096L19.3235 34.3408L19.301 34.2721L19.2705 34.2033L19.2399 34.1345L19.217 34.0657L19.1869 33.9894L19.1563 33.9206L19.1333 33.8518L19.1027 33.7831H19.0268H18.9509H18.8749H18.799H18.7302H18.6542H18.5783H18.5019H18.426H18.35H18.274H18.1981H18.1217H18.0457H17.9775H17.901H17.825H17.7491H17.6731H17.5968H17.5208H17.4448H17.3689H17.293H17.2241H17.1483H17.0722H16.9958H16.9199L16.8898 33.8518L16.8669 33.9206L16.8363 33.9894L16.8057 34.0657L16.7833 34.1345L16.7527 34.2033L16.7221 34.2721L16.6992 34.3408L16.6691 34.4096L16.6385 34.4783L16.6156 34.5466L16.5855 34.623L16.5549 34.6918L16.532 34.7606L16.5014 34.8294H16.4255H16.3496H16.2736H16.1972H16.1212H16.0376H15.9617H15.8857H15.8093H15.7334H15.6575H15.5814H15.505H15.4292H15.3532H15.2696H15.1932H15.1172H15.0412H14.9653L14.9954 34.7606L15.026 34.6918L15.0565 34.623L15.0866 34.5466L15.1096 34.4783L15.1402 34.4096L15.1707 34.3408L15.2008 34.2721L15.2314 34.2033L15.2619 34.1268L15.292 34.0581L15.3226 33.9894L15.3455 33.9206L15.3761 33.8518L15.4061 33.7831L15.4367 33.7067L15.4672 33.6379L15.4974 33.5691L15.528 33.5004L15.5585 33.4316L15.5814 33.3628L15.6115 33.2864L15.6421 33.2177L15.6727 33.1489L15.7028 33.0801L15.7334 33.0114L15.764 32.9426L15.7941 32.8661L15.817 32.7975L15.8476 32.7287L15.8781 32.6599L15.9083 32.5911L15.9388 32.5224L15.9693 32.446L15.9995 32.3772L16.03 32.3084L16.0529 32.2397L16.0835 32.171L16.1136 32.1022L16.1442 32.0258L16.1748 31.957L16.2048 31.8882L16.2354 31.8194L16.266 31.7508L16.2889 31.6819L16.319 31.6136L16.3496 31.5372L16.3801 31.4685L16.4102 31.3996L16.4407 31.3309L16.4713 31.2622L16.5014 31.1934L16.5243 31.117L16.5549 31.0483L16.5855 30.9795L16.6156 30.9107L16.6462 30.8419L16.6767 30.7732L16.7069 30.6967L16.7374 30.628L16.7603 30.5593L16.7908 30.4905L16.821 30.4217L16.8515 30.3529L16.8821 30.2766L16.9122 30.2078L16.9428 30.139L16.9734 30.0703L16.9958 30.0016L17.0264 29.9327L17.057 29.8563L17.0876 29.7876L17.1177 29.7188L17.1483 29.65L17.1788 29.5812L17.2089 29.5126L17.2319 29.4361L17.2624 29.3673L17.293 29.2986L17.323 29.2298H17.399H17.4678H17.5437H17.6196H17.6961H17.7643H17.8403H17.9163H17.9927H18.0611H18.1369H18.2129H18.2893H18.3576H18.4336H18.5095H18.586H18.6542H18.7302L18.7607 29.2986L18.7913 29.3673L18.8215 29.4361L18.852 29.5126L18.8749 29.5812L18.905 29.65L18.9356 29.7188L18.9661 29.7876L18.9967 29.8563L19.0268 29.9327L19.0574 30.0016L19.088 30.0703L19.1104 30.139L19.141 30.2078L19.1716 30.2766L19.2022 30.3529L19.2323 30.4217L19.2628 30.4905L19.2934 30.5593L19.3235 30.628L19.3464 30.6967L19.3769 30.7732L19.4071 30.8419L19.4377 30.9107L19.4682 30.9795L19.4988 31.0483L19.5289 31.117L19.5594 31.1934L19.5824 31.2622L19.6125 31.3309L19.643 31.3996L19.6736 31.4685L19.7042 31.5372L19.7342 31.6136L19.7648 31.6819L19.7953 31.7508L19.8178 31.8194L19.8484 31.8882L19.879 31.957L19.9091 32.0258L19.9396 32.1022L19.9702 32.171L20.0008 32.2397L20.0309 32.3084L20.0538 32.3772L20.0843 32.446L20.1145 32.5224L20.145 32.5911L20.1756 32.6599L20.2061 32.7287L20.2363 32.7975L20.2669 32.8661L20.2897 32.9426L20.3199 33.0114L20.3504 33.0801L20.381 33.1489L20.4111 33.2177L20.4417 33.2864L20.4723 33.3628L20.5029 33.4316L20.5253 33.5004L20.5559 33.5691L20.5865 33.6379L20.6166 33.7067L20.6471 33.7831L20.6777 33.8518L20.7082 33.9206L20.7382 33.9894L20.7613 34.0581L20.7919 34.1268L20.8219 34.2033L20.8524 34.2721L20.883 34.3408L20.9131 34.4096L20.9436 34.4783L20.9742 34.5466L20.9972 34.623L21.0272 34.6918L21.0578 34.7606L21.0883 34.8294H21.0125Z" fill="white"/>
<path d="M11.902 16.6846H15.1987V14.1345H11.902V8.92863H15.3299V6.3786H9.10254V24.7825H15.3821V22.2324H11.902V16.6846Z" fill="white"/>
<path d="M35.5145 17.2369V21.391C35.5145 22.1273 35.1742 22.4688 34.4682 22.4688H33.9446C33.2121 22.4688 32.8718 22.1273 32.8718 21.391V9.76993C32.8718 9.03378 33.2121 8.69221 33.9446 8.69221H34.4156C35.1221 8.69221 35.4624 9.03378 35.4624 9.76993V13.3722H38.2093V9.61219C38.2093 7.32507 37.1104 6.22076 34.8346 6.22076H33.4736C31.1977 6.22076 30.0723 7.35115 30.0723 9.63869V21.5223C30.0723 23.8099 31.1977 24.9402 33.4736 24.9402H34.8605C37.137 24.9402 38.2618 23.8099 38.2618 21.5223V17.2369H35.5145Z" fill="white"/>
<path d="M25.793 24.7827H28.5929V6.37878H25.793V24.7827Z" fill="white"/>
<path fill-rule="evenodd" clip-rule="evenodd" d="M16.7334 6.37854H21.1289C23.4053 6.37854 24.5302 7.50893 24.5302 9.79646V14.6869C24.5302 16.974 23.4053 18.1043 21.1289 18.1043H19.533V24.7825H16.7334V6.37854ZM20.6844 15.6333C21.3909 15.6333 21.7307 15.2913 21.7307 14.5551V9.92771C21.7307 9.19164 21.3909 8.84999 20.6844 8.84999H19.533V15.6333H20.6844Z" fill="white"/>
<path fill-rule="evenodd" clip-rule="evenodd" d="M15.707 41.4235H31.7334L23.5533 44.1211L15.707 41.4235Z" fill="white"/>
</svg>
