<svg width="48" height="48" viewBox="0 0 48 48" fill="none" xmlns="http://www.w3.org/2000/svg">
<path d="M24 48C37.2548 48 48 37.2548 48 24C48 10.7452 37.2548 0 24 0C10.7452 0 0 10.7452 0 24C0 37.2548 10.7452 48 24 48Z" fill="white"/>
<path fill-rule="evenodd" clip-rule="evenodd" d="M35.3456 14.611C35.1318 13.4616 34.4512 12.8953 33.8358 12.6726C33.1719 12.4316 31.8257 12.1821 30.1343 11.9819C28.7735 11.821 27.1741 11.8339 26.2079 11.8638C26.092 11.0665 25.5349 10.3381 24.9116 10.0859C23.2509 9.4148 20.685 9.57693 20.0262 9.76229C19.5027 9.90918 18.9233 10.2103 18.6008 10.6741C18.3845 10.984 18.2446 11.381 18.2435 11.9356C18.2435 12.2495 18.2522 12.9889 18.2602 13.6458C18.2668 14.1948 18.2739 14.6955 18.276 14.8497L18.2767 14.8982C18.2764 15.4849 17.8028 15.9624 17.2158 15.9632H14.5232C13.9489 15.9632 13.51 16.0601 13.1748 16.213C12.8391 16.366 12.6013 16.5724 12.4206 16.8165C12.0609 17.3011 11.9985 17.8993 12 18.5097C12 18.5097 12.0053 19.0085 12.125 19.974C12.2245 20.721 13.0314 25.9395 13.7979 27.5266C14.095 28.1441 14.293 28.4013 14.8768 28.6734C16.1775 29.2325 19.1487 29.8545 20.5412 30.0326C20.7715 30.0622 20.9877 30.0972 21.1903 30.13C22.2107 30.2952 22.8898 30.4052 23.3236 29.4921C23.3253 29.4894 23.4278 29.2198 23.5686 28.8244C24.02 27.4511 24.0828 26.2326 24.0828 25.351C24.0828 25.2613 24.2138 25.2572 24.2138 25.351C24.2138 25.3856 24.2135 25.4251 24.2131 25.469C24.2062 26.2136 24.1877 28.2092 25.7529 28.7673C26.4072 29.0003 27.7645 29.208 29.1437 29.3703C30.3908 29.5142 31.2958 30.0069 31.2958 33.219C31.2958 35.1733 30.887 35.4412 28.7496 35.4412L28.5907 35.4413C26.9765 35.4426 26.3567 35.4431 26.3567 34.1043C26.3567 33.0826 27.2775 33.0935 28.0587 33.1028C28.1315 33.1037 28.203 33.1045 28.2724 33.1045C28.5017 33.1045 28.4819 32.9967 28.4358 32.7451C28.4086 32.5969 28.3723 32.3988 28.3723 32.1434C28.3723 31.8529 28.449 31.6143 28.5067 31.435C28.585 31.1914 28.6281 31.0575 28.3954 31.0517C25.5757 30.9738 23.9165 31.0484 23.9165 34.589C23.9165 37.8031 25.1417 38.4 29.1437 38.4C32.2815 38.4 33.3876 38.2968 34.6833 34.2608C34.9397 33.464 35.5597 31.0325 35.935 26.9499C36.1721 24.3685 35.7112 16.5774 35.3456 14.611ZM29.8758 23.2226C29.4882 23.209 29.1153 23.2336 28.7676 23.2897C28.8654 22.4963 29.1916 21.5227 30.3472 21.5635C31.6263 21.6076 31.8056 22.8214 31.8102 23.6436C31.2708 23.4022 30.6031 23.2483 29.8758 23.2226ZM14.3988 15.178H14.3971C13.7359 15.178 13.1835 15.2912 12.728 15.4975C12.7072 15.5066 12.5618 15.5789 12.4538 15.6325L12.4509 15.634C12.4539 15.6227 12.4603 15.6118 12.4705 15.6033L17.7015 10.3954C17.7117 10.3852 17.722 10.3801 17.7323 10.3783L17.6402 10.5519C17.4476 10.9385 17.337 11.3998 17.337 11.9289V11.9365C17.337 12.5563 17.3673 14.7246 17.3695 14.8884L17.3697 14.8982C17.3693 15.0519 17.2453 15.178 17.091 15.178H14.3988Z" fill="#20C05C"/>
</svg>
