<svg width="48" height="48" viewBox="0 0 48 48" fill="none" xmlns="http://www.w3.org/2000/svg">
<path d="M24 48C37.2548 48 48 37.2548 48 24C48 10.7452 37.2548 0 24 0C10.7452 0 0 10.7452 0 24C0 37.2548 10.7452 48 24 48Z" fill="#4E99C7"/>
<path d="M31.218 30.2565H26.2741V36.1158C26.2741 37.3773 25.2559 38.4 24 38.4C22.744 38.4 21.7258 37.3773 21.7258 36.1158V30.2565H16.782C15.9083 30.2565 15.2 29.5451 15.2 28.6676V18.3393C15.2 18.3057 15.203 18.2728 15.205 18.2397C15.3107 13.4505 19.2063 9.59998 24 9.59998C28.7937 9.59998 32.6893 13.4505 32.795 18.2397C32.797 18.2728 32.8 18.3057 32.8 18.3393V28.6676C32.8 29.5451 32.0917 30.2565 31.218 30.2565" fill="#FFFFFE"/>
</svg>
