<svg width="48" height="48" viewBox="0 0 48 48" fill="none" xmlns="http://www.w3.org/2000/svg">
<path d="M0 24C0 10.7452 10.7452 0 24 0C37.2548 0 48 10.7452 48 24C48 37.2548 37.2548 48 24 48C10.7452 48 0 37.2548 0 24Z" fill="#333333"/>
<path d="M19.2 38.3999C21.851 38.3999 24 36.2509 24 33.5999V28.7999H19.2C16.549 28.7999 14.4 30.949 14.4 33.5999C14.4 36.2509 16.549 38.3999 19.2 38.3999Z" fill="#0ACF83"/>
<path d="M14.4 24C14.4 21.349 16.549 19.2 19.2 19.2H24V28.8H19.2C16.549 28.8 14.4 26.6509 14.4 24Z" fill="#A259FF"/>
<path d="M14.4 14.4C14.4 11.749 16.549 9.59998 19.2 9.59998H24V19.2H19.2C16.549 19.2 14.4 17.0509 14.4 14.4Z" fill="#F24E1E"/>
<path d="M24 9.59998H28.8C31.451 9.59998 33.6 11.749 33.6 14.4C33.6 17.0509 31.451 19.2 28.8 19.2H24V9.59998Z" fill="#FF7262"/>
<path d="M33.6 24C33.6 26.6509 31.451 28.8 28.8 28.8C26.149 28.8 24 26.6509 24 24C24 21.349 26.149 19.2 28.8 19.2C31.451 19.2 33.6 21.349 33.6 24Z" fill="#1ABCFE"/>
</svg>
