<svg xmlns="http://www.w3.org/2000/svg" width="48" height="48" viewBox="0 0 48 48">
  <g id="Group_60" data-name="Group 60" transform="translate(-313 -203)">
    <circle id="Ellipse_17" data-name="Ellipse 17" cx="24" cy="24" r="24" transform="translate(313 203)" fill="#f6f6e6"/>
    <g id="Group_59" data-name="Group 59" transform="translate(314.5 204.5)">
      <path id="Subtraction_2" data-name="Subtraction 2" d="M22.617,45A22.528,22.528,0,0,1,6.624,38.41a22.418,22.418,0,0,1,0-31.82,22.7,22.7,0,0,1,31.986,0A22.294,22.294,0,0,1,45.235,22.5c0,.5-.017,1-.05,1.5-1.211-4.932-5.831-8.119-11.773-8.119-7.115,0-12.084,4.422-12.084,10.754,0,6.253,5.082,10.792,12.084,10.792a13.121,13.121,0,0,0,8.073-2.518A22.617,22.617,0,0,1,22.617,45ZM4.532,17.4v6.269h2.85V37.049h8.588V23.673h4.256V17.4H15.705v-.039c0-1.544.729-2.394,2.052-2.394a4.661,4.661,0,0,1,1.938.494L21.747,9.5a11.534,11.534,0,0,0-5.092-1.026c-5.806,0-9.272,3.3-9.272,8.816V17.4Zm28.88,13.338a3.106,3.106,0,0,1-2.4-1.041,4.55,4.55,0,0,1-.979-3.063,4.485,4.485,0,0,1,.979-3.045,3.339,3.339,0,0,1,4.807,0,4.485,4.485,0,0,1,.979,3.045,4.55,4.55,0,0,1-.979,3.063A3.106,3.106,0,0,1,33.413,30.741Z" transform="translate(0 0)" fill="#353958"/>
    </g>
  </g>
</svg>
