<svg width="48" height="48" viewBox="0 0 48 48" fill="none" xmlns="http://www.w3.org/2000/svg">
<path d="M0 24C0 10.7452 10.7452 0 24 0C37.2548 0 48 10.7452 48 24C48 37.2548 37.2548 48 24 48C10.7452 48 0 37.2548 0 24Z" fill="white"/>
<path fill-rule="evenodd" clip-rule="evenodd" d="M17.6437 11.2H31.3393C33.3436 11.2 33.8886 12.3555 33.4666 14.5243C32.904 17.3332 31.0932 26.2219 30.935 26.8441C30.7416 27.5908 30.4076 28.8174 28.6494 28.8174H24.5355C24.4652 28.8174 24.4124 28.8174 24.307 28.9419C24.2015 29.0663 17.6965 36.7284 17.6965 36.7284C17.1339 37.2973 16.3428 37.2084 16.0439 37.0839C15.745 36.9595 15.2 36.6395 15.2 35.5551V13.5466C15.2 12.6399 15.7626 11.2 17.6437 11.2ZM29.9153 17.9554L30.5306 14.951C30.6361 14.4533 30.2493 14.0621 29.8626 14.0621H18.7689C18.3646 14.0621 18.0305 14.3999 18.0305 14.8088V32.213C18.0305 32.2663 18.0657 32.2841 18.1008 32.2308C18.1008 32.2308 22.1445 27.1108 22.6016 26.5419C23.0587 25.9731 23.2169 25.9553 23.9905 25.9375H27.6825C28.1044 25.9375 28.3857 25.5997 28.4209 25.3331C28.4737 25.0842 28.9483 22.7376 29.0362 22.2753C29.1241 21.8309 28.7725 21.422 28.3506 21.422H23.8322C23.2345 21.422 22.7422 20.9243 22.7422 20.3198V19.6621C22.7422 19.0576 23.2345 18.5599 23.8322 18.5599H29.1769C29.5461 18.5599 29.845 18.2754 29.9153 17.9554Z" fill="#FA4778"/>
</svg>
