<svg width="48" height="48" viewBox="0 0 48 48" fill="none" xmlns="http://www.w3.org/2000/svg">
<path d="M24 48C37.2548 48 48 37.2548 48 24C48 10.7452 37.2548 0 24 0C10.7452 0 0 10.7452 0 24C0 37.2548 10.7452 48 24 48Z" fill="white"/>
<path d="M33.6466 28.845C37.083 26.9399 39.7075 25.4847 39.9462 25.3522C40.6584 24.9574 41.4045 23.9499 39.9462 23.1445C39.4775 22.8852 36.9237 21.4746 33.6426 19.6615L29.1299 24.2675L33.6466 28.845V28.845Z" fill="#FFE300"/>
<path d="M29.1296 24.2676L14.6961 38.9988C15.0221 39.0407 15.4141 38.9533 15.865 38.7033C16.7986 38.1857 26.8244 32.6271 33.6466 28.8446L29.1296 24.2676V24.2676Z" fill="#FF4E54"/>
<path d="M29.1296 24.2675L33.6424 19.6616C33.6424 19.6616 16.8692 10.3924 15.865 9.83754C15.4791 9.62419 15.0582 9.54974 14.6858 9.63376L29.1296 24.2675V24.2675Z" fill="#00F085"/>
<path d="M29.1296 24.2676L14.6855 9.63403C14.0889 9.76883 13.6 10.2918 13.6 11.3431V37.2431C13.6 38.2331 13.9846 38.9294 14.6959 38.9988L29.1296 24.2676V24.2676Z" fill="#00E0FF"/>
</svg>
