<svg width="48" height="48" viewBox="0 0 48 48" fill="none" xmlns="http://www.w3.org/2000/svg">
<path d="M0 24C0 10.7452 10.7452 0 24 0C37.2548 0 48 10.7452 48 24C48 37.2548 37.2548 48 24 48C10.7452 48 0 37.2548 0 24Z" fill="white"/>
<path d="M13.5171 37.121L11.2 11.2H36.6609L34.3413 37.1169L23.9149 40L13.5171 37.121Z" fill="#E44D26"/>
<path d="M23.9304 37.7044L32.3778 35.3804L34.3652 13.287H23.9304V37.7044Z" fill="#F16529"/>
<path d="M23.9304 22.8428H19.7454L19.4564 19.592H23.9304V16.4174H23.9195H16L16.0757 17.2691L16.853 26.0174H23.9304V22.8428Z" fill="#EBEBEB"/>
<path d="M23.9304 31.2197L23.9167 31.2235L20.4194 30.2551L20.1958 27.687H18.4964H17.0435L17.4834 32.7429L23.916 34.574L23.9304 34.5699V31.2197Z" fill="#EBEBEB"/>
<path d="M23.9304 22.887V26.0991H27.7999L27.4351 30.2651L23.9304 31.232V34.5739L30.3724 32.7488L30.4197 32.2062L31.1581 23.7495L31.2348 22.887H30.388H23.9304Z" fill="white"/>
<path d="M23.9304 16.4174V18.3616V19.5401V19.5478H31.5672V19.5478H31.5774L31.6409 18.8442L31.7852 17.2572L31.8609 16.4174H23.9304Z" fill="white"/>
</svg>
