<svg width="48" height="48" viewBox="0 0 48 48" fill="none" xmlns="http://www.w3.org/2000/svg">
<path d="M0 24C0 10.7452 10.7452 0 24 0C37.2548 0 48 10.7452 48 24C48 37.2548 37.2548 48 24 48C10.7452 48 0 37.2548 0 24Z" fill="white"/>
<path fill-rule="evenodd" clip-rule="evenodd" d="M16.5853 17.3752C16.046 17.3752 15.5607 16.8809 15.5607 16.3318C15.5607 15.0687 18.6883 14.1351 22.2472 14.1351C22.5708 14.1351 22.7865 14.1351 22.7865 13.8605C22.7865 13.3663 21.708 13.2015 21.708 12.3778C21.708 11.4991 22.7326 10.95 24.0267 10.95C25.3209 10.95 26.3454 11.4991 26.3454 12.3778C26.3454 13.2015 25.267 13.3114 25.267 13.8605C25.267 14.0253 25.4287 14.1351 25.8062 14.1351C29.3652 14.1351 32.5466 15.0138 32.5466 16.3318C32.5466 16.8809 32.1153 17.3752 31.5221 17.3752H16.5853ZM32.7084 22.3725C34.0026 23.1963 34.4879 24.679 34.2722 26.0519L32.7623 34.3443C32.4388 35.9918 31.0368 37.2 29.3652 37.2H24.0806H18.7961C17.1245 37.2 15.7225 35.9918 15.3989 34.3443L13.8891 26.0519C13.6734 24.7339 14.2126 23.2512 15.5068 22.4275C16.2617 21.8783 16.4235 20.9447 15.5068 20.6152C14.2126 20.121 14.4822 18.5284 15.7764 18.5284H23.6493C24.8895 18.5284 26.3994 19.462 26.3994 22.4824C26.3994 25.5028 24.9973 25.2282 24.9973 27.3699C24.9973 28.3035 25.7523 29.292 26.669 29.4018C28.2328 29.5666 29.1495 28.9625 29.1495 26.7659C29.1495 24.5143 27.8553 23.4709 27.8553 21.6037C27.8553 19.3521 29.2573 18.4735 30.174 18.4735H32.4388C33.733 18.4735 34.0026 20.0661 32.7084 20.5603C31.7917 20.9447 31.9535 21.8783 32.7084 22.3725Z" fill="#16A5F3"/>
</svg>
