<svg width="48" height="48" viewBox="0 0 48 48" fill="none" xmlns="http://www.w3.org/2000/svg">
<path d="M0 24C0 10.7452 10.7452 0 24 0C37.2548 0 48 10.7452 48 24C48 37.2548 37.2548 48 24 48C10.7452 48 0 37.2548 0 24Z" fill="white"/>
<mask id="mask0" mask-type="alpha" maskUnits="userSpaceOnUse" x="0" y="0" width="48" height="48">
<path fill-rule="evenodd" clip-rule="evenodd" d="M0 24C0 10.7452 10.7452 0 24 0C37.2548 0 48 10.7452 48 24C48 37.2548 37.2548 48 24 48C10.7452 48 0 37.2548 0 24Z" fill="white"/>
</mask>
<g mask="url(#mask0)">
<path fill-rule="evenodd" clip-rule="evenodd" d="M24.0012 11.2C20.5249 11.2 20.0886 11.2152 18.7233 11.2773C17.3606 11.3397 16.4305 11.5554 15.6166 11.872C14.7747 12.1989 14.0606 12.6362 13.3491 13.348C12.6371 14.0594 12.1997 14.7736 11.8717 15.6152C11.5544 16.4293 11.3384 17.3597 11.2771 18.7219C11.216 20.0872 11.2 20.5238 11.2 24.0001C11.2 27.4764 11.2155 27.9113 11.2773 29.2767C11.34 30.6394 11.5557 31.5695 11.872 32.3834C12.1992 33.2252 12.6365 33.9394 13.3483 34.6509C14.0595 35.3629 14.7736 35.8013 15.615 36.1282C16.4294 36.4447 17.3598 36.6605 18.7222 36.7229C20.0876 36.785 20.5236 36.8002 23.9996 36.8002C27.4762 36.8002 27.9111 36.785 29.2765 36.7229C30.6391 36.6605 31.5703 36.4447 32.3848 36.1282C33.2264 35.8013 33.9394 35.3629 34.6506 34.6509C35.3626 33.9394 35.8 33.2252 36.128 32.3836C36.4427 31.5695 36.6587 30.6391 36.7227 29.2769C36.784 27.9116 36.8 27.4764 36.8 24.0001C36.8 20.5238 36.784 20.0875 36.7227 18.7222C36.6587 17.3595 36.4427 16.4293 36.128 15.6155C35.8 14.7736 35.3626 14.0594 34.6506 13.348C33.9386 12.636 33.2266 12.1986 32.384 11.872C31.5679 11.5554 30.6373 11.3397 29.2746 11.2773C27.9092 11.2152 27.4746 11.2 23.9972 11.2H24.0012ZM23.5743 13.5065H23.5746L24.0012 13.5066C27.4188 13.5066 27.8239 13.5189 29.1735 13.5802C30.4215 13.6373 31.0989 13.8458 31.5501 14.021C32.1474 14.253 32.5733 14.5304 33.021 14.9784C33.469 15.4264 33.7464 15.8531 33.9789 16.4504C34.1541 16.9011 34.3629 17.5784 34.4197 18.8264C34.481 20.1758 34.4944 20.5811 34.4944 23.9972C34.4944 27.4132 34.481 27.8185 34.4197 29.1679C34.3626 30.4159 34.1541 31.0932 33.9789 31.5439C33.7469 32.1412 33.469 32.5666 33.021 33.0143C32.573 33.4623 32.1477 33.7397 31.5501 33.9717C31.0994 34.1477 30.4215 34.3557 29.1735 34.4127C27.8242 34.4741 27.4188 34.4874 24.0012 34.4874C20.5833 34.4874 20.1782 34.4741 18.8289 34.4127C17.5809 34.3551 16.9035 34.1466 16.4521 33.9714C15.8547 33.7394 15.428 33.462 14.98 33.014C14.532 32.566 14.2547 32.1404 14.0222 31.5428C13.847 31.0922 13.6382 30.4148 13.5814 29.1668C13.52 27.8175 13.5078 27.4121 13.5078 23.994C13.5078 20.5758 13.52 20.1726 13.5814 18.8232C13.6384 17.5752 13.847 16.8979 14.0222 16.4467C14.2542 15.8493 14.532 15.4227 14.98 14.9747C15.428 14.5267 15.8547 14.2493 16.4521 14.0168C16.9033 13.8408 17.5809 13.6328 18.8289 13.5754C20.0097 13.5221 20.4673 13.5061 22.8529 13.5034V13.5066C23.0758 13.5063 23.3156 13.5064 23.5743 13.5065ZM29.2978 17.1675C29.2978 16.3192 29.9858 15.632 30.8338 15.632V15.6315C31.6818 15.6315 32.3698 16.3195 32.3698 17.1675C32.3698 18.0155 31.6818 18.7035 30.8338 18.7035C29.9858 18.7035 29.2978 18.0155 29.2978 17.1675ZM24.0009 17.4267C20.3709 17.4268 17.4278 20.37 17.4278 24.0001C17.4278 27.6303 20.371 30.5722 24.0012 30.5722C27.6314 30.5722 30.5735 27.6303 30.5735 24.0001C30.5735 20.3699 27.6311 17.4267 24.0009 17.4267ZM28.2679 24.0001C28.2679 21.6435 26.3575 19.7334 24.0012 19.7334C21.6446 19.7334 19.7345 21.6435 19.7345 24.0001C19.7345 26.3564 21.6446 28.2668 24.0012 28.2668C26.3575 28.2668 28.2679 26.3564 28.2679 24.0001Z" fill="black"/>
</g>
</svg>
