<svg width="48" height="48" viewBox="0 0 48 48" fill="none" xmlns="http://www.w3.org/2000/svg">
<path d="M0 24C0 10.7452 10.7452 0 24 0C37.2548 0 48 10.7452 48 24C48 37.2548 37.2548 48 24 48C10.7452 48 0 37.2548 0 24Z" fill="#00B900"/>
<path d="M24.3999 11.2C16.2399 11.2 9.60001 16.5489 9.60001 23.1237C9.60001 29.018 14.8652 33.9543 21.9775 34.8877C22.4595 34.9908 23.1155 35.2032 23.2814 35.6122C23.4307 35.9837 23.379 36.5657 23.3291 36.9408C23.3291 36.9408 23.1555 37.9777 23.118 38.1985C23.0536 38.57 22.8207 39.6514 24.3999 38.9906C25.9796 38.3298 32.9233 34.0081 36.0283 30.4598C38.1727 28.1248 39.2 25.7551 39.2 23.1237C39.2 16.5489 32.561 11.2 24.3999 11.2Z" fill="white"/>
<path d="M20.2859 20C20.1282 20 20 20.1323 20 20.2949V26.9051C20 27.068 20.1282 27.2 20.2859 27.2H21.3144C21.4721 27.2 21.6 27.068 21.6 26.9051V20.2949C21.6 20.1323 21.4721 20 21.3144 20H20.2859Z" fill="#00B900"/>
<path d="M28.4993 20H27.4166C27.2506 20 27.116 20.1323 27.116 20.2949V24.2221L24.0337 20.1312C24.0266 20.1207 24.0186 20.1108 24.0104 20.1012L24.0083 20.0995C24.0024 20.0928 23.9964 20.087 23.9902 20.0811C23.9885 20.0794 23.9867 20.0779 23.9846 20.0762C23.9796 20.0715 23.9742 20.0672 23.9686 20.0631C23.9663 20.0608 23.9636 20.059 23.9609 20.057C23.9556 20.0535 23.9506 20.0497 23.9453 20.0465C23.9423 20.0445 23.9393 20.0427 23.9361 20.0413C23.9308 20.0381 23.9254 20.0349 23.9201 20.0323C23.9168 20.0308 23.9139 20.0291 23.9106 20.0279C23.905 20.0253 23.8994 20.0227 23.8935 20.0206C23.8899 20.0195 23.887 20.0183 23.8837 20.0172C23.8778 20.0151 23.8719 20.0131 23.8656 20.0116C23.8624 20.0105 23.8588 20.0099 23.8553 20.0087C23.8494 20.0076 23.8438 20.0061 23.8381 20.0049C23.834 20.0044 23.8295 20.0038 23.8254 20.0035C23.8201 20.0023 23.8148 20.002 23.8094 20.0015C23.8044 20.0009 23.7994 20.0009 23.794 20.0006C23.7902 20.0006 23.7872 20 23.7834 20H22.7009C22.5349 20 22.4 20.1323 22.4 20.2949V26.9051C22.4 27.068 22.5349 27.2 22.7009 27.2H23.7834C23.9497 27.2 24.0843 27.068 24.0843 26.9051V22.9791L27.1704 27.0752C27.1917 27.1049 27.218 27.129 27.2467 27.1482C27.2476 27.1488 27.2488 27.1497 27.2497 27.1506C27.2559 27.1543 27.2621 27.1581 27.2683 27.1616C27.2713 27.1634 27.274 27.1645 27.2769 27.166C27.2814 27.1686 27.2864 27.1709 27.2911 27.173C27.2962 27.175 27.3006 27.177 27.3059 27.1791C27.3089 27.1802 27.3118 27.1814 27.3148 27.1823C27.3219 27.1849 27.3284 27.1869 27.3352 27.1889C27.3367 27.1889 27.3382 27.1895 27.3397 27.1898C27.3642 27.1962 27.39 27.2 27.4166 27.2H28.4993C28.6656 27.2 28.8 27.068 28.8 26.9051V20.2949C28.8 20.1323 28.6656 20 28.4993 20" fill="#00B900"/>
<path d="M18.9076 25.5447H16.0409V20.2955C16.0409 20.1323 15.9097 20 15.7483 20H14.6929C14.5312 20 14.4 20.1323 14.4 20.2955V26.9043V26.9048C14.4 26.9842 14.4314 27.0561 14.4819 27.109C14.483 27.1104 14.4842 27.1119 14.4859 27.1133C14.4874 27.1148 14.4888 27.116 14.4902 27.1174C14.543 27.1686 14.6139 27.2 14.6927 27.2H18.9076C19.0694 27.2 19.2 27.0674 19.2 26.9043V25.8402C19.2 25.6771 19.0694 25.5447 18.9076 25.5447" fill="#00B900"/>
<path d="M34.1076 21.6553C34.2694 21.6553 34.4 21.5232 34.4 21.3598V20.2957C34.4 20.1326 34.2694 20 34.1076 20H29.893H29.8924C29.8134 20 29.7422 20.032 29.6894 20.0835C29.6882 20.0846 29.6868 20.0855 29.6859 20.0867C29.6842 20.0884 29.6828 20.0901 29.6813 20.0919C29.6311 20.1448 29.6 20.2164 29.6 20.2955V20.2957V26.9045V26.9048C29.6 26.9842 29.6314 27.0561 29.6819 27.109C29.683 27.1104 29.6845 27.1122 29.6859 27.1133C29.6871 27.1148 29.6888 27.1162 29.6903 27.1174C29.7427 27.1683 29.814 27.2 29.8924 27.2H34.1076C34.2694 27.2 34.4 27.0674 34.4 26.9045V25.8402C34.4 25.6774 34.2694 25.5447 34.1076 25.5447H31.2412V24.4275H34.1076C34.2694 24.4275 34.4 24.2952 34.4 24.132V23.068C34.4 22.9048 34.2694 22.7722 34.1076 22.7722H31.2412V21.6553H34.1076Z" fill="#00B900"/>
</svg>
