<svg width="48" height="48" viewBox="0 0 48 48" fill="none" xmlns="http://www.w3.org/2000/svg">
<path d="M24 48C37.2548 48 48 37.2548 48 24C48 10.7452 37.2548 0 24 0C10.7452 0 0 10.7452 0 24C0 37.2548 10.7452 48 24 48Z" fill="white"/>
<path fill-rule="evenodd" clip-rule="evenodd" d="M37.1758 30.1801L37.1732 30.1896C37.0859 30.5087 34.9282 38.4024 26.8247 38.4C19.7074 38.3978 16.3339 32.1389 16.3339 32.1389C15.8152 32.1682 15.3147 32.0849 14.8531 31.9133C12.765 31.1372 11.7631 28.7203 12.4836 26.6926L11.3359 25.8053C6.8903 22.379 19.4839 6.70047 23.9372 10.2482C23.9597 10.2661 25.0003 11.1135 25.0003 11.1135C26.5993 10.1311 28.1828 9.60003 29.4701 9.59998C30.3842 9.59986 31.1487 9.86762 31.6636 10.4317C32.8195 11.6978 32.4041 14.1157 30.8257 16.5637C31.1652 16.8897 31.4465 17.3329 31.6474 17.7728C32.1491 18.1645 32.4744 18.76 32.636 19.5824C32.7359 20.0904 32.7919 20.718 32.8412 21.2716C32.8807 21.7148 32.9159 22.1104 32.9661 22.3593C33.0726 22.4079 33.1411 22.4387 33.191 22.4612C33.238 22.4823 33.2686 22.4961 33.299 22.5104C33.3556 22.5369 33.4115 22.5652 33.5716 22.6461C33.5992 22.6601 33.6299 22.6756 33.6643 22.693C34.1375 22.9323 34.7136 23.2236 35.3504 23.8435C36.4823 24.1304 36.9145 25.3479 36.2522 26.1788C36.2344 26.2011 36.1545 26.297 36.0716 26.3923C36.0747 26.4004 36.0823 26.4156 36.0937 26.4381C36.1565 26.5626 36.3325 26.9118 36.4652 27.5254C36.9342 27.6374 37.3078 27.9296 37.5039 28.3533C37.843 29.1825 37.1758 30.1801 37.1758 30.1801ZM33.9119 36.3343V36.6754H34.041V36.3343H34.1731V36.2267H33.7816V36.3343H33.9119ZM34.2126 36.6754V36.2267H34.3966L34.4773 36.4849L34.5568 36.2267H34.7409V36.6754H34.6232V36.3505L34.527 36.6754H34.4265L34.3303 36.3514V36.6754H34.2126Z" fill="#5B453E"/>
<path fill-rule="evenodd" clip-rule="evenodd" d="M36.4524 29.6977C36.3502 30.0802 35.8494 31.9548 33.8448 33.5358C31.0605 35.732 27.4022 35.5098 26.0206 34.279C25.2825 33.586 24.963 32.5949 24.963 32.5949C24.963 32.5949 24.8795 33.1534 24.8652 33.3728C24.3084 32.4223 24.3555 31.2614 24.3555 31.2614C24.3555 31.2614 24.0584 31.8173 23.9225 32.1287C23.5127 31.0818 23.7244 30.0008 23.7244 30.0008L23.4002 30.4859C23.4002 30.4859 23.2482 29.301 23.6214 28.3141C24.0203 27.2595 24.7937 26.4934 24.9466 26.3979C24.3598 26.2106 23.6838 25.674 23.6826 25.673C23.6826 25.673 23.9514 25.6908 24.1383 25.6478C24.1383 25.6478 22.9519 24.7946 22.7439 23.4893C22.9158 23.7025 23.2764 23.9434 23.2764 23.9434C23.1597 23.6017 23.089 22.8418 23.1981 22.0938L23.1985 22.093C23.4229 20.6641 24.5961 19.7337 25.925 19.7454C26.1789 19.7476 26.4178 19.7591 26.6457 19.77C27.6877 19.8199 28.5006 19.8589 29.4737 18.9582C29.4874 18.9455 29.5009 18.9329 29.5144 18.9205C29.747 18.7044 29.9443 18.5211 30.2773 18.447C30.2839 18.4455 30.2922 18.4431 30.3025 18.4401C30.3502 18.4262 30.4401 18.4 30.5957 18.4C30.787 18.4 30.9713 18.4432 31.1399 18.544C31.7832 18.9283 31.9219 19.9306 31.991 20.6656C32.1473 22.3318 32.1694 22.7983 32.4139 23.0375C32.5694 23.1897 32.815 23.2498 33.2424 23.4684C33.293 23.4942 33.3442 23.5199 33.396 23.5459C33.8812 23.7893 34.4207 24.0599 35.0264 24.7109C35.0298 24.7146 35.0346 24.7167 35.0396 24.7168C35.605 24.7304 35.8964 25.1773 35.6355 25.5026C33.7382 27.777 31.0882 28.8661 28.135 28.9573C28.0404 28.9597 27.8546 28.964 27.7749 28.9659C27.7517 28.9664 27.7375 28.9668 27.7372 28.9668C26.5444 29.0031 26.156 30.552 26.9044 31.4835C27.3774 32.0722 28.2872 32.2657 29.0361 32.2686L29.0467 32.2648C32.2757 32.3305 35.5197 30.037 36.08 28.7722C36.084 28.7631 36.1182 28.6826 36.1182 28.6826C36.1182 28.6826 36.0884 28.7177 36.0524 28.7473C36.0507 28.7485 36.0421 28.7563 36.0271 28.7701C35.721 29.0507 32.7182 31.8042 29.0212 31.7002C29.0212 31.7002 28.6033 31.6915 28.2099 31.5995C27.691 31.4784 27.2968 31.2496 27.146 30.7305C27.1012 30.6354 27.0754 30.3065 27.135 30.085C27.2972 29.5399 27.569 29.5351 27.9895 29.5278C28.0524 29.5267 28.1187 29.5255 28.1884 29.5225H28.1884C30.1011 29.4585 31.6445 28.9758 32.8013 28.4245C34.0347 27.8367 34.9747 27.0794 35.3134 26.6971C35.7527 27.4395 35.7501 28.3929 35.7501 28.3929C35.7501 28.3929 35.9224 28.3325 36.1505 28.3325C36.8674 28.3325 37.0149 28.9761 36.4722 29.6295C36.4689 29.636 36.4627 29.6594 36.4524 29.6977ZM18.6308 26.1978C18.6308 26.1978 18.5415 26.5687 18.3644 27.0205C18.1944 25.5743 17.5897 25.2683 17.5897 25.2684C17.2394 25.1054 16.8521 25.015 16.4448 25.015C14.8737 25.015 13.6 26.3609 13.6 28.0212C13.6 29.6815 14.8737 31.0274 16.4448 31.0274C18.2145 31.0274 19.5577 29.3361 19.2451 27.4885C19.2451 27.4885 19.0646 27.9113 18.8965 28.1357C18.9373 27.4743 18.8335 26.82 18.6308 26.1978Z" fill="#F2D8B4"/>
<path d="M12.7005 25.6C12.6892 25.597 11.6198 24.8359 11.4677 24.5853C10.568 23.1127 12.1333 20.0881 13.2472 18.3689C15.9999 14.1199 20.5819 10.7667 22.6629 11.2456L24.8 12.3155C23.9702 12.7889 23.1677 13.3703 22.6869 13.757L22.2321 14.1269C22.2321 14.1269 20.9042 14.994 20.2437 15.5407C17.5961 17.7318 14.9892 21.1239 14.0224 24.3981C14.0224 24.398 13.2281 24.7805 12.7005 25.6" fill="#207EAC"/>
<path d="M23.2 11.2494V11.2494C21.0787 10.7299 16.4084 14.3678 13.6024 18.9777C13.6016 18.979 13.6008 18.9804 13.6 18.9817L13.6113 18.9829L15.8471 20.8C18.302 16.7774 21.3874 14.7032 21.4745 14.6423L21.12 12.1802L21.784 11.852L23.1168 12.2975L23.0149 11.8379L23.2 11.2494" fill="#4FB1D3"/>
<path d="M26.4 11.847L23.9722 13.4734L23.8023 13.6L21.6494 11.9247L21.6 11.6079L22.3485 11.2666C22.387 11.2784 23.7915 11.7116 23.8508 11.7299L23.8759 10.8416L23.9446 10.64L24.6022 10.4C24.6031 10.4006 26.3975 11.845 26.4 11.847" fill="#FACD55"/>
<path d="M29.0699 10.4C27.6984 10.4 26.1586 11.1606 24.9774 11.9084C24.8117 12.0112 24.6473 12.1188 24.4863 12.2284L23.8682 11.6822L24.0927 12.5047C24.0078 12.5662 23.925 12.6275 23.8439 12.6884L22.5669 12.2772L23.4118 13.023C23.2189 13.1772 23.0466 13.3215 22.9036 13.4465L20.8772 11.6823L20.9845 12.473L22.4573 13.8412C22.4573 13.8412 21.1539 14.7663 20.5058 15.3496C17.9073 17.6874 15.3488 21.3066 14.4 24.8L14.4539 24.7681C14.4612 24.7638 14.4686 24.7602 14.476 24.756C14.5024 24.741 14.5286 24.7267 14.5551 24.7127C14.572 24.7037 14.5888 24.6946 14.6058 24.6861C14.6329 24.6723 14.6601 24.6595 14.6873 24.6469C14.7033 24.6394 14.7194 24.6316 14.7354 24.6246C14.7649 24.6115 14.7942 24.5997 14.8237 24.588C14.8373 24.5826 14.8508 24.5766 14.8644 24.5715C14.9073 24.5553 14.95 24.5404 14.9925 24.527C15.6376 24.3241 16.5152 24.1937 17.5425 24.6536C18.0584 23.2816 18.6748 21.8857 19.6461 20.5445C20.4337 19.4569 21.1908 18.486 22.0994 17.952C23.8199 16.2479 28.4571 14.4409 29.9428 16.0072C30.294 15.4013 30.5989 14.8278 30.8501 14.1088C31.4699 12.3797 31.4812 10.4 29.0699 10.4" fill="#131B23"/>
<path d="M24 12L23.4962 11.2L23.2 11.5985L23.3773 11.9118L24 12" fill="#131B23"/>
<path fill-rule="evenodd" clip-rule="evenodd" d="M28.6589 10.4C27.9059 10.479 27.1207 10.753 26.3882 11.0998C23.9153 12.2906 22.1893 14.0474 21.9823 14.2581C21.9734 14.2671 21.9673 14.2733 21.9641 14.2765C21.7587 14.4788 21.5539 14.6884 21.3508 14.9041C20.7466 15.5455 20.1563 16.2403 19.6031 16.9547C18.6249 18.2178 18.2179 18.8072 17.6 20.0078C17.5999 20.008 17.6041 20.0028 17.6124 19.9926C17.8354 19.7185 21.0082 15.8179 21.82 14.991C23.3649 13.4175 25.8936 11.665 25.9199 11.6494C26.9997 10.971 27.911 10.5728 28.6589 10.4ZM34.7743 26.2386C35.1999 26.9744 35.1974 27.9193 35.1974 27.9193C35.2047 28.1905 35.196 28.34 35.1812 28.5498C34.3181 29.2981 31.7445 31.2855 28.678 31.1972C28.678 31.1972 28.2731 31.1886 27.8919 31.0975C27.392 30.9781 27.0115 30.753 26.8635 30.2444L26.8612 30.2361L26.8609 30.2355C26.8586 30.2303 26.8396 30.1845 26.8273 30.0858L26.8268 30.0819L26.8264 30.0782C26.8236 30.0536 26.8214 30.0274 26.8197 30.0001L26.8192 29.9906L26.8191 29.9874C26.8169 29.9438 26.8163 29.8938 26.8181 29.837C26.8189 29.8171 26.8201 29.7972 26.8217 29.7774L26.8219 29.7775L26.8221 29.7712C26.8273 29.7099 26.8364 29.6499 26.8506 29.5964C27.0078 29.0561 27.2711 29.0514 27.6785 29.0441C27.7394 29.043 27.8036 29.0418 27.8712 29.0388H27.8712C29.7243 28.9755 31.2197 28.497 32.3404 27.9507C33.5354 27.3681 34.4462 26.6175 34.7743 26.2386Z" fill="#FFFFFE"/>
<path fill-rule="evenodd" clip-rule="evenodd" d="M31.606 21.489C31.7404 22.922 31.7724 23.2624 32.0564 23.4643C32.0643 23.4719 32.0722 23.4785 32.0803 23.4838C31.8896 23.5394 31.7189 23.5918 31.5675 23.6396C31.2887 23.2615 30.9014 22.908 30.1054 22.9655C29.0504 23.0561 28.2121 23.9992 28.3639 24.9357C27.8626 25.1886 27.3957 25.4508 26.9615 25.7178C26.245 25.7946 25.3722 26.042 24.6024 26.6865C24.0222 26.5038 23.3537 25.98 23.3525 25.979C23.3525 25.979 23.6184 25.9964 23.8031 25.9544C23.8031 25.9544 23.7903 25.9453 23.7672 25.9276C23.7662 25.9263 23.765 25.925 23.7636 25.924C23.7479 25.9116 23.7318 25.8994 23.7155 25.887C23.4395 25.6651 22.5958 24.9097 22.4243 23.8477C22.5942 24.0558 22.9509 24.2908 22.9509 24.2908C22.9466 24.2786 22.9424 24.2657 22.9383 24.2524L22.9389 24.25C22.9391 24.2488 22.9392 24.2475 22.9392 24.2463C22.9392 24.2463 22.8897 24.1051 22.855 23.833C22.8454 23.7566 22.8376 23.6752 22.8317 23.5899C22.828 23.5324 22.8251 23.4714 22.8234 23.4067C22.8671 22.8698 23.0039 22.4187 23.345 21.992C23.8423 21.3699 24.5248 21.117 25.3121 21.1292C25.5288 21.1319 25.7478 21.1543 25.9761 21.1776C26.1953 21.2 26.423 21.2233 26.6654 21.2309C27.3417 21.252 27.993 21.1405 28.6784 20.8332C29.3556 20.5134 29.7385 20.1444 30.1392 19.5713C30.2804 19.4168 30.5295 19.1906 30.7498 19.2002C30.8959 19.2002 30.9973 19.272 31.0694 19.3344C31.4182 19.801 31.5147 20.5272 31.5685 21.0919C31.5817 21.2306 31.594 21.3609 31.6054 21.4832L31.6058 21.4873L31.606 21.489ZM29.5472 24.2533C29.71 23.7336 30.4482 23.4836 30.8939 23.7977C30.6947 23.9124 30.6334 24.2452 30.7549 24.4382C30.503 24.4336 30.244 24.5322 30.0619 24.7068C30.0788 24.4595 29.8051 24.2662 29.5472 24.2533ZM32.2387 34.4C32.6371 34.1923 33.0274 33.9446 33.4018 33.6532C35.3838 32.1104 35.8792 30.2809 35.9803 29.9073L35.9803 29.9072L35.9804 29.9071L35.9804 29.9068L35.9805 29.9068C35.9905 29.8696 35.9967 29.8469 36 29.8405C35.0824 31.0159 33.8821 31.95 32.5978 32.5966C31.5417 33.1287 30.7517 33.3137 30.7517 33.3137C30.7517 33.3137 31.3172 34.053 32.2387 34.4ZM26.2174 30.1399C26.3578 29.6222 26.7543 29.2121 27.3621 29.1938L27.4 29.1929L27.4026 29.1929C27.4831 29.191 27.6632 29.1868 27.7555 29.1845C30.6759 29.0956 33.2963 28.0326 35.1725 25.8128C35.4305 25.4953 35.1423 25.0591 34.5832 25.0458H34.5752C34.5268 25.0965 34.4988 25.1686 34.462 25.263C34.4269 25.3533 34.3837 25.4641 34.3073 25.5962C33.7366 26.5785 32.9473 27.0277 31.8947 27.5488C30.1837 28.3928 28.9094 28.581 27.9897 28.7169C27.1747 28.8373 26.6381 28.9166 26.3226 29.3745C26.1274 29.6613 26.1237 29.9816 26.2174 30.1399ZM32.4373 29.7721C32.4292 29.7723 32.4209 29.774 32.4076 29.777C32.366 29.7865 32.2737 29.8164 32.1399 29.8596C31.2519 30.1468 28.539 31.0241 26.7372 30.4634C26.7279 30.5758 26.7309 30.812 26.7773 30.9146L26.7775 30.9152C27.0911 30.9775 27.488 31.0173 27.9487 31.0173C30.6767 31.0173 32.6426 29.7885 32.4373 29.7721ZM17.1779 29.5182L17.1755 29.5198C15.8936 29.6134 14.7083 27.9904 15.4081 27.0954C15.5039 27.0239 15.586 26.9828 15.6184 26.9666C15.6241 26.9637 15.6282 26.9617 15.6307 26.9603C15.6494 26.9505 15.6685 26.9425 15.6884 26.9342C15.7022 26.9284 15.7164 26.9225 15.731 26.9157C15.745 26.9099 15.7611 26.9051 15.7789 26.9001C15.8357 26.8842 15.8479 26.8797 15.8604 26.8762C15.8729 26.8726 15.8856 26.87 15.943 26.858H15.9429C16.5655 26.7273 17.0047 27.0002 17.1959 27.2686C17.284 27.3921 17.3029 27.485 17.3166 27.5523C17.3211 27.5742 17.325 27.5934 17.3306 27.6101L17.3307 27.6109C17.1816 27.4049 16.9891 27.3598 16.9891 27.3598C16.8268 27.2957 16.5149 27.3936 16.4946 27.7415C16.4852 27.8753 16.5254 28.0252 16.641 28.157L16.6418 28.158C16.646 28.1627 16.6502 28.1674 16.6545 28.172C16.6585 28.1763 16.6626 28.1806 16.6666 28.1848C16.7613 28.282 16.8739 28.3528 16.9814 28.4203C17.1659 28.5363 17.3354 28.6429 17.3742 28.8577C17.4136 29.0941 17.344 29.3413 17.1779 29.5182Z" fill="#E2B986"/>
<path fill-rule="evenodd" clip-rule="evenodd" d="M29.8605 15.8486C28.8288 15.042 25.8177 15.2704 22.8031 17.2573C21.4229 18.1669 20.4107 19.162 19.6306 20.1957C19.6306 20.1957 20.8349 17.8678 23.4811 16.328C23.2966 16.2978 22.8628 16.3506 22.7384 16.3657C22.7299 16.3668 22.7228 16.3676 22.7174 16.3683C23.1981 15.9478 24.0912 15.6671 24.7083 15.5395C24.5277 15.4227 24.0975 15.3932 23.884 15.3874C23.8258 15.3858 23.8219 15.386 23.763 15.3885C23.7581 15.3887 23.7527 15.389 23.7469 15.3892C24.3274 15.0592 25.4036 14.8655 26.382 15.0405C26.259 14.8745 25.9802 14.7534 25.7847 14.6945C25.7676 14.6893 25.6909 14.6699 25.6909 14.6699C25.6909 14.6699 25.7563 14.6542 25.7646 14.6526C26.354 14.5372 27.0424 14.6618 27.5871 14.8842C27.5252 14.7382 27.374 14.5682 27.2604 14.4606C27.2488 14.4496 27.181 14.4 27.181 14.4C27.7508 14.5201 28.2968 14.7728 28.7077 15.0598C28.6518 14.9501 28.5137 14.7654 28.4181 14.6645C28.9626 14.8229 29.5738 15.2177 29.8357 15.7837C29.8418 15.7957 29.8568 15.8377 29.8601 15.8469L29.8606 15.8483L29.8605 15.8486ZM27.4439 23.403C27.5027 23.4904 27.5184 23.5564 27.4947 23.5839C27.4521 23.6346 27.3107 23.578 27.1006 23.494L27.0282 23.4652C26.3886 23.2226 25.9174 23.1856 25.0833 23.5066L25.0167 23.5326C24.8408 23.6013 24.715 23.6505 24.6511 23.6408C24.5341 23.6231 24.6474 23.4054 24.903 23.1941C25.4174 22.7769 26.1239 22.6473 26.7276 22.8758C26.9918 22.9747 27.2886 23.1721 27.4439 23.403ZM27.3172 24.0683C27.1418 23.9321 26.819 23.8407 26.4837 23.8987C26.4314 23.9068 26.382 23.9211 26.3338 23.9351L26.3338 23.9351L26.3338 23.9351L26.3338 23.9351L26.3338 23.9351L26.3338 23.9351C26.3172 23.94 26.3008 23.9447 26.2844 23.9492C26.261 23.9551 26.2386 23.9635 26.2167 23.9728C26.0781 24.0322 25.9582 24.0962 25.8417 24.2097C25.7081 24.3409 25.6702 24.4628 25.7088 24.4928C25.7419 24.5197 25.8163 24.4885 25.9294 24.4412L25.9294 24.4412L25.9821 24.4193C26.4608 24.2169 26.7996 24.2115 27.1223 24.2344L27.1453 24.236C27.2882 24.2459 27.3833 24.2524 27.4063 24.2115C27.4233 24.1822 27.3924 24.1266 27.3172 24.0683ZM17.009 26.5649L17.0088 26.5647C16.7472 26.3502 16.3765 26.2487 15.9456 26.3415H15.9458L15.9378 26.3432C15.8874 26.3541 15.8754 26.3567 15.8636 26.3601L15.8514 26.3639L15.8513 26.3639C15.8399 26.3675 15.8221 26.3732 15.7824 26.3846C15.7646 26.3896 15.7486 26.3946 15.7347 26.4005C15.7202 26.4074 15.7062 26.4134 15.6926 26.4192C15.6727 26.4278 15.6535 26.436 15.6348 26.4461L15.6227 26.4525C15.5676 26.4808 15.3669 26.5838 15.2007 26.7906C15.1119 26.9026 15.0436 27.0272 14.9938 27.1553C14.9038 27.392 14.8702 27.6515 14.8798 27.9007C14.893 28.241 14.9821 28.4453 15.0154 28.5217L15.0154 28.5217L15.0154 28.5217C15.0194 28.5308 15.0225 28.5381 15.0247 28.5436C15.1098 28.7295 14.9105 28.7677 14.7287 28.5679L14.7283 28.5675C14.5828 28.4109 14.4897 28.1725 14.4441 27.9608V27.9606C14.4172 27.8348 14.4 27.6936 14.4 27.5416C14.4 27.3653 14.4232 27.1746 14.4815 26.9769L14.4816 26.9767L14.4816 26.9765C14.6393 26.4574 14.9936 26.0653 15.5321 25.8518C15.5663 25.8382 15.6044 25.8281 15.64 25.8186L15.64 25.8186L15.6401 25.8186L15.6401 25.8186L15.6402 25.8185C15.6562 25.8143 15.6718 25.8101 15.6863 25.8058L15.6858 25.806C15.7765 25.7784 16.1013 25.7116 16.4315 25.7638C16.6225 25.7939 16.7963 25.8582 16.9461 25.9431C17.0956 26.0277 17.2213 26.1328 17.3168 26.2456L17.3172 26.2461C17.4732 26.4265 17.591 26.6811 17.57 26.9077L17.57 26.9082C17.5621 27.0024 17.5211 27.1374 17.4377 27.1725C17.4066 27.1854 17.3755 27.1785 17.3537 27.1568C17.3293 27.1324 17.3224 27.0977 17.3131 27.051C17.2994 26.9822 17.2806 26.8873 17.1928 26.7611C17.1479 26.6963 17.0877 26.6285 17.0091 26.565L17.009 26.5649ZM16.9169 27.4107C16.8574 27.3627 16.8298 27.3218 16.8133 27.2589C16.789 27.1442 16.8017 27.0775 16.8981 27.0086C16.919 26.9941 16.9388 26.9816 16.9564 26.9706C17.0013 26.9423 17.0322 26.9229 17.0323 26.8995C17.0357 26.838 16.7873 26.7747 16.6136 26.9486C16.4695 27.1048 16.424 27.4304 16.654 27.6842C16.7508 27.7904 16.868 27.866 16.9796 27.938C17.1632 28.0563 17.3318 28.165 17.3704 28.3848C17.3785 28.4348 17.3846 28.4906 17.3803 28.5456C17.3811 28.6021 17.3646 28.6807 17.3603 28.7009L17.3594 28.7054C17.2824 29.0467 16.9639 29.3723 16.4387 29.2894L16.4159 29.2859C16.3321 29.2733 16.2777 29.2651 16.2606 29.2901C16.2201 29.3474 16.4451 29.6093 16.8572 29.5998C17.2603 29.5911 17.6602 29.2842 17.7884 28.8228L17.7893 28.8195C17.7953 28.7976 17.828 28.6774 17.8308 28.5689C17.8381 28.4821 17.8319 28.3928 17.816 28.2994C17.7376 27.857 17.3948 27.6771 17.1367 27.5416C17.0492 27.4957 16.9714 27.4549 16.9169 27.4107ZM30.6165 23.5381C30.6506 23.316 30.8073 23.1564 30.9667 23.1816C31.1259 23.207 31.2275 23.4075 31.1934 23.6297C31.1593 23.8518 31.0025 24.0114 30.8432 23.9862C30.6839 23.9608 30.5824 23.7603 30.6165 23.5381ZM29.2163 23.8297C29.1287 23.9921 29.2353 24.2229 29.4545 24.3449C29.6736 24.4671 29.9222 24.4344 30.0098 24.2718C30.0973 24.1094 29.9907 23.8786 29.7715 23.7565C29.5524 23.6345 29.3038 23.6672 29.2163 23.8297Z" fill="#916D53"/>
<path d="M29.6003 22.2625C29.597 22.0425 29.6227 21.679 29.7758 21.6113C29.776 21.6113 29.7759 21.6113 29.7761 21.6112C30.0377 21.4884 30.3841 22.395 30.4 23.2C30.1933 23.0599 29.9504 23.0005 29.7006 23.0298C29.6378 22.7706 29.6077 22.5265 29.6003 22.2625" fill="#5B453E"/>
</svg>
