<svg width="48" height="48" viewBox="0 0 48 48" fill="none" xmlns="http://www.w3.org/2000/svg">
<path d="M24 48C37.2548 48 48 37.2548 48 24C48 10.7452 37.2548 0 24 0C10.7452 0 0 10.7452 0 24C0 37.2548 10.7452 48 24 48Z" fill="#1FB6FF"/>
<path d="M21.818 19.0739C23.4674 19.0917 20.5635 27.6061 20.8752 31.3077C21.1897 35.0421 25.3451 33.9669 25.0813 31.817C24.6326 28.1623 27.0808 16.7101 29.5638 16.7101C31.3059 16.7101 27.6343 24.605 28.3567 29.6606C28.8347 33.0054 33.1733 31.8451 32.7324 29.8619C31.274 23.2984 35.7927 16.9904 35.2863 12.5212C35.0648 10.5657 33.8822 9.60942 32.6992 9.60006C28.5574 9.56838 25.358 18.0146 25.358 18.0146C25.358 18.0146 25.6912 13.2141 22.4722 13.0378C17.5437 12.7678 12.6646 25.0332 12.8029 35.9851C12.8469 39.479 17.2199 38.8839 16.9899 36.0983C16.5623 30.9178 19.4669 19.0488 21.818 19.0739V19.0739Z" fill="white"/>
</svg>
