<svg width="48" height="48" viewBox="0 0 48 48" fill="none" xmlns="http://www.w3.org/2000/svg">
<path fill-rule="evenodd" clip-rule="evenodd" d="M24 48C37.2548 48 48 37.2548 48 24C48 10.7452 37.2548 0 24 0C10.7452 0 0 10.7452 0 24C0 37.2548 10.7452 48 24 48Z" fill="#12100E"/>
<path d="M11.7946 16.3039C11.8343 15.9019 11.6845 15.5046 11.3912 15.234L8.40336 11.5503V11H17.6807L24.8515 27.0952L31.1559 11H40V11.5503L37.4454 14.057C37.2251 14.2288 37.1159 14.5112 37.1615 14.7907V33.2093C37.1159 33.4888 37.2251 33.7712 37.4454 33.943L39.9402 36.4497V37H27.3912V36.4497L29.9757 33.8818C30.2297 33.622 30.2297 33.5456 30.2297 33.1481V18.2604L23.0439 36.9389H22.0728L13.7068 18.2604V30.779C13.6371 31.3053 13.8079 31.8351 14.1699 32.2158L17.5313 36.3886V36.9389H8V36.3886L11.3613 32.2158C11.7208 31.8345 11.8816 31.3011 11.7946 30.779V16.3039Z" fill="white"/>
</svg>
