<svg width="48" height="48" viewBox="0 0 48 48" fill="none" xmlns="http://www.w3.org/2000/svg">
<path d="M24 48C37.2548 48 48 37.2548 48 24C48 10.7452 37.2548 0 24 0C10.7452 0 0 10.7452 0 24C0 37.2548 10.7452 48 24 48Z" fill="white"/>
<path d="M14.8573 33.2415V38.3643L19.6474 35.641C20.9826 36.0259 22.402 36.2336 23.8726 36.2336C31.7556 36.2336 38.1451 30.271 38.1451 22.9168C38.1451 15.5621 31.7556 9.59998 23.8726 9.59998C15.99 9.59998 9.60001 15.5621 9.60001 22.9168C9.60001 27.0813 11.6489 30.7998 14.8573 33.2415Z" fill="url(#paint0_linear)"/>
<path d="M22.3485 19.2694L14.6513 27.419L21.6564 23.5756L25.3164 27.419L32.97 19.2694L26.0428 23.0455L22.3485 19.2694V19.2694Z" fill="white"/>
<defs>
<linearGradient id="paint0_linear" x1="11.1928" y1="11.5444" x2="11.1928" y2="37.0987" gradientUnits="userSpaceOnUse">
<stop stop-color="#00C6FF"/>
<stop offset="1" stop-color="#0068FF"/>
</linearGradient>
</defs>
</svg>
