<svg width="48" height="48" viewBox="0 0 48 48" fill="none" xmlns="http://www.w3.org/2000/svg">
<path d="M0 24C0 10.7452 10.7452 0 24 0C37.2548 0 48 10.7452 48 24C48 37.2548 37.2548 48 24 48C10.7452 48 0 37.2548 0 24Z" fill="#E8442E"/>
<path fill-rule="evenodd" clip-rule="evenodd" d="M12.2248 16.731C12.8481 14.3399 14.8253 12.5211 17.2828 12.0817C17.6047 12.0255 18.3353 12.0102 20.7672 12.0051C23.7611 12 23.848 12.0051 23.899 12.097C23.9348 12.1686 23.9501 16.0719 23.9501 24.3588C23.9501 35.5375 23.945 36.5235 23.8684 36.6002C23.7918 36.6768 23.4954 36.6819 20.6343 36.6615C17.8703 36.6462 17.4412 36.6308 17.104 36.5542C14.5188 35.9513 12.6999 34.1274 12.1328 31.5677C12.0307 31.0926 12.0255 30.9495 12.0102 24.7982C11.9847 18.1002 12 17.5944 12.2248 16.731ZM21.9065 34.6945L21.9065 24.3435V13.9925L19.9293 13.9976C17.7426 14.0027 17.431 14.0334 16.7566 14.3041C15.4129 14.8406 14.4166 16.031 14.11 17.4667C14.0028 17.9725 14.0028 30.6839 14.1152 31.1999C14.4575 32.8501 15.6785 34.1172 17.3237 34.5412C17.7068 34.6383 17.9112 34.6485 19.8271 34.6689L21.9065 34.6945Z" fill="white"/>
<path d="M17.7222 17.1141C17.4003 17.1754 16.9098 17.4207 16.6493 17.6506C16.1128 18.1155 15.8471 18.7746 15.888 19.5512C15.9084 19.9548 15.934 20.0621 16.0975 20.389C16.3376 20.8846 16.7004 21.2474 17.1959 21.4926C17.5382 21.6612 17.6251 21.6816 18.0696 21.697C18.4732 21.7123 18.6163 21.697 18.887 21.605C19.9957 21.232 20.665 20.154 20.476 19.0505C20.2563 17.7374 19.0097 16.8587 17.7222 17.1141Z" fill="white"/>
<path fill-rule="evenodd" clip-rule="evenodd" d="M26.4025 24.3435C26.4025 17.5893 26.4178 12.0511 26.4383 12.0357C26.4536 12.0153 27.4754 12 28.7016 12C30.4795 12 31.0313 12.0153 31.389 12.0766C34.0559 12.5364 36.0842 14.5443 36.59 17.2061C36.6615 17.5791 36.6717 18.4528 36.6717 24.3129C36.6717 30.5732 36.6792 31.3096 36.4818 31.9862C36.4477 32.1031 36.4075 32.2182 36.3601 32.3597C36.2732 32.61 36.1046 33.0136 35.9769 33.2538C34.9806 35.1288 33.1516 36.3907 31.0773 36.6258C30.5868 36.6768 26.6222 36.6973 26.4842 36.6462C26.4076 36.6155 26.4025 35.4864 26.4025 24.3435ZM33.6114 24.7574C33.3457 23.9808 32.6918 23.3728 31.8948 23.1633C30.6175 22.8312 29.2891 23.5669 28.9059 24.8187C28.7782 25.2172 28.7731 25.8711 28.8855 26.2594C29.2585 27.5265 30.6175 28.298 31.8948 27.9659C32.6816 27.7564 33.2946 27.1893 33.6063 26.382C33.7749 25.9427 33.78 25.2376 33.6114 24.7574Z" fill="white"/>
</svg>
