<svg width="48" height="48" viewBox="0 0 48 48" fill="none" xmlns="http://www.w3.org/2000/svg">
<path d="M0 24C0 10.7452 10.7452 0 24 0C37.2548 0 48 10.7452 48 24C48 37.2548 37.2548 48 24 48C10.7452 48 0 37.2548 0 24Z" fill="#F68634"/>
<path d="M26.596 29.4403L30.1826 32.9028C30.9174 33.6106 30.9174 34.7601 30.1826 35.4686C29.4486 36.1771 28.259 36.1771 27.5257 35.4686L23.9993 32.0661L20.476 35.4686C20.1086 35.8225 19.6272 35.9996 19.1458 35.9996C18.6652 35.9996 18.1846 35.8225 17.8172 35.4686C17.0832 34.7601 17.0832 33.6113 17.8164 32.9028L21.4035 29.4403C20.0975 29.1531 18.838 28.6536 17.6779 27.951C16.7999 27.4167 16.5362 26.2972 17.0894 25.449C17.641 24.5996 18.8011 24.3439 19.6806 24.8783C22.3072 26.4732 25.6908 26.4736 28.3189 24.8783C29.1983 24.3439 30.3581 24.5996 30.9109 25.449C31.4641 26.2964 31.1996 27.4167 30.3216 27.951C29.1615 28.6543 27.902 29.1531 26.596 29.4403Z" fill="white"/>
<path fill-rule="evenodd" clip-rule="evenodd" d="M17.5678 18.1936C17.5678 21.6079 20.4454 24.3853 23.9837 24.3853C27.5228 24.3853 30.3996 21.6079 30.3996 18.1936C30.3996 14.7781 27.5228 12 23.9837 12C20.4454 12 17.5678 14.7781 17.5678 18.1936ZM26.6402 18.1936C26.6402 16.7795 25.4486 15.6297 23.9837 15.6297C22.5199 15.6297 21.3272 16.7795 21.3272 18.1936C21.3272 19.6065 22.5199 20.7571 23.9837 20.7571C25.4486 20.7571 26.6402 19.6065 26.6402 18.1936Z" fill="white"/>
</svg>
