<svg width="48" height="48" viewBox="0 0 48 48" fill="none" xmlns="http://www.w3.org/2000/svg">
<path d="M0 24C0 10.7452 10.7452 0 24 0C37.2548 0 48 10.7452 48 24C48 37.2548 37.2548 48 24 48C10.7452 48 0 37.2548 0 24Z" fill="white"/>
<path d="M28 16V21.8913L29.921 23.1877C29.9717 23.2035 30.0815 23.2047 30.1321 23.1877L38.4 17.2138C38.4 16.5068 37.7846 16 37.4374 16H28Z" fill="#0072C6"/>
<path d="M28.0011 23.5141L29.7539 24.7531C30.0009 24.9399 30.2984 24.7531 30.2984 24.7531C30.0019 24.9399 38.4 19.2 38.4 19.2V29.5939C38.4 30.7254 37.6961 31.2 36.9046 31.2H28V23.5141H28.0011Z" fill="#0072C6"/>
<path d="M18.8414 20.7999C18.2168 20.7999 17.7192 21.0942 17.3517 21.6815C16.9843 22.2689 16.8 23.0465 16.8 24.0143C16.8 24.9965 16.9843 25.773 17.3517 26.3438C17.7192 26.9157 18.2014 27.1999 18.7972 27.1999C19.4118 27.1999 19.8996 26.9223 20.2593 26.367C20.619 25.8117 20.8 25.0408 20.8 24.0552C20.8 23.0276 20.6256 22.2279 20.2758 21.6561C19.9261 21.0853 19.4483 20.7999 18.8414 20.7999Z" fill="#0072C6"/>
<path fill-rule="evenodd" clip-rule="evenodd" d="M10.4 34.8845V12.845L27.2 9.59998V38.4L10.4 34.8845ZM18.8639 28.9904C20.0063 28.9904 20.932 28.5231 21.6419 27.5906C22.3518 26.6582 22.7073 25.4294 22.7063 23.9053C22.7063 22.4223 22.3638 21.2281 21.6788 20.3217C20.9948 19.4152 20.0974 18.9631 18.9886 18.9631C17.8148 18.9631 16.8718 19.4369 16.1597 20.3833C15.4476 21.3298 15.0921 22.5694 15.0921 24.1022C15.0921 25.5538 15.4432 26.7307 16.1434 27.635C16.8447 28.5382 17.7508 28.9904 18.8639 28.9904Z" fill="#0072C6"/>
</svg>
