<svg width="48" height="48" viewBox="0 0 48 48" fill="none" xmlns="http://www.w3.org/2000/svg">
<path d="M0 24C0 10.7452 10.7452 0 24 0C37.2548 0 48 10.7452 48 24C48 37.2548 37.2548 48 24 48C10.7452 48 0 37.2548 0 24Z" fill="white"/>
<path d="M20.2128 36.1233L20.6312 33.4657L19.6992 33.4441H15.2488L18.3416 13.8337C18.3512 13.7745 18.3824 13.7193 18.428 13.6801C18.4736 13.6409 18.532 13.6193 18.5928 13.6193H26.0968C28.588 13.6193 30.3072 14.1377 31.2048 15.1609C31.6256 15.6409 31.8936 16.1425 32.0232 16.6945C32.1592 17.2737 32.1616 17.9657 32.0288 18.8097L32.0192 18.8713V19.4121L32.44 19.6505C32.7944 19.8385 33.076 20.0537 33.292 20.3001C33.652 20.7105 33.8848 21.2321 33.9832 21.8505C34.0848 22.4865 34.0512 23.2433 33.8848 24.1001C33.6928 25.0857 33.3824 25.9441 32.9632 26.6465C32.5776 27.2937 32.0864 27.8305 31.5032 28.2465C30.9464 28.6417 30.2848 28.9417 29.5368 29.1337C28.812 29.3225 27.9856 29.4177 27.0792 29.4177H26.4952C26.0776 29.4177 25.672 29.5681 25.3536 29.8377C25.0344 30.1129 24.8232 30.4889 24.7584 30.9001L24.7144 31.1393L23.9752 35.8233L23.9416 35.9953C23.9328 36.0497 23.9176 36.0769 23.8952 36.0953C23.8752 36.1121 23.8464 36.1233 23.8184 36.1233H20.2128V36.1233Z" fill="#253B80"/>
<path d="M32.8384 18.9336V18.9336V18.9336C32.816 19.0768 32.7904 19.2232 32.7616 19.3736C31.772 24.4544 28.3864 26.2096 24.0624 26.2096H21.8608C21.332 26.2096 20.8864 26.5936 20.804 27.1152V27.1152V27.1152L19.6768 34.264L19.3576 36.2904C19.304 36.6328 19.568 36.9416 19.9136 36.9416H23.8184C24.2808 36.9416 24.6736 36.6056 24.7464 36.1496L24.7848 35.9512L25.52 31.2856L25.5672 31.0296C25.6392 30.572 26.0328 30.236 26.4952 30.236H27.0792C30.8624 30.236 33.824 28.7 34.6896 24.2552C35.0512 22.3984 34.864 20.848 33.9072 19.7576C33.6176 19.4288 33.2584 19.156 32.8384 18.9336V18.9336Z" fill="#179BD7"/>
<path d="M31.8032 18.5208C31.652 18.4768 31.496 18.4368 31.336 18.4008C31.1752 18.3656 31.0104 18.3344 30.8408 18.3072C30.2472 18.2112 29.5968 18.1656 28.9 18.1656H23.0184C22.8736 18.1656 22.736 18.1984 22.6128 18.2576C22.3416 18.388 22.14 18.6448 22.0912 18.9592L20.84 26.884L20.804 27.1152C20.8864 26.5936 21.332 26.2096 21.8608 26.2096H24.0624C28.3864 26.2096 31.772 24.4536 32.7616 19.3736C32.7912 19.2232 32.816 19.0768 32.8384 18.9336C32.588 18.8008 32.3168 18.6872 32.0248 18.5904C31.9528 18.5664 31.8784 18.5432 31.8032 18.5208V18.5208Z" fill="#222D65"/>
<path d="M22.6128 18.2584C22.7368 18.1992 22.8736 18.1664 23.0184 18.1664H28.9C29.5968 18.1664 30.2472 18.212 30.8408 18.308C31.0104 18.3352 31.1752 18.3664 31.336 18.4016C31.496 18.4376 31.652 18.4776 31.8032 18.5216C31.8784 18.544 31.9528 18.5672 32.0256 18.5904C32.3176 18.6872 32.5888 18.8016 32.8392 18.9336C33.1336 17.056 32.8368 15.7776 31.8216 14.62C30.7024 13.3456 28.6824 12.8 26.0976 12.8H18.5936C18.0656 12.8 17.6152 13.184 17.5336 13.7064L14.408 33.5184C14.3464 33.9104 14.6488 34.264 15.044 34.264H19.6768L20.84 26.884L22.0912 18.9592C22.14 18.6448 22.3416 18.388 22.6128 18.2584Z" fill="#253B80"/>
</svg>
