<svg width="48" height="48" viewBox="0 0 48 48" fill="none" xmlns="http://www.w3.org/2000/svg">
<path d="M24 48C37.2548 48 48 37.2548 48 24C48 10.7452 37.2548 0 24 0C10.7452 0 0 10.7452 0 24C0 37.2548 10.7452 48 24 48Z" fill="#34A4C6"/>
<path d="M24.4672 38.1356C26.6995 38.1356 35.5463 28.1023 35.5463 21.3756C35.5463 14.9367 30.515 9.59998 24.4672 9.59998C18.1027 9.59998 13.0717 14.9367 13.0717 21.3756C13.0717 28.1023 21.9184 38.1356 24.4672 38.1356Z" fill="white"/>
<path d="M24.5045 27.4951C28.0865 27.4951 31.1491 24.4638 31.1491 20.9176C31.1491 16.9845 28.0865 13.9529 24.5045 13.9529C20.5312 13.9529 17.4688 16.9845 17.4688 20.9176C17.4688 24.4638 20.5312 27.4951 24.5045 27.4951Z" fill="#D85444"/>
<path d="M21.6218 19.273C23.1058 19.273 24.3089 18.0821 24.3089 16.6131C24.3089 15.1437 23.1058 13.9529 21.6218 13.9529C20.1377 13.9529 18.9347 15.1437 18.9347 16.6131C18.9347 18.0821 20.1377 19.273 21.6218 19.273Z" fill="white"/>
</svg>
