<svg width="48" height="48" viewBox="0 0 48 48" fill="none" xmlns="http://www.w3.org/2000/svg">
<path d="M0 24C0 10.7452 10.7452 0 24 0C37.2548 0 48 10.7452 48 24C48 37.2548 37.2548 48 24 48C10.7452 48 0 37.2548 0 24Z" fill="white"/>
<path d="M20.8 12.8L20.8 33.6993L25.2606 35.2V17.67C25.2606 16.8493 25.6079 16.3008 26.1616 16.4914C26.891 16.7051 27.0335 17.4623 27.0335 18.283V25.2838C29.8118 26.7054 32 25.2829 32 21.5237C32 17.67 30.7201 15.96 26.9428 14.5856C25.4581 14.055 22.6951 13.1717 20.8 12.8" fill="black"/>
<path d="M26.4 32.548L33.6728 29.9211C34.4954 29.6225 34.6235 29.1999 33.9544 28.9778C33.2837 28.7549 32.0695 28.8197 31.2444 29.1192L26.4 30.8478V28.0944L26.6791 27.9996C26.6791 27.9996 28.0797 27.498 30.0491 27.2775C32.0178 27.0571 34.4289 27.3058 36.3204 28.0328C38.4541 28.7174 38.6946 29.7231 38.1536 30.416C37.6101 31.109 36.2818 31.6039 36.2818 31.6039L26.4 35.2V32.548" fill="black"/>
<path d="M11.883 31.2163C9.48491 30.5725 9.08508 29.2316 10.1759 28.4591C11.1885 27.745 12.9037 27.2057 12.9037 27.2057L20 24.8V27.5418L14.8948 29.2865C13.9909 29.5968 13.8534 30.0315 14.5857 30.2613C15.3197 30.491 16.6477 30.4259 17.5507 30.1155L20 29.2693V31.723C19.8437 31.7505 19.6703 31.7762 19.5112 31.8019C17.0601 32.1843 14.4518 32.0257 11.883 31.2163" fill="black"/>
</svg>
