<svg width="48" height="48" viewBox="0 0 48 48" fill="none" xmlns="http://www.w3.org/2000/svg">
<path d="M0 24C0 10.7452 10.7452 0 24 0C37.2548 0 48 10.7452 48 24C48 37.2548 37.2548 48 24 48C10.7452 48 0 37.2548 0 24Z" fill="#E84352"/>
<path fill-rule="evenodd" clip-rule="evenodd" d="M13.3798 12H34.6204C36.706 12 38.4 13.7053 38.4 15.8089V26.3605C38.4 26.5563 38.3846 26.7488 38.3563 26.9368C38.3846 27.2178 38.4 27.5018 38.4 27.7889C38.4 33.8371 31.9529 38.7421 23.9999 38.7421C16.0467 38.7421 9.60001 33.8371 9.60001 27.7889C9.60001 27.5019 9.61403 27.2178 9.64357 26.9368C9.61472 26.7487 9.60001 26.5563 9.60001 26.3605V15.8088C9.60001 13.7059 11.2922 12 13.3798 12ZM25.393 30.0445L32.8306 22.6077C33.5778 21.8597 33.5778 20.6506 32.8306 19.904C32.0853 19.1589 30.8716 19.1569 30.1269 19.904L24 26.0309L17.8735 19.904C17.1253 19.1558 15.916 19.1569 15.1698 19.904C14.4244 20.6495 14.4226 21.8609 15.1698 22.6077L22.6057 30.0445C22.9966 30.4354 23.5126 30.6218 24.0234 30.6042C24.5188 30.6084 25.0152 30.4223 25.393 30.0445Z" fill="white"/>
</svg>
