<svg width="48" height="48" viewBox="0 0 48 48" fill="none" xmlns="http://www.w3.org/2000/svg">
<path d="M48 24C48 37.2548 37.2548 48 24 48C10.7452 48 0 37.2548 0 24C0 10.7452 10.7452 0 24 0C37.2548 0 48 10.7452 48 24" fill="#DA552F"/>
<path fill-rule="evenodd" clip-rule="evenodd" d="M15.75 12L27.495 12.0002V12C32.1922 12 36 15.7608 36 20.4C36 25.0392 32.1922 28.8 27.495 28.8V28.8002H20.61V36H15.75V12ZM27.495 24.0002V24C29.5081 24 31.14 22.3882 31.14 20.4C31.14 18.4118 29.5081 16.8 27.495 16.8V16.8002H20.61V24.0002H27.495Z" fill="white"/>
</svg>
