<svg width="48" height="48" viewBox="0 0 48 48" fill="none" xmlns="http://www.w3.org/2000/svg">
<path d="M0 24C0 10.7452 10.7452 0 24 0C37.2548 0 48 10.7452 48 24C48 37.2548 37.2548 48 24 48C10.7452 48 0 37.2548 0 24Z" fill="white"/>
<path d="M34.5683 37.8736C34.3835 39.3344 31.9995 40.2336 29.2459 39.884C26.4931 39.5328 24.4107 38.064 24.5979 36.6024C24.7835 35.1416 27.1667 34.2416 29.9195 34.5928C32.6739 34.9432 34.7539 36.4128 34.5683 37.8736" fill="#E48013"/>
<path d="M13.7898 37.7325C14.0066 39.1973 16.4826 40.1349 19.3234 39.8285C22.1634 39.5205 24.289 38.0837 24.0722 36.6181C23.8562 35.1541 21.377 34.2157 18.5378 34.5237C15.6978 34.8309 13.5706 36.2677 13.7898 37.7325" fill="#E48013"/>
<path d="M34.3218 18.6872C34.3218 24.1464 29.8618 28.5736 24.3578 28.5736C18.857 28.5736 14.3962 24.1464 14.3962 18.6872C14.3962 13.2256 18.857 8.80005 24.3578 8.80005C29.8618 8.80005 34.3218 13.2256 34.3218 18.6872" fill="black"/>
<path d="M13.7023 37.4411C13.9191 38.9059 16.3951 39.8435 19.2359 39.5371C22.0759 39.2291 24.2015 37.7923 23.9847 36.3267C23.7687 34.8627 21.2895 33.9243 18.4503 34.2323C15.6103 34.5395 13.4831 35.9763 13.7023 37.4411" fill="#F5A519"/>
<path d="M34.6808 37.5196C34.496 38.9804 32.112 39.8796 29.3584 39.53C26.6056 39.1788 24.5232 37.71 24.7104 36.2484C24.896 34.7876 27.2792 33.8876 30.032 34.2388C32.7864 34.5892 34.8664 36.0588 34.6808 37.5196" fill="#F5A519"/>
<path d="M33.8238 29.6365C33.8238 34.0597 29.519 37.6453 24.211 37.6453C18.903 37.6453 14.5998 34.0597 14.5998 29.6365C14.5998 25.2133 18.903 21.6277 24.211 21.6277C29.519 21.6277 33.8238 25.2133 33.8238 29.6365" fill="black"/>
<path d="M16.1727 28.045C14.7615 30.8618 12.5479 32.645 11.8903 32.2954C11.0207 31.8314 10.8103 28.9858 12.2223 26.1698C13.6359 23.3546 15.9143 21.5506 17.0055 22.097C18.0943 22.645 17.5847 25.229 16.1727 28.045" fill="black"/>
<path d="M32.4011 28.3997C33.6923 30.9589 35.5523 32.9453 36.3475 32.7701C36.9891 32.6293 37.4475 29.6365 36.2723 26.7701C35.0779 23.8557 32.9115 21.7629 31.8195 22.3101C30.7291 22.8573 30.9819 25.5877 32.4011 28.3997" fill="black"/>
<path d="M17.1601 24.6052C16.5665 25.8228 16.2265 27.2068 16.2265 28.6772C16.2265 33.5316 19.8833 37.4668 24.3945 37.4668C28.9057 37.4668 32.5617 33.5316 32.5617 28.6772C32.5617 27.2468 32.2377 25.9004 31.6745 24.7068C27.5177 26.826 19.9065 25.2732 17.1601 24.6052" fill="white"/>
<path d="M23.6726 16.4076C23.6726 17.726 22.7998 18.7948 21.7222 18.7948C20.6454 18.7948 19.7726 17.726 19.7726 16.4076C19.7726 15.0892 20.6454 14.0204 21.7222 14.0204C22.7998 14.0204 23.6726 15.0892 23.6726 16.4076" fill="white"/>
<path d="M29.2723 16.4209C29.2723 17.7393 28.3995 18.8081 27.3219 18.8081C26.2459 18.8081 25.3723 17.7393 25.3723 16.4209C25.3723 15.1025 26.2459 14.0337 27.3219 14.0337C28.3995 14.0337 29.2723 15.1025 29.2723 16.4209" fill="white"/>
<path d="M24.6988 19.4611C21.9836 19.4611 19.6124 20.0955 18.2964 21.0419C18.626 21.8187 19.622 22.4235 20.5988 22.9851C21.7788 23.6635 23.7172 24.1227 24.6924 24.1227C25.5924 24.1227 27.8204 23.5163 29.0236 22.7299C29.87 22.1779 30.7628 21.6907 31.0876 21.0323C29.7692 20.0915 27.4052 19.4611 24.6988 19.4611" fill="#F5A519"/>
<path d="M23.3711 16.4209C23.3711 17.2553 22.8247 17.9321 22.1519 17.9321C21.4783 17.9321 20.9319 17.2553 20.9319 16.4209C20.9319 15.5865 21.4783 14.9097 22.1519 14.9097C22.8247 14.9097 23.3711 15.5865 23.3711 16.4209" fill="black"/>
<path d="M22.916 16.0771C22.916 16.4139 22.6872 16.6875 22.4048 16.6875C22.1224 16.6875 21.8936 16.4139 21.8936 16.0771C21.8936 15.7411 22.1224 15.4683 22.4048 15.4683C22.6872 15.4683 22.916 15.7411 22.916 16.0771" fill="white"/>
<path d="M26.3679 16.8134C26.2535 16.8134 26.1527 16.731 26.1319 16.615C26.1191 16.5422 26.1127 16.4662 26.1127 16.3886C26.1127 15.7502 26.5655 15.231 27.1215 15.231C27.6775 15.231 28.1303 15.7502 28.1303 16.3886C28.1303 16.4446 28.1271 16.499 28.1207 16.5526C28.1039 16.6838 27.9823 16.7766 27.8519 16.7606C27.7207 16.7438 27.6279 16.6238 27.6439 16.4926C27.6487 16.459 27.6511 16.4238 27.6511 16.3886C27.6511 16.015 27.4135 15.711 27.1215 15.711C26.8295 15.711 26.5919 16.015 26.5919 16.3886C26.5919 16.4374 26.5967 16.4854 26.6047 16.531C26.6279 16.6622 26.5407 16.7862 26.4103 16.8094C26.3959 16.8118 26.3823 16.8134 26.3679 16.8134" fill="black"/>
<path d="M19.2574 20.6474C19.2574 20.6474 20.7566 21.9314 22.1358 22.3146C23.7486 22.7626 26.079 22.5514 26.9622 22.2554C28.5678 21.7162 30.2742 20.5546 30.2742 20.5546C30.2742 20.5546 28.7662 21.7082 27.211 22.725C26.4294 23.2354 25.5734 23.9626 23.7718 23.5722C23.315 23.4738 22.4974 22.9202 22.2374 22.7698C20.9062 21.9994 19.5694 20.9578 19.2574 20.6474" fill="#8A3322"/>
<path d="M20.9121 27.4904V31.8384C20.9121 31.8384 19.1153 32.6888 17.5057 31.1528C16.8889 30.5648 17.8361 26.38 17.8361 26.38L20.9121 27.4904Z" fill="#D42E19"/>
<path d="M17.5926 26.6497L20.8862 29.2873C20.8862 29.2873 20.9414 27.6385 20.8702 27.1689C20.7982 26.7001 17.5926 26.4169 17.5926 26.4169" fill="#B82C22"/>
<path d="M24.6984 28.2318C20.552 28.2318 16.6432 26.7582 13.5568 24.0574C13.4816 23.9918 13.5048 23.7822 13.5048 23.7822C13.5048 23.7822 13.6232 23.323 13.82 22.223C13.9576 21.4542 14.2696 20.511 14.4352 20.511C14.5408 20.5982 14.668 20.7142 14.7936 20.8318C15.02 21.0438 15.2392 21.2622 15.3112 21.3302C17.8664 23.7214 21.1768 25.0318 24.6984 25.0318C28.2024 25.0318 31.524 23.7214 34.0792 21.3358C34.1 21.3166 34.6544 22.035 34.9032 22.7654C35.1696 23.5478 35.4392 24.399 35.1936 24.5934C32.2136 26.9502 28.5456 28.2318 24.6984 28.2318" fill="#D42E19"/>
</svg>
