<svg width="48" height="48" viewBox="0 0 48 48" fill="none" xmlns="http://www.w3.org/2000/svg">
<path d="M0 24C0 10.7452 10.7452 0 24 0C37.2548 0 48 10.7452 48 24C48 37.2548 37.2548 48 24 48C10.7452 48 0 37.2548 0 24Z" fill="#B92B27"/>
<path fill-rule="evenodd" clip-rule="evenodd" d="M22.6499 35.4966C23.7914 35.4966 24.944 35.3359 26.0301 35.0459L26.0264 35.0477C27.3194 37.2643 29.0464 39.1557 32.3066 39.1557C37.6947 39.1557 38.2913 34.1925 38.1805 32.9974H36.2521C36.1523 33.8951 35.5538 35.0367 34.0762 35.0367C32.7204 35.0367 31.7451 34.0946 30.8031 32.6779C33.7307 30.4096 35.7441 26.9019 35.7441 22.5852C35.7441 14.8236 29.3531 9.59998 22.648 9.59998C16.0538 9.59998 9.59998 14.8643 9.59998 22.5852C9.59998 30.236 16.0557 35.4966 22.6499 35.4966ZM20.2338 28.5939C22.5778 28.5939 23.7785 30.6313 24.8018 32.6446C24.1479 32.8367 23.4349 32.9217 22.648 32.9217C17.6977 32.9217 15.5551 29.427 15.5551 22.5852C15.5551 15.7066 17.6977 12.1749 22.648 12.1749C27.6722 12.1749 29.8222 15.7066 29.8222 22.5852C29.8222 25.3393 29.4639 27.5632 28.7066 29.2071C27.4284 27.2824 25.8195 25.7678 22.685 25.7678C20.6698 25.7678 19.1016 26.4291 18.1337 27.264L18.9279 28.8525C19.338 28.6678 19.7868 28.5939 20.2338 28.5939Z" fill="white"/>
</svg>
