<svg width="48" height="48" viewBox="0 0 48 48" fill="none" xmlns="http://www.w3.org/2000/svg">
<path d="M24 48C37.2548 48 48 37.2548 48 24C48 10.7452 37.2548 0 24 0C10.7452 0 0 10.7452 0 24C0 37.2548 10.7452 48 24 48Z" fill="#FF5700"/>
<path fill-rule="evenodd" clip-rule="evenodd" d="M41.6 23.6875C41.6 21.4925 39.8065 19.7065 37.6014 19.7065C36.5929 19.7065 35.6727 20.0836 34.9686 20.6993C32.4633 19.097 29.1511 18.0544 25.4832 17.8719L27.412 11.8024L32.6744 13.0362C32.7334 14.8043 34.1927 16.226 35.9834 16.226C37.8109 16.226 39.2979 14.7459 39.2979 12.926C39.2979 11.1062 37.8105 9.6261 35.9834 9.6261C34.6559 9.6261 33.5117 10.4088 32.9824 11.5327L27.0691 10.1476C26.6774 10.0562 26.2795 10.2807 26.1595 10.6629L23.8762 17.8481C19.971 17.9244 16.4282 18.9744 13.7731 20.6468C13.0769 20.0614 12.1782 19.7065 11.1986 19.7065C8.9935 19.7069 7.20001 21.4925 7.20001 23.6875C7.20001 25.0851 7.92867 26.3138 9.02556 27.0236C8.96966 27.3801 8.93956 27.7413 8.93956 28.1067C8.93956 33.7675 15.843 38.3732 24.3296 38.3732C32.8155 38.3732 39.7197 33.7675 39.7197 28.1067C39.7197 27.7678 39.6939 27.4327 39.6459 27.1011C40.8127 26.4068 41.6 25.1388 41.6 23.6875ZM35.9834 11.1603C36.9619 11.1603 37.7578 11.9531 37.7578 12.9272C37.7578 13.9013 36.9619 14.6937 35.9834 14.6937C35.0046 14.6937 34.2087 13.9013 34.2087 12.9272C34.2087 11.9531 35.0046 11.1603 35.9834 11.1603ZM11.1982 21.2399C9.84295 21.2399 8.74019 22.3382 8.74019 23.6875C8.74019 24.3686 9.02126 24.9847 9.47432 25.4287C10.0533 24.0016 11.0798 22.6958 12.4515 21.5863C12.0836 21.3679 11.656 21.2399 11.1982 21.2399ZM38.1796 28.1075C38.1796 32.9222 31.9657 36.8402 24.3296 36.8402C16.6925 36.8402 10.4797 32.9226 10.4797 28.1075C10.4797 27.9378 10.4891 27.7705 10.504 27.6035C10.5505 27.0917 10.6693 26.5912 10.8503 26.1063C11.3198 24.8492 12.2205 23.6957 13.4506 22.7122C13.8443 22.3973 14.2708 22.1 14.7274 21.8225C17.2194 20.3082 20.6039 19.3741 24.3296 19.3741C28.1093 19.3741 31.5396 20.3346 34.0398 21.8879C34.4976 22.1716 34.9229 22.476 35.3146 22.7978C36.4959 23.7665 37.3594 24.8959 37.8148 26.1238C37.9943 26.6103 38.1131 27.1112 38.1577 27.6242C38.1713 27.7849 38.1796 27.9452 38.1796 28.1075ZM36.2664 21.6357C37.6374 22.7593 38.6615 24.0782 39.2241 25.5202C39.735 25.0718 40.0594 24.4172 40.0602 23.6875C40.0602 22.3378 38.9575 21.2399 37.6018 21.2399C37.1092 21.2399 36.6511 21.3862 36.2664 21.6357Z" fill="white"/>
<path d="M21.6171 26.2616C21.6171 24.9687 20.564 23.884 19.265 23.884C17.9664 23.884 16.8773 24.9687 16.8773 26.2616C16.8773 27.5541 17.9668 28.6037 19.265 28.6037C20.564 28.6022 21.6171 27.5541 21.6171 26.2616V26.2616Z" fill="white"/>
<path d="M29.5706 23.8833C28.272 23.8833 27.1794 24.9676 27.1794 26.2605C27.1794 27.5537 28.272 28.6026 29.5706 28.6026C30.8696 28.6026 31.9235 27.5545 31.9235 26.2605C31.9227 24.9668 30.8696 23.8833 29.5706 23.8833V23.8833Z" fill="white"/>
<path d="M28.906 31.9379C28.0347 32.8042 26.5676 33.2249 24.418 33.2249C24.4113 33.2249 24.4055 33.2269 24.3992 33.2269C24.3926 33.2269 24.3871 33.2249 24.3809 33.2249C22.2309 33.2249 20.7634 32.8042 19.8932 31.9379C19.5926 31.6382 19.1048 31.6382 18.8041 31.9379C18.5031 32.238 18.5031 32.7233 18.8041 33.0218C19.9773 34.1901 21.8016 34.7587 24.3809 34.7587C24.3875 34.7587 24.393 34.7564 24.3992 34.7564C24.4055 34.7564 24.4113 34.7587 24.418 34.7587C26.9968 34.7587 28.8216 34.1901 29.9959 33.0226C30.2973 32.7225 30.2973 32.2376 29.9967 31.9387C29.6953 31.639 29.2074 31.639 28.906 31.9379V31.9379Z" fill="white"/>
</svg>
