<svg width="48" height="48" viewBox="0 0 48 48" fill="none" xmlns="http://www.w3.org/2000/svg">
<path d="M0 24C0 10.7452 10.7452 0 24 0C37.2548 0 48 10.7452 48 24C48 37.2548 37.2548 48 24 48C10.7452 48 0 37.2548 0 24Z" fill="white"/>
<path d="M18.2258 14.4L18.2242 21.2824C18.2242 21.2824 18.4098 24.1584 20.0842 26.6432C21.6706 28.9968 23.1922 29.8888 23.9866 30.2168C25.4754 28.528 26.3794 26.3112 26.3794 23.8832C26.3794 19.0744 22.841 15.0928 18.2258 14.4" fill="#0661A7"/>
<path d="M18.4464 29.92C17.0104 28.1536 16.6424 26.4408 16.6424 26.4408C16.6424 26.4408 16.3112 28.2264 15.1696 29.736C14.4528 30.6848 12.9936 31.8216 12.2848 32.3488C13.628 33.0656 15.1608 33.472 16.7896 33.472C18.396 33.472 19.9096 33.0752 21.24 32.3768C20.4128 31.7312 18.9792 30.576 18.4464 29.92" fill="#0661A7"/>
<path d="M15.08 21.4344L15.0776 14.448C10.5976 15.256 7.2 19.1712 7.2 23.8832C7.2 26.2856 8.0864 28.4816 9.5472 30.164C10.3264 29.6848 11.9824 28.5512 13.0528 26.9848C14.7104 24.564 15.08 21.4344 15.08 21.4344" fill="#0661A7"/>
<path d="M32.6644 14.4531L32.6636 21.3355C32.6636 21.3355 32.8484 24.2115 34.5236 26.6963C36.1092 29.0499 37.6308 29.9419 38.4252 30.2699C39.914 28.5803 40.818 26.3643 40.818 23.9355C40.818 19.1267 37.2796 15.1459 32.6644 14.4531" fill="#0661A7"/>
<path d="M32.8851 29.9731C31.4499 28.2059 31.0819 26.4939 31.0819 26.4939C31.0819 26.4939 30.7507 28.2795 29.6083 29.7891C28.8915 30.7371 27.4323 31.8747 26.7235 32.4019C28.0675 33.1179 29.6003 33.5251 31.2283 33.5251C32.8347 33.5251 34.3483 33.1283 35.6795 32.4291C34.8515 31.7835 33.4187 30.6283 32.8851 29.9731" fill="#0661A7"/>
<path d="M29.5191 21.4875L29.5159 14.5011C25.0367 15.3091 21.6391 19.2235 21.6391 23.9355C21.6391 26.3387 22.5247 28.5339 23.9863 30.2171C24.7655 29.7379 26.4207 28.6035 27.4919 27.0379C29.1487 24.6171 29.5191 21.4875 29.5191 21.4875" fill="#0661A7"/>
<path d="M21.6769 23.9035C21.6769 26.3155 22.5233 28.5259 23.9865 30.2171C25.4489 28.5259 26.3761 26.3155 26.3761 23.9035C26.3761 21.4923 25.4889 19.2891 24.0265 17.5979C22.5633 19.2891 21.6769 21.4923 21.6769 23.9035" fill="#CE392C"/>
</svg>
