<svg width="48" height="48" viewBox="0 0 48 48" fill="none" xmlns="http://www.w3.org/2000/svg">
<path d="M0 24C0 10.7452 10.7452 0 24 0C37.2548 0 48 10.7452 48 24C48 37.2548 37.2548 48 24 48C10.7452 48 0 37.2548 0 24Z" fill="#F8991D"/>
<path fill-rule="evenodd" clip-rule="evenodd" d="M36.8 33.6H32.5336C32.5336 23.6008 24.3993 15.4664 14.4002 15.4664V11.2C26.7513 11.2 36.8 21.2488 36.8 33.6ZM14.4002 30.4C14.4002 28.6328 15.833 27.2 17.6002 27.2C19.3674 27.2 20.8002 28.6328 20.8002 30.4C20.8002 32.1672 19.3674 33.6 17.6002 33.6C15.833 33.6 14.4002 32.1672 14.4002 30.4ZM25.0671 33.6H29.3334C29.3334 25.3656 22.6343 18.6664 14.4 18.6664V22.9336C20.2815 22.9336 25.0671 27.7184 25.0671 33.6Z" fill="white"/>
</svg>
