<svg width="48" height="48" viewBox="0 0 48 48" fill="none" xmlns="http://www.w3.org/2000/svg">
<path d="M24 48C37.2548 48 48 37.2548 48 24C48 10.7452 37.2548 0 24 0C10.7452 0 0 10.7452 0 24C0 37.2548 10.7452 48 24 48Z" fill="white"/>
<path fill-rule="evenodd" clip-rule="evenodd" d="M32.9432 15.0905C33.0442 15.1074 33.1789 15.1747 33.1958 15.3263C33.2059 15.4172 34.3229 22.972 35.2165 29.0158L35.2186 29.0306C35.8152 33.0653 36.3116 36.4227 36.3116 36.4295L27.4863 38.3326L11.2 35.2842C11.2 35.2842 13.2884 19.1158 13.3726 18.5263C13.4737 17.7684 13.5074 17.7516 14.2989 17.499C14.372 17.4807 14.7021 17.3784 15.2171 17.2188L15.2172 17.2188C15.6525 17.0838 16.22 16.908 16.8758 16.7074C17.4316 14.3663 19.1832 9.76843 22.8716 9.75159C23.3432 9.75159 23.8989 10.0211 24.3537 10.6105H24.4884C26.0716 10.6105 26.981 11.9579 27.4695 13.4232C27.9916 13.2547 28.3116 13.1537 28.3284 13.1537C28.4632 13.12 28.7832 13.0695 28.9516 13.2379C29.1032 13.4063 30.6358 14.9221 30.6358 14.9221C30.6358 14.9221 32.8421 15.0737 32.9432 15.0905ZM25.5758 14.0174C25.9376 13.9101 26.2759 13.8098 26.5768 13.7095C26.24 12.6484 25.6842 11.7221 24.8589 11.6042C25.061 12.1769 25.1958 12.9179 25.1958 13.8274V14.1305C25.3246 14.0919 25.4513 14.0543 25.5752 14.0176L25.5757 14.0174L25.5758 14.0174ZM23.8653 11.7895C24.0842 12.3621 24.2358 13.1705 24.2358 14.2653V14.4169C23.3432 14.6863 22.3663 14.9895 21.3895 15.2926C21.9453 13.2042 22.9726 12.1769 23.8653 11.7895ZM23.2421 10.9137C23.0905 10.8126 22.9221 10.7621 22.7705 10.7621C20.1263 10.7621 18.6442 14.2316 18.0042 16.3537C18.7115 16.1348 19.486 15.899 20.2607 15.6633L20.261 15.6632C20.8 12.8674 22.0632 11.4695 23.2421 10.9137Z" fill="#95BF47"/>
<path d="M32.9432 15.0905C32.8421 15.0737 30.6358 14.9221 30.6358 14.9221C30.6358 14.9221 29.1032 13.4063 28.9516 13.2379C28.8842 13.1705 28.8 13.1368 28.7158 13.1368L27.4863 38.3326L36.3116 36.4295C36.3116 36.4295 33.2126 15.4779 33.1958 15.3432C33.1789 15.1916 33.0442 15.1074 32.9432 15.0905Z" fill="#5E8E3E"/>
<path d="M24.4884 19.9748L23.3937 23.2084C23.3937 23.2084 22.4337 22.7032 21.2716 22.7032C19.5537 22.7032 19.4695 23.7811 19.4695 24.0505C19.4695 25.5327 23.3263 26.0884 23.3263 29.5579C23.3263 32.2863 21.5916 34.0379 19.2674 34.0379C16.4716 34.0379 15.04 32.3032 15.04 32.3032L15.781 29.8274C15.781 29.8274 17.2463 31.0905 18.4926 31.0905C19.301 31.0905 19.6379 30.4505 19.6379 29.979C19.6379 28.0421 16.4716 27.9579 16.4716 24.7916C16.4716 22.1305 18.3916 19.5369 22.2484 19.5369C23.7642 19.5537 24.4884 19.9748 24.4884 19.9748Z" fill="white"/>
</svg>
