<svg width="48" height="48" viewBox="0 0 48 48" fill="none" xmlns="http://www.w3.org/2000/svg">
<path d="M0 24C0 10.7452 10.7452 0 24 0C37.2548 0 48 10.7452 48 24C48 37.2548 37.2548 48 24 48C10.7452 48 0 37.2548 0 24Z" fill="#FF1A03"/>
<path fill-rule="evenodd" clip-rule="evenodd" d="M15.9713 14.8297H22.2392L22.2393 9.59998H15.9713C12.4583 9.59998 9.60001 12.4582 9.60001 15.9712V22.0007H14.8298V15.9712C14.8298 15.3417 15.3418 14.8297 15.9713 14.8297ZM32.0288 38.2197C35.5418 38.2197 38.4 35.3614 38.4 31.8484V25.819H33.1702V31.8484C33.1702 32.4779 32.6583 32.9899 32.0288 32.9899H25.7607V38.2197H32.0288Z" fill="white"/>
</svg>
