<?xml version="1.0" ?><!DOCTYPE svg  PUBLIC '-//W3C//DTD SVG 1.1//EN'  'http://www.w3.org/Graphics/SVG/1.1/DTD/svg11.dtd'><svg enable-background="new 0 0 512 512" id="Layer_1" version="1.1" viewBox="0 0 512 512" xml:space="preserve" xmlns="http://www.w3.org/2000/svg" xmlns:xlink="http://www.w3.org/1999/xlink"><g><circle cx="350.4" cy="1299.8" fill="#00AAEB" r="75"/><path d="M392.7,1306.7c0.4-2.4,0.7-4.9,0.7-7.4c0-23.4-19-42.4-42.4-42.4   c-2.7,0-5.3,0.3-7.8,0.7c-3.8-2.3-8.1-3.6-12.9-3.6c-13.7,0-24.8,11.1-24.8,24.8c0,4.8,1.4,9.2,3.7,13c-0.4,2.4-0.7,5-0.7,7.5   c0,23.4,19,42.4,42.4,42.4c2.7,0,5.4-0.3,8-0.8c3.7,2.3,8.1,3.6,12.8,3.6c13.7,0,24.8-11.1,24.8-24.8   C396.4,1315,395,1310.5,392.7,1306.7z M352.4,1329c-12.1,0-24.2-5.5-24.2-14.9c0-2.8,2.1-5.5,5-5.5c7.1,0,7,10.6,18.4,10.6   c7.9,0,10.7-4.3,10.7-7.4c0-10.9-34.4-4.2-34.4-24.8c0-11.1,9.1-18.8,23.5-17.9c13.7,0.8,21.7,6.8,22.5,12.4   c0.4,3.7-2.1,6.5-6.3,6.5c-6.2,0-6.8-8.3-17.5-8.3c-4.8,0-8.9,2-8.9,6.3c0,9.1,34.2,3.8,34.2,23.7   C375.3,1321.5,366.1,1329,352.4,1329z" fill="#FFFFFF" id="skype-icon_1_"/></g><g><path d="M512,256c0,141.4-114.6,256-256,256C114.6,512,0,397.4,0,256C0,114.6,114.6,0,256,0   C397.4,0,512,114.6,512,256z" fill="#00AFF0"/><path d="M400.2,279.7c1.4-8.2,2.2-16.6,2.2-25.3c0-80-64.8-144.8-144.8-144.8   c-9.1,0-18,0.9-26.7,2.5c-12.8-7.8-27.8-12.3-43.9-12.3c-46.7,0-84.5,37.8-84.5,84.5c0,16.3,4.6,31.5,12.6,44.3   c-1.5,8.4-2.3,16.9-2.3,25.7c0,80,64.8,144.8,144.8,144.8c9.3,0,18.4-0.9,27.1-2.6c12.7,7.7,27.7,12.1,43.7,12.1   c46.7,0,84.5-37.8,84.5-84.5C412.9,307.9,408.3,292.7,400.2,279.7z M262.7,355.8c-41.2,0-82.7-18.7-82.5-50.9   c0.1-9.7,7.3-18.6,17-18.6c24.3,0,24.1,36.1,62.7,36.1c27.1,0,36.4-14.8,36.4-25.1c0-37.3-117.3-14.4-117.3-84.5   c0-37.9,31.2-64.1,80.1-61.2c46.7,2.7,74.1,23.3,76.7,42.5c1.3,12.5-7,22.3-21.5,22.3c-21.1,0-23.3-28.2-59.7-28.2   c-16.4,0-30.3,6.8-30.3,21.6c0,30.9,116.6,13,116.6,81C341,330.1,309.6,355.8,262.7,355.8z" fill="#FFFFFF" id="skype-icon_2_"/></g></svg>