<svg width="48" height="48" viewBox="0 0 48 48" fill="none" xmlns="http://www.w3.org/2000/svg">
<path d="M13.92 27.84C21.6078 27.84 27.84 21.6078 27.84 13.92C27.84 6.2322 21.6078 0 13.92 0C6.2322 0 0 6.2322 0 13.92C0 21.6078 6.2322 27.84 13.92 27.84Z" fill="#28A8EA"/>
<path d="M34.0802 48C41.768 48 48.0002 41.7678 48.0002 34.08C48.0002 26.3922 41.768 20.16 34.0802 20.16C26.3924 20.16 20.1602 26.3922 20.1602 34.08C20.1602 41.7678 26.3924 48 34.0802 48Z" fill="#28A8EA"/>
<path d="M24 47.04C36.7246 47.04 47.04 36.7246 47.04 24C47.04 11.2753 36.7246 0.959961 24 0.959961C11.2753 0.959961 0.959961 11.2753 0.959961 24C0.959961 36.7246 11.2753 47.04 24 47.04Z" fill="#28A8EA"/>
<path fill-rule="evenodd" clip-rule="evenodd" d="M18.0248 23.5626C17.1241 22.9692 16.3726 22.1758 15.8291 21.2442C15.3039 20.2605 15.0446 19.1568 15.0769 18.0421C15.0369 16.6275 15.5196 15.2477 16.4327 14.1665C17.3814 13.0807 18.6008 12.2656 19.9669 11.8042C21.453 11.2795 23.0187 11.016 24.5947 11.0256C25.626 11.0158 26.6562 11.0948 27.674 11.2618C28.402 11.3743 29.1171 11.559 29.8086 11.813C30.4438 12.0281 31.0173 12.3944 31.4796 12.8803C31.8203 13.2799 32.0038 13.79 31.9957 14.3152C32.008 14.5879 31.9664 14.8604 31.8733 15.1171C31.7802 15.3738 31.6375 15.6097 31.4533 15.8112C31.2788 15.9969 31.067 16.1436 30.8318 16.2416C30.5966 16.3397 30.3433 16.3868 30.0885 16.3799C29.7379 16.3773 29.3919 16.2997 29.0738 16.1523C28.2906 15.8018 27.4837 15.5066 26.6592 15.2688C25.9 15.0688 25.1174 14.9717 24.3323 14.9801C23.3099 14.9422 22.2983 15.2004 21.4191 15.7237C21.0477 15.9492 20.7438 16.2704 20.5391 16.6537C20.3345 17.0369 20.2365 17.4681 20.2556 17.9022C20.2501 18.4715 20.4666 19.0207 20.8592 19.4331C21.326 19.9171 21.8775 20.3115 22.4864 20.5967C23.1688 20.9352 24.1865 21.3843 25.5395 21.9441C25.6894 21.9915 25.8357 22.05 25.9769 22.1191C27.2972 22.6412 28.563 23.2917 29.7561 24.0613C30.6986 24.6759 31.4933 25.4915 32.0831 26.4497C32.6636 27.4563 32.9543 28.6039 32.9229 29.7654C32.9717 31.1882 32.564 32.5892 31.7593 33.7636C30.9401 34.8754 29.8067 35.7164 28.5052 36.1783C26.9369 36.7384 25.2798 37.0082 23.6149 36.9745C21.3269 37.055 19.0497 36.6246 16.949 35.7147C16.4114 35.4755 15.94 35.1092 15.5755 34.6473C15.2734 34.2243 15.1168 33.7146 15.1293 33.195C15.1142 32.9208 15.1588 32.6466 15.26 32.3914C15.3612 32.1361 15.5165 31.9058 15.7153 31.7164C16.1326 31.3509 16.6745 31.1599 17.2287 31.1828C17.8456 31.1913 18.4515 31.3473 18.9958 31.6377C19.6721 31.9762 20.2058 32.2299 20.5968 32.399C21.0434 32.586 21.5061 32.7324 21.9791 32.8363C22.5621 32.9644 23.1578 33.026 23.7547 33.02C24.8101 33.0951 25.8603 32.8148 26.738 32.224C27.0666 31.9668 27.3292 31.6351 27.5042 31.2563C27.6791 30.8774 27.7613 30.4624 27.7439 30.0455C27.7452 29.4537 27.5199 28.8839 27.1142 28.4531C26.578 27.9008 25.9507 27.4451 25.2596 27.1059C24.443 26.6744 23.294 26.1495 21.8127 25.5311C20.4875 25.0031 19.2185 24.3437 18.0248 23.5626" fill="white"/>
<path opacity="0.1" fill-rule="evenodd" clip-rule="evenodd" d="M18.2687 0.700825C17.66 0.497032 17.0377 0.33663 16.4063 0.220825C12.6158 1.4373 9.17005 3.54028 6.35511 6.35523C3.54016 9.17018 1.43718 12.6159 0.220703 16.4064C0.336529 17.0378 0.49693 17.6601 0.700703 18.2688C0.87089 18.8199 1.08601 19.3561 1.3439 19.872C2.17779 15.2643 4.39883 11.0211 7.7099 7.71003C11.021 4.39895 15.2642 2.17791 19.8719 1.34402C19.356 1.08616 18.8198 0.871043 18.2687 0.700825V0.700825Z" fill="black"/>
<path opacity="0.1" fill-rule="evenodd" clip-rule="evenodd" d="M18.2692 0.700806C14.0176 1.74942 10.1336 3.9404 7.03718 7.03681C3.94077 10.1332 1.74979 14.0172 0.701172 18.2688C0.871359 18.8199 1.08648 19.3561 1.34437 19.872C2.17826 15.2643 4.3993 11.0211 7.71037 7.71001C11.0214 4.39893 15.2647 2.17789 19.8724 1.34401C19.3565 1.08614 18.8203 0.871024 18.2692 0.700806V0.700806Z" fill="black"/>
<path opacity="0.1" fill-rule="evenodd" clip-rule="evenodd" d="M47.2991 29.7313C47.1289 29.1802 46.9138 28.644 46.6559 28.1281C45.8221 32.7358 43.601 36.979 40.2899 40.2901C36.9789 43.6011 32.7357 45.8222 28.1279 46.6561C28.6438 46.9139 29.18 47.1291 29.7311 47.2993C30.3398 47.503 30.9622 47.6634 31.5935 47.7793C35.3841 46.5628 38.8298 44.4598 41.6447 41.6448C44.4597 38.8299 46.5627 35.3842 47.7791 31.5937C47.6633 30.9623 47.5029 30.3399 47.2991 29.7313Z" fill="black"/>
<path opacity="0.1" fill-rule="evenodd" clip-rule="evenodd" d="M46.6559 28.1281C45.8221 32.7358 43.601 36.979 40.2899 40.2901C36.9789 43.6011 32.7357 45.8222 28.1279 46.6561C28.6438 46.9139 29.18 47.1291 29.7311 47.2993C33.9827 46.2506 37.8667 44.0597 40.9631 40.9633C44.0595 37.8668 46.2505 33.9828 47.2991 29.7313C47.1289 29.1802 46.9138 28.644 46.6559 28.1281Z" fill="black"/>
</svg>
