<svg width="48" height="48" viewBox="0 0 48 48" fill="none" xmlns="http://www.w3.org/2000/svg">
<path d="M23.9999 0C10.7454 0 0 10.7451 0 23.9996C0 37.2555 10.7454 48 23.9999 48C37.2549 48 48 37.2555 48 23.9996C48 10.7451 37.2549 0 23.9999 0" fill="#1ED760"/>
<path d="M34.479 34.0945C34.0542 34.7911 33.1472 35.0093 32.4531 34.5848C26.9023 31.1922 19.9156 30.4261 11.6874 32.3055C10.8945 32.4872 10.1041 31.9904 9.92348 31.1978C9.7417 30.4049 10.2368 29.6146 11.0314 29.4336C20.0358 27.3753 27.7595 28.2611 33.9901 32.0683C34.6848 32.4926 34.9035 33.4001 34.479 34.0945" fill="white"/>
<path d="M37.3714 27.658C36.8368 28.5254 35.7026 28.7975 34.8363 28.2649C28.4841 24.3602 18.7972 23.2289 11.2818 25.5102C10.3074 25.8046 9.27793 25.2553 8.98183 24.2823C8.68827 23.3079 9.23785 22.2804 10.2108 21.9841C18.7961 19.3787 29.469 20.6405 36.7651 25.1243C37.6314 25.6578 37.9041 26.7925 37.3714 27.658" fill="white"/>
<path d="M37.6209 20.9557C30.0013 16.4306 17.433 16.0145 10.1592 18.2222C8.99085 18.5767 7.75564 17.9173 7.40196 16.7493C7.04799 15.5804 7.70653 14.346 8.87541 13.991C17.2255 11.4565 31.1059 11.9459 39.8777 17.1529C40.9286 17.7768 41.2729 19.1336 40.6502 20.1825C40.027 21.2332 38.669 21.5795 37.6209 20.9557" fill="white"/>
</svg>
