<svg width="48" height="48" viewBox="0 0 48 48" fill="none" xmlns="http://www.w3.org/2000/svg">
<path d="M23.9742 48C37.2431 48 48 37.2546 48 24C48 10.7452 37.2431 0 23.9742 0C11.2414 0 0.822857 9.89439 0 22.4055C1.55479 25.0136 2.1615 26.6266 0.957133 30.9033C3.92517 40.7938 13.1071 48 23.9742 48Z" fill="white"/>
<path fill-rule="evenodd" clip-rule="evenodd" d="M22.6416 17.958V17.9579C22.6416 12.9081 26.7144 8.80005 31.7208 8.80005C36.7292 8.80005 40.8 12.9081 40.8 17.9579C40.8 23.0072 36.7292 27.119 31.7208 27.119C31.6531 27.119 31.5833 27.1169 31.5156 27.1148L23.1463 33.1378C23.171 34.0676 23.0007 34.9995 22.6354 35.8879C21.232 39.2868 17.342 40.9047 13.9682 39.4852C11.9062 38.6195 10.5085 36.8198 10.0526 34.7681L0.972574 30.9952C-0.255769 27.3559 0.0265062 22.483 0.0311521 22.4028L0.0312094 22.4018L12.8753 27.7264C13.2247 27.495 13.5971 27.2946 13.9945 27.1314C14.8961 26.7574 15.8469 26.59 16.7944 26.6334L22.6437 18.0769C22.6416 18.0389 22.6416 17.9984 22.6416 17.958ZM14.5501 38.076C17.1551 39.1691 20.1519 37.9231 21.2382 35.297C21.7634 34.0284 21.7655 32.6233 21.2464 31.3506C20.7273 30.0778 19.7477 29.0819 18.4853 28.5529C17.2331 28.0281 15.8928 28.0446 14.7139 28.4951L17.7692 29.7699C19.6893 30.5757 20.598 32.799 19.797 34.735C18.9984 36.669 16.7944 37.5864 14.8733 36.7805L11.9177 35.547C12.4411 36.6483 13.3484 37.5719 14.5501 38.076ZM31.7208 24.061C28.3866 24.061 25.6721 21.3233 25.6721 17.9579C25.6721 14.5951 28.3866 11.8566 31.7208 11.8566C35.057 11.8566 37.7715 14.5951 37.7715 17.9579C37.7715 21.3233 35.057 24.061 31.7208 24.061ZM31.7311 13.3635C29.2238 13.3635 27.1884 15.4168 27.1884 17.9486C27.1884 20.4805 29.2238 22.532 31.7311 22.532C34.2404 22.532 36.2758 20.4805 36.2758 17.9486C36.2758 15.4168 34.2404 13.3635 31.7311 13.3635Z" fill="black"/>
</svg>
