<svg width="48" height="48" viewBox="0 0 48 48" fill="none" xmlns="http://www.w3.org/2000/svg">
<path d="M48 24C48 37.2548 37.2548 48 24 48C10.7452 48 0 37.2548 0 24C0 10.7452 10.7452 0 24 0C37.2548 0 48 10.7452 48 24V24Z" fill="#EB4823"/>
<path fill-rule="evenodd" clip-rule="evenodd" d="M17.76 19.36C17.76 16.0021 20.4821 13.28 23.84 13.28C27.1979 13.28 29.92 16.0021 29.92 19.36V21.12L27.2 22L25.28 21.12V19.36C25.28 18.5647 24.6354 17.92 23.84 17.92C23.0446 17.92 22.4 18.5647 22.4 19.36V28.16C22.4 31.518 19.6779 34.24 16.32 34.24C12.9621 34.24 10.24 31.518 10.24 28.16V24.16H14.88V28C14.88 28.7954 15.5247 29.44 16.32 29.44C17.1154 29.44 17.76 28.7954 17.76 28V19.36ZM25.28 28.16V24.24L27.2 25.12L29.92 24.24V28.16C29.92 28.9554 30.5646 29.6 31.36 29.6C32.1554 29.6 32.8 28.9554 32.8 28.16V24.32H37.44V28.16C37.44 31.518 34.7179 34.24 31.36 34.24C28.0021 34.24 25.28 31.518 25.28 28.16Z" fill="white"/>
</svg>
