<svg width="48" height="48" viewBox="0 0 48 48" fill="none" xmlns="http://www.w3.org/2000/svg">
<path d="M24 48C37.2548 48 48 37.2548 48 24C48 10.7452 37.2548 0 24 0C10.7452 0 0 10.7452 0 24C0 37.2548 10.7452 48 24 48Z" fill="white"/>
<path fill-rule="evenodd" clip-rule="evenodd" d="M14.3527 16.8H14.4121C14.702 17.1326 15.016 17.4408 15.331 17.75L15.3311 17.75C15.5085 17.9241 15.6862 18.0986 15.8602 18.2778L19.1425 21.5601V21.6196C18.3506 22.4078 17.5606 23.1996 16.7705 23.9915C15.9751 24.7888 15.1797 25.5861 14.3824 26.3796C13.5841 25.5851 12.7876 24.7886 11.9912 23.9922C11.1947 23.1957 10.3983 22.3993 9.60001 21.6047C9.65572 21.4985 9.74571 21.4165 9.83497 21.3351L9.83498 21.335C9.87684 21.2969 9.91853 21.2588 9.95646 21.2185C10.5417 20.6274 11.1304 20.0398 11.719 19.4525L11.719 19.4524C12.6017 18.5715 13.4839 17.6911 14.3527 16.8ZM28.7899 21.4988C29.2513 21.0487 29.7058 20.5916 30.1603 20.1346C30.4788 19.8144 30.7972 19.4942 31.1179 19.1764C31.399 18.8926 31.682 18.6117 31.9649 18.331L31.9651 18.3307L31.9652 18.3306C32.4743 17.8253 32.983 17.3203 33.4794 16.8H33.5388C33.7279 17.0269 33.9379 17.2327 34.148 17.4384C34.2681 17.556 34.3881 17.6736 34.5042 17.7951L35.703 18.9938L38.1059 21.3968C38.1227 21.4156 38.1424 21.4339 38.1626 21.4526C38.214 21.5001 38.2682 21.5502 38.2841 21.6196C37.5044 22.3776 36.737 23.1496 35.9691 23.9221L35.969 23.9221L35.969 23.9221C35.1497 24.7462 34.3299 25.5709 33.4943 26.3796L28.9273 21.8126C28.9049 21.788 28.8805 21.7655 28.8564 21.7431L28.8563 21.7431C28.8322 21.7208 28.8084 21.6986 28.7869 21.6749C28.7665 21.6967 28.7444 21.7172 28.7223 21.7376C28.7061 21.7526 28.69 21.7676 28.6746 21.7829C27.9101 22.5439 27.1473 23.3066 26.3845 24.0694L26.3842 24.0697C25.6136 24.8403 24.8429 25.6109 24.0705 26.3796C23.3576 25.6767 22.6505 24.9678 21.9435 24.2589L21.9435 24.2589C21.0597 23.3728 20.1759 22.4867 19.2807 21.6121C20.1037 20.7538 20.9495 19.912 21.7952 19.0704L21.7952 19.0704C22.5518 18.3174 23.3083 17.5645 24.0482 16.8H24.1076C24.1523 16.8669 24.1967 16.9263 24.2561 16.9857C24.8714 17.595 25.4831 18.2079 26.095 18.821C26.9889 19.7166 27.8833 20.6126 28.7899 21.4988ZM20.8934 29.6224C20.3702 30.1447 19.8473 30.6668 19.3252 31.1888C19.3178 31.2037 19.3104 31.2223 19.303 31.2408C19.2955 31.2594 19.2881 31.2779 19.2807 31.2928C20.0922 32.0931 20.8953 32.8977 21.6994 33.7032C21.9622 33.9666 22.2252 34.23 22.4886 34.4934C22.7085 34.704 22.9233 34.9224 23.1382 35.1409C23.4387 35.4464 23.7396 35.7523 24.0556 36.038C24.2826 35.8377 24.5017 35.6133 24.7207 35.3889C24.867 35.239 25.0133 35.0891 25.162 34.9464C25.7367 34.3754 26.3115 33.8006 26.8863 33.2258C27.4552 32.657 28.024 32.0882 28.5928 31.523C28.6212 31.4895 28.6532 31.4595 28.6851 31.4297C28.7449 31.3737 28.804 31.3183 28.8379 31.2408C27.2487 29.6739 25.6744 28.0922 24.1 26.5104L24.0333 26.4807C22.9885 27.5305 21.9404 28.577 20.8934 29.6224Z" fill="black"/>
</svg>
