<svg width="48" height="48" viewBox="0 0 48 48" fill="none" xmlns="http://www.w3.org/2000/svg">
<path fill-rule="evenodd" clip-rule="evenodd" d="M19.5156 18.9001V17.0279C18.8658 16.9359 18.2106 16.8881 17.5543 16.885C9.52906 16.885 3 23.4152 3 31.4405C3 36.3634 5.46035 40.7212 9.21355 43.3564C6.70047 40.6688 5.30332 37.1262 5.30535 33.4468C5.30535 25.5358 11.6486 19.0848 19.5156 18.9001" fill="#00F2EA"/>
<path fill-rule="evenodd" clip-rule="evenodd" d="M19.8586 40.0934C23.4392 40.0934 26.3602 37.245 26.4932 33.6952L26.5053 2.00632H32.2945C32.1709 1.34468 32.1084 0.673085 32.1076 0H24.2011L24.1879 31.69C24.056 35.2387 21.1339 38.086 17.5544 38.086C16.4797 38.0864 15.4212 37.8246 14.4707 37.3231C15.0844 38.1793 15.8932 38.8772 16.8301 39.3589C17.767 39.8407 18.8051 40.0924 19.8586 40.0934V40.0934ZM43.1089 12.7624V11.0012C40.9813 11.0032 38.8994 10.3843 37.1185 9.22028C38.6799 11.0181 40.7822 12.2609 43.11 12.7624" fill="#00F2EA"/>
<path fill-rule="evenodd" clip-rule="evenodd" d="M37.118 9.21909C35.3727 7.22207 34.4114 4.65954 34.4125 2.00732H32.2941C32.5684 3.47326 33.1373 4.86827 33.9665 6.10789C34.7957 7.34751 35.8678 8.40594 37.118 9.21909V9.21909ZM17.5539 24.7925C15.7917 24.7946 14.1023 25.4955 12.8562 26.7416C11.6102 27.9876 10.9093 29.677 10.9072 31.4392C10.9084 32.6514 11.2408 33.8403 11.8686 34.8773C12.4964 35.9142 13.3956 36.7599 14.4691 37.323C13.6517 36.1958 13.2116 34.839 13.2115 33.4467C13.2132 31.6843 13.914 29.9946 15.1601 28.7483C16.4062 27.502 18.0958 26.8009 19.8582 26.7989C20.5431 26.7989 21.1994 26.9121 21.8194 27.1067V19.0341C21.1697 18.9421 20.5144 18.8943 19.8582 18.8912C19.7427 18.8912 19.6295 18.8978 19.5152 18.9V25.1004C18.8809 24.8985 18.2195 24.7947 17.5539 24.7925" fill="#FF004F"/>
<path fill-rule="evenodd" clip-rule="evenodd" d="M43.1092 12.7623V18.9077C39.0086 18.9077 35.2103 17.5962 32.1079 15.37V31.4393C32.1079 39.4645 25.58 45.9936 17.5547 45.9936C14.4534 45.9936 11.5775 45.0152 9.21387 43.3552C10.5728 44.8206 12.2197 45.9896 14.0515 46.7889C15.8833 47.5881 17.8604 48.0004 19.8589 47.9999C27.8842 47.9999 34.4133 41.4709 34.4133 33.4467V17.3774C37.6182 19.682 41.467 20.9197 45.4145 20.9151V13.0064C44.623 13.0064 43.8534 12.9206 43.1092 12.7612" fill="#FF004F"/>
<path fill-rule="evenodd" clip-rule="evenodd" d="M32.1079 31.4392V15.37C35.3127 17.6748 39.1616 18.9125 43.1092 18.9077V12.7623C40.7817 12.2603 38.6797 11.0171 37.1188 9.21909C35.8686 8.40594 34.7964 7.34751 33.9672 6.10789C33.1381 4.86827 32.5691 3.47326 32.2948 2.00732H26.5056L26.4935 33.6962C26.3605 37.2449 23.4395 40.0934 19.8589 40.0934C18.8054 40.0923 17.7673 39.8404 16.8304 39.3587C15.8936 38.877 15.0848 38.1792 14.471 37.323C13.3973 36.7601 12.4978 35.9145 11.8698 34.8775C11.2418 33.8405 10.9092 32.6516 10.908 31.4392C10.91 29.677 11.6109 27.9876 12.857 26.7416C14.103 25.4955 15.7925 24.7946 17.5547 24.7925C18.2385 24.7925 18.8948 24.9047 19.5159 25.1004V18.9C11.6489 19.0847 5.30566 25.5357 5.30566 33.4467C5.30566 37.2724 6.79199 40.7552 9.21387 43.3562C11.6554 45.075 14.5689 45.9962 17.5547 45.9936C25.58 45.9936 32.1079 39.4645 32.1079 31.4392" fill="white"/>
</svg>
