<svg width="48" height="48" viewBox="0 0 48 48" fill="none" xmlns="http://www.w3.org/2000/svg">
<path d="M0 24C0 10.7452 10.7452 0 24 0C37.2548 0 48 10.7452 48 24C48 37.2548 37.2548 48 24 48C10.7452 48 0 37.2548 0 24Z" fill="white"/>
<path d="M25.9311 9.77381L25.0023 13.3697C26.318 10.83 28.4077 8.91888 30.8071 7.23389C29.0528 9.22049 27.4533 11.2073 26.4729 13.1939C28.1241 10.9305 30.3428 9.67327 32.8452 8.84339C29.5171 11.7354 26.8754 14.8386 24.863 17.9569L23.2636 17.278C23.5472 14.7883 24.5121 12.2384 25.9311 9.77381V9.77381Z" fill="#ABCD03"/>
<path d="M21.6597 16.6169L24.7041 17.848C24.7041 18.6026 24.6411 20.904 25.1252 21.5829C30.1883 27.939 29.3365 40.6799 24.0995 41.0068C16.1247 41.0068 13.0833 35.726 13.0833 30.8725C13.0833 26.4465 18.5267 23.5042 21.7776 20.889C22.6031 20.1849 22.4597 18.6287 21.6597 16.6169V16.6169Z" fill="#FFFCDB"/>
<path d="M24.705 17.8036L25.8021 18.3492C25.699 19.0531 25.8537 20.6126 26.5758 21.0147C29.7751 22.951 32.7934 25.0634 33.9802 27.1758C38.2113 34.6195 31.0133 41.5098 24.7958 40.8559C28.1755 38.4165 29.1559 33.4123 27.8917 27.9552C27.3758 25.8176 26.5758 23.8813 25.1568 21.6934C24.5421 20.6195 24.7567 19.2876 24.705 17.8036Z" fill="#7D4698"/>
<path d="M24.1768 17.6199L26.447 17.9217C25.7762 20.0843 27.7629 21.5931 28.4078 21.9453C29.8526 22.725 31.2457 23.5296 32.3551 24.5103C34.445 26.3712 35.6316 28.9866 35.6316 31.7528C35.6316 34.4938 34.3416 37.1343 32.1745 38.8946C30.1365 40.5543 27.3245 41.2585 24.5897 41.2585C22.887 41.2585 21.3648 41.1831 19.7138 40.6549C15.9473 39.4227 13.1351 36.2793 12.9029 32.507C12.6965 29.5648 13.3673 27.3266 15.7151 24.988C16.9275 23.7557 19.3785 22.3475 21.0556 21.2158C21.8813 20.6625 22.7583 19.1033 21.0813 16.1612L21.4168 15.9097L23.9021 17.5322L21.8038 16.6893C21.9844 16.9408 22.4746 18.0725 22.5779 18.3993C22.8101 19.3297 22.707 20.2353 22.5005 20.6375C21.4428 22.4985 19.6369 23.0013 18.3212 24.0575C15.9992 25.9184 13.471 27.4021 13.7547 32.507C13.8837 35.0217 15.8961 38.0897 18.9144 39.5232C20.6171 40.328 22.5779 40.6549 24.5644 40.7554C26.3445 40.8309 29.75 39.7998 31.6075 38.291C33.5939 36.6817 34.7034 34.2423 34.7034 31.7528C34.7034 29.2379 33.6714 26.849 31.7365 25.164C30.6271 24.1833 28.7955 23.0013 27.6603 22.3725C26.5252 21.7439 25.1062 19.9836 25.5705 18.2988L24.1768 17.6199Z" fill="black"/>
<path d="M23.4803 21.3417C23.2482 22.4986 22.9901 24.5858 21.9581 25.3654C21.5195 25.667 21.0809 25.969 20.6166 26.2706C18.7591 27.503 16.9014 28.6595 16.0502 31.627C15.8696 32.2558 16.0245 32.9347 16.1794 33.5633C16.6438 35.3739 17.9595 37.3355 18.9914 38.4924C18.9914 38.5427 19.1979 38.6684 19.1979 38.7187C20.0493 39.6996 20.3073 39.9761 23.5321 40.6801L23.4546 41.0323C21.5197 40.5294 19.9203 40.0769 18.914 38.945C18.914 38.9199 18.7334 38.7437 18.7334 38.7437C17.6499 37.5366 16.334 35.5249 15.844 33.6388C15.6634 32.8843 15.5087 32.3061 15.7149 31.5263C16.592 28.4585 18.5012 27.2513 20.4362 25.9688C20.8748 25.6922 21.3907 25.4405 21.8034 25.1137C22.6031 24.5355 23.0415 22.775 23.4803 21.3417V21.3417Z" fill="black"/>
<path d="M24.3053 26.1196C24.3312 27.4273 24.2002 28.0833 24.5355 29.0139C24.7418 29.567 25.4389 30.3215 25.6453 31.0509C25.9291 32.0317 26.2381 33.113 26.212 33.7668C26.212 34.5214 26.1636 35.929 25.8283 37.438C25.5726 38.6847 24.9833 39.7546 23.9924 40.3611C22.9774 40.1573 21.7856 39.8096 21.0822 39.2217C19.7149 38.065 18.5039 36.1308 18.349 34.4458C18.2202 33.0628 19.5339 31.0231 21.3655 29.9921C22.9134 29.112 23.2734 28.1088 23.6087 26.4993C23.1444 27.9076 22.7083 29.0881 21.212 29.8425C19.045 30.9489 17.933 32.8063 18.0361 34.5666C18.1908 36.8298 19.1207 38.3634 20.9523 39.5958C21.7262 40.1239 23.1721 40.6819 24.0751 40.8329V40.7178C24.7598 40.5928 25.6464 39.4965 26.0881 38.0134C26.4751 36.6806 26.6277 34.9748 26.6016 33.8934C26.5758 33.2648 26.2913 31.9033 25.7752 30.6711C25.4915 29.9922 25.0556 29.3133 24.7717 28.8355C24.4624 28.3573 24.4602 27.3266 24.3053 26.1196Z" fill="black"/>
<path d="M24.1518 31.0509C24.1775 31.9311 24.5402 33.0588 24.6949 34.2157C24.8241 35.0708 24.768 35.9296 24.7422 36.6842C24.7167 37.5576 24.4181 39.1225 24.0102 39.8835C23.6254 39.7115 23.475 39.5154 23.225 39.1988C22.9156 38.7712 22.7054 38.3437 22.4989 37.8408C22.3442 37.4635 22.1634 37.0317 22.0857 36.5289C21.9826 35.7745 22.0115 34.5943 22.8886 33.3871C23.5593 32.4314 23.7131 32.3588 23.9452 31.2523C23.6354 32.233 23.4045 32.333 22.6819 33.1627C21.8823 34.0681 21.7492 35.4016 21.7492 36.4828C21.7492 36.9356 21.9345 37.438 22.1152 37.9156C22.3215 38.4187 22.4986 38.9195 22.7823 39.2966C23.2088 39.9081 23.7548 40.2558 24.022 40.3208C24.0237 40.3212 24.0261 40.3205 24.0279 40.3208C24.0336 40.3221 24.0401 40.3255 24.0456 40.3266V40.2978C24.5461 39.7538 24.8473 39.2134 24.9487 38.6694C25.0778 38.0155 25.1074 37.3603 25.1849 36.5806C25.2621 35.9268 25.2061 35.0461 25.0255 34.1409C24.7676 33.0092 24.3324 31.8554 24.1518 31.0509L24.1518 31.0509Z" fill="black"/>
<path d="M24.2284 20.2856C24.2543 21.5931 24.3574 24.0327 24.7186 24.9881C24.8217 25.315 25.7763 26.7485 26.4469 28.4835C26.9114 29.6907 27.0145 30.7972 27.092 31.124C27.4016 32.5575 27.0145 34.9716 26.4984 37.26C26.2406 38.4922 25.3633 40.0262 24.3572 40.6298L24.1509 40.9819C24.7186 40.9567 26.1116 39.6239 26.6018 37.9641C27.4274 35.1477 27.7627 33.8399 27.3759 30.7217C27.3243 30.4197 27.1953 29.3889 26.7051 28.2823C25.9827 26.5973 24.9508 24.988 24.8219 24.6609C24.5896 24.133 24.28 21.8446 24.2284 20.2856V20.2856Z" fill="black"/>
<path d="M24.7124 18.4971C24.6359 19.841 24.6154 20.3358 24.8733 21.3165C25.157 22.3979 26.6019 23.957 27.1953 25.7425C28.3304 29.1626 28.0467 33.6389 27.221 37.1342C26.9115 38.3663 25.4408 40.152 23.9703 40.7302L25.0539 40.9817C25.6472 40.9565 27.1692 39.5734 27.7627 37.9892C28.7171 35.4995 28.8978 32.5322 28.5108 29.4139C28.4849 29.1121 27.9688 26.4214 27.4788 25.2897C26.7821 23.6049 25.5437 22.096 25.4149 21.7693C25.1829 21.216 24.6731 20.0673 24.7124 18.4971Z" fill="black"/>
<rect x="23.8922" y="17.5514" width="0.8" height="23.2042" fill="black"/>
</svg>
