<svg width="48" height="48" viewBox="0 0 48 48" fill="none" xmlns="http://www.w3.org/2000/svg">
<path d="M24 48C37.2548 48 48 37.2548 48 24C48 10.7452 37.2548 0 24 0C10.7452 0 0 10.7452 0 24C0 37.2548 10.7452 48 24 48Z" fill="url(#paint0_linear)"/>
<path fill-rule="evenodd" clip-rule="evenodd" d="M9.6 14.4042C9.6 11.7509 11.7412 9.59998 14.4043 9.59998H33.5957C36.2491 9.59998 38.4 11.7411 38.4 14.4042V33.5957C38.4 36.249 36.2588 38.4 33.5957 38.4H14.4043C11.7509 38.4 9.6 36.2588 9.6 33.5957V14.4042ZM25.872 15.0728V24.2151C25.872 25.17 26.6455 25.944 27.5996 25.944H32.9284C33.8823 25.944 34.656 25.1699 34.656 24.2151V15.0728C34.656 14.1179 33.8825 13.344 32.9284 13.344H27.5996C26.6457 13.344 25.872 14.118 25.872 15.0728ZM13.344 31.4172V15.0708C13.344 14.1171 14.1177 13.344 15.0716 13.344H20.4004C21.3545 13.344 22.128 14.1171 22.128 15.0708V31.4172C22.128 32.3709 21.3543 33.144 20.4004 33.144H15.0716C14.1175 33.144 13.344 32.3708 13.344 31.4172Z" fill="white"/>
<defs>
<linearGradient id="paint0_linear" x1="0" y1="0" x2="0" y2="48" gradientUnits="userSpaceOnUse">
<stop stop-color="#0091E6"/>
<stop offset="1" stop-color="#0079BF"/>
</linearGradient>
</defs>
</svg>
