<svg width="48" height="48" viewBox="0 0 48 48" fill="none" xmlns="http://www.w3.org/2000/svg">
<rect x="0.0449982" y="0.03125" width="47.91" height="47.8132" rx="23.9066" fill="#314358"/>
<path d="M31.515 31.9225C30.9583 32.187 29.8937 32.4171 29.0998 32.4369C26.703 32.5007 26.2378 30.7598 26.2185 29.4978V20.2144H32.2307V15.6991H26.2393V8.10254C26.2393 8.10254 21.9253 8.10254 21.855 8.10254C21.7828 8.10254 21.6568 8.16548 21.639 8.32517C21.3825 10.6501 20.2905 14.7306 15.7485 16.3623V20.2142H18.7785V29.9575C18.7785 33.2938 21.249 38.0334 27.7708 37.9216C29.9713 37.884 32.4152 36.9666 32.9548 36.1745L31.515 31.9225" fill="white"/>
</svg>
