<svg width="48" height="48" viewBox="0 0 48 48" fill="none" xmlns="http://www.w3.org/2000/svg">
<path d="M24 48C37.2548 48 48 37.2548 48 24C48 10.7452 37.2548 0 24 0C10.7452 0 0 10.7452 0 24C0 37.2548 10.7452 48 24 48Z" fill="#DD4814"/>
<path fill-rule="evenodd" clip-rule="evenodd" d="M34.8004 11.8992C35.6571 10.4012 35.1496 8.48533 33.667 7.61996C32.1856 6.75517 30.2897 7.26866 29.433 8.76672C28.5775 10.2648 29.0855 12.1812 30.5675 13.046C32.0495 13.9119 33.946 13.3979 34.8004 11.8992ZM8.70011 27.1326C10.4117 27.1326 11.7991 25.7308 11.7991 24C11.7991 22.2699 10.4112 20.867 8.70011 20.867C6.98791 20.867 5.60001 22.2699 5.60001 24C5.60001 25.7302 6.98791 27.1326 8.70011 27.1326ZM33.667 40.3795C32.1839 41.2449 30.2897 40.7314 29.433 39.2334C28.5775 37.7353 29.0855 35.82 30.5675 34.9541C32.0495 34.0887 33.9449 34.6016 34.8004 36.1003C35.6571 37.5989 35.1479 39.5147 33.667 40.3795ZM33.1148 23.208C32.7191 18.6445 28.9296 15.0656 24.3106 15.0656C22.9811 15.0656 21.7191 15.363 20.5869 15.896L18.4047 11.9342C20.1855 11.0419 22.1908 10.5404 24.3106 10.5404C25.5216 10.5404 26.693 10.7043 27.8076 11.0098C28.0043 12.2826 28.747 13.458 29.9365 14.152C31.1248 14.8461 32.502 14.9091 33.6903 14.4455C35.9326 16.6943 37.3874 19.7448 37.6 23.1375L33.1148 23.208ZM15.4724 24C15.4724 20.977 16.9572 18.3052 19.2301 16.6885L16.9272 12.7978C14.2597 14.5985 12.2719 17.3459 11.434 20.5655C12.4261 21.3736 13.0611 22.6114 13.0611 24C13.0611 25.3886 12.4261 26.6265 11.434 27.4346C12.2725 30.6548 14.2597 33.4016 16.9272 35.2028L19.2301 31.3121C16.9572 29.6954 15.4724 27.0231 15.4724 24ZM20.5869 32.1053C21.7191 32.6371 22.9811 32.9351 24.3106 32.9351C28.9296 32.9351 32.7191 29.3556 33.1148 24.7915L37.6 24.8631C37.3874 28.2541 35.9326 31.3052 33.6903 33.5552C32.502 33.0921 31.1248 33.1546 29.9365 33.8486C28.747 34.5426 28.0043 35.7174 27.8076 36.9909C26.693 37.2969 25.5216 37.4602 24.3106 37.4602C22.1908 37.4602 20.1855 36.9593 18.4047 36.067L20.5869 32.1053Z" fill="white"/>
</svg>
