<svg width="48" height="48" viewBox="0 0 48 48" fill="none" xmlns="http://www.w3.org/2000/svg">
<path d="M17.325 5.87803C18.802 5.07403 21.195 5.07303 22.675 5.87803L35.325 12.758C36.802 13.562 38 15.575 38 17.252V30.758C38 32.436 36.805 34.446 35.325 35.251L22.675 42.131C21.198 42.935 18.805 42.937 17.325 42.131L4.675 35.251C3.198 34.447 2 32.434 2 30.758V17.252C2 15.574 3.195 13.564 4.675 12.758L17.325 5.87803Z" fill="white"/>
<path d="M37.498 22.21C42.1913 22.21 45.996 18.3574 45.996 13.605C45.996 8.85259 42.1913 5 37.498 5C32.8047 5 29 8.85259 29 13.605C29 18.3574 32.8047 22.21 37.498 22.21Z" fill="#2F8BE6"/>
<path fill-rule="evenodd" clip-rule="evenodd" d="M17.483 30C20.884 30 23.038 28.031 23.038 24.016V19.458C23.038 18.644 22.422 18 21.644 18C20.866 18 20.251 18.644 20.251 19.459V24.129C20.251 26.231 19.219 27.311 17.519 27.311C15.817 27.311 14.787 26.194 14.787 24.035V19.458C14.787 18.644 14.171 18 13.393 18C12.615 18 12 18.644 12 19.458V24.11C12 28.012 14.08 30 17.483 30ZM25.213 19.458V28.447C25.213 29.261 25.829 29.905 26.607 29.905C27.385 29.905 28 29.261 28 28.448V19.458C28 18.644 27.385 18 26.607 18C25.829 18 25.213 18.644 25.213 19.458Z" fill="#353535"/>
<path fill-rule="evenodd" clip-rule="evenodd" d="M37.5 17C36.065 17 35 16.222 35 15.036V15.016C35 14.19 35.361 13.704 36.046 13.374C35.546 13.053 35.222 12.615 35.222 11.886V11.866C35.222 10.827 36.13 10 37.5 10C38.87 10 39.778 10.817 39.778 11.867V11.887C39.778 12.615 39.454 13.053 38.954 13.374C39.611 13.734 40 14.171 40 14.978V14.998C40 16.26 38.935 17 37.5 17ZM37.5 12.878C38.065 12.878 38.426 12.528 38.426 12.051V12.031C38.426 11.614 38.083 11.235 37.5 11.235C36.917 11.235 36.574 11.605 36.574 12.022V12.042C36.574 12.518 36.935 12.878 37.5 12.878ZM38.62 14.919C38.62 15.395 38.204 15.765 37.5 15.765C36.796 15.765 36.38 15.386 36.38 14.92V14.9C36.38 14.375 36.852 14.064 37.5 14.064C38.148 14.064 38.62 14.375 38.62 14.9V14.919Z" fill="white"/>
</svg>
