<svg width="48" height="48" viewBox="0 0 48 48" fill="none" xmlns="http://www.w3.org/2000/svg">
<path d="M17.0572 11.958V21.7064C17.0572 23.2833 16.7663 24.4302 16.0391 25.147C15.4574 25.8638 14.2938 26.2938 12.8394 26.2938C11.385 26.2938 10.3669 26.0071 9.63971 25.2903C9.05794 24.5735 8.62162 23.4267 8.62162 21.7064V11.958H3.2403V21.7064C3.2403 24.5735 3.82206 26.7239 4.98559 28.3009C5.13103 28.4442 5.27647 28.7309 5.56735 28.8743C7.16721 30.4512 9.49427 31.168 12.8394 31.168C16.0391 31.168 18.5116 30.4512 19.966 28.8743C20.1115 28.7309 20.2569 28.4442 20.5478 28.3009C21.7113 26.7239 22.2931 24.5735 22.2931 21.7064V11.958H17.0572Z" fill="url(#paint0_linear)"/>
<path fill-rule="evenodd" clip-rule="evenodd" d="M25.7837 11.958V36.3289V36.4722H31.3104V31.3113V29.4477C31.3104 29.1404 31.2687 28.8331 31.2299 28.5478C31.1963 28.3008 31.165 28.0703 31.165 27.8707C31.8922 29.0176 32.7649 29.8778 33.7829 30.4512C34.801 31.0246 36.11 31.3113 37.5644 31.3113C40.0369 31.3113 42.0731 30.4512 43.5275 28.5875C45.1274 26.7239 45.8546 24.2868 45.8546 21.2763C45.8546 18.1224 44.9819 15.6853 43.5275 13.965C42.0731 12.2447 39.8915 11.3845 37.2735 11.3845C35.8191 11.3845 34.6556 11.6712 33.6375 12.2447C32.6194 12.8181 31.7468 13.6783 31.0196 14.9685V11.958H25.7837ZM32.1831 25.0036C31.3104 24.1434 30.8741 22.8532 30.8741 21.1329C30.8741 19.4126 31.165 18.1224 32.1831 17.1189C33.0557 16.1153 34.2193 15.6853 35.6737 15.6853C37.1281 15.6853 38.2916 16.1153 39.1643 17.1189C40.0369 18.1224 40.4732 19.4126 40.4732 21.1329C40.4732 22.7098 40.0369 24.0001 39.1643 25.0036C38.2916 26.0071 37.1281 26.4372 35.6737 26.4372C34.2193 26.4372 33.0557 26.0071 32.1831 25.0036Z" fill="url(#paint1_linear)"/>
<path d="M20.8387 36.1855C20.6932 36.0422 20.5478 35.7555 20.2569 35.6121C18.6571 34.0352 16.33 33.3184 12.9849 33.3184C9.78515 33.3184 7.31265 34.0352 5.85824 35.6121C5.7128 35.7555 5.56736 36.0422 5.27647 36.1855H20.8387Z" fill="#3A3A3A"/>
<defs>
<linearGradient id="paint0_linear" x1="8.61507" y1="47.7744" x2="53.7062" y2="30.9916" gradientUnits="userSpaceOnUse">
<stop stop-color="#6A11CB"/>
<stop offset="1" stop-color="#2575FC"/>
</linearGradient>
<linearGradient id="paint1_linear" x1="11.5137" y1="60.1807" x2="56.2965" y2="49.3356" gradientUnits="userSpaceOnUse">
<stop stop-color="#6A11CB"/>
<stop offset="1" stop-color="#2575FC"/>
</linearGradient>
</defs>
</svg>
