<svg width="48" height="48" viewBox="0 0 48 48" fill="none" xmlns="http://www.w3.org/2000/svg">
<path d="M24 48C37.2548 48 48 37.2548 48 24C48 10.7452 37.2548 0 24 0C10.7452 0 0 10.7452 0 24C0 37.2548 10.7452 48 24 48Z" fill="white"/>
<path d="M9.622 23.2346C9.9234 15.7332 17.0229 9.14265 24.5645 9.62488C32.5883 9.93298 39.5137 18.0506 37.9666 26.0744C36.6739 26.061 35.388 25.5854 34.6847 24.4401C32.8161 21.6204 31.9587 18.2783 30.2575 15.3648C29.0386 15.559 27.8263 15.7934 26.6207 16.0613C27.0828 19.3365 29.139 22.0759 29.8959 25.2573C29.5476 28.0368 26.0514 29.5974 23.6402 28.3047C21.6376 27.5345 20.8138 25.3979 20.1173 23.5493C19.4475 21.6204 18.6907 19.7183 17.6726 17.9434C16.1254 17.9099 14.5314 17.9568 13.1316 18.7069C14.3907 25.1568 17.9204 30.9034 19.3805 37.2997C13.5535 35.4377 9.25363 29.383 9.622 23.2346Z" fill="#00853E"/>
<path d="M27.9401 31.2517C29.4404 30.448 30.5589 29.1218 31.8382 28.0301C33.6399 28.4654 35.475 28.7266 37.3236 28.8472C35.2741 33.5557 30.9809 37.2059 25.8973 38.1838C24.531 36.1879 23.667 33.9173 22.9973 31.6066C24.6449 31.6 26.3595 31.8143 27.9401 31.2517Z" fill="#00853E"/>
</svg>
