<svg width="48" height="48" viewBox="0 0 48 48" fill="none" xmlns="http://www.w3.org/2000/svg">
<path d="M0 24C0 10.7452 10.7452 0 24 0C37.2548 0 48 10.7452 48 24C48 37.2548 37.2548 48 24 48C10.7452 48 0 37.2548 0 24Z" fill="#1A1919"/>
<path fill-rule="evenodd" clip-rule="evenodd" d="M28.1557 17.3007C27.8622 16.4409 26.563 12.8264 24.1676 8.80005C24.1676 8.80005 27.5676 11.0581 28.1532 17.2654C28.1532 17.2654 28.1542 17.2787 28.1557 17.3007ZM28.1557 17.3007C28.1988 17.4267 28.2205 17.4945 28.2205 17.4945C32.5893 29.1767 23.0659 35.1935 23.0659 35.1935C22.289 35.23 21.6 35.1015 21.6 35.1015C29.0899 32.2577 28.2095 18.0774 28.1557 17.3007ZM36.1249 9.45462C34.9087 12.0431 32.657 12.5239 32.657 12.5239C30.4049 13.0968 29.6166 13.9672 29.6166 13.9672C27.3649 16.2347 29.1387 18.9848 29.1387 18.9848C34.0005 17.8767 35.7779 13.8744 35.7779 13.8744C35.5618 16.563 29.7744 19.7395 29.7744 19.7395C31.6885 21.6174 33.5185 21.391 34.7263 20.671C36.3276 19.7163 37.0954 17.6254 37.0954 17.6254C38.647 12.9823 36.1249 9.45462 36.1249 9.45462Z" fill="#E2652C"/>
<path d="M30.2978 27.3091C30.2978 28.7394 29.9617 30.0728 29.2901 31.3091C28.6177 32.5454 27.7103 33.5001 26.5666 34.1729C25.4229 34.8455 24.1674 35.1818 22.7999 35.1818C21.4326 35.1818 20.1771 34.8455 19.0334 34.1729C17.8897 33.5001 16.9822 32.5454 16.3102 31.3091C15.6383 30.0728 15.302 28.7394 15.302 27.3091C15.302 25.0909 16.0391 23.1998 17.5127 21.6364C18.986 20.0726 20.7487 19.291 22.7999 19.291C23.7759 19.291 24.6864 19.472 25.5342 19.8297C25.6189 18.9238 25.9319 18.0806 26.2785 17.3922C25.2118 16.9989 24.056 16.8 22.8089 16.8C19.8433 16.8 17.3897 17.9091 15.4481 20.1273C13.6825 22.1395 12.8 24.5153 12.8 27.2547C12.8 30.0183 13.7326 32.4337 15.5977 34.5C17.463 36.5667 19.8665 37.6 22.8089 37.6C25.7389 37.6 28.137 36.5667 30.0021 34.5C31.8672 32.4337 32.8 30.0183 32.8 27.2547C32.8 25.7757 32.5427 24.4046 32.0326 23.1392C31.1762 23.6745 30.3624 23.9546 29.6885 24.0975C30.0935 25.0787 30.2978 26.1487 30.2978 27.3091" fill="#FFFFFE"/>
</svg>
