<svg width="48" height="48" viewBox="0 0 48 48" fill="none" xmlns="http://www.w3.org/2000/svg">
<path d="M24 48C37.2548 48 48 37.2548 48 24C48 10.7452 37.2548 0 24 0C10.7452 0 0 10.7452 0 24C0 37.2548 10.7452 48 24 48Z" fill="white"/>
<path fill-rule="evenodd" clip-rule="evenodd" d="M24.5053 23.0741C24.4889 24.3775 25.6575 25.1048 26.5379 25.5373C27.4424 25.981 27.7462 26.2655 27.7427 26.6622C27.7358 27.2695 27.0212 27.5375 26.3523 27.548C25.2169 27.5657 24.544 27.2483 24.0116 26.9971L23.9676 26.9763L23.5473 28.9592C24.0884 29.2106 25.0905 29.4299 26.1296 29.4395C28.5687 29.4395 30.1645 28.2257 30.1732 26.3438C30.1788 24.915 29.0049 24.2937 28.0655 23.7965C27.4346 23.4625 26.9095 23.1846 26.9185 22.7557C26.9263 22.432 27.2326 22.0866 27.9041 21.9987C28.2364 21.9544 29.1539 21.9204 30.1939 22.4033L30.6021 20.4849C30.0428 20.2795 29.3239 20.0829 28.4289 20.0829C26.1331 20.0829 24.5183 21.3131 24.5053 23.0741ZM34.5248 20.2482C34.0795 20.2482 33.704 20.5101 33.5366 20.9121L30.0523 29.2985H32.4897L32.9747 27.9473H35.9532L36.2346 29.2985H38.3828L36.5082 20.2482H34.5248ZM35.5691 26.0915L34.8657 22.6931L33.6427 26.0915H35.5691ZM21.5501 20.2482L19.6289 29.2985H21.9515L23.8718 20.2482H21.5501ZM15.6967 26.4082L18.1142 20.2482H20.5533L16.7902 29.2985H14.3356L12.4835 22.0762C12.3713 21.6316 12.2737 21.468 11.932 21.281C11.3736 20.9747 10.4518 20.6884 9.64049 20.511L9.69573 20.2482H13.6478C14.1509 20.2482 14.6041 20.5858 14.7189 21.1705L15.6967 26.4082Z" fill="url(#paint0_linear)"/>
<defs>
<linearGradient id="paint0_linear" x1="9.69059" y1="22.9607" x2="17.8148" y2="11.5188" gradientUnits="userSpaceOnUse">
<stop stop-color="#222357"/>
<stop offset="1" stop-color="#254AA5"/>
</linearGradient>
</defs>
</svg>
