<svg width="48" height="48" viewBox="0 0 48 48" fill="none" xmlns="http://www.w3.org/2000/svg">
<path fill-rule="evenodd" clip-rule="evenodd" d="M16.6323 0H31.3677C44.8158 0 48 3.18419 48 16.6323V31.3677C48 44.8158 44.8158 48 31.3677 48H16.6323C3.18419 48 0 44.8158 0 31.3677V16.6323C0 3.18419 3.18419 0 16.6323 0Z" fill="#4680C2"/>
<path fill-rule="evenodd" clip-rule="evenodd" d="M39.2322 15.3211C39.4693 14.5759 39.2322 14.0339 38.1821 14.0339H34.693C33.8123 14.0339 33.4058 14.5081 33.1687 15.0163C33.1687 15.0163 31.3733 19.3522 28.8666 22.1637C28.0536 22.9767 27.681 23.2477 27.2407 23.2477C27.0035 23.2477 26.6987 22.9767 26.6987 22.2315V15.2872C26.6987 14.4065 26.4277 14 25.6824 14H20.1948C19.6528 14 19.3141 14.4065 19.3141 14.813C19.3141 15.6599 20.5674 15.8631 20.7029 18.2343V23.3832C20.7029 24.5011 20.4997 24.7043 20.0593 24.7043C18.8737 24.7043 15.9944 20.3345 14.2668 15.355C13.928 14.3726 13.5893 14 12.7086 14H9.18559C8.16938 14 8 14.4743 8 14.9824C8 15.897 9.18559 20.5039 13.5215 26.6013C16.4009 30.7678 20.4997 33.0035 24.192 33.0035C26.4277 33.0035 26.6987 32.4954 26.6987 31.6486V28.4983C26.6987 27.482 26.9019 27.3127 27.6133 27.3127C28.1214 27.3127 29.036 27.5836 31.1023 29.5822C33.4735 31.9534 33.88 33.0374 35.2011 33.0374H38.6902C39.7064 33.0374 40.1807 32.5293 39.9097 31.5469C39.6048 30.5646 38.4531 29.1419 36.9626 27.4481C36.1496 26.4997 34.9301 25.4496 34.5575 24.9414C34.0494 24.264 34.1849 23.993 34.5575 23.3832C34.5237 23.3832 38.7918 17.3536 39.2322 15.3211Z" fill="white"/>
</svg>
