<svg width="48" height="48" viewBox="0 0 48 48" fill="none" xmlns="http://www.w3.org/2000/svg">
<path d="M0 24C0 10.7452 10.7452 0 24 0C37.2548 0 48 10.7452 48 24C48 37.2548 37.2548 48 24 48C10.7452 48 0 37.2548 0 24Z" fill="#45B035"/>
<path fill-rule="evenodd" clip-rule="evenodd" d="M30.7232 19.296C30.564 19.2872 30.404 19.2856 30.2424 19.2856C24.4952 19.2856 19.8328 23.1912 19.8328 28.0112C19.8328 28.8 19.9616 29.564 20.196 30.2912C19.9416 30.304 19.6856 30.3144 19.428 30.3144C18.1648 30.3144 16.9472 30.1432 15.812 29.8272C15.7472 29.808 15.6176 29.7712 15.6176 29.7712L11.4864 31.8752L12.5904 28.4168L12.4856 28.3504C9.7584 26.604 8 23.8528 8 20.7576C8 15.4792 13.116 11.2 19.428 11.2C25.1448 11.2 29.8816 14.7096 30.7232 19.296ZM15.4512 19.02C14.5648 19.02 13.8464 18.3232 13.8464 17.4656C13.8464 16.6072 14.5648 15.9128 15.4512 15.9128C16.3376 15.9128 17.0576 16.6072 17.0576 17.4656C17.0576 18.3232 16.3376 19.02 15.4512 19.02ZM23.4048 15.9128C24.2912 15.9128 25.0088 16.6072 25.0088 17.4656C25.0088 18.3232 24.2912 19.02 23.4048 19.02C22.5176 19.02 21.8008 18.3232 21.8008 17.4656C21.8008 16.6072 22.5176 15.9128 23.4048 15.9128Z" fill="white"/>
<path fill-rule="evenodd" clip-rule="evenodd" d="M30.3297 36.1425C24.9969 36.1425 20.6729 32.5273 20.6729 28.0673C20.6729 23.6089 24.9969 19.9937 30.3297 19.9937C35.6601 19.9937 39.9825 23.6089 39.9825 28.0673C39.9825 30.6833 38.4961 33.0073 36.1929 34.4825L36.1041 34.5377L37.0369 37.4609L33.5481 35.6817C33.5481 35.6817 33.4385 35.7145 33.3833 35.7289C32.4249 35.9969 31.3961 36.1425 30.3297 36.1425ZM25.6129 25.2857C25.6129 24.5625 26.2209 23.9745 26.9689 23.9745C27.7185 23.9745 28.3257 24.5625 28.3257 25.2857C28.3257 26.0121 27.7185 26.6009 26.9689 26.6009C26.2209 26.6009 25.6129 26.0121 25.6129 25.2857ZM32.3321 25.2857C32.3321 24.5625 32.9385 23.9745 33.6873 23.9745C34.4369 23.9745 35.0433 24.5625 35.0433 25.2857C35.0433 26.0121 34.4369 26.6009 33.6873 26.6009C32.9385 26.6009 32.3321 26.0121 32.3321 25.2857Z" fill="white"/>
</svg>
