<svg width="48" height="48" viewBox="0 0 48 48" fill="none" xmlns="http://www.w3.org/2000/svg">
<path d="M24 48C37.2548 48 48 37.2548 48 24C48 10.7452 37.2548 0 24 0C10.7452 0 0 10.7452 0 24C0 37.2548 10.7452 48 24 48Z" fill="white"/>
<path d="M12 28.4C12 31.7141 16.2993 34.4 21.6 34.4C26.9007 34.4 31.2 31.7141 31.2 28.4C31.2 25.0858 26.9007 22.4 21.6 22.4C16.2993 22.4 12 25.0858 12 28.4" fill="white"/>
<path fill-rule="evenodd" clip-rule="evenodd" d="M30.9458 23.9201L30.9558 23.9232C32.5877 24.4348 34.4039 25.6722 34.4 27.8536C34.4 31.4588 29.2572 36 21.5253 36C15.6294 36 9.60001 33.1087 9.60001 28.3573C9.60001 25.8705 11.1574 22.9951 13.8366 20.2863C17.4182 16.6652 21.596 15.0153 23.1651 16.6057C23.8555 17.3077 23.9222 18.5174 23.4789 19.965C23.2435 20.6908 24.1536 20.2902 24.1536 20.2902C27.0487 19.0647 29.5749 18.9933 30.4968 20.3259C30.9911 21.0398 30.944 22.0353 30.489 23.1895C30.2828 23.7165 30.5511 23.7989 30.9458 23.9201ZM12.4676 29.4916C12.7736 32.6129 16.8376 34.7665 21.545 34.2946C26.2484 33.8266 29.8182 30.9115 29.5083 27.7862C29.2062 24.6649 25.1422 22.5113 20.4348 22.9832C15.7314 23.4552 12.1616 26.3663 12.4676 29.4916Z" fill="#E6162D"/>
<path d="M36.3756 15.2385C34.4263 13.2052 31.5514 12.4312 28.8977 12.9626V12.9626C28.2834 13.0859 27.8943 13.6558 28.0254 14.2296C28.1564 14.8072 28.7584 15.173 29.3727 15.0498C31.2606 14.6724 33.3042 15.2231 34.6884 16.6671C36.0725 18.1112 36.4493 20.079 35.8555 21.8042V21.8042C35.663 22.3664 35.9906 22.9671 36.5885 23.1481C37.1865 23.3291 37.8253 23.021 38.0178 22.4627V22.4588C38.8532 20.0366 38.3249 17.2679 36.3756 15.2385" fill="#FF9933"/>
<path d="M33.379 18.043C32.3937 17.0056 30.9412 16.6101 29.6033 16.8846C29.0554 16.9935 28.7072 17.5102 28.8219 18.0309C28.9408 18.5516 29.4802 18.8825 30.0238 18.7695V18.7695C30.6778 18.6363 31.3914 18.8301 31.8713 19.3346C32.3512 19.8432 32.4829 20.5334 32.2748 21.1388V21.1388C32.1049 21.6434 32.3937 22.1883 32.9288 22.3538C33.464 22.5152 34.0331 22.2408 34.2072 21.7322C34.6277 20.493 34.3643 19.0803 33.379 18.043" fill="#FF9933"/>
<path fill-rule="evenodd" clip-rule="evenodd" d="M16.4149 28.3052C17.4509 26.2998 20.1453 25.1636 22.5305 25.7576C24.9993 26.3676 26.2609 28.5883 25.25 30.7492C24.2265 32.9539 21.2857 34.134 18.7876 33.3645C16.3815 32.623 15.3581 30.3505 16.4149 28.3052ZM22.3091 29.0268C22.1337 29.3139 21.7452 29.4494 21.4444 29.3298C21.1437 29.2142 21.0518 28.8913 21.223 28.6122C21.3985 28.3331 21.7703 28.1976 22.0668 28.3092C22.3676 28.4129 22.4762 28.7358 22.3091 29.0268ZM20.7092 30.9804C20.2246 31.718 19.1845 32.0409 18.4033 31.702C17.6347 31.3671 17.405 30.5099 17.8895 29.7883C18.3699 29.0707 19.3725 28.7517 20.1495 29.0627C20.9348 29.3856 21.1854 30.2349 20.7092 30.9804Z" fill="black"/>
</svg>
