<svg width="48" height="48" viewBox="0 0 48 48" fill="none" xmlns="http://www.w3.org/2000/svg">
<path d="M0 24C0 10.7452 10.7452 0 24 0C37.2548 0 48 10.7452 48 24C48 37.2548 37.2548 48 24 48C10.7452 48 0 37.2548 0 24Z" fill="white"/>
<path d="M12 24.1823C12 29.0279 14.9383 33.216 19.2 35.2L13.1062 19.2C12.3974 20.7225 12 22.4074 12 24.1823" fill="#3E3D3A"/>
<path d="M31.9974 23.764C31.9974 22.2324 31.4566 21.1724 30.9933 20.3472C30.376 19.3262 29.7969 18.4626 29.7969 17.4416C29.7969 16.3029 30.6458 15.2428 31.8422 15.2428C31.8962 15.2428 31.9474 15.2494 32 15.2527C29.8332 13.2332 26.9464 12 23.7757 12C19.5207 12 15.7777 14.2209 13.6 17.584C13.8859 17.5934 14.1553 17.599 14.3838 17.599C15.6574 17.599 17.6297 17.4416 17.6297 17.4416C18.2859 17.4025 18.3635 18.3835 17.7077 18.4626C17.7077 18.4626 17.0476 18.541 16.3138 18.5802L20.7486 32L23.4142 23.8689L21.5169 18.5802C20.8607 18.541 20.2394 18.4626 20.2394 18.4626C19.583 18.4231 19.66 17.4025 20.3167 17.4416C20.3167 17.4416 22.3277 17.599 23.5243 17.599C24.7976 17.599 26.7703 17.4416 26.7703 17.4416C27.4269 17.4025 27.5043 18.3835 26.848 18.4626C26.848 18.4626 26.1874 18.541 25.4543 18.5802L29.8557 31.8978L31.0707 27.769C31.5965 26.0546 31.9974 24.8242 31.9974 23.764" fill="#3E3D3A"/>
<path d="M24.3153 24.8L20.8 35.4999C21.8498 35.8233 22.9598 36 24.1096 36C25.4738 36 26.7823 35.7533 28 35.3043C27.9688 35.2516 27.9397 35.1958 27.916 35.1352L24.3153 24.8Z" fill="#3E3D3A"/>
<path d="M35.2236 18.4C35.2789 18.7981 35.3101 19.2252 35.3101 19.6853C35.3101 20.9532 35.0656 22.379 34.3313 24.1621L30.4 35.2C34.2266 33.0335 36.8 29.0076 36.8 24.3963C36.8 22.2232 36.2283 20.1802 35.2236 18.4" fill="#3E3D3A"/>
<path fill-rule="evenodd" clip-rule="evenodd" d="M9.59998 23.9996C9.59998 16.0595 16.0596 9.59998 23.9998 9.59998C31.94 9.59998 38.4 16.0595 38.4 23.9996C38.4 31.9401 31.94 38.4 23.9998 38.4C16.0596 38.4 9.59998 31.9401 9.59998 23.9996ZM10.2603 23.9996C10.2603 31.5756 16.424 37.7397 23.9998 37.7397C31.5757 37.7397 37.7395 31.5756 37.7395 23.9996C37.7395 16.4237 31.5757 10.2604 23.9998 10.2604C16.424 10.2604 10.2603 16.4237 10.2603 23.9996Z" fill="#3E3D3A"/>
</svg>
