<svg width="48" height="48" viewBox="0 0 48 48" fill="none" xmlns="http://www.w3.org/2000/svg">
<path d="M0 24C0 10.7452 10.7452 0 24 0C37.2548 0 48 10.7452 48 24C48 37.2548 37.2548 48 24 48C10.7452 48 0 37.2548 0 24Z" fill="black"/>
<path d="M24 37.6C31.9529 37.6 38.4 31.1529 38.4 23.2C38.4 15.2471 31.9529 8.79999 24 8.79999C16.0471 8.79999 9.6 15.2471 9.6 23.2C9.6 31.1529 16.0471 37.6 24 37.6Z" fill="white"/>
<path d="M21.0565 38.1687C19.2081 37.0554 18.0282 34.608 17.514 32.6054C17.0299 30.7267 16.8061 28.3277 16.8726 25.1059C14.3375 22.8218 12.1109 20.565 11.158 18.4322C10.2444 16.3842 10.6921 13.5889 12.5405 12.1761C13.2333 11.6467 14.1802 11.2958 15.478 11.2927C15.3267 14.2242 17.4595 16.1361 20.2881 18.5048C22.1425 16.5112 24.481 14.5448 26.8316 13.1835C28.6649 12.1217 30.4679 11.4319 32.0017 11.2685C33.605 11.0961 35.2417 11.6104 36.2945 12.881C36.9782 13.7069 37.3503 14.8867 36.8118 16.5203C35.4867 16.7079 34.3432 17.0013 33.3419 17.3734C31.796 17.9512 30.7341 18.8709 29.6239 19.7603C27.5909 21.3909 25.8756 23.0427 24.4447 24.7338C24.3903 27.4564 24.4054 31.2198 25.1556 33.8669C25.5671 35.319 26.3294 36.4958 27.7694 37.1492C25.5066 39.4665 22.8413 39.2427 21.0565 38.1687Z" fill="#EC1A23"/>
</svg>
