<svg width="48" height="48" viewBox="0 0 48 48" fill="none" xmlns="http://www.w3.org/2000/svg">
<path d="M0 24C0 10.7452 10.7452 0 24 0C37.2548 0 48 10.7452 48 24C48 37.2548 37.2548 48 24 48C10.7452 48 0 37.2548 0 24Z" fill="#BF2519"/>
<path d="M13.5821 23.4438C13.0949 24.2247 12.8892 26.6836 13.0584 28.3156C13.1179 28.8542 13.2154 29.3035 13.3574 29.5715C13.5523 29.9423 13.8798 30.1629 14.2533 30.1764C14.4929 30.1886 14.6417 30.148 19.1454 28.7C19.1454 28.7 21.1469 28.0612 21.1551 28.0572C21.6544 27.93 21.99 27.4712 22.0225 26.8852C22.055 26.2844 21.7451 25.7539 21.2335 25.5617C21.2335 25.5617 19.8221 24.9866 19.8194 24.9866C14.98 22.9905 14.7622 22.912 14.5186 22.9093C14.1451 22.8944 13.8135 23.0825 13.5821 23.4438Z" fill="white"/>
<path d="M24.408 38.3164C24.4865 38.089 24.4959 37.9334 24.5095 33.2023C24.5095 33.2023 24.5203 31.1115 24.5216 31.0912C24.5541 30.5783 24.2226 30.1114 23.6799 29.903C23.121 29.6879 22.5188 29.8205 22.1805 30.2413C22.1805 30.2413 21.1926 31.4133 21.1899 31.4133C17.7999 35.396 17.6578 35.58 17.5752 35.8155C17.5252 35.9535 17.5049 36.1024 17.5211 36.2499C17.5414 36.461 17.6375 36.6694 17.7958 36.8643C18.5821 37.7981 22.3523 39.1852 23.5568 38.9795C23.9749 38.9037 24.2794 38.6682 24.408 38.3164Z" fill="white"/>
<path d="M32.0567 36.6693C33.1934 36.216 35.6727 33.0615 35.8472 31.8476C35.9081 31.4254 35.7755 31.0613 35.4846 30.8286C35.2937 30.6851 35.1489 30.6296 30.6479 29.1518C30.6479 29.1518 28.6735 28.4996 28.6478 28.4874C28.1701 28.302 27.6247 28.4738 27.258 28.9258C26.8763 29.39 26.8195 30.0031 27.124 30.4659L27.9184 31.7596C30.5897 36.0982 30.7941 36.4054 30.9862 36.5556C31.284 36.7898 31.6629 36.8277 32.0567 36.6693Z" fill="white"/>
<path d="M29.7307 25.4993C34.8461 24.2597 35.0437 24.1948 35.2453 24.0621C35.5552 23.8537 35.7108 23.5046 35.6838 23.0797C35.6838 23.0661 35.6865 23.0512 35.6838 23.0364C35.5525 21.7805 33.3521 18.5137 32.2681 17.9832C31.8838 17.7992 31.4994 17.8113 31.18 18.0252C30.9825 18.1537 30.8377 18.3486 28.0986 22.0945C28.0986 22.0945 26.8617 23.7793 26.8468 23.7955C26.5207 24.1921 26.5153 24.7604 26.8347 25.2476C27.1649 25.7524 27.7224 25.9987 28.234 25.8566C28.234 25.8566 28.2137 25.8931 28.2082 25.8999C28.4599 25.8052 28.9106 25.6942 29.7307 25.4993Z" fill="white"/>
<path d="M24.5961 21.2759C24.5082 19.2487 23.8978 10.2223 23.8261 9.80416C23.7233 9.42524 23.4269 9.15459 23.002 9.04768C21.696 8.72424 16.7051 10.1222 15.7808 11.0762C15.4831 11.3861 15.3735 11.7677 15.4628 12.1061C15.609 12.4051 21.7921 22.1339 21.7921 22.1339C22.7056 23.6157 23.4512 23.3857 23.6962 23.3085C23.9384 23.2341 24.68 23.004 24.5961 21.2759Z" fill="white"/>
</svg>
