<svg width="48" height="48" viewBox="0 0 48 48" fill="none" xmlns="http://www.w3.org/2000/svg">
<path d="M0 24C0 10.7452 10.7452 0 24 0C37.2548 0 48 10.7452 48 24C48 37.2548 37.2548 48 24 48C10.7452 48 0 37.2548 0 24Z" fill="#9DBC7A"/>
<path d="M13.8495 27.9639C13.6383 28.2044 13.6037 28.5968 13.6037 28.5968V30.8898C13.6037 30.9173 13.6012 31.0861 13.6 31.267C13.674 31.6516 13.8514 31.7292 13.9531 31.7419H14.8472C17.0683 31.7419 18.9617 31.8002 21.0138 32.8173C22.5902 33.5981 23.8928 34.8485 25.4284 35.7183C26.8844 36.5427 28.5467 37.4078 30.2519 37.6022C33.6844 37.993 35.0639 33.9958 34.4927 31.4037C32.9636 32.5909 30.8306 32.5604 28.8759 32.0446C27.036 31.4532 24.1087 29.6176 24.1087 29.6176V29.6186C22.7961 28.8282 21.254 28.1754 19.7059 28.243C19.7059 27.569 19.7261 27.5435 20.1511 27.0679C20.736 26.4158 21.3205 25.7627 21.9054 25.11C23.745 23.0554 25.5852 21.0019 27.4248 18.9477C28.9907 17.1996 30.5562 15.4518 32.1217 13.7034C32.2716 13.5365 32.8239 13.1067 32.8516 12.876C32.9468 12.0821 33.042 11.2883 33.1375 10.4944C33.204 9.94413 32.6111 10.0762 32.6111 10.0762L32.6101 10.0734C30.0708 10.5707 27.4619 10.8302 24.8737 10.7159C23.4339 10.6526 21.9185 10.5203 20.5667 10.0024C20.5179 9.98368 20.2316 9.84292 19.9632 9.70121C19.574 9.50688 19.3126 9.63239 19.1745 9.74513C19.0653 9.87624 18.9499 10.0024 18.8469 10.1372C18.1665 11.0317 17.5337 12.0827 17.4183 13.2055C17.3921 13.4558 17.3601 13.984 17.5029 14.302L17.502 14.3023C17.502 14.3023 17.5175 14.3409 17.5604 14.4026C17.5679 14.4123 17.5735 14.4232 17.5813 14.4319C17.9052 14.8629 19.3969 16.16 25.2222 15.0351C21.4316 19.3447 17.6407 23.6537 13.8501 27.963C13.8495 27.9633 13.8495 27.9633 13.8495 27.9639" fill="white"/>
</svg>
